<svg width="81" height="44" viewBox="0 0 81 44" fill="none" xmlns="http://www.w3.org/2000/svg">
<g clip-path="url(#clip0_237_5815)">
<path d="M16.5904 10.0547C13.676 18.1664 10.7617 26.3267 8.81873 34.8755C10.3245 35.3613 11.8788 35.7013 13.4817 35.7499C14.0646 33.6612 14.6961 31.5726 15.279 29.4839C15.279 29.4839 15.1818 29.4353 15.0847 29.3868C16.299 29.6296 17.3676 30.2611 18.2905 31.0868C19.2134 31.9126 19.942 32.8355 20.8163 33.9527C20.7191 35.1184 21.5935 36.2842 22.7107 36.6727C23.8278 37.0613 25.0907 36.8185 26.1593 36.1384C26.0622 36.6728 26.0622 37.2071 26.1593 37.6928C26.2079 37.9356 26.2565 38.1299 26.3536 38.3242C26.5965 38.7614 26.9851 39.0528 27.4222 39.2957C28.1508 39.6843 29.0252 39.7814 29.8995 39.6357C29.8023 40.6072 30.5309 41.5786 31.5024 41.9187C32.4253 42.2587 33.4939 42.1129 34.4654 41.7244C34.6111 42.0644 34.7568 42.4044 35.0482 42.6473C35.3397 42.9387 35.7768 43.0358 36.214 43.0844C37.234 43.1816 38.2541 42.9387 39.177 42.3558C40.197 42.8901 41.5085 42.9387 42.5285 42.4044C42.8199 42.2587 43.0628 42.1129 43.2571 41.8701C43.6943 41.4329 43.8885 40.8015 43.8885 40.17C43.9371 39.5386 43.84 38.9557 43.7914 38.3242C44.3257 38.9071 44.86 39.5386 45.54 39.9272C46.2201 40.3643 47.0458 40.5586 47.823 40.3643C48.4544 40.17 48.9887 39.7329 49.3287 39.1986C49.6688 38.6642 49.863 37.9842 49.9116 37.2556C50.1545 37.6928 50.4459 38.0814 50.7374 38.47C51.0288 38.81 51.3202 39.1986 51.7088 39.4414C52.0974 39.6843 52.5346 39.8786 53.0203 39.83C53.7489 39.7329 54.2832 39.1986 54.5746 38.5185C54.8661 37.8871 54.9147 37.1585 54.9632 36.4299C54.9632 36.0413 55.0118 35.6041 55.0118 35.167C55.4004 35.847 55.7404 36.5756 56.2747 37.2071C56.7604 37.8385 57.3919 38.3728 58.1691 38.6157C58.3633 38.6642 58.5576 38.7128 58.7519 38.7614C59.0434 38.8585 59.432 38.9071 59.6748 38.7128C59.8691 38.5671 59.9663 38.2757 60.0148 38.0328C60.0634 37.7899 60.0148 37.4985 60.1606 37.2556C63.0264 36.187 65.795 34.9727 68.5151 33.7098C68.8066 34.7298 69.098 35.7013 69.4866 36.6727C71.5267 36.187 73.4696 35.4584 75.3154 34.5355C76.9183 33.9041 78.5212 33.2241 79.9298 32.3497C79.687 24.2866 78.3269 16.1263 74.6354 8.98605C74.3925 8.54889 74.1496 8.06316 73.8096 7.72314C69.778 9.13177 65.8436 10.8318 62.0549 12.8233C62.1521 13.0176 62.2492 13.2119 62.2492 13.4548C58.3148 13.7462 54.5261 12.4347 50.7859 11.1233C49.6202 10.6861 48.4059 10.2975 47.1915 10.2004C46.0743 10.1032 45.0057 10.2975 43.7428 10.4432C42.4314 9.66607 40.9742 9.13177 39.4684 8.74318C38.5941 8.50032 37.6712 8.25745 36.7483 8.30602C35.9226 8.30602 35.0482 8.50032 34.2711 8.74318C29.8995 10.0061 25.7708 12.3862 21.2535 12.8233C21.302 12.5319 21.302 12.1919 21.3506 11.9004C21.3506 11.7547 21.3992 11.5604 21.302 11.4147C19.5534 10.8318 18.0962 10.2489 16.5904 10.0547Z" fill="white"/>
<path d="M77.5497 32.2527L73.4696 30.7469C73.421 30.7469 73.3724 30.6497 73.421 30.6012C73.421 30.5526 73.5181 30.504 73.5667 30.5526L77.5983 32.0584C77.6469 32.0584 77.6954 32.1555 77.6469 32.2041C77.6469 32.2041 77.5983 32.2527 77.5497 32.2527Z" fill="black"/>
<path d="M78.9098 30.7468C76.6754 29.9696 74.4896 29.0953 72.3524 28.1238C72.3038 28.0753 72.2552 28.0267 72.3038 27.9781C72.3524 27.9295 72.401 27.881 72.4495 27.9295C74.5382 28.9496 76.724 29.8239 78.9098 30.5525C78.9583 30.5525 79.0069 30.6496 79.0069 30.6982C79.0069 30.6982 78.9583 30.7468 78.9098 30.7468Z" fill="black"/>
<path d="M79.2498 28.3668C76.7726 27.541 74.2953 26.6181 71.9153 25.6467C71.8667 25.5981 71.8181 25.5495 71.8667 25.5009C71.9152 25.4524 71.9638 25.4038 72.0124 25.4524C74.3925 26.4724 76.8211 27.3467 79.2984 28.1725C79.3469 28.1725 79.3955 28.2696 79.3955 28.3182C79.3469 28.3182 79.2984 28.3668 79.2498 28.3668Z" fill="black"/>
<path d="M79.2497 26.0838C76.3353 25.0152 74.1496 24.0923 71.0894 22.7808C71.0409 22.7322 70.9923 22.6837 71.0409 22.6351C71.0894 22.5865 71.138 22.538 71.1866 22.5865C74.2467 23.8494 76.4325 24.7723 79.2983 25.8895C79.3469 25.8895 79.3955 25.9866 79.3469 26.0352C79.3469 26.0838 79.2983 26.0838 79.2497 26.0838Z" fill="black"/>
<path d="M78.5698 23.5094C78.5212 23.5094 78.5212 23.5094 78.5698 23.5094L70.3123 20.1579C70.2638 20.1093 70.2152 20.0607 70.2638 20.0122C70.3123 19.9636 70.3609 19.915 70.4095 19.9636L78.6184 23.3151C78.6669 23.3637 78.7155 23.4123 78.6669 23.4609C78.6669 23.5094 78.6184 23.5094 78.5698 23.5094Z" fill="black"/>
<path d="M78.2782 21.0807H78.2297L69.3408 17.1463C69.2922 17.0977 69.2436 17.0492 69.2922 17.0006C69.3408 16.952 69.3894 16.9034 69.4379 16.952L78.3268 20.8864C78.3754 20.935 78.424 20.9836 78.3754 21.0321C78.3754 21.0321 78.3268 21.0807 78.2782 21.0807Z" fill="black"/>
<path d="M77.404 17.9721H77.3554L68.3694 13.9405C68.3208 13.8919 68.2722 13.8433 68.3208 13.7948C68.3694 13.7462 68.4179 13.6976 68.4665 13.7462L77.4525 17.7778C77.5011 17.8263 77.5497 17.8749 77.5011 17.9235C77.5011 17.9721 77.4525 17.9721 77.404 17.9721Z" fill="black"/>
<path d="M75.4125 13.9406C75.364 13.9406 75.364 13.9406 75.4125 13.9406C73.1296 13.0662 70.8466 12.2405 68.6123 11.4633C68.5637 11.4633 68.5151 11.3662 68.5151 11.3176C68.5151 11.269 68.6123 11.2205 68.6609 11.2205C70.9438 11.9976 73.1782 12.8234 75.4125 13.6977C75.4611 13.7463 75.5097 13.7948 75.4611 13.8434C75.5097 13.9406 75.4611 13.9406 75.4125 13.9406Z" fill="black"/>
<path d="M75.2182 11.1233C75.2182 11.1233 75.1697 11.1233 75.2182 11.1233L71.9638 9.76324C71.9153 9.71467 71.8667 9.66609 71.9153 9.61752C71.9638 9.56895 72.0124 9.52037 72.061 9.56895L75.2668 10.929C75.3154 10.9776 75.364 11.0261 75.3154 11.0747C75.3154 11.0747 75.2668 11.1233 75.2182 11.1233Z" fill="black"/>
<path d="M7.26432 7.09167C10.4216 8.16028 13.6274 9.13175 16.6875 10.0546C16.2018 12.1433 14.8903 13.9891 14.016 15.9806C13.5788 17.0492 13.2388 18.1178 12.8988 19.235C11.3445 24.3837 9.8387 29.5811 8.3815 34.7784C5.56426 33.8069 3.37847 33.3212 0.318359 32.7869C3.1356 24.0923 5.66141 15.7377 7.26432 7.09167Z" fill="#FFA947"/>
<g opacity="0.1294">
<path d="M67.1065 32.7383C66.6208 32.884 66.135 33.0783 65.6493 33.2726C65.5522 33.2726 65.455 33.2726 65.3093 33.3212C65.0664 33.3697 64.8236 33.4669 64.6293 33.564C64.3864 33.6612 64.1435 33.7097 63.9007 33.8555C63.8035 33.904 63.5121 34.0012 63.4149 34.0498C63.3664 34.0498 63.3664 34.0498 63.3178 34.0983C63.2692 34.0983 63.1721 34.1469 63.1235 34.1469C63.0749 34.1469 63.0264 34.1469 62.9778 34.1469C62.9292 34.1469 62.8806 34.1469 62.8321 34.0983C62.7349 34.0012 62.6378 33.904 62.5406 33.8069C62.4435 33.6612 62.5406 33.8069 62.5892 33.904C62.4921 33.8069 62.4435 33.7097 62.3463 33.6126C62.2978 33.564 62.2978 33.564 62.2978 33.5155C62.2006 33.4183 62.152 33.2726 62.0549 33.1754C61.7635 32.6897 61.472 32.204 61.1806 31.6697C60.6463 30.6011 60.112 29.4839 59.5291 28.4153C59.1891 27.6867 58.8976 26.9581 58.4605 26.2781C57.2461 24.3837 56.0318 22.9265 54.186 21.275C53.0203 20.1093 51.6602 19.0892 50.2516 18.2635C49.2801 17.7292 48.2601 17.1949 47.1429 17.0977C46.3658 16.9034 46.1715 18.0692 46.9972 18.1663C47.7258 18.2149 48.5516 18.5549 49.3773 19.0407C49.2801 19.2349 49.3287 19.4778 49.523 19.6721C50.3002 20.3521 51.2231 20.8864 52.0488 21.5179C52.0002 21.4693 52.486 21.8579 52.5831 21.955C52.6803 22.0522 52.7774 22.1493 52.8746 22.2465C52.7774 22.2951 52.7288 22.3922 52.7774 22.5379C52.826 22.8779 53.2146 23.2665 53.4089 23.6065C54.3318 24.9666 55.3518 26.2781 56.129 27.7352C57.149 29.7267 57.8776 31.7183 58.2176 34.4383C58.4119 35.2641 58.509 36.8184 58.2176 37.2556C58.2176 37.3042 58.169 37.3042 58.1205 37.3527C58.1205 37.3527 58.0719 37.3527 58.0719 37.4013C58.0233 37.4013 58.0233 37.4013 57.9747 37.4499H57.9262C57.829 37.4499 57.7805 37.4499 57.7319 37.4499C57.6833 37.4499 57.6833 37.4499 57.6347 37.4499C57.3433 37.3527 57.489 37.4499 57.0519 37.207C56.3233 36.8184 55.7404 37.8385 56.4204 38.2756C58.169 39.5385 59.3834 39.1014 59.7234 37.4013C59.9177 36.3813 59.772 35.3127 59.5777 34.2926C59.6262 34.4383 59.6748 34.5841 59.7234 34.7784C59.8205 35.4098 59.9177 35.9441 59.9662 36.4784L59.9177 36.527C59.7234 36.867 59.8691 37.207 60.1605 37.4013C60.3063 37.5956 60.5491 37.6927 60.792 37.6442C60.9863 37.5956 61.0834 37.4499 61.132 37.3042C63.0264 36.5756 64.9207 35.7498 66.7179 34.6812C67.1551 34.4383 67.1551 34.3898 67.4951 34.2441C67.6894 34.1469 67.8837 34.0498 67.9808 33.904C68.078 33.8555 68.1265 33.7583 68.2237 33.6612C68.418 32.7869 67.6408 32.4468 67.1065 32.7383Z" fill="black"/>
</g>
<g opacity="0.1294">
<path d="M79.3469 30.7954C79.2498 30.7954 79.1526 30.844 79.0555 30.844C78.6183 30.9897 78.2297 31.2811 77.7926 31.4268C77.0154 31.8154 76.724 31.864 75.6554 32.3497C73.8582 33.3212 70.8952 34.2441 69.2923 34.8755C68.2237 35.2155 68.6608 36.7213 69.7294 36.4784C71.3809 35.9441 72.9839 35.167 74.5868 34.4869C75.4611 34.0984 77.064 33.5155 78.3755 32.8355C79.0069 32.4954 79.7841 32.1069 79.8812 31.9126C80.3184 31.524 79.9298 30.7468 79.3469 30.7954Z" fill="black"/>
</g>
<g opacity="0.1294">
<path d="M20.1847 13.552C19.5047 16.0292 18.2904 17.8264 17.4161 20.5465C16.8818 22.1008 16.4932 23.7523 16.1532 25.3552C15.9589 26.0838 15.8131 26.8124 15.6674 27.541C15.5703 28.1725 15.376 28.8525 15.4731 29.5325C15.6189 30.164 16.3474 30.504 16.9303 30.2611C17.3189 30.6497 17.6589 30.9897 18.0961 31.3783V31.3297C18.0475 30.6011 18.0961 29.8725 18.0961 29.1439C17.9504 28.6582 17.9018 28.3182 17.8532 27.881C17.9989 27.1039 18.1932 26.2781 18.2904 25.501C18.679 22.878 19.4076 20.3522 20.2333 17.875C20.4762 17.1464 20.6705 16.3692 21.0105 15.6406C21.2533 15.0092 21.5933 14.3291 21.5933 13.6491C21.5933 12.8719 20.379 12.7748 20.1847 13.552Z" fill="black"/>
</g>
<g opacity="0.1294">
<path d="M20.9134 33.4669C20.8648 33.6126 20.7191 33.7583 20.5734 33.7583C20.7191 33.8069 20.8648 33.8555 21.0105 33.8069C21.2534 33.7583 21.3991 33.5154 21.3991 33.2726C21.2534 33.3212 21.1077 33.4183 20.9134 33.4669Z" fill="black"/>
</g>
<g opacity="0.1294">
<path d="M15.4731 29.5325C15.4731 29.4354 15.4246 29.3382 15.4246 29.2411C15.4731 29.3382 15.4731 29.4354 15.4731 29.5325Z" fill="black"/>
</g>
<g opacity="0.1294">
<path d="M25.4307 35.4585C25.1392 35.6528 24.7507 35.6042 24.0221 35.6042C23.5363 35.5556 22.9049 35.6042 22.322 35.4099C21.9334 35.3127 21.5934 35.0213 21.2534 35.0699C20.5248 35.1184 20.4762 36.1871 21.1562 36.3813C21.642 36.5756 22.1763 36.7699 22.7106 36.8671C23.1477 36.9642 23.6335 37.0614 24.0706 36.9642C24.6535 36.8671 25.1878 36.6242 25.6735 36.3328C25.8678 36.1871 26.1593 36.0899 26.2079 35.847C26.305 35.4099 25.7707 35.167 25.4307 35.4585Z" fill="black"/>
</g>
<g opacity="0.1294">
<path d="M33.0081 36.4299C32.7652 36.5271 32.7167 36.6242 32.3281 36.8671C31.5509 37.3042 31.2109 37.3528 30.1909 37.5957C29.2194 37.8385 29.268 37.79 28.1994 37.8871C27.8593 37.8871 27.5193 37.8871 27.1793 37.8385C26.9365 37.79 26.7422 37.6928 26.4993 37.7414C25.625 37.8385 25.5278 39.15 26.4022 39.3929C28.6365 40.0243 30.4337 39.3929 31.9881 38.4214C32.4738 38.13 32.911 37.8385 33.3481 37.4499C33.591 37.2071 33.6396 37.2557 33.6881 36.9156C33.6396 36.5756 33.2995 36.3328 33.0081 36.4299Z" fill="black"/>
</g>
<g opacity="0.1294">
<path d="M42.2856 40.9958C41.7999 41.0444 41.9456 41.1415 41.7027 41.1901C41.5084 41.2386 41.4599 41.3358 40.7798 41.4815C40.2941 41.5787 40.2941 41.5787 40.197 41.5787C40.2941 41.4815 40.3427 41.2872 40.2941 41.1415C40.2941 40.8501 40.0027 40.6072 39.7112 40.6072C39.3712 40.6072 39.0798 40.9472 38.7398 41.0443C38.0598 41.3358 38.2055 41.2872 37.234 41.6272C36.3597 41.8701 35.9225 41.8701 35.5825 41.8701C35.2425 41.8701 34.9511 41.6758 34.6596 41.6272C35.2425 41.3844 35.7768 41.0929 36.3111 40.7529C36.894 40.3643 37.4769 39.9272 37.9626 39.4414C38.0598 39.3443 38.1569 39.1986 38.1569 39.0529C38.1569 38.8586 38.0598 38.7128 37.914 38.6157C37.7197 38.5185 37.4769 38.5185 37.2826 38.7128C37.3312 38.6643 37.3797 38.6157 37.3312 38.6643C37.0883 38.81 36.8454 38.9557 36.6026 39.1014C35.1454 40.0243 33.251 40.5586 32.0367 40.7529C31.7452 40.8015 31.4538 40.8015 31.1624 40.8015C31.1138 40.8015 31.1138 40.8015 31.1138 40.8015C31.1138 40.8015 31.1138 40.8015 31.0652 40.8015C30.8224 40.8015 30.6281 40.6558 30.3852 40.7043C29.8509 40.7529 29.8023 41.5787 30.3366 41.6758C30.8224 41.8215 31.2595 42.0158 31.7938 42.0644C32.3281 42.113 32.8624 42.0644 33.3482 41.9672C33.6396 41.9672 33.8825 41.8701 34.1739 41.8215C33.931 42.113 33.931 42.5987 34.3196 42.793C35.6797 43.473 37.1369 43.3273 38.4483 42.7444C38.6912 42.6473 38.9341 42.5501 39.1769 42.4044C39.1769 42.793 39.5169 43.2301 39.9541 43.1816C40.7799 43.0844 41.7027 43.0358 42.4313 42.5015C42.6256 42.3558 42.9171 42.2101 43.0142 41.9187C43.1599 41.5301 42.7714 40.9958 42.2856 40.9958Z" fill="black"/>
</g>
<g opacity="0.1294">
<path d="M49.0858 37.8385C48.5515 38.0813 48.6973 38.1299 48.3572 38.3728C47.8715 38.7128 47.9201 38.6642 47.1915 38.8585C46.6086 38.9557 46.9486 38.9556 46.4629 38.9556C46.4143 38.9556 46.3657 38.9556 46.2686 38.9556C46.22 38.9556 46.1229 38.9071 46.0743 38.9071C45.6371 38.8585 45.2 38.5185 44.7628 38.7614C44.2285 39.0528 44.3257 39.9757 44.9571 40.1214C45.54 40.2671 46.1229 40.4614 46.7058 40.4128C47.4344 40.3643 48.1144 40.1214 48.6973 39.7328C48.9887 39.5385 49.2316 39.2957 49.523 39.1014C49.7173 38.9557 49.9116 38.7614 49.9116 38.5185C49.863 38.0813 49.4744 37.7413 49.0858 37.8385Z" fill="black"/>
</g>
<g opacity="0.1294">
<path d="M54.9146 35.7985C54.9146 35.507 54.7203 35.167 54.3803 35.1184H54.3317C54.3317 34.5356 54.3317 33.9527 54.186 33.3698C53.9917 32.4955 53.506 31.7183 53.0688 30.8926C52.6803 30.0182 52.2431 29.1925 51.6116 28.5125C51.3688 28.2696 50.9316 28.5125 50.9316 28.8525C50.9316 29.1439 51.2231 29.3382 51.3688 29.5811C52.1459 30.6983 52.3888 31.524 52.7288 32.8355C53.166 34.2441 53.2631 34.8756 53.1174 36.3328V36.3813C53.1174 36.4299 53.1174 36.5271 53.0688 36.5756C53.0688 36.6242 53.0688 36.6728 53.0203 36.7213C52.9717 36.8185 52.8745 36.9642 52.7774 37.0614C52.6803 37.1585 52.486 37.4014 52.3402 37.5471C52.2917 37.5471 52.2917 37.5957 52.2431 37.5957C52.0002 37.5957 51.8545 37.5957 51.2231 37.4014C51.0288 37.3528 51.0288 37.3042 51.2231 37.4014C50.9316 37.3042 50.6402 37.0614 50.3002 37.0128C49.5716 36.8671 49.2316 37.9357 49.863 38.2757C50.1059 38.3728 50.3487 38.5186 50.543 38.6157C50.5916 38.8586 50.7373 39.0529 50.9316 39.1986C50.9802 39.2471 51.0288 39.2472 51.0773 39.2957C51.0773 39.5872 51.2716 39.8786 51.6116 39.9757C51.9031 40.0729 52.2431 40.1215 52.5345 40.0729C52.6317 40.0729 52.8745 39.9757 52.8745 39.9272C53.2146 39.7815 53.506 39.5872 53.6517 39.2957C53.7489 39.15 53.7489 38.9557 53.7003 38.81C53.846 38.6643 53.8946 38.5186 53.8946 38.3728C54.186 37.9357 54.4289 37.4499 54.5746 36.9642C54.6232 36.6242 54.6718 36.2356 54.6718 35.8956C54.9146 35.847 54.9146 35.847 54.9146 35.7985C54.9146 35.847 54.9146 35.7985 54.9146 35.7985Z" fill="black"/>
</g>
<path d="M13.1903 36.1871H13.1417C10.8587 35.7499 8.47866 35.3613 6.14714 34.7299C5.22425 34.4384 4.39851 34.2441 3.47562 34.0013C2.45558 33.7584 1.43555 33.5155 0.366938 33.1755C0.172646 33.1269 0.0754993 32.8841 0.124072 32.6898C0.172646 32.4955 0.415511 32.3983 0.609804 32.4469C1.62984 32.7869 2.64988 33.0298 3.62134 33.2727C4.49566 33.467 5.46712 33.7098 6.34144 34.0013C8.52723 34.5841 10.713 35.0213 12.8988 35.4099C13.8217 31.6212 15.0846 27.9296 16.3475 24.3838C17.0761 22.2466 17.8533 20.0608 18.5333 17.875C18.5333 17.875 18.5333 17.875 18.5333 17.8264C18.7762 17.2435 19.019 16.7092 19.2619 16.1263C19.8934 14.6691 20.5248 13.2605 20.8162 11.609L20.7677 11.5605C20.7191 11.5605 20.6705 11.5605 20.6219 11.5605C18.5819 10.7833 16.4932 10.249 14.4532 9.6661C12.0245 9.03465 9.54727 8.35463 7.11861 7.33459C6.92431 7.23744 6.82717 7.04315 6.92431 6.84886C7.02146 6.65457 7.21575 6.55742 7.41005 6.65457C9.79013 7.6746 12.2674 8.30605 14.6474 8.9375C16.6875 9.47181 18.8247 10.0547 20.8648 10.8319C21.2534 10.8804 21.5934 11.2204 21.5934 11.609V11.6576C21.302 13.4062 20.6219 14.912 19.9905 16.3692C19.7476 16.9035 19.5048 17.4378 19.3105 18.0207C18.6304 20.2551 17.8533 22.4408 17.1247 24.5781C15.8132 28.4153 14.5503 32.0098 13.6274 35.8956C13.5303 36.0413 13.3845 36.1871 13.1903 36.1871Z" fill="black"/>
<path d="M8.52727 34.9727C8.4787 34.9727 8.4787 34.9727 8.43013 34.9727C8.23583 34.9241 8.09011 34.7298 8.13869 34.5355C10.2759 26.0352 13.2389 17.0492 16.3476 9.81175C16.4447 9.61746 16.639 9.52031 16.8333 9.61746C17.0276 9.7146 17.1247 9.9089 17.0276 10.1032C13.9675 17.292 11.0045 26.2781 8.86728 34.7298C8.81871 34.8755 8.67299 34.9727 8.52727 34.9727Z" fill="black"/>
<path d="M69.1466 37.2556C69.098 37.2556 69.0494 37.2556 69.0008 37.207C68.9037 37.1585 68.8551 37.0613 68.8065 36.9642C67.3493 31.9126 65.795 26.8609 64.1435 21.5179C63.2692 18.7492 62.3949 15.8834 61.5206 12.969C61.472 12.8233 61.5206 12.629 61.7149 12.5319C65.455 10.4918 69.3894 8.74315 73.421 7.38311C73.6153 7.33453 73.8096 7.43168 73.9067 7.62597C73.9553 7.82026 73.8582 8.01456 73.6639 8.1117C69.778 9.47175 65.9407 11.1232 62.3463 13.0662C63.1721 15.8834 64.0464 18.6521 64.8721 21.3236C66.475 26.5209 67.9808 31.4754 69.438 36.4299C72.8867 35.2155 76.2868 33.8069 79.5898 32.2526C79.7841 32.1554 79.9784 32.2526 80.0755 32.4469C80.1727 32.6412 80.0755 32.8354 79.8812 32.9326C76.4325 34.5355 72.8867 35.9927 69.2923 37.2556C69.2437 37.2556 69.1951 37.2556 69.1466 37.2556Z" fill="black"/>
<path d="M73.6153 35.3127C73.4696 35.3127 73.3238 35.2156 73.2753 35.0213C71.1381 26.9096 68.6608 18.7493 65.9407 10.7833C65.8921 10.589 65.9893 10.3947 66.1836 10.2975C66.3779 10.249 66.5722 10.3461 66.6693 10.5404C69.3894 18.5064 71.8181 26.7153 74.0039 34.827C74.0524 35.0213 73.9553 35.2156 73.761 35.2641C73.6639 35.3127 73.6639 35.3127 73.6153 35.3127Z" fill="black"/>
<path d="M32.668 24.2867C31.7937 24.2867 30.8223 23.8981 30.3851 23.0723C29.6079 21.518 31.0651 19.7693 31.5994 19.235C33.6395 16.9035 35.7281 14.4263 38.3511 12.6291C41.3141 10.5404 44.5199 9.61756 47.4343 10.0061C48.9401 10.2004 50.3487 10.7347 51.7087 11.2205C52.1459 11.3662 52.583 11.5605 53.0688 11.7062C55.9346 12.6777 58.8975 13.212 61.9091 13.2605C62.1034 13.2605 62.2977 13.4548 62.2977 13.6491C62.2977 13.8434 62.152 14.0377 61.9091 14.0377C58.8004 13.9891 55.7889 13.4548 52.8745 12.4834C52.4373 12.3377 51.9516 12.1434 51.5144 11.9976C50.203 11.5119 48.8429 10.9776 47.4343 10.8319C44.7142 10.4919 41.7027 11.3662 38.8854 13.3577C36.3596 15.1549 34.271 17.535 32.2795 19.8665C31.1623 21.178 30.8223 22.1494 31.1623 22.878C31.5023 23.5095 32.2795 23.7523 32.9109 23.7038C33.6395 23.6552 34.3195 23.3152 35.0967 22.9752C35.5824 22.7323 36.1167 22.4894 36.6025 22.198C39.7111 20.6437 42.6741 19.1865 45.4428 17.2435C45.5885 17.1464 45.8314 17.1464 45.9771 17.3407C46.0742 17.4864 46.0742 17.7293 45.8799 17.875C43.0627 19.8665 40.0997 21.3723 36.9425 22.9266C36.4567 23.1695 35.9224 23.4123 35.4367 23.7038C34.611 24.0924 33.8338 24.4809 32.9595 24.5295C32.7652 24.2867 32.7166 24.2867 32.668 24.2867Z" fill="black"/>
<path d="M60.0148 37.7899C59.8691 37.7899 59.7234 37.6927 59.6748 37.547C59.5777 37.3527 59.6748 37.1584 59.8691 37.0613C62.5406 35.9441 65.2122 34.8269 67.8351 33.6612C68.0294 33.564 68.2237 33.6612 68.3209 33.8554C68.418 34.0497 68.3209 34.244 68.1266 34.3412C65.5036 35.5069 62.7835 36.6241 60.112 37.7413C60.112 37.7899 60.0634 37.7899 60.0148 37.7899Z" fill="black"/>
<path d="M58.9948 39.2471C58.8976 39.2471 58.8491 39.2471 58.8005 39.2471C57.5862 39.1014 56.3718 38.3243 55.4975 37.0128C54.9146 36.187 54.526 35.2641 54.186 34.3898C54.0889 34.0984 53.9432 33.8069 53.846 33.5641C52.826 31.3297 51.4659 29.2411 49.8144 27.4439C49.6687 27.2981 49.6687 27.0553 49.8144 26.9096C49.9602 26.7638 50.203 26.7638 50.3488 26.9096C52.0974 28.7553 53.4574 30.8926 54.526 33.2241C54.6718 33.5155 54.7689 33.8069 54.9146 34.0984C55.3032 34.9727 55.6432 35.847 56.1775 36.6242C56.9547 37.7414 57.9262 38.4214 58.9462 38.5185C58.9948 38.5185 59.1891 38.5671 59.2376 38.47C59.3348 38.4214 59.3834 38.2271 59.3834 37.8871C59.2376 33.6127 57.829 29.2896 55.4004 25.7438C52.9717 22.198 49.4744 19.3321 45.4914 17.6807C45.2971 17.5835 45.2 17.3892 45.2971 17.1949C45.3943 17.0006 45.5886 16.9035 45.7829 17.0006C49.863 18.7007 53.506 21.6637 55.9832 25.3552C58.509 28.9982 59.9662 33.4669 60.0634 37.8871C60.0634 38.13 60.112 38.81 59.5777 39.1014C59.3834 39.2471 59.1891 39.2471 58.9948 39.2471Z" fill="black"/>
<path d="M40.5369 43.3273C40.0026 43.3273 39.3712 43.2302 38.6426 42.6959C38.4968 42.5987 38.4483 42.3558 38.5454 42.1616C38.6426 42.0158 38.8854 41.9673 39.0797 42.0644C39.7597 42.5501 40.3426 42.5501 40.8769 42.5016H40.9255C41.7027 42.453 42.5284 42.0644 42.9656 41.5301C43.1599 41.2872 43.4027 40.8987 43.3056 40.4615V40.4129C43.3056 39.6357 43.2084 38.81 43.1113 38.2271C43.0627 38.0814 43.1599 37.8871 43.3056 37.8385C43.4513 37.79 43.6456 37.79 43.7427 37.9357C44.3256 38.5671 44.8599 39.1986 45.5885 39.6357C46.3171 40.0729 47.1429 40.2186 47.7743 39.9758C48.6486 39.6358 49.5229 38.13 49.3287 37.3042C49.2801 37.1099 49.4258 36.9157 49.6201 36.8671C49.8144 36.8185 50.0087 36.9642 50.0573 37.1585C50.3487 38.47 49.1344 40.2672 48.0172 40.7044C47.1429 40.9958 46.1228 40.8501 45.1999 40.3158C44.7628 40.0243 44.3256 39.6843 43.9856 39.3443C44.0342 39.7329 44.0342 40.1215 44.0342 40.5101C44.0828 41.0929 43.937 41.6273 43.4999 42.1616C42.917 42.8902 41.897 43.3759 40.9255 43.3759H40.8769C40.7798 43.3273 40.6341 43.3273 40.5369 43.3273Z" fill="black"/>
<path d="M52.6802 40.3157C52.3888 40.3157 52.0974 40.2186 51.8059 40.1214C50.3973 39.5871 49.6687 38.0328 48.9401 36.5756C48.4544 35.5556 47.9201 34.487 47.2401 33.8555C47.0943 33.7098 47.0943 33.4669 47.1915 33.3212C47.3372 33.1755 47.5801 33.1755 47.7258 33.2726C48.5515 34.0012 49.0858 35.1184 49.6201 36.187C50.3002 37.5956 50.9316 38.9071 52.0974 39.3443C52.5831 39.5386 53.166 39.7814 53.9917 38.4214C54.2346 38.0328 54.2832 37.5956 54.2832 37.1585C54.3803 35.9927 54.0403 34.827 53.7489 33.6612C53.7003 33.4669 53.6517 33.3212 53.6031 33.1269C53.5546 32.9326 53.6517 32.7383 53.8946 32.6898C54.0889 32.6412 54.2832 32.7383 54.3317 32.9812C54.3803 33.1755 54.4289 33.3212 54.4775 33.5155C54.7689 34.7298 55.1089 35.9927 55.0118 37.2556C54.9632 37.7899 54.9146 38.3728 54.6232 38.8585C53.9432 39.9757 53.3117 40.3157 52.6802 40.3157Z" fill="black"/>
<path d="M28.6366 40.0729C28.588 40.0729 28.588 40.0729 28.5394 40.0729C27.1308 40.0244 25.9651 39.1986 25.625 38.0814C25.4793 37.6443 25.4793 37.2071 25.5765 36.77C24.7993 37.2557 23.8764 37.45 23.0021 37.2557C21.642 37.0128 20.4763 35.8956 20.2334 34.5842C20.1363 34.0499 20.3306 33.7584 20.4763 33.5641C20.622 33.4184 20.8649 33.4184 21.0106 33.5641C21.1563 33.7098 21.1563 33.9527 21.0106 34.0984C20.962 34.147 20.962 34.2441 20.962 34.4384C21.1077 35.4585 22.0306 36.3328 23.0992 36.5271C24.1678 36.7214 25.285 36.2842 25.8679 35.4585C25.9651 35.3128 26.1593 35.2642 26.3051 35.3613C26.4508 35.3128 26.5479 35.2642 26.6451 35.2156C28.1023 34.6327 29.6566 34.2927 31.2595 34.147C32.5224 34.0499 33.3968 34.3413 33.7853 35.0699C33.9796 35.4099 34.0282 35.7985 33.9796 36.2842C33.8825 36.9157 33.6396 37.4985 33.251 37.9357C32.8624 38.3729 32.3767 38.7129 31.891 39.0043C31.0167 39.5386 29.8509 40.0729 28.6366 40.0729ZM26.4508 36.1871C26.3051 36.8185 26.2079 37.3528 26.3536 37.8386C26.6451 38.7615 27.6651 39.2958 28.588 39.2958C29.6566 39.3443 30.7252 38.81 31.5024 38.3729C31.9396 38.13 32.3767 37.8386 32.6682 37.4985C32.9596 37.1585 33.2025 36.6728 33.251 36.2356C33.2996 35.9928 33.2996 35.7013 33.1539 35.4585C32.8624 34.9242 31.9881 34.8756 31.3567 34.9242C29.8509 35.0213 28.3451 35.3613 26.9365 35.9442C26.6937 35.9928 26.5479 36.0899 26.4508 36.1871Z" fill="black"/>
<path d="M32.2795 42.55C31.6967 42.55 31.1624 42.4043 30.6766 42.1615C29.8023 41.6272 29.2194 40.5585 29.3166 39.5385C29.3166 39.3442 29.5109 39.1985 29.7052 39.1985C29.8995 39.1985 30.0452 39.3928 30.0452 39.5871C29.9966 40.3157 30.3852 41.1414 31.0166 41.4814C31.6481 41.87 32.4738 41.87 33.3482 41.5786C34.1739 41.2871 34.8539 40.7528 35.5825 40.2185C36.6026 39.4414 37.5254 38.5185 37.6226 37.4013C37.6226 37.3527 37.6226 37.2556 37.6226 37.1584C37.6226 37.1098 37.5255 37.0613 37.4283 36.9641C36.894 36.6241 36.1654 36.5755 35.3882 36.7213C34.7082 36.867 34.1253 37.1584 33.4939 37.4984L33.3967 37.547C33.2024 37.6442 33.0081 37.547 32.911 37.4013C32.8139 37.207 32.911 37.0127 33.0567 36.9156L33.1539 36.867C33.8339 36.527 34.4653 36.187 35.2425 36.0412C36.214 35.8469 37.1369 35.9441 37.8169 36.3327C37.9626 36.4298 38.2055 36.5755 38.3026 36.867C38.3998 37.0613 38.3998 37.2556 38.3998 37.4499C38.3026 38.8585 37.234 39.8785 36.0683 40.7528C35.3397 41.3357 34.5625 41.9186 33.6396 42.21C33.2024 42.5015 32.7167 42.55 32.2795 42.55Z" fill="black"/>
<path d="M36.6025 43.6188C36.0682 43.6188 35.5339 43.473 35.0967 43.2787C34.5624 42.9873 33.9795 42.453 34.0281 41.7244C34.0281 41.5301 34.2224 41.3844 34.4167 41.3844C34.611 41.3844 34.7567 41.5787 34.7567 41.773C34.7567 42.113 35.0967 42.453 35.4367 42.5987C35.9225 42.8416 36.5053 42.9387 37.0882 42.8416C37.9625 42.6959 38.7397 42.113 39.3712 41.5787C40.0998 40.9472 40.3912 40.4615 40.3426 39.9758C40.294 39.4415 39.6626 39.0529 39.1283 39.0043C38.594 38.9557 38.0597 39.1986 37.4282 39.6843C37.2825 39.8301 37.0396 39.7815 36.8939 39.6358C36.7482 39.49 36.7968 39.2472 36.9425 39.1015C37.4282 38.7129 38.2054 38.2271 39.1283 38.2757C39.954 38.3243 40.9255 38.9557 41.0226 39.8786C41.1198 40.8501 40.3912 41.6273 39.8083 42.113C39.1283 42.6959 38.254 43.3759 37.1854 43.5702C36.9425 43.6188 36.7968 43.6188 36.6025 43.6188Z" fill="black"/>
<path d="M26.2078 35.847C26.0135 35.847 25.8678 35.7013 25.8678 35.5556C25.7221 34.7784 24.8963 34.3413 24.4106 34.147C23.002 33.5641 21.7877 33.5641 20.7676 34.1955C20.6219 34.2927 20.379 34.2441 20.2819 34.0984C18.8733 32.1555 17.1246 30.6983 15.036 29.7754C14.8417 29.6782 14.7446 29.4839 14.8417 29.2897C14.9388 29.0954 15.1331 28.9982 15.3274 29.0954C17.4161 30.0183 19.2133 31.4269 20.6705 33.3698C21.8362 32.7869 23.1963 32.7869 24.7021 33.4184C25.7707 33.8555 26.4507 34.5841 26.5964 35.4099C26.645 35.6042 26.4993 35.7985 26.305 35.847C26.2564 35.847 26.2564 35.847 26.2078 35.847Z" fill="black"/>
<path d="M20.8648 13.309C20.7191 13.309 20.5248 13.2119 20.5248 13.0176C20.4762 12.8233 20.6219 12.629 20.8162 12.5804C24.8964 11.6575 28.6851 10.3461 31.7938 9.18032L32.0852 9.08317C33.2995 8.64601 34.5139 8.20885 35.8253 8.06314C38.8369 7.72312 41.6056 9.0346 44.0342 10.1518C44.2285 10.2489 44.2771 10.4432 44.2285 10.6375C44.1314 10.8318 43.9371 10.8804 43.7428 10.8318C41.4113 9.71462 38.7397 8.50029 35.9225 8.79173C34.7082 8.93745 33.5424 9.37461 32.3766 9.7632L32.0852 9.86034C28.928 11.0261 25.1392 12.3376 21.0105 13.2605C20.9134 13.309 20.9134 13.309 20.8648 13.309Z" fill="black"/>
<path d="M28.1994 6.89742C28.0537 6.89742 27.9565 6.84885 27.908 6.70313C27.8108 6.50884 27.8594 6.31454 28.0051 6.16882C31.3567 4.0316 35.3882 3.01157 39.3712 3.20586C39.5655 3.20586 39.7112 3.40015 39.7112 3.59445C39.7112 3.78874 39.5169 3.93446 39.3227 3.93446C35.4854 3.74017 31.5995 4.71163 28.3937 6.7517C28.3451 6.89742 28.2965 6.89742 28.1994 6.89742Z" fill="black"/>
<path d="M25.8679 3.30299C25.7707 3.30299 25.625 3.25442 25.5764 3.15727C25.4793 2.96298 25.5278 2.76869 25.6736 2.62297C27.6651 1.31149 29.948 0.437173 32.2795 1.47829e-05C32.4738 -0.0485584 32.6681 0.0971611 32.7167 0.291454C32.7652 0.485746 32.6195 0.680039 32.4252 0.728612C30.1909 1.1172 28.0051 1.99151 26.1107 3.20584C26.0136 3.25442 25.965 3.30299 25.8679 3.30299Z" fill="black"/>
<path d="M49.5716 43.8616C49.3773 43.8616 49.2316 43.7159 49.183 43.5216C49.183 43.3273 49.3287 43.133 49.523 43.133C51.6602 43.0844 53.7974 42.2587 55.4489 40.8987C55.5946 40.7529 55.8375 40.8015 55.9832 40.9472C56.1289 41.0929 56.0804 41.3358 55.9347 41.4815C54.1374 42.9873 51.9031 43.813 49.5716 43.8616Z" fill="black"/>
<path d="M77.5497 32.2527L73.4696 30.7469C73.421 30.7469 73.3724 30.6497 73.421 30.6012C73.421 30.5526 73.5181 30.504 73.5667 30.5526L77.5983 32.0584C77.6469 32.0584 77.6954 32.1555 77.6469 32.2041C77.6469 32.2041 77.5983 32.2527 77.5497 32.2527Z" fill="black"/>
<path d="M78.9098 30.7468C76.6754 29.9696 74.4896 29.0953 72.3524 28.1238C72.3038 28.0753 72.2552 28.0267 72.3038 27.9781C72.3524 27.9295 72.401 27.881 72.4495 27.9295C74.5382 28.9496 76.724 29.8239 78.9098 30.5525C78.9583 30.5525 79.0069 30.6496 79.0069 30.6982C79.0069 30.6982 78.9583 30.7468 78.9098 30.7468Z" fill="black"/>
<path d="M79.2498 28.3668C76.7726 27.541 74.2953 26.6181 71.9153 25.6467C71.8667 25.5981 71.8181 25.5495 71.8667 25.5009C71.9152 25.4524 71.9638 25.4038 72.0124 25.4524C74.3925 26.4724 76.8211 27.3467 79.2984 28.1725C79.3469 28.1725 79.3955 28.2696 79.3955 28.3182C79.3469 28.3182 79.2984 28.3668 79.2498 28.3668Z" fill="black"/>
<path d="M79.2497 26.0838C76.3353 25.0152 74.1496 24.0923 71.0894 22.7808C71.0409 22.7322 70.9923 22.6837 71.0409 22.6351C71.0894 22.5865 71.138 22.538 71.1866 22.5865C74.2467 23.8494 76.4325 24.7723 79.2983 25.8895C79.3469 25.8895 79.3955 25.9866 79.3469 26.0352C79.3469 26.0838 79.2983 26.0838 79.2497 26.0838Z" fill="black"/>
<path d="M78.5698 23.5094C78.5212 23.5094 78.5212 23.5094 78.5698 23.5094L70.3123 20.1579C70.2638 20.1093 70.2152 20.0607 70.2638 20.0122C70.3123 19.9636 70.3609 19.915 70.4095 19.9636L78.6184 23.3151C78.6669 23.3637 78.7155 23.4123 78.6669 23.4609C78.6669 23.5094 78.6184 23.5094 78.5698 23.5094Z" fill="black"/>
<path d="M78.2782 21.0807H78.2297L69.3408 17.1463C69.2922 17.0977 69.2436 17.0492 69.2922 17.0006C69.3408 16.952 69.3894 16.9034 69.4379 16.952L78.3268 20.8864C78.3754 20.935 78.424 20.9836 78.3754 21.0321C78.3754 21.0321 78.3268 21.0807 78.2782 21.0807Z" fill="black"/>
<path d="M77.404 17.9721H77.3554L68.3694 13.9405C68.3208 13.8919 68.2722 13.8433 68.3208 13.7948C68.3694 13.7462 68.4179 13.6976 68.4665 13.7462L77.4525 17.7778C77.5011 17.8263 77.5497 17.8749 77.5011 17.9235C77.5011 17.9721 77.4525 17.9721 77.404 17.9721Z" fill="black"/>
<path d="M75.4125 13.9406C75.364 13.9406 75.364 13.9406 75.4125 13.9406C73.1296 13.0662 70.8466 12.2405 68.6123 11.4633C68.5637 11.4633 68.5151 11.3662 68.5151 11.3176C68.5151 11.269 68.6123 11.2205 68.6609 11.2205C70.9438 11.9976 73.1782 12.8234 75.4125 13.6977C75.4611 13.7463 75.5097 13.7948 75.4611 13.8434C75.5097 13.9406 75.4611 13.9406 75.4125 13.9406Z" fill="black"/>
<path d="M75.2182 11.1233C75.2182 11.1233 75.1697 11.1233 75.2182 11.1233L71.9638 9.76324C71.9153 9.71467 71.8667 9.66609 71.9153 9.61752C71.9638 9.56895 72.0124 9.52037 72.061 9.56895L75.2668 10.929C75.3154 10.9776 75.364 11.0261 75.3154 11.0747C75.3154 11.0747 75.2668 11.1233 75.2182 11.1233Z" fill="black"/>
<path d="M7.26432 7.09167C10.4216 8.16028 13.6274 9.13175 16.6875 10.0546C16.2018 12.1433 14.8903 13.9891 14.016 15.9806C13.5788 17.0492 13.2388 18.1178 12.8988 19.235C11.3445 24.3837 9.8387 29.5811 8.3815 34.7784C5.56426 33.8069 3.37847 33.3212 0.318359 32.7869C3.1356 24.0923 5.66141 15.7377 7.26432 7.09167Z" fill="#FFA947"/>
<g opacity="0.1294">
<path d="M67.1065 32.7383C66.6208 32.884 66.135 33.0783 65.6493 33.2726C65.5522 33.2726 65.455 33.2726 65.3093 33.3212C65.0664 33.3697 64.8236 33.4669 64.6293 33.564C64.3864 33.6612 64.1435 33.7097 63.9007 33.8555C63.8035 33.904 63.5121 34.0012 63.4149 34.0498C63.3664 34.0498 63.3664 34.0498 63.3178 34.0983C63.2692 34.0983 63.1721 34.1469 63.1235 34.1469C63.0749 34.1469 63.0264 34.1469 62.9778 34.1469C62.9292 34.1469 62.8806 34.1469 62.8321 34.0983C62.7349 34.0012 62.6378 33.904 62.5406 33.8069C62.4435 33.6612 62.5406 33.8069 62.5892 33.904C62.4921 33.8069 62.4435 33.7097 62.3463 33.6126C62.2978 33.564 62.2978 33.564 62.2978 33.5155C62.2006 33.4183 62.152 33.2726 62.0549 33.1754C61.7635 32.6897 61.472 32.204 61.1806 31.6697C60.6463 30.6011 60.112 29.4839 59.5291 28.4153C59.1891 27.6867 58.8976 26.9581 58.4605 26.2781C57.2461 24.3837 56.0318 22.9265 54.186 21.275C53.0203 20.1093 51.6602 19.0892 50.2516 18.2635C49.2801 17.7292 48.2601 17.1949 47.1429 17.0977C46.3658 16.9034 46.1715 18.0692 46.9972 18.1663C47.7258 18.2149 48.5516 18.5549 49.3773 19.0407C49.2801 19.2349 49.3287 19.4778 49.523 19.6721C50.3002 20.3521 51.2231 20.8864 52.0488 21.5179C52.0002 21.4693 52.486 21.8579 52.5831 21.955C52.6803 22.0522 52.7774 22.1493 52.8746 22.2465C52.7774 22.2951 52.7288 22.3922 52.7774 22.5379C52.826 22.8779 53.2146 23.2665 53.4089 23.6065C54.3318 24.9666 55.3518 26.2781 56.129 27.7352C57.149 29.7267 57.8776 31.7183 58.2176 34.4383C58.4119 35.2641 58.509 36.8184 58.2176 37.2556C58.2176 37.3042 58.169 37.3042 58.1205 37.3527C58.1205 37.3527 58.0719 37.3527 58.0719 37.4013C58.0233 37.4013 58.0233 37.4013 57.9747 37.4499H57.9262C57.829 37.4499 57.7805 37.4499 57.7319 37.4499C57.6833 37.4499 57.6833 37.4499 57.6347 37.4499C57.3433 37.3527 57.489 37.4499 57.0519 37.207C56.3233 36.8184 55.7404 37.8385 56.4204 38.2756C58.169 39.5385 59.3834 39.1014 59.7234 37.4013C59.9177 36.3813 59.772 35.3127 59.5777 34.2926C59.6262 34.4383 59.6748 34.5841 59.7234 34.7784C59.8205 35.4098 59.9177 35.9441 59.9662 36.4784L59.9177 36.527C59.7234 36.867 59.8691 37.207 60.1605 37.4013C60.3063 37.5956 60.5491 37.6927 60.792 37.6442C60.9863 37.5956 61.0834 37.4499 61.132 37.3042C63.0264 36.5756 64.9207 35.7498 66.7179 34.6812C67.1551 34.4383 67.1551 34.3898 67.4951 34.2441C67.6894 34.1469 67.8837 34.0498 67.9808 33.904C68.078 33.8555 68.1265 33.7583 68.2237 33.6612C68.418 32.7869 67.6408 32.4468 67.1065 32.7383Z" fill="black"/>
</g>
<g opacity="0.1294">
<path d="M79.3469 30.7954C79.2498 30.7954 79.1526 30.844 79.0555 30.844C78.6183 30.9897 78.2297 31.2811 77.7926 31.4268C77.0154 31.8154 76.724 31.864 75.6554 32.3497C73.8582 33.3212 70.8952 34.2441 69.2923 34.8755C68.2237 35.2155 68.6608 36.7213 69.7294 36.4784C71.3809 35.9441 72.9839 35.167 74.5868 34.4869C75.4611 34.0984 77.064 33.5155 78.3755 32.8355C79.0069 32.4954 79.7841 32.1069 79.8812 31.9126C80.3184 31.524 79.9298 30.7468 79.3469 30.7954Z" fill="black"/>
</g>
<g opacity="0.1294">
<path d="M20.1847 13.552C19.5047 16.0292 18.2904 17.8264 17.4161 20.5465C16.8818 22.1008 16.4932 23.7523 16.1532 25.3552C15.9589 26.0838 15.8131 26.8124 15.6674 27.541C15.5703 28.1725 15.376 28.8525 15.4731 29.5325C15.6189 30.164 16.3474 30.504 16.9303 30.2611C17.3189 30.6497 17.6589 30.9897 18.0961 31.3783V31.3297C18.0475 30.6011 18.0961 29.8725 18.0961 29.1439C17.9504 28.6582 17.9018 28.3182 17.8532 27.881C17.9989 27.1039 18.1932 26.2781 18.2904 25.501C18.679 22.878 19.4076 20.3522 20.2333 17.875C20.4762 17.1464 20.6705 16.3692 21.0105 15.6406C21.2533 15.0092 21.5933 14.3291 21.5933 13.6491C21.5933 12.8719 20.379 12.7748 20.1847 13.552Z" fill="black"/>
</g>
<g opacity="0.1294">
<path d="M20.9134 33.4669C20.8648 33.6126 20.7191 33.7583 20.5734 33.7583C20.7191 33.8069 20.8648 33.8555 21.0105 33.8069C21.2534 33.7583 21.3991 33.5154 21.3991 33.2726C21.2534 33.3212 21.1077 33.4183 20.9134 33.4669Z" fill="black"/>
</g>
<g opacity="0.1294">
<path d="M15.4731 29.5325C15.4731 29.4354 15.4246 29.3382 15.4246 29.2411C15.4731 29.3382 15.4731 29.4354 15.4731 29.5325Z" fill="black"/>
</g>
<g opacity="0.1294">
<path d="M25.4307 35.4585C25.1392 35.6528 24.7507 35.6042 24.0221 35.6042C23.5363 35.5556 22.9049 35.6042 22.322 35.4099C21.9334 35.3127 21.5934 35.0213 21.2534 35.0699C20.5248 35.1184 20.4762 36.1871 21.1562 36.3813C21.642 36.5756 22.1763 36.7699 22.7106 36.8671C23.1477 36.9642 23.6335 37.0614 24.0706 36.9642C24.6535 36.8671 25.1878 36.6242 25.6735 36.3328C25.8678 36.1871 26.1593 36.0899 26.2079 35.847C26.305 35.4099 25.7707 35.167 25.4307 35.4585Z" fill="black"/>
</g>
<g opacity="0.1294">
<path d="M33.0081 36.4299C32.7652 36.5271 32.7167 36.6242 32.3281 36.8671C31.5509 37.3042 31.2109 37.3528 30.1909 37.5957C29.2194 37.8385 29.268 37.79 28.1994 37.8871C27.8593 37.8871 27.5193 37.8871 27.1793 37.8385C26.9365 37.79 26.7422 37.6928 26.4993 37.7414C25.625 37.8385 25.5278 39.15 26.4022 39.3929C28.6365 40.0243 30.4337 39.3929 31.9881 38.4214C32.4738 38.13 32.911 37.8385 33.3481 37.4499C33.591 37.2071 33.6396 37.2557 33.6881 36.9156C33.6396 36.5756 33.2995 36.3328 33.0081 36.4299Z" fill="black"/>
</g>
<g opacity="0.1294">
<path d="M42.2856 40.9958C41.7999 41.0444 41.9456 41.1415 41.7027 41.1901C41.5084 41.2386 41.4599 41.3358 40.7798 41.4815C40.2941 41.5787 40.2941 41.5787 40.197 41.5787C40.2941 41.4815 40.3427 41.2872 40.2941 41.1415C40.2941 40.8501 40.0027 40.6072 39.7112 40.6072C39.3712 40.6072 39.0798 40.9472 38.7398 41.0443C38.0598 41.3358 38.2055 41.2872 37.234 41.6272C36.3597 41.8701 35.9225 41.8701 35.5825 41.8701C35.2425 41.8701 34.9511 41.6758 34.6596 41.6272C35.2425 41.3844 35.7768 41.0929 36.3111 40.7529C36.894 40.3643 37.4769 39.9272 37.9626 39.4414C38.0598 39.3443 38.1569 39.1986 38.1569 39.0529C38.1569 38.8586 38.0598 38.7128 37.914 38.6157C37.7197 38.5185 37.4769 38.5185 37.2826 38.7128C37.3312 38.6643 37.3797 38.6157 37.3312 38.6643C37.0883 38.81 36.8454 38.9557 36.6026 39.1014C35.1454 40.0243 33.251 40.5586 32.0367 40.7529C31.7452 40.8015 31.4538 40.8015 31.1624 40.8015C31.1138 40.8015 31.1138 40.8015 31.1138 40.8015C31.1138 40.8015 31.1138 40.8015 31.0652 40.8015C30.8224 40.8015 30.6281 40.6558 30.3852 40.7043C29.8509 40.7529 29.8023 41.5787 30.3366 41.6758C30.8224 41.8215 31.2595 42.0158 31.7938 42.0644C32.3281 42.113 32.8624 42.0644 33.3482 41.9672C33.6396 41.9672 33.8825 41.8701 34.1739 41.8215C33.931 42.113 33.931 42.5987 34.3196 42.793C35.6797 43.473 37.1369 43.3273 38.4483 42.7444C38.6912 42.6473 38.9341 42.5501 39.1769 42.4044C39.1769 42.793 39.5169 43.2301 39.9541 43.1816C40.7799 43.0844 41.7027 43.0358 42.4313 42.5015C42.6256 42.3558 42.9171 42.2101 43.0142 41.9187C43.1599 41.5301 42.7714 40.9958 42.2856 40.9958Z" fill="black"/>
</g>
<g opacity="0.1294">
<path d="M49.0858 37.8385C48.5515 38.0813 48.6973 38.1299 48.3572 38.3728C47.8715 38.7128 47.9201 38.6642 47.1915 38.8585C46.6086 38.9557 46.9486 38.9556 46.4629 38.9556C46.4143 38.9556 46.3657 38.9556 46.2686 38.9556C46.22 38.9556 46.1229 38.9071 46.0743 38.9071C45.6371 38.8585 45.2 38.5185 44.7628 38.7614C44.2285 39.0528 44.3257 39.9757 44.9571 40.1214C45.54 40.2671 46.1229 40.4614 46.7058 40.4128C47.4344 40.3643 48.1144 40.1214 48.6973 39.7328C48.9887 39.5385 49.2316 39.2957 49.523 39.1014C49.7173 38.9557 49.9116 38.7614 49.9116 38.5185C49.863 38.0813 49.4744 37.7413 49.0858 37.8385Z" fill="black"/>
</g>
<g opacity="0.1294">
<path d="M54.9146 35.7985C54.9146 35.507 54.7203 35.167 54.3803 35.1184H54.3317C54.3317 34.5356 54.3317 33.9527 54.186 33.3698C53.9917 32.4955 53.506 31.7183 53.0688 30.8926C52.6803 30.0182 52.2431 29.1925 51.6116 28.5125C51.3688 28.2696 50.9316 28.5125 50.9316 28.8525C50.9316 29.1439 51.2231 29.3382 51.3688 29.5811C52.1459 30.6983 52.3888 31.524 52.7288 32.8355C53.166 34.2441 53.2631 34.8756 53.1174 36.3328V36.3813C53.1174 36.4299 53.1174 36.5271 53.0688 36.5756C53.0688 36.6242 53.0688 36.6728 53.0203 36.7213C52.9717 36.8185 52.8745 36.9642 52.7774 37.0614C52.6803 37.1585 52.486 37.4014 52.3402 37.5471C52.2917 37.5471 52.2917 37.5957 52.2431 37.5957C52.0002 37.5957 51.8545 37.5957 51.2231 37.4014C51.0288 37.3528 51.0288 37.3042 51.2231 37.4014C50.9316 37.3042 50.6402 37.0614 50.3002 37.0128C49.5716 36.8671 49.2316 37.9357 49.863 38.2757C50.1059 38.3728 50.3487 38.5186 50.543 38.6157C50.5916 38.8586 50.7373 39.0529 50.9316 39.1986C50.9802 39.2471 51.0288 39.2472 51.0773 39.2957C51.0773 39.5872 51.2716 39.8786 51.6116 39.9757C51.9031 40.0729 52.2431 40.1215 52.5345 40.0729C52.6317 40.0729 52.8745 39.9757 52.8745 39.9272C53.2146 39.7815 53.506 39.5872 53.6517 39.2957C53.7489 39.15 53.7489 38.9557 53.7003 38.81C53.846 38.6643 53.8946 38.5186 53.8946 38.3728C54.186 37.9357 54.4289 37.4499 54.5746 36.9642C54.6232 36.6242 54.6718 36.2356 54.6718 35.8956C54.9146 35.847 54.9146 35.847 54.9146 35.7985C54.9146 35.847 54.9146 35.7985 54.9146 35.7985Z" fill="black"/>
</g>
<path d="M13.1903 36.1871H13.1417C10.8587 35.7499 8.47866 35.3613 6.14714 34.7299C5.22425 34.4384 4.39851 34.2441 3.47562 34.0013C2.45558 33.7584 1.43555 33.5155 0.366938 33.1755C0.172646 33.1269 0.0754993 32.8841 0.124072 32.6898C0.172646 32.4955 0.415511 32.3983 0.609804 32.4469C1.62984 32.7869 2.64988 33.0298 3.62134 33.2727C4.49566 33.467 5.46712 33.7098 6.34144 34.0013C8.52723 34.5841 10.713 35.0213 12.8988 35.4099C13.8217 31.6212 15.0846 27.9296 16.3475 24.3838C17.0761 22.2466 17.8533 20.0608 18.5333 17.875C18.5333 17.875 18.5333 17.875 18.5333 17.8264C18.7762 17.2435 19.019 16.7092 19.2619 16.1263C19.8934 14.6691 20.5248 13.2605 20.8162 11.609L20.7677 11.5605C20.7191 11.5605 20.6705 11.5605 20.6219 11.5605C18.5819 10.7833 16.4932 10.249 14.4532 9.6661C12.0245 9.03465 9.54727 8.35463 7.11861 7.33459C6.92431 7.23744 6.82717 7.04315 6.92431 6.84886C7.02146 6.65457 7.21575 6.55742 7.41005 6.65457C9.79013 7.6746 12.2674 8.30605 14.6474 8.9375C16.6875 9.47181 18.8247 10.0547 20.8648 10.8319C21.2534 10.8804 21.5934 11.2204 21.5934 11.609V11.6576C21.302 13.4062 20.6219 14.912 19.9905 16.3692C19.7476 16.9035 19.5048 17.4378 19.3105 18.0207C18.6304 20.2551 17.8533 22.4408 17.1247 24.5781C15.8132 28.4153 14.5503 32.0098 13.6274 35.8956C13.5303 36.0413 13.3845 36.1871 13.1903 36.1871Z" fill="black"/>
<path d="M8.52727 34.9727C8.4787 34.9727 8.4787 34.9727 8.43013 34.9727C8.23583 34.9241 8.09011 34.7298 8.13869 34.5355C10.2759 26.0352 13.2389 17.0492 16.3476 9.81175C16.4447 9.61746 16.639 9.52031 16.8333 9.61746C17.0276 9.7146 17.1247 9.9089 17.0276 10.1032C13.9675 17.292 11.0045 26.2781 8.86728 34.7298C8.81871 34.8755 8.67299 34.9727 8.52727 34.9727Z" fill="black"/>
<path d="M69.1466 37.2556C69.098 37.2556 69.0494 37.2556 69.0008 37.207C68.9037 37.1585 68.8551 37.0613 68.8065 36.9642C67.3493 31.9126 65.795 26.8609 64.1435 21.5179C63.2692 18.7492 62.3949 15.8834 61.5206 12.969C61.472 12.8233 61.5206 12.629 61.7149 12.5319C65.455 10.4918 69.3894 8.74315 73.421 7.38311C73.6153 7.33453 73.8096 7.43168 73.9067 7.62597C73.9553 7.82026 73.8582 8.01456 73.6639 8.1117C69.778 9.47175 65.9407 11.1232 62.3463 13.0662C63.1721 15.8834 64.0464 18.6521 64.8721 21.3236C66.475 26.5209 67.9808 31.4754 69.438 36.4299C72.8867 35.2155 76.2868 33.8069 79.5898 32.2526C79.7841 32.1554 79.9784 32.2526 80.0755 32.4469C80.1727 32.6412 80.0755 32.8354 79.8812 32.9326C76.4325 34.5355 72.8867 35.9927 69.2923 37.2556C69.2437 37.2556 69.1951 37.2556 69.1466 37.2556Z" fill="black"/>
<path d="M73.6153 35.3127C73.4696 35.3127 73.3238 35.2156 73.2753 35.0213C71.1381 26.9096 68.6608 18.7493 65.9407 10.7833C65.8921 10.589 65.9893 10.3947 66.1836 10.2975C66.3779 10.249 66.5722 10.3461 66.6693 10.5404C69.3894 18.5064 71.8181 26.7153 74.0039 34.827C74.0524 35.0213 73.9553 35.2156 73.761 35.2641C73.6639 35.3127 73.6639 35.3127 73.6153 35.3127Z" fill="black"/>
<path d="M32.668 24.2867C31.7937 24.2867 30.8223 23.8981 30.3851 23.0723C29.6079 21.518 31.0651 19.7693 31.5994 19.235C33.6395 16.9035 35.7281 14.4263 38.3511 12.6291C41.3141 10.5404 44.5199 9.61756 47.4343 10.0061C48.9401 10.2004 50.3487 10.7347 51.7087 11.2205C52.1459 11.3662 52.583 11.5605 53.0688 11.7062C55.9346 12.6777 58.8975 13.212 61.9091 13.2605C62.1034 13.2605 62.2977 13.4548 62.2977 13.6491C62.2977 13.8434 62.152 14.0377 61.9091 14.0377C58.8004 13.9891 55.7889 13.4548 52.8745 12.4834C52.4373 12.3377 51.9516 12.1434 51.5144 11.9976C50.203 11.5119 48.8429 10.9776 47.4343 10.8319C44.7142 10.4919 41.7027 11.3662 38.8854 13.3577C36.3596 15.1549 34.271 17.535 32.2795 19.8665C31.1623 21.178 30.8223 22.1494 31.1623 22.878C31.5023 23.5095 32.2795 23.7523 32.9109 23.7038C33.6395 23.6552 34.3195 23.3152 35.0967 22.9752C35.5824 22.7323 36.1167 22.4894 36.6025 22.198C39.7111 20.6437 42.6741 19.1865 45.4428 17.2435C45.5885 17.1464 45.8314 17.1464 45.9771 17.3407C46.0742 17.4864 46.0742 17.7293 45.8799 17.875C43.0627 19.8665 40.0997 21.3723 36.9425 22.9266C36.4567 23.1695 35.9224 23.4123 35.4367 23.7038C34.611 24.0924 33.8338 24.4809 32.9595 24.5295C32.7652 24.2867 32.7166 24.2867 32.668 24.2867Z" fill="black"/>
<path d="M60.0148 37.7899C59.8691 37.7899 59.7234 37.6927 59.6748 37.547C59.5777 37.3527 59.6748 37.1584 59.8691 37.0613C62.5406 35.9441 65.2122 34.8269 67.8351 33.6612C68.0294 33.564 68.2237 33.6612 68.3209 33.8554C68.418 34.0497 68.3209 34.244 68.1266 34.3412C65.5036 35.5069 62.7835 36.6241 60.112 37.7413C60.112 37.7899 60.0634 37.7899 60.0148 37.7899Z" fill="black"/>
<path d="M58.9948 39.2471C58.8976 39.2471 58.8491 39.2471 58.8005 39.2471C57.5862 39.1014 56.3718 38.3243 55.4975 37.0128C54.9146 36.187 54.526 35.2641 54.186 34.3898C54.0889 34.0984 53.9432 33.8069 53.846 33.5641C52.826 31.3297 51.4659 29.2411 49.8144 27.4439C49.6687 27.2981 49.6687 27.0553 49.8144 26.9096C49.9602 26.7638 50.203 26.7638 50.3488 26.9096C52.0974 28.7553 53.4574 30.8926 54.526 33.2241C54.6718 33.5155 54.7689 33.8069 54.9146 34.0984C55.3032 34.9727 55.6432 35.847 56.1775 36.6242C56.9547 37.7414 57.9262 38.4214 58.9462 38.5185C58.9948 38.5185 59.1891 38.5671 59.2376 38.47C59.3348 38.4214 59.3834 38.2271 59.3834 37.8871C59.2376 33.6127 57.829 29.2896 55.4004 25.7438C52.9717 22.198 49.4744 19.3321 45.4914 17.6807C45.2971 17.5835 45.2 17.3892 45.2971 17.1949C45.3943 17.0006 45.5886 16.9035 45.7829 17.0006C49.863 18.7007 53.506 21.6637 55.9832 25.3552C58.509 28.9982 59.9662 33.4669 60.0634 37.8871C60.0634 38.13 60.112 38.81 59.5777 39.1014C59.3834 39.2471 59.1891 39.2471 58.9948 39.2471Z" fill="black"/>
<path d="M40.5369 43.3273C40.0026 43.3273 39.3712 43.2302 38.6426 42.6959C38.4968 42.5987 38.4483 42.3558 38.5454 42.1616C38.6426 42.0158 38.8854 41.9673 39.0797 42.0644C39.7597 42.5501 40.3426 42.5501 40.8769 42.5016H40.9255C41.7027 42.453 42.5284 42.0644 42.9656 41.5301C43.1599 41.2872 43.4027 40.8987 43.3056 40.4615V40.4129C43.3056 39.6357 43.2084 38.81 43.1113 38.2271C43.0627 38.0814 43.1599 37.8871 43.3056 37.8385C43.4513 37.79 43.6456 37.79 43.7427 37.9357C44.3256 38.5671 44.8599 39.1986 45.5885 39.6357C46.3171 40.0729 47.1429 40.2186 47.7743 39.9758C48.6486 39.6358 49.5229 38.13 49.3287 37.3042C49.2801 37.1099 49.4258 36.9157 49.6201 36.8671C49.8144 36.8185 50.0087 36.9642 50.0573 37.1585C50.3487 38.47 49.1344 40.2672 48.0172 40.7044C47.1429 40.9958 46.1228 40.8501 45.1999 40.3158C44.7628 40.0243 44.3256 39.6843 43.9856 39.3443C44.0342 39.7329 44.0342 40.1215 44.0342 40.5101C44.0828 41.0929 43.937 41.6273 43.4999 42.1616C42.917 42.8902 41.897 43.3759 40.9255 43.3759H40.8769C40.7798 43.3273 40.6341 43.3273 40.5369 43.3273Z" fill="black"/>
<path d="M52.6802 40.3157C52.3888 40.3157 52.0974 40.2186 51.8059 40.1214C50.3973 39.5871 49.6687 38.0328 48.9401 36.5756C48.4544 35.5556 47.9201 34.487 47.2401 33.8555C47.0943 33.7098 47.0943 33.4669 47.1915 33.3212C47.3372 33.1755 47.5801 33.1755 47.7258 33.2726C48.5515 34.0012 49.0858 35.1184 49.6201 36.187C50.3002 37.5956 50.9316 38.9071 52.0974 39.3443C52.5831 39.5386 53.166 39.7814 53.9917 38.4214C54.2346 38.0328 54.2832 37.5956 54.2832 37.1585C54.3803 35.9927 54.0403 34.827 53.7489 33.6612C53.7003 33.4669 53.6517 33.3212 53.6031 33.1269C53.5546 32.9326 53.6517 32.7383 53.8946 32.6898C54.0889 32.6412 54.2832 32.7383 54.3317 32.9812C54.3803 33.1755 54.4289 33.3212 54.4775 33.5155C54.7689 34.7298 55.1089 35.9927 55.0118 37.2556C54.9632 37.7899 54.9146 38.3728 54.6232 38.8585C53.9432 39.9757 53.3117 40.3157 52.6802 40.3157Z" fill="black"/>
<path d="M28.6366 40.0729C28.588 40.0729 28.588 40.0729 28.5394 40.0729C27.1308 40.0244 25.9651 39.1986 25.625 38.0814C25.4793 37.6443 25.4793 37.2071 25.5765 36.77C24.7993 37.2557 23.8764 37.45 23.0021 37.2557C21.642 37.0128 20.4763 35.8956 20.2334 34.5842C20.1363 34.0499 20.3306 33.7584 20.4763 33.5641C20.622 33.4184 20.8649 33.4184 21.0106 33.5641C21.1563 33.7098 21.1563 33.9527 21.0106 34.0984C20.962 34.147 20.962 34.2441 20.962 34.4384C21.1077 35.4585 22.0306 36.3328 23.0992 36.5271C24.1678 36.7214 25.285 36.2842 25.8679 35.4585C25.9651 35.3128 26.1593 35.2642 26.3051 35.3613C26.4508 35.3128 26.5479 35.2642 26.6451 35.2156C28.1023 34.6327 29.6566 34.2927 31.2595 34.147C32.5224 34.0499 33.3968 34.3413 33.7853 35.0699C33.9796 35.4099 34.0282 35.7985 33.9796 36.2842C33.8825 36.9157 33.6396 37.4985 33.251 37.9357C32.8624 38.3729 32.3767 38.7129 31.891 39.0043C31.0167 39.5386 29.8509 40.0729 28.6366 40.0729ZM26.4508 36.1871C26.3051 36.8185 26.2079 37.3528 26.3536 37.8386C26.6451 38.7615 27.6651 39.2958 28.588 39.2958C29.6566 39.3443 30.7252 38.81 31.5024 38.3729C31.9396 38.13 32.3767 37.8386 32.6682 37.4985C32.9596 37.1585 33.2025 36.6728 33.251 36.2356C33.2996 35.9928 33.2996 35.7013 33.1539 35.4585C32.8624 34.9242 31.9881 34.8756 31.3567 34.9242C29.8509 35.0213 28.3451 35.3613 26.9365 35.9442C26.6937 35.9928 26.5479 36.0899 26.4508 36.1871Z" fill="black"/>
<path d="M32.2795 42.55C31.6967 42.55 31.1624 42.4043 30.6766 42.1615C29.8023 41.6272 29.2194 40.5585 29.3166 39.5385C29.3166 39.3442 29.5109 39.1985 29.7052 39.1985C29.8995 39.1985 30.0452 39.3928 30.0452 39.5871C29.9966 40.3157 30.3852 41.1414 31.0166 41.4814C31.6481 41.87 32.4738 41.87 33.3482 41.5786C34.1739 41.2871 34.8539 40.7528 35.5825 40.2185C36.6026 39.4414 37.5254 38.5185 37.6226 37.4013C37.6226 37.3527 37.6226 37.2556 37.6226 37.1584C37.6226 37.1098 37.5255 37.0613 37.4283 36.9641C36.894 36.6241 36.1654 36.5755 35.3882 36.7213C34.7082 36.867 34.1253 37.1584 33.4939 37.4984L33.3967 37.547C33.2024 37.6442 33.0081 37.547 32.911 37.4013C32.8139 37.207 32.911 37.0127 33.0567 36.9156L33.1539 36.867C33.8339 36.527 34.4653 36.187 35.2425 36.0412C36.214 35.8469 37.1369 35.9441 37.8169 36.3327C37.9626 36.4298 38.2055 36.5755 38.3026 36.867C38.3998 37.0613 38.3998 37.2556 38.3998 37.4499C38.3026 38.8585 37.234 39.8785 36.0683 40.7528C35.3397 41.3357 34.5625 41.9186 33.6396 42.21C33.2024 42.5015 32.7167 42.55 32.2795 42.55Z" fill="black"/>
<path d="M36.6025 43.6188C36.0682 43.6188 35.5339 43.473 35.0967 43.2787C34.5624 42.9873 33.9795 42.453 34.0281 41.7244C34.0281 41.5301 34.2224 41.3844 34.4167 41.3844C34.611 41.3844 34.7567 41.5787 34.7567 41.773C34.7567 42.113 35.0967 42.453 35.4367 42.5987C35.9225 42.8416 36.5053 42.9387 37.0882 42.8416C37.9625 42.6959 38.7397 42.113 39.3712 41.5787C40.0998 40.9472 40.3912 40.4615 40.3426 39.9758C40.294 39.4415 39.6626 39.0529 39.1283 39.0043C38.594 38.9557 38.0597 39.1986 37.4282 39.6843C37.2825 39.8301 37.0396 39.7815 36.8939 39.6358C36.7482 39.49 36.7968 39.2472 36.9425 39.1015C37.4282 38.7129 38.2054 38.2271 39.1283 38.2757C39.954 38.3243 40.9255 38.9557 41.0226 39.8786C41.1198 40.8501 40.3912 41.6273 39.8083 42.113C39.1283 42.6959 38.254 43.3759 37.1854 43.5702C36.9425 43.6188 36.7968 43.6188 36.6025 43.6188Z" fill="black"/>
<path d="M26.2078 35.847C26.0135 35.847 25.8678 35.7013 25.8678 35.5556C25.7221 34.7784 24.8963 34.3413 24.4106 34.147C23.002 33.5641 21.7877 33.5641 20.7676 34.1955C20.6219 34.2927 20.379 34.2441 20.2819 34.0984C18.8733 32.1555 17.1246 30.6983 15.036 29.7754C14.8417 29.6782 14.7446 29.4839 14.8417 29.2897C14.9388 29.0954 15.1331 28.9982 15.3274 29.0954C17.4161 30.0183 19.2133 31.4269 20.6705 33.3698C21.8362 32.7869 23.1963 32.7869 24.7021 33.4184C25.7707 33.8555 26.4507 34.5841 26.5964 35.4099C26.645 35.6042 26.4993 35.7985 26.305 35.847C26.2564 35.847 26.2564 35.847 26.2078 35.847Z" fill="black"/>
<path d="M20.8648 13.309C20.7191 13.309 20.5248 13.2119 20.5248 13.0176C20.4762 12.8233 20.6219 12.629 20.8162 12.5804C24.8964 11.6575 28.6851 10.3461 31.7938 9.18032L32.0852 9.08317C33.2995 8.64601 34.5139 8.20885 35.8253 8.06314C38.8369 7.72312 41.6056 9.0346 44.0342 10.1518C44.2285 10.2489 44.2771 10.4432 44.2285 10.6375C44.1314 10.8318 43.9371 10.8804 43.7428 10.8318C41.4113 9.71462 38.7397 8.50029 35.9225 8.79173C34.7082 8.93745 33.5424 9.37461 32.3766 9.7632L32.0852 9.86034C28.928 11.0261 25.1392 12.3376 21.0105 13.2605C20.9134 13.309 20.9134 13.309 20.8648 13.309Z" fill="black"/>
<path d="M28.1994 6.89742C28.0537 6.89742 27.9565 6.84885 27.908 6.70313C27.8108 6.50884 27.8594 6.31454 28.0051 6.16882C31.3567 4.0316 35.3882 3.01157 39.3712 3.20586C39.5655 3.20586 39.7112 3.40015 39.7112 3.59445C39.7112 3.78874 39.5169 3.93446 39.3227 3.93446C35.4854 3.74017 31.5995 4.71163 28.3937 6.7517C28.3451 6.89742 28.2965 6.89742 28.1994 6.89742Z" fill="black"/>
<path d="M25.8679 3.30299C25.7707 3.30299 25.625 3.25442 25.5764 3.15727C25.4793 2.96298 25.5278 2.76869 25.6736 2.62297C27.6651 1.31149 29.948 0.437173 32.2795 1.47829e-05C32.4738 -0.0485584 32.6681 0.0971611 32.7167 0.291454C32.7652 0.485746 32.6195 0.680039 32.4252 0.728612C30.1909 1.1172 28.0051 1.99151 26.1107 3.20584C26.0136 3.25442 25.965 3.30299 25.8679 3.30299Z" fill="black"/>
<path d="M49.5716 43.8616C49.3773 43.8616 49.2316 43.7159 49.183 43.5216C49.183 43.3273 49.3287 43.133 49.523 43.133C51.6602 43.0844 53.7974 42.2587 55.4489 40.8987C55.5946 40.7529 55.8375 40.8015 55.9832 40.9472C56.1289 41.0929 56.0804 41.3358 55.9347 41.4815C54.1374 42.9873 51.9031 43.813 49.5716 43.8616Z" fill="black"/>
</g>
<defs>
<clipPath id="clip0_237_5815">
<rect width="80" height="43.8616" fill="white" transform="translate(0.124023)"/>
</clipPath>
</defs>
</svg>
