<svg width="284" height="284" viewBox="0 0 284 284" fill="none" xmlns="http://www.w3.org/2000/svg">
<g clip-path="url(#clip0_237_5409)">
<path d="M193.244 102.755C193.081 101.452 192.592 100.149 191.94 99.1721C191.451 98.5207 190.637 96.8923 189.496 97.3808C189.17 97.5437 188.844 98.0322 188.682 98.3579C187.378 100.801 187.052 103.732 186.237 106.5C185.26 109.431 183.793 112.525 181.838 114.968C180.698 116.434 179.394 117.573 178.091 118.876C176.787 120.179 175.321 121.482 174.017 122.784C173.528 123.273 172.877 124.087 172.062 124.413C171.41 124.739 170.758 124.25 170.107 124.087C169.292 123.924 168.64 123.762 167.826 123.599C165.056 123.273 162.123 123.436 159.353 122.784C158.864 122.622 158.375 122.622 158.212 122.947C157.886 123.11 157.886 123.599 158.049 123.924C158.212 124.25 158.538 124.413 158.864 124.576C160.33 125.39 162.286 125.39 163.915 126.041C164.241 126.204 164.567 126.53 164.567 126.856L164.404 127.018C162.774 128.484 160.819 129.461 159.353 131.09C159.027 131.415 158.701 131.904 158.701 132.392C158.701 132.881 159.19 133.369 159.679 133.207C159.353 133.695 159.353 134.509 159.679 134.835C160.005 135.161 160.33 135.161 160.819 135.161C161.145 135.161 161.634 134.835 161.96 134.672C162.449 134.346 162.774 134.021 163.1 133.532C164.241 133.695 165.219 133.695 166.359 133.532C166.522 133.532 166.685 133.532 166.848 133.532C167.011 133.532 167.174 133.532 167.337 133.695C169.455 134.184 171.573 133.858 173.365 132.555C174.017 132.067 174.506 131.578 174.832 130.927C176.624 130.601 178.416 129.95 180.046 129.461C182.164 128.81 184.282 128.321 186.237 127.181C188.844 125.716 190.148 123.11 191.289 120.505C191.94 118.713 192.266 116.596 192.592 114.805C192.918 112.851 193.244 110.897 193.57 108.943C193.407 106.663 193.57 104.709 193.244 102.755Z" fill="#FFB78C"/>
<path d="M200.413 84.1904C197.969 84.8418 195.525 85.8189 193.244 86.9588C191.777 87.773 190.637 88.7501 189.659 90.0528C188.682 91.3556 187.867 92.8212 187.052 94.2868C186.726 94.9381 186.237 95.7524 185.912 96.4037C185.586 97.0551 185.097 97.7065 184.934 98.3579C184.608 99.4978 185.423 100.801 186.075 101.615C186.726 102.429 187.541 102.918 188.356 103.406C188.844 103.732 189.496 104.057 190.148 104.057C190.148 103.406 189.985 102.918 190.148 102.266C190.311 101.615 190.474 100.963 190.637 100.312C191.126 99.1721 191.777 98.0322 192.266 96.8923C192.918 95.5895 193.57 94.4496 194.384 93.1469C195.036 92.007 195.851 91.1927 196.503 90.0528C196.828 89.4014 197.154 89.0758 197.806 88.5872C198.295 88.0987 198.784 87.4473 199.272 86.7959C200.087 85.656 201.065 84.679 202.042 83.5391C201.554 84.0276 200.902 84.1904 200.413 84.1904Z" fill="#6B6CB3"/>
<path d="M229.416 99.172C229.253 100.475 228.275 101.452 227.461 102.592C224.039 106.989 222.898 112.851 222.41 118.55C221.595 126.367 221.106 134.183 222.898 142C223.713 145.908 225.017 149.817 225.668 153.725L185.749 130.601C185.749 126.367 185.586 122.133 185.26 117.899C185.097 116.433 184.934 114.968 184.771 113.502C184.445 111.711 183.793 110.245 183.956 108.291C184.282 105.686 186.237 103.732 187.215 101.289C188.03 99.3349 188.519 97.2179 189.17 95.2637C189.822 93.1468 190.637 91.0298 191.614 88.9128C191.777 88.4243 191.94 88.0986 192.266 87.7729C192.755 87.2844 193.244 86.9587 193.896 86.633C198.621 84.3532 203.835 82.7248 208.886 81.422C209.537 81.2592 210.352 81.0963 211.167 81.0963C212.633 81.0963 214.1 82.0734 215.24 83.0504C219.64 86.4702 223.713 90.3784 227.298 94.6124C228.438 95.9151 229.579 97.5436 229.416 99.172Z" fill="#4D4D80"/>
<path d="M231.045 110.245C229.905 111.06 228.764 111.711 227.298 111.874C225.18 112.362 222.898 111.874 220.78 111.385C219.965 111.223 219.151 110.897 218.336 111.06C215.566 111.548 217.033 114.968 217.358 116.759C217.847 119.528 218.01 122.296 218.01 125.064C218.01 126.53 218.173 128.158 218.01 129.624C217.684 130.927 216.87 131.252 215.729 131.578C213.774 132.229 211.819 132.881 209.863 133.369C206.442 134.346 194.384 136.138 193.733 136.138C193.244 136.138 192.755 136.301 192.266 136.138C191.777 135.975 191.614 135.812 191.289 135.649H191.126C190.637 135.486 189.985 135.649 189.496 135.649C188.844 135.812 188.356 135.812 187.704 135.975C184.608 136.626 181.349 137.115 178.091 136.626C176.95 136.463 175.809 136.138 174.669 135.975C174.18 135.975 173.528 135.975 173.202 136.301C173.04 136.463 173.04 136.626 172.877 136.626C172.388 137.115 171.573 136.789 170.921 137.115C170.433 137.44 170.433 138.092 170.758 138.418C171.247 138.906 172.062 138.743 172.388 139.395C171.736 139.557 171.247 139.232 170.595 139.232C169.944 139.232 169.292 139.72 169.455 140.372C169.455 140.534 169.781 140.697 169.944 140.86C170.433 141.186 170.921 141.349 171.41 141.512C170.921 141.674 170.921 142.489 171.247 142.814C171.573 143.14 172.225 143.14 172.714 143.14C173.528 143.14 174.18 142.814 174.832 142.814C177.276 142.326 179.883 142.326 182.49 142.326C184.934 142.326 187.215 142.163 189.659 142C190.8 142 191.94 141.837 193.244 141.837C193.896 141.837 215.24 142.163 224.854 140.046C226.157 139.72 227.624 139.232 228.438 138.092C229.416 136.626 229.742 134.346 230.068 132.718C230.882 128.484 231.208 124.25 231.208 120.016C231.208 119.365 231.208 118.713 231.208 118.062C231.534 115.294 231.534 112.688 231.045 110.245Z" fill="#FFE5CC"/>
<path d="M201.879 87.6101C201.879 87.773 201.879 88.0987 201.879 88.2615C202.042 88.5872 202.205 88.75 202.368 88.9129C202.857 89.2386 203.509 89.4014 203.998 89.5643C206.768 90.2156 209.538 90.0528 212.145 89.4014C213.448 89.0757 214.914 88.75 216.218 88.2615C216.87 87.9358 218.662 87.6101 218.662 86.6331C218.662 86.3074 218.336 85.9817 218.173 85.656C217.847 85.4932 217.684 85.1675 217.359 85.0046C216.87 84.6789 216.707 84.1904 216.544 83.539C216.218 82.7248 216.055 81.7478 215.892 80.9335C215.403 78.4909 214.914 76.2111 214.589 73.7684C214.589 73.4427 214.426 72.9542 213.937 72.7913C213.285 72.6285 212.633 73.2799 212.307 73.6056C211.819 74.0941 211.167 74.4198 210.515 74.7455C209.375 75.3968 208.071 75.8854 206.605 76.0482C205.301 76.2111 203.998 76.3739 202.694 76.5367C202.531 76.5367 202.368 76.5367 202.205 76.6996C202.042 76.8624 202.042 77.0253 202.042 77.1881C201.879 78.4909 202.042 79.7936 201.879 81.0964C201.879 82.3991 201.717 83.7019 201.717 85.0046C202.042 85.9817 202.042 86.7959 201.879 87.6101Z" fill="#FFB78C"/>
<path d="M195.688 59.2752C195.362 60.0895 195.199 61.0665 195.199 61.8807C195.199 62.695 195.362 63.672 195.851 64.3234C196.503 65.1376 197.643 65.3005 198.621 65.3005C200.25 65.3005 201.879 64.9748 203.183 64.1606C205.301 62.695 205.953 60.4151 204.975 57.9725C204.649 57.1583 204.161 56.344 203.509 55.8555C203.02 55.5298 202.694 55.5298 202.205 55.367C201.717 55.2041 201.228 54.8784 200.739 54.8784C199.11 54.3899 197.48 55.6927 196.665 56.9954C196.34 57.8096 195.851 58.461 195.688 59.2752Z" fill="#754600"/>
<path d="M200.576 54.7157C198.621 56.0184 197.317 57.9726 196.503 60.2524C195.688 62.695 195.036 65.3005 195.199 67.9061C195.199 70.1859 195.525 72.3028 196.014 74.5827C196.34 76.3739 196.665 78.1652 196.991 79.9565C197.154 80.6079 197.154 81.0964 197.643 81.5849C198.295 82.2363 199.272 82.0735 200.087 82.0735C203.02 81.585 205.79 80.9336 208.397 79.7937C209.538 79.3051 210.678 78.8166 211.656 78.0024C212.633 77.1882 213.448 76.0483 213.448 74.9083C214.263 74.9083 215.24 74.4198 215.892 73.9313C219.477 70.8372 220.617 65.7891 219.966 61.0666C219.803 59.601 219.477 58.2983 218.662 56.9955C217.196 54.5528 214.589 53.2501 211.819 52.5987C208.071 51.7845 203.835 52.5987 200.576 54.7157Z" fill="#FFE5CC"/>
<path d="M203.998 57.9725C203.672 57.9725 204.324 59.4381 204.324 59.6009C204.486 60.2523 204.975 60.7409 205.301 61.0665C206.931 62.695 209.538 63.1835 210.515 65.1376C210.841 65.789 211.004 66.6032 211.167 67.2546C211.33 67.906 211.819 68.7202 212.47 68.8831C212.633 67.906 213.774 67.0918 214.752 67.2546C217.033 67.7432 217.033 70.023 216.055 71.6514C215.403 72.6285 214.426 73.4427 213.611 74.4198C213.122 74.9083 212.145 76.3739 213.122 76.8624C213.774 77.0253 214.589 76.5367 215.077 76.3739C216.381 75.7225 217.684 75.0711 218.662 74.0941C220.943 72.1399 221.269 69.6973 221.432 66.7661C221.758 63.1835 221.921 58.9496 220.128 55.6927C219.477 54.5528 218.662 53.9014 217.684 53.25C215.566 51.7844 213.122 50.9702 210.678 50.8074C209.375 50.8074 208.071 50.8074 206.768 51.1331C204.649 51.4587 202.694 52.1101 200.902 53.0872C199.761 53.7386 198.784 54.5528 197.806 55.367C197.317 55.8555 196.991 56.3441 196.503 56.8326C196.014 57.484 196.665 57.8097 197.317 57.9725C199.598 58.7867 201.879 58.6239 203.998 57.9725Z" fill="#754600"/>
<path d="M219.477 95.5895C217.359 98.3578 216.218 101.778 215.892 105.197C215.566 107.966 215.729 110.734 216.055 113.502C216.218 114.317 216.055 115.456 216.87 115.945C218.01 116.759 219.64 116.759 220.943 116.759C224.528 116.922 228.438 116.434 231.534 114.479C233.001 113.502 232.512 111.223 232.512 109.757C232.349 107.314 232.023 104.872 231.371 102.429C230.719 99.172 229.416 95.9152 226.972 93.6353C225.831 92.6583 224.691 92.3326 223.224 92.8211C221.595 93.3097 220.454 94.4496 219.477 95.5895Z" fill="#6B6CB3"/>
<path d="M181.349 137.766C181.675 138.092 182.164 138.092 182.49 138.255C183.63 138.417 184.771 138.743 186.075 139.069C187.215 139.395 188.356 139.557 189.496 139.557C190.474 139.557 191.451 139.232 191.94 138.417C192.266 137.929 192.429 137.115 192.266 136.463C192.103 135.812 191.451 135.323 190.8 135.161C190.148 134.998 189.496 135.161 189.007 135.323C188.356 135.486 187.867 135.812 187.215 135.975C186.726 136.138 186.075 136.3 185.586 136.3C184.771 136.3 183.793 136.138 182.979 136.138C182.49 136.138 181.512 136.138 181.186 136.789C181.023 136.952 181.023 137.278 181.186 137.44C181.186 137.603 181.186 137.766 181.349 137.766Z" fill="#FFB78C"/>
<path d="M280.089 28.9863L230.719 0.488592C229.579 -0.162784 228.601 -0.162784 227.949 0.162904L224.365 2.27988C225.017 1.79134 225.994 1.95419 227.135 2.60557L276.505 31.1033C278.623 32.406 280.415 35.3372 280.415 37.9427L280.252 70.1858C280.252 71.4886 279.764 72.3028 279.112 72.7914L282.696 70.6744C283.348 70.1859 283.837 69.3716 283.837 68.0689L284 35.8257C284 33.3831 282.371 30.2891 280.089 28.9863Z" fill="#B4BCCF"/>
<path d="M276.505 31.1033C278.623 32.406 280.415 35.3372 280.415 37.9427L280.252 70.1859C280.252 72.6285 278.46 73.7684 276.342 72.4657L245.71 54.7157L228.275 64.6492V44.6193L226.972 43.968C224.854 42.6652 223.061 39.734 223.061 37.1285L223.224 4.88539C223.224 2.44273 225.017 1.30282 227.135 2.60558L276.505 31.1033Z" fill="#F2F2F2"/>
<path d="M243.429 41.1996C243.429 42.6652 242.288 43.3166 240.984 42.5024C239.681 41.6881 238.54 39.8969 238.54 38.4313C238.54 36.9657 239.681 36.3143 240.984 37.1285C242.451 37.7799 243.429 39.5712 243.429 41.1996Z" fill="#4D4D80"/>
<path d="M250.109 44.945C250.109 46.4106 248.968 47.0619 247.665 46.2477C246.361 45.4335 245.221 43.6422 245.221 42.1766C245.221 40.711 246.361 40.0596 247.665 40.8739C249.131 41.6881 250.109 43.4794 250.109 44.945Z" fill="#4D4D80"/>
<path d="M256.789 48.8533C256.789 50.3189 255.649 50.9703 254.345 50.156C253.042 49.3418 251.901 47.5505 251.901 46.0849C251.901 44.6193 253.042 43.968 254.345 44.7822C255.812 45.4336 256.789 47.3877 256.789 48.8533Z" fill="#4D4D80"/>
<path d="M263.47 52.7615C263.47 54.2271 262.329 54.8785 261.026 54.0642C259.722 53.25 258.582 51.4587 258.582 49.9931C258.582 48.5276 259.722 47.8762 261.026 48.6904C262.492 49.3418 263.47 51.1331 263.47 52.7615Z" fill="#4D4D80"/>
<path d="M73.0691 222.786C73.1271 212.083 58.0736 203.326 39.4461 203.225C20.8186 203.124 5.67102 211.718 5.61297 222.42C5.55493 233.123 20.6084 241.881 39.2359 241.982C57.8634 242.082 73.011 233.488 73.0691 222.786Z" fill="#F2F2F2"/>
<path d="M11.7315 139.72C11.0797 138.417 10.5909 136.952 9.6133 135.975C9.12449 135.486 8.63567 135.161 8.3098 134.509C8.14686 134.021 7.98392 133.532 7.82099 133.044C6.84336 129.135 7.33217 125.227 7.49511 121.319C7.65805 118.713 8.14686 116.108 8.79861 113.502C9.12449 112.2 9.45036 110.897 9.77623 109.757C10.1021 108.454 10.1021 107.151 10.265 105.849C10.428 103.895 10.7539 101.94 10.9168 99.9863C10.9168 99.6606 10.9168 99.3349 10.9168 99.0092C10.9168 98.6835 10.7539 98.5207 10.5909 98.195C9.77623 95.7523 9.45036 92.984 7.98392 90.7041C7.49511 90.0528 7.0063 89.4014 6.35455 88.9129C5.7028 88.4243 4.72517 88.2615 3.91049 88.5872C2.44405 89.0757 2.44405 90.3784 2.28111 91.6812C1.95524 93.3096 1.62936 95.1009 1.46642 96.8922C1.62936 97.7064 1.46642 98.6835 1.30349 99.6606C0.977612 102.103 0.814674 104.546 0.651737 106.989C0.651737 108.128 0.651737 109.268 0.651737 110.408C0.651737 111.548 0.325862 112.525 0.162924 113.665C-0.162951 116.434 -0.162951 119.202 0.162924 122.133C0.325862 123.761 0.651737 125.227 0.977612 126.856C1.46642 129.298 1.95524 131.904 2.44405 134.346C2.76992 135.486 3.0958 136.3 2.60699 137.278C2.28111 138.092 2.11817 138.906 1.95524 139.72C1.7923 140.534 1.7923 141.349 1.95524 142.163C2.11817 142.651 2.28111 143.14 2.60699 143.628C3.0958 144.606 3.74755 145.583 4.3993 146.56C4.72517 147.048 5.21399 147.7 5.86574 148.025C6.19161 148.188 6.51749 148.188 6.84336 148.351C7.98392 148.188 8.96155 148.351 10.1021 148.188C10.265 148.188 10.428 148.188 10.5909 148.025C10.7539 147.862 10.9168 147.7 10.9168 147.374C11.0797 146.885 11.0797 146.56 11.2427 146.071C11.2427 145.908 11.2427 145.745 11.2427 145.745C11.2427 145.583 11.0797 145.42 11.0797 145.094C10.7539 144.606 10.428 144.28 10.1021 143.791C9.6133 143.14 9.45036 142.489 9.28742 141.837C9.12449 141.186 8.96155 140.534 8.63567 139.72C8.63567 139.557 8.47274 139.232 8.79861 139.069C9.12449 138.906 9.45036 139.232 9.6133 139.395C9.93917 140.046 10.265 140.534 10.5909 141.186C10.9168 141.837 11.4056 142.326 12.0574 142.489C12.3832 142.651 12.7091 142.489 12.872 142.326C12.872 142.163 12.872 142.163 12.872 142C12.7091 141.349 12.2203 140.534 11.7315 139.72Z" fill="#FFB78C"/>
<path d="M10.2651 76.8624C9.28743 77.0253 8.3098 77.5138 7.33218 78.1652C5.53987 79.4679 4.3993 81.2592 3.42168 83.2133C2.44406 85.1674 1.95524 87.2844 1.14056 89.2386C0.651743 90.5413 0.162931 91.6812 -6.2529e-06 92.984C-0.162944 94.1239 0.488806 95.2638 1.14056 96.078C1.95524 97.2179 2.93287 98.195 4.23637 99.0092C5.53987 99.8234 6.84337 100.149 8.3098 99.9863H8.47274V99.8234C8.47274 99.0092 8.14687 97.8693 8.3098 97.0551C8.47274 96.078 8.79862 95.1009 8.96155 94.1239C9.45037 92.1697 10.1021 90.2156 10.7539 88.4243C11.4056 86.633 11.8944 85.0046 12.5462 83.2133C12.8721 82.0734 13.3609 80.9335 13.6867 79.9564C13.8497 79.4679 14.5014 77.8395 14.0126 77.3509C13.8497 77.1881 13.8497 77.1881 13.6867 77.1881C12.5462 76.6996 11.4056 76.6996 10.2651 76.8624Z" fill="#6B6CB3"/>
<path d="M16.6196 228.47C16.6196 229.773 16.9455 231.564 18.0861 232.053C19.3896 232.704 21.8336 231.727 22.9742 230.913C24.2777 230.099 25.2553 228.796 25.7441 227.167C26.07 226.19 26.2329 225.376 27.2106 224.888C28.1882 224.236 29.3288 223.585 30.3064 222.933C31.9358 221.956 33.7281 220.979 34.5427 219.188C35.1945 217.723 35.1945 215.768 33.5651 214.954C32.7504 214.628 31.9358 214.466 30.9581 214.628C28.0253 214.791 25.2553 215.606 22.8113 217.234C21.9966 217.722 21.1819 218.374 20.3672 219.025C19.0637 220.165 18.249 221.631 17.5973 223.259C17.1084 224.562 16.7826 226.028 16.7826 227.493C16.6196 227.819 16.6196 228.145 16.6196 228.47Z" fill="#DE2910"/>
<path d="M29.6546 146.397C29.1658 144.443 29.0028 142.489 27.8623 140.86C26.8847 139.395 25.5812 138.417 24.1147 137.44C20.856 135.161 17.7602 133.044 14.5014 130.764C13.8497 130.275 13.1979 129.95 12.5462 129.787C9.93916 129.298 9.45035 133.369 9.12448 135.161C8.47273 137.929 8.30979 140.86 9.12448 143.628C9.45035 144.931 10.1021 146.234 10.5909 147.374C11.2427 149.165 11.7315 151.119 12.0574 153.073C12.872 157.307 13.3609 161.541 13.5238 165.775C13.6867 170.172 13.1979 174.406 12.872 178.803C12.5462 183.2 11.2427 187.434 11.0797 191.83C10.9168 194.11 11.0797 196.227 11.2427 198.507C11.8944 204.695 13.5238 210.557 15.1532 216.583C15.8049 219.025 16.4567 221.305 17.4343 223.585C17.5972 223.911 17.5972 224.073 17.9231 224.236C18.086 224.399 18.4119 224.399 18.5748 224.399C20.856 224.399 23.1371 223.259 24.4406 221.305C24.9294 220.654 25.2553 219.839 25.2553 219.025C25.4182 218.048 25.2553 217.234 25.0923 216.257C24.1147 209.906 23.1371 203.555 23.463 197.041C23.6259 193.947 26.07 182.222 26.7217 179.291C28.1882 173.103 29.0028 166.752 30.7952 160.564C31.4469 158.284 32.5875 155.842 32.2616 153.399C32.0987 152.259 31.4469 151.282 30.9581 150.142C30.3063 149.165 29.9805 147.862 29.6546 146.397Z" fill="#F76D31"/>
<path d="M42.8525 222.282C42.6896 222.934 42.6896 223.748 42.8525 224.399C43.1784 225.376 44.1561 226.19 45.1337 226.516C46.1113 226.842 47.2519 226.679 48.2295 226.516C49.2071 226.353 50.3477 225.865 51.3253 225.702C54.2582 225.051 57.5169 225.376 60.4498 224.399C62.8939 223.585 65.012 221.956 66.4785 220.002C66.9673 219.188 67.4561 218.211 67.4561 217.234C67.4561 216.257 67.1302 215.117 66.1526 214.629C65.6638 214.303 65.012 214.303 64.5232 214.303C61.2645 213.977 57.8428 214.303 54.584 213.977C53.4435 213.814 52.3029 213.651 51.1624 213.814C50.0218 213.977 49.0442 214.466 48.0665 214.791C47.2519 215.117 46.4372 215.606 45.6225 216.094C43.9931 217.56 43.1784 220.002 42.8525 222.282Z" fill="#FF5740"/>
<path d="M59.3092 171.149C59.1463 169.358 58.6575 167.729 58.1686 165.938C56.0505 158.936 53.9323 151.771 50.9994 144.931C49.0441 140.372 46.763 135.975 42.8525 132.881C40.7343 135.975 36.6609 136.952 32.9133 136.463C29.1658 136.138 25.7441 134.672 22.1595 133.695C21.3448 133.532 19.5525 133.206 18.5748 133.532C17.4343 134.021 16.7825 135.323 16.2937 136.463C14.0126 142.163 16.6196 149.491 21.1818 153.236C23.1371 154.865 25.5811 156.005 27.6993 157.633C29.8175 159.261 31.4469 161.216 33.0763 163.17C34.7056 164.961 36.1721 166.752 37.8015 168.544C39.105 170.009 40.4085 171.475 41.549 173.266C44.156 177.174 44.9707 181.408 43.8301 185.968C43.5043 187.271 43.1784 188.411 42.8525 189.713C42.3637 191.993 42.2008 194.273 42.3637 196.716C42.5266 199.81 43.1784 202.904 43.6672 205.998C43.9931 208.44 44.319 210.883 44.319 213.326C44.319 214.466 44.319 215.768 44.319 216.908C44.319 218.048 43.9931 218.862 45.2966 219.351C46.763 219.839 48.3924 219.839 50.0218 219.351C51.4882 218.862 52.9546 218.211 54.2581 217.234C54.4211 217.234 54.4211 217.071 54.4211 217.071C54.4211 216.908 54.4211 216.908 54.4211 216.745C54.4211 213.814 55.0728 201.438 55.2358 199.972C56.0505 195.087 56.5393 190.202 57.191 185.317C58.0057 180.757 59.798 175.872 59.3092 171.149Z" fill="#FFA947"/>
<path d="M7.65808 78.1651C4.88814 79.9564 4.23639 83.539 4.23639 86.7959C4.39933 98.0321 10.7539 108.617 11.2427 119.853C11.4056 124.25 10.7539 128.647 9.77626 132.881C9.61333 133.695 9.28745 134.672 9.61333 135.486C9.77626 135.975 10.1021 136.463 10.428 136.789C14.6644 142.326 20.6931 146.397 27.2106 148.351C33.891 150.305 41.0603 149.979 47.5778 147.7C48.3924 141.023 46.7631 134.346 45.7854 127.833C44.9708 122.784 44.6449 117.573 44.319 112.362C44.319 111.222 44.1561 110.083 44.4819 109.105C44.8078 107.966 45.4596 106.826 45.9484 105.686C46.7631 103.406 45.6225 101.615 44.4819 99.6605C42.3638 96.4037 40.4085 92.8211 37.6386 89.8899C35.6833 87.9358 33.7281 85.9816 31.6099 84.1903C30.7952 83.3761 29.9805 82.7248 29.1658 81.9105C28.3511 80.9335 27.0476 80.4449 25.9071 79.9564C20.856 77.5137 13.035 74.7454 7.65808 78.1651Z" fill="#4D4D80"/>
<path d="M38.942 56.9954C39.105 57.4839 39.105 57.8096 39.105 58.2982C38.942 59.2752 38.1274 60.0894 38.1274 61.0665C38.1274 61.3922 38.2903 61.7179 38.2903 62.0436C38.6162 63.5092 38.4532 65.1376 38.1274 66.6032C37.8015 68.0688 37.4756 69.6972 36.335 70.8371C35.0315 72.1399 32.9134 72.4656 31.6099 73.6055C30.9581 74.4197 30.9581 75.5596 30.9581 76.3738C30.7952 77.6766 30.7952 78.8165 30.7952 80.1193C30.7952 81.0963 30.7952 82.2362 31.284 83.0504C31.7728 84.0275 32.9134 84.6789 33.2392 85.656C31.9357 85.4931 30.7952 85.0046 29.4917 84.516C27.5364 83.7018 25.4182 82.8876 23.463 82.0734C21.8336 81.422 20.2042 80.7706 18.5749 79.9564C17.5972 79.4679 14.9902 78.1651 15.1532 76.6995C15.1532 76.5367 15.1532 76.5367 15.3161 76.5367C15.479 76.3738 15.8049 76.5367 15.9679 76.5367C16.4567 76.5367 16.6196 75.8853 16.6196 75.5596C16.7825 74.5826 16.7825 73.6055 16.7825 72.4656C16.7825 71 16.7825 69.5344 16.2937 68.0688C15.9679 66.6032 15.479 65.3005 15.1532 63.8349C14.6644 60.9037 14.6644 57.9725 15.479 55.2041C15.8049 54.2271 16.1308 53.25 16.6196 52.4358C17.4343 50.9702 18.4119 49.5046 19.8784 48.6904C20.856 48.2018 21.8336 47.8761 22.8112 47.5504C26.3959 46.7362 30.4693 46.7362 33.891 48.3647C34.8686 48.8532 35.8462 49.5046 36.6609 50.3188C37.3127 51.133 37.6385 52.2729 37.9644 53.25C38.2903 54.3899 38.6162 55.6927 38.942 56.9954Z" fill="#FFE5CC"/>
<path d="M21.6707 46.7363C19.8784 47.3876 18.249 48.3647 16.9455 49.8303C16.2937 50.6445 15.8049 51.2959 15.3161 52.1101C13.3609 55.6927 12.8721 60.0895 13.6867 64.1606C14.0126 65.3005 14.3385 66.4404 14.6644 67.4175C14.9902 68.3945 15.4791 69.6973 15.9679 70.5115C16.6196 71.6514 17.2714 72.1399 18.5749 72.1399C21.0189 72.3028 23.463 71.6514 25.5812 70.3486C26.8847 69.5344 28.0252 68.5574 29.4917 67.906C29.6546 67.906 29.8176 67.7431 29.9805 67.5803C30.1434 67.4174 30.1434 67.2546 30.1434 67.0918C30.1434 66.2775 30.1434 65.6262 30.4693 64.9748C30.7952 64.3234 31.1211 63.672 31.9357 63.3464C32.7504 63.0207 33.7281 63.3463 34.2169 63.9977C34.3798 64.3234 34.7057 64.6491 35.0316 64.6491C35.1945 64.6491 35.3574 64.3234 35.5204 64.1606C36.1721 63.0207 36.0092 61.7179 36.1721 60.4152C36.3351 59.2752 36.9868 58.1353 37.3127 56.9954C37.8015 55.2041 37.9644 52.5986 36.9868 50.9702C36.6609 50.4817 36.3351 49.9931 35.8462 49.5046C32.2616 45.922 26.3959 45.1078 21.6707 46.7363Z" fill="#754600"/>
<path d="M14.3385 73.117C14.3385 73.7684 14.5014 74.4198 14.3385 75.0712C14.1755 75.5597 14.0126 75.8854 13.6867 76.2111C12.5462 78.1652 11.5685 80.2822 11.8944 82.562C11.8944 82.8877 12.0573 83.3762 12.0573 83.7019C12.0573 84.1904 11.8944 84.5161 11.7315 85.0046C11.2427 86.6331 11.0797 88.2615 11.4056 89.89C11.2427 90.5413 11.4056 91.0299 11.4056 91.5184C11.4056 92.0069 11.0797 92.3326 10.9168 92.8212C10.265 94.4496 10.1021 96.2409 10.7538 98.0322C10.9168 98.5207 11.2427 99.1721 11.0797 99.6606C11.0797 100.149 10.9168 100.638 10.7538 100.963C10.265 102.592 10.428 104.546 10.9168 106.174C11.2427 106.337 11.4056 106.826 11.4056 107.151C11.4056 107.477 11.2427 107.966 11.0797 108.291C10.1021 110.245 9.77622 112.362 9.45035 114.479C9.12448 116.759 8.96154 119.039 9.45035 121.319C9.77622 123.599 11.0797 125.716 13.035 126.693C14.0126 121.319 14.9902 115.782 13.8497 110.408C13.6867 109.92 13.6867 109.594 13.6867 109.106C13.6867 108.454 14.1755 107.803 14.5014 107.314C15.3161 105.686 15.3161 103.895 14.6643 102.266C14.5014 101.94 14.3385 101.778 14.5014 101.452C14.5014 101.126 14.8273 100.801 14.9902 100.638C16.4567 98.5207 16.6196 95.7524 15.642 93.4725C15.479 93.1469 15.3161 92.984 15.3161 92.6583C15.3161 92.3326 15.642 92.0069 15.8049 91.6812C16.9455 90.0528 17.1084 87.9358 16.1308 86.1446C15.9678 85.9817 15.9678 85.656 15.9678 85.4932C15.9678 85.1675 16.1308 85.0046 16.2937 84.8418C17.7602 82.8877 18.7378 80.445 17.5972 78.328C18.9007 77.8395 19.7154 76.5368 20.0413 75.234C20.5301 73.6056 20.693 71.8143 20.0413 70.3487C19.5525 69.2088 17.5972 67.0918 16.1308 67.906C14.3385 68.5574 14.1755 71.8143 14.3385 73.117Z" fill="#754600"/>
<path d="M54.584 158.936C54.0952 158.447 53.2805 158.122 52.6288 157.796C51.6511 157.145 50.8365 156.005 49.6959 155.679C49.0441 155.516 48.3924 155.516 47.9036 154.865C46.763 153.399 46.6001 151.119 46.2742 149.328C45.9483 147.374 45.6225 145.42 45.4595 143.466C45.1336 139.883 45.1336 136.3 44.4819 132.718C44.156 130.927 43.5043 129.461 43.0155 127.67C42.5266 125.878 42.2008 124.087 42.0378 122.133C41.712 119.69 41.549 117.248 41.549 114.805C41.549 112.525 41.549 110.083 41.3861 107.803C41.2231 106.337 41.0602 104.872 40.4085 103.569C39.2679 101.289 36.8238 99.9863 34.3798 99.6606C33.728 99.4977 33.0763 99.4977 32.4245 99.6606C30.6322 100.149 30.1434 102.755 29.8175 104.383C29.3287 106.337 29.1658 108.454 29.1658 110.571C29.1658 111.711 29.3287 112.851 29.3287 114.154C29.9805 120.342 31.6098 126.204 32.4245 132.392C32.5875 133.858 32.9133 135.161 33.4021 136.626C33.728 137.929 34.2168 139.069 34.7056 140.372C35.3574 141.837 35.8462 143.466 36.498 144.931C38.1273 149.002 39.7567 153.073 41.549 157.307C41.549 157.633 41.3861 157.959 41.2231 158.284C40.8973 159.587 40.7343 160.89 40.5714 162.193C40.5714 162.518 40.5714 163.007 40.2455 163.333L40.0826 163.495C40.0826 163.658 40.0826 163.658 40.0826 163.821C40.5714 165.124 42.0378 165.938 43.3413 165.612C43.5043 165.612 43.6672 165.45 43.9931 165.45C44.156 165.45 44.319 165.45 44.6448 165.45C45.1336 165.45 45.6225 165.45 46.1113 165.124C46.2742 165.124 46.4371 164.961 46.4371 164.961C46.6001 164.961 46.763 164.961 46.926 164.961C47.4148 164.961 48.0665 164.635 48.3924 164.147C48.5553 163.984 48.5553 163.984 48.7183 163.821C48.8812 163.821 48.8812 163.658 49.0441 163.658C49.533 163.495 50.0218 163.333 50.1847 162.844C50.3476 162.518 50.5106 162.193 50.5106 161.867C50.6735 161.053 50.5106 160.239 50.5106 159.587C50.9994 159.587 51.4882 159.913 51.977 160.076C52.4658 160.401 53.1176 160.564 53.7693 160.564C54.0952 160.564 54.4211 160.564 54.584 160.401C54.9099 160.239 55.0728 160.076 55.0728 159.75C55.0728 159.424 54.9099 159.099 54.584 158.936Z" fill="#FFE5CC"/>
<path d="M30.9581 95.9152C29.8175 98.0322 29.1658 100.312 28.8399 102.592C28.3511 105.849 28.1881 109.268 28.3511 112.688C28.3511 112.851 28.3511 112.851 28.3511 113.014C28.3511 113.177 28.514 113.177 28.677 113.177C32.9133 114.479 37.8015 113.828 41.712 111.385C41.8749 111.223 42.0378 111.223 42.0378 111.06C42.2008 110.897 42.2008 110.734 42.2008 110.408C42.5266 107.803 42.6896 105.197 42.6896 102.592C42.6896 99.9863 42.2008 97.3808 41.0602 94.9381C40.5714 93.961 40.0826 92.984 39.105 92.1698C37.9644 91.3555 36.6609 91.0299 35.5203 91.6812C34.2168 92.3326 33.2392 93.1468 32.2616 94.1239C31.7728 94.4496 31.284 95.101 30.9581 95.9152Z" fill="#6B6CB3"/>
<path d="M132.261 265.697C132.317 255.444 117.991 247.055 100.263 246.959C82.5358 246.863 68.1197 255.097 68.0641 265.349C68.0085 275.602 82.3344 283.991 100.062 284.087C117.79 284.183 132.206 275.95 132.261 265.697Z" fill="#F2F2F2"/>
<path d="M88.1492 164.961C87.8233 164.31 87.3345 163.821 86.8457 163.333C86.6827 158.61 86.1939 153.725 85.5422 149.002C85.7051 149.002 85.868 149.002 86.031 148.84C85.7051 143.954 86.1939 139.069 85.2163 134.346C84.8904 132.555 84.2387 130.764 82.9352 129.461C82.4463 128.973 81.9575 128.647 81.4687 128.484C80.654 128.321 79.8393 128.484 79.1876 128.973C78.5358 129.461 78.047 130.438 77.8841 131.252C77.2323 134.998 77.5582 138.906 77.0694 142.651C76.9065 143.791 76.7435 144.768 76.7435 145.908C76.7435 146.723 76.9065 147.537 77.2323 148.351C77.5582 149.165 77.5582 149.979 77.7212 150.631C78.3729 154.213 79.0247 157.796 80.1652 161.216C80.654 162.844 81.3058 164.473 81.7946 166.101C81.7946 167.729 81.7946 169.358 81.7946 170.986C81.7946 173.429 82.1205 175.709 82.9352 177.989C83.261 178.64 83.7498 179.454 84.4016 179.617C84.5645 179.617 84.8904 179.617 85.0533 179.617C85.2163 179.617 85.2163 179.78 85.3792 179.78C86.031 180.268 86.8457 180.268 87.6603 180.268C87.8233 180.268 88.1492 180.268 88.3121 180.106C88.638 179.943 88.638 179.617 88.8009 179.454C89.7785 177.5 90.1044 175.22 90.1044 172.94C89.9415 170.498 89.6156 167.404 88.1492 164.961Z" fill="#FFB78C"/>
<path d="M84.2387 110.734C83.9128 110.897 83.5869 111.06 83.261 111.385C82.2834 112.2 81.4687 113.177 80.9799 114.317C80.3282 115.782 80.0023 117.248 79.5135 118.713C79.0247 120.179 78.6988 121.807 78.21 123.436C77.5582 126.204 76.9065 128.81 76.2547 131.578C76.2547 131.741 76.0918 132.067 76.2547 132.229C76.2547 132.392 76.4177 132.555 76.4177 132.718C77.3953 134.021 79.0247 134.835 80.654 135.323C82.2834 135.812 83.9128 135.812 85.5422 135.812C85.3792 133.044 85.7051 130.112 86.1939 127.344C86.6827 124.413 87.3345 121.482 87.6604 118.388C87.8233 117.573 87.8233 116.596 87.8233 115.782C87.8233 114.968 87.6604 114.317 87.6604 113.502C87.6604 112.851 87.9862 112.037 88.3121 111.385C88.475 111.06 88.638 110.734 88.9638 110.408C89.1268 110.245 89.2897 110.083 89.2897 109.92C89.2897 109.757 88.9639 109.757 88.8009 109.757C88.475 109.757 88.1492 109.757 87.8233 109.757C87.1715 109.757 86.6827 109.92 86.031 110.083C85.2163 110.245 84.7275 110.571 84.2387 110.734Z" fill="#6B6CB3"/>
<path d="M83.9128 262.016C83.7499 263.319 83.7499 264.785 84.7275 265.599C85.2163 266.087 85.8681 266.25 86.5198 266.413C88.9639 266.739 90.4303 265.436 92.0597 263.97C93.3632 262.83 94.8296 261.853 96.2961 261.202C97.4366 260.713 98.7401 260.225 99.7177 259.411C100.369 258.922 101.184 258.271 101.673 257.619C102.162 256.642 103.139 254.688 101.999 253.874C101.347 253.385 100.532 253.385 99.8807 253.385C98.9031 253.385 97.9254 253.385 96.9478 253.385C95.8072 253.385 94.5037 253.385 93.3632 253.548C91.0821 253.874 89.1268 254.851 87.1716 256.154C85.2163 257.131 84.2387 259.736 83.9128 262.016Z" fill="#4D4D80"/>
<path d="M97.5995 180.431C96.6219 177.989 95.3184 175.546 93.0373 174.406C90.9191 173.429 88.3121 173.429 86.031 174.243C84.7275 174.732 84.4016 175.22 83.9128 176.523C83.5869 177.663 83.424 178.966 83.424 180.106C83.424 181.083 83.5869 181.897 83.7498 182.711C84.0757 184.177 84.4016 185.642 84.5645 187.108C85.2163 193.296 85.7051 199.484 86.1939 205.672C86.5198 209.743 86.6827 213.651 86.031 217.723C86.031 217.885 86.031 218.048 86.031 218.211C85.2163 220.328 84.4016 222.445 83.9128 224.725C83.261 227.33 83.261 230.099 83.424 232.704C83.5869 239.706 84.2386 246.709 85.3792 253.548C85.5421 254.525 85.7051 255.502 86.031 256.479C86.1939 257.294 87.1715 257.457 87.9862 257.457C90.1044 257.619 92.2226 256.968 94.0149 255.665C94.3408 255.502 94.9925 255.177 95.1555 254.851C95.1555 254.688 95.1555 254.525 95.1555 254.525C95.4813 251.431 95.9701 232.053 96.6219 228.47V228.307C97.2736 225.376 97.9254 222.445 98.0883 219.514C98.5771 213.814 99.5548 208.278 100.044 202.578C100.532 195.087 100.207 187.434 97.5995 180.431Z" fill="#F76D31"/>
<path d="M95.6443 270.81C95.6443 271.135 95.6443 271.624 95.6443 271.95C95.8072 273.09 96.296 274.067 97.4366 274.555C100.207 275.695 102.325 273.904 104.932 273.252C107.05 272.764 109.168 272.601 111.123 272.112C113.079 271.624 115.686 270.647 116.989 269.018C118.293 267.39 120.085 263.319 117.641 262.016C116.989 261.69 116.174 261.69 115.36 261.69C111.123 261.853 106.887 262.016 102.651 262.179C101.51 262.179 100.044 262.179 99.066 262.668C98.0883 263.156 97.2737 264.459 96.7849 265.436C96.1331 266.576 95.9702 267.879 95.6443 269.181C95.8072 269.67 95.6443 270.158 95.6443 270.81Z" fill="#6B6CB3"/>
<path d="M116.663 177.337C116.826 177.989 115.849 180.106 115.36 180.594C114.708 181.246 113.242 181.246 112.101 181.246C109.331 181.408 106.724 180.757 104.117 179.78C101.021 178.64 98.0884 176.849 95.1555 175.22C93.3632 174.243 90.9191 173.266 89.2898 174.406C87.0086 176.034 87.8233 178.803 88.1492 180.92C88.4751 183.688 89.7786 186.294 91.4079 188.411C92.3856 189.713 93.6891 190.528 94.8296 191.668C94.8296 191.668 94.8296 191.668 94.9926 191.83C95.8073 192.807 96.2961 194.11 96.6219 195.25C97.1108 197.367 97.2737 199.647 97.2737 201.764C97.4366 206.649 97.2737 211.534 97.2737 216.583C97.1108 223.911 96.9478 231.401 96.7849 238.729C96.7849 242.801 96.7849 246.872 96.9478 250.78C97.1108 255.177 97.1108 259.736 97.4366 264.133C97.4366 264.459 97.4366 264.622 97.5996 264.785C97.7625 264.947 97.9254 265.11 98.2513 265.273C101.021 266.413 104.28 266.25 107.05 264.785C107.213 264.622 107.376 264.622 107.539 264.459C107.702 264.296 107.702 264.133 107.702 263.97C107.865 262.505 108.028 261.202 108.191 259.736C108.679 256.805 109.331 254.037 109.82 251.268C110.96 244.592 110.96 237.752 111.286 230.913C111.775 223.911 113.567 217.723 115.36 211.046C116.989 205.184 118.293 198.996 118.619 192.97C118.456 187.759 117.967 182.548 116.663 177.337Z" fill="#FFA947"/>
<path d="M82.4463 113.828C82.2834 114.154 82.1205 114.642 81.9575 115.131C81.3058 117.573 80.654 120.016 80.3282 122.459C79.8393 126.53 79.8394 130.601 80.1652 134.672C80.817 142.977 82.4464 150.957 83.424 159.262C83.9128 164.147 84.2387 169.032 83.7499 174.08C83.5869 175.872 83.5869 177.5 83.424 179.291C83.424 179.617 83.424 179.78 83.5869 180.106C83.7498 180.268 83.9128 180.431 84.0757 180.594C86.8457 182.548 89.7785 184.34 92.8743 185.642C96.1331 186.945 99.7177 187.434 103.302 187.759C107.213 188.248 111.286 188.411 115.034 186.945C116.174 186.457 117.315 185.805 118.293 184.991C119.27 184.014 119.107 182.874 119.107 181.571C118.781 172.615 118.456 163.821 118.13 154.865C118.13 152.911 117.967 150.794 117.967 148.84C117.804 144.443 117.641 139.883 117.478 135.486C117.478 133.207 117.315 131.09 117.315 128.81C117.315 127.344 117.152 125.39 116.337 124.087C115.849 123.436 115.36 122.784 114.708 122.296C111.938 119.853 108.842 117.736 105.583 115.945C102.325 114.154 99.066 112.362 95.4813 111.548C94.3408 111.223 93.3632 110.897 92.3855 110.571C90.1044 110.083 87.6603 109.594 85.5422 110.571C83.7498 111.223 82.9352 112.362 82.4463 113.828Z" fill="#4D4D80"/>
<path d="M135.564 169.032C135.075 168.869 134.423 169.032 133.935 169.195C132.631 169.684 131.491 170.498 130.024 170.986C129.046 171.312 128.395 171.475 127.417 170.823C126.765 170.335 126.277 169.684 125.788 169.032C124.647 167.892 123.67 166.752 122.692 165.612C120.574 163.17 118.618 160.727 116.989 158.122C116.826 157.959 116.826 157.796 116.663 157.633C116.5 154.213 116.337 150.956 116.174 147.537C116.011 145.745 116.011 144.117 115.686 142.326C115.686 141.837 115.523 141.349 115.36 140.86C114.708 139.72 113.404 139.232 112.101 139.069C110.797 138.906 109.494 138.906 108.353 139.232C107.213 139.557 106.072 140.372 105.258 141.349C104.769 142 104.443 142.977 104.28 143.791C104.117 144.768 104.117 145.257 104.28 146.071C104.606 146.885 104.606 148.025 104.606 149.002C104.769 151.119 105.095 153.236 105.421 155.19C105.909 158.284 106.398 161.379 108.353 163.984C109.494 165.45 110.797 166.752 112.264 167.892C113.567 169.032 115.034 170.335 116.337 171.475C118.13 172.94 119.922 174.569 121.877 175.872C122.529 176.36 123.181 176.686 123.832 177.012C123.832 177.174 123.995 177.337 123.995 177.5C124.321 178.803 124.973 180.268 125.788 181.408C126.114 181.734 126.277 182.223 126.765 182.385C127.417 182.548 128.069 182.223 128.395 181.734C128.395 181.571 128.558 181.571 128.721 181.571C128.884 181.571 128.884 181.571 129.046 181.571C129.698 181.571 130.35 181.408 130.513 180.757C130.513 180.594 130.513 180.594 130.676 180.431C130.839 180.268 130.839 180.268 131.002 180.268C131.491 180.106 131.979 179.943 132.142 179.454C132.305 178.966 132.468 178.477 132.305 177.989C132.957 177.826 133.446 177.174 133.446 176.523C133.609 175.872 133.446 175.22 133.12 174.569C132.957 173.917 132.631 173.266 132.794 172.778C132.957 172.289 133.446 171.963 133.935 171.801C134.423 171.638 134.912 171.475 135.401 171.312C135.89 170.986 136.216 170.661 136.216 170.172C136.542 169.684 136.053 169.195 135.564 169.032Z" fill="#FFE5CC"/>
<path d="M106.235 84.5161C107.702 85.8189 108.679 87.6102 109.657 89.2386C109.983 89.89 110.472 90.5414 110.635 91.1927C110.797 91.6813 110.797 92.3326 110.797 92.8212C110.797 97.5437 111.286 102.103 109.494 106.663C109.331 106.989 109.168 107.477 108.842 107.803C108.516 108.129 108.353 108.291 108.028 108.454C107.539 108.78 107.05 108.943 106.561 109.268C106.235 109.431 106.072 109.594 105.909 109.757C105.746 109.92 105.746 110.083 105.583 110.408C105.258 111.223 104.932 112.2 104.932 113.177C104.769 113.991 104.769 114.968 105.421 115.782C105.583 115.945 105.909 116.271 105.746 116.596C105.583 116.759 105.421 116.759 105.258 116.759C104.443 116.759 103.628 116.596 102.814 116.434C100.207 115.782 97.7625 114.642 95.3184 113.665C94.1779 113.177 92.8744 112.688 91.8967 112.037C91.5709 111.711 91.245 111.385 91.245 110.897C91.245 110.734 91.4079 110.571 91.5709 110.408C91.7338 110.245 91.7338 110.083 91.7338 109.92C91.8967 109.431 91.8967 109.106 91.8967 108.617C91.8967 107.477 91.4079 106.337 91.0821 105.197C90.2674 102.755 89.4527 100.149 88.638 97.7065C88.1492 96.0781 87.4974 94.4496 87.4974 92.6583C87.4974 91.6813 87.4974 90.867 87.8233 90.0528C88.1492 89.2386 88.638 88.4244 89.1268 87.6102C90.1044 86.1446 91.5709 84.8418 93.0373 84.0276C95.8072 82.3992 99.066 81.9106 101.999 82.562C103.465 82.7248 104.932 83.3762 106.235 84.5161Z" fill="#FFE5CC"/>
<path d="M93.6891 83.3763C92.7114 83.5391 91.5709 83.702 90.5932 84.1905C89.7786 84.679 89.1268 85.6561 88.3121 86.4703C87.6604 87.1217 87.0086 88.0987 86.5198 88.913C86.3569 89.89 86.3569 91.1928 86.3569 92.3327C86.5198 94.9382 87.3345 97.5437 87.8233 100.149C88.3121 102.592 88.8009 105.36 90.9191 106.989C92.2226 108.129 94.1779 108.454 95.9702 108.129C97.7625 107.64 99.2289 106.5 100.044 104.872C100.695 103.569 101.347 102.266 101.836 100.963C102.325 99.6607 102.814 98.5208 103.791 97.5437C104.769 96.5666 105.909 95.9153 106.724 95.101C107.376 94.4497 107.865 93.6354 108.028 92.6584C108.19 91.8442 107.702 90.7043 107.213 89.89C106.235 87.7731 104.606 85.9818 102.651 84.8419C100.044 83.3763 96.7849 83.0506 93.6891 83.3763Z" fill="#754600"/>
<path d="M94.8296 86.9588C95.9702 88.4244 97.2737 89.5643 98.7401 90.7042C99.7177 91.5184 100.858 92.3327 101.999 92.8212C104.117 93.7983 106.561 93.7983 109.005 93.6354C109.82 93.6354 110.635 93.4726 111.286 93.7983C111.612 93.9611 111.938 93.7983 111.938 93.4726C112.264 92.007 112.59 90.5414 112.59 89.2386C112.59 87.6102 111.938 85.6561 110.472 84.8418C109.983 84.679 109.494 84.5161 109.005 84.3533C108.028 83.8648 107.376 83.0506 106.561 82.3992C104.443 80.7707 102.162 80.6079 99.5548 80.6079C97.2737 80.445 94.8296 81.0964 92.7114 82.2363C91.245 83.0506 90.1044 84.1905 89.2897 85.6561C90.4303 85.0047 91.7338 84.679 93.0373 84.679C93.2002 84.679 93.2002 84.679 93.3632 84.679C93.5261 84.679 93.5261 84.8418 93.5261 85.0047C93.852 85.4932 94.3408 86.3074 94.8296 86.9588Z" fill="#754600"/>
<path d="M108.028 122.296C107.376 123.11 106.887 124.087 106.398 125.064C105.095 127.996 104.28 131.252 103.791 134.509C103.465 137.441 103.302 140.209 103.302 143.14C103.302 143.791 103.302 144.606 103.302 145.257C103.302 146.234 102.814 147.211 103.954 147.7C105.095 148.188 106.398 148.351 107.702 148.514C110.309 148.677 112.916 148.188 115.36 147.374C116.337 147.048 117.152 146.723 118.13 146.397C118.618 146.071 119.596 145.746 119.759 145.257C120.085 144.769 119.922 144.117 119.922 143.629C120.085 140.372 119.596 137.115 119.27 133.858C118.781 130.275 118.13 126.693 116.011 123.762C115.034 122.296 113.567 121.156 111.938 120.83C110.146 120.342 109.005 121.156 108.028 122.296Z" fill="#6B6CB3"/>
</g>
<defs>
<clipPath id="clip0_237_5409">
<rect width="284" height="284" fill="white"/>
</clipPath>
</defs>
</svg>
