<svg width="81" height="95" viewBox="0 0 81 95" fill="none" xmlns="http://www.w3.org/2000/svg">
<g clip-path="url(#clip0_237_5744)">
<path d="M39.6235 0.307983C37.6986 1.15495 35.7737 2.23291 34.7727 4.08084C33.9258 5.77478 34.0798 7.8537 35.1577 9.39364C36.2357 10.9336 38.1606 11.7806 40.0855 11.6266C41.4715 11.4726 42.7804 10.7796 43.5504 9.70163C44.3974 8.54667 44.6284 7.00673 44.3974 5.54379C44.2434 4.31183 43.7044 3.15688 42.9344 2.23291C42.0875 1.38594 40.9325 0.692969 39.6235 0.307983Z" fill="white"/>
<path d="M37.8526 12.2425C36.0047 13.0895 35.0037 15.1684 34.3877 17.1703C32.5398 22.5601 31.8468 28.4119 32.3858 34.1097C32.3858 34.2637 32.4628 34.4947 32.4628 34.6487C32.5398 34.6487 32.6938 34.7256 32.7708 34.8026C32.7708 34.8026 46.3993 34.8796 46.4763 34.6487C46.3223 28.1039 45.7063 21.4051 43.0884 15.3994C42.6264 14.3984 42.0874 13.3205 41.2405 12.6275C40.3165 11.9345 39.0845 11.7035 37.8526 12.2425Z" fill="white"/>
<path d="M8.20865 44.9663C6.59172 45.1203 5.05177 45.9673 4.05081 47.2762C3.04985 48.5852 2.58787 50.2021 2.81886 51.8191C2.89585 52.666 3.28084 53.59 3.89682 54.206C4.4358 54.7449 5.05177 55.0529 5.74475 55.3609C6.59172 55.6689 7.43868 55.9769 8.36265 56.0539C9.7486 56.1309 11.2115 55.4379 12.0585 54.283C13.3675 52.589 13.2905 50.2021 12.5205 48.2002C12.2125 47.4302 11.9045 46.7372 11.2885 46.1983C10.3646 45.3513 9.28661 45.0433 8.20865 44.9663Z" fill="white"/>
<path d="M73.4252 44.3502C71.2693 44.4272 69.0364 45.5822 67.9584 47.4301C66.8035 49.278 66.9575 51.8959 68.3434 53.5899C69.1134 54.4368 70.1144 54.9758 71.1923 55.2838C73.4252 55.8228 76.1201 54.8988 76.9671 52.7429C77.2751 51.8959 77.3521 50.972 77.2751 50.048C77.1981 49.124 77.1211 48.1231 76.7361 47.2761C76.1201 45.8132 74.7342 44.8892 73.4252 44.3502Z" fill="white"/>
<path d="M65.4175 78.614C64.9556 73.3782 65.4175 68.0654 66.8805 63.0606C67.1885 61.9057 67.6505 60.7507 68.1124 59.5957C68.5744 58.5178 69.1134 57.4398 70.0374 56.7468C70.9613 55.9769 72.2703 55.6689 73.2712 56.2079C73.8102 56.5159 74.2722 56.9778 74.6572 57.5168C76.1201 59.5187 76.8131 61.9826 77.4291 64.4466C78.584 69.1434 79.508 73.9172 79.123 78.768L65.4175 78.614Z" fill="white"/>
<path d="M68.9594 62.9836C68.8824 62.9836 68.8824 62.9836 68.8054 62.9066C68.7284 62.8296 68.7284 62.6756 68.8054 62.5986C70.1914 60.9816 71.7313 59.4417 73.1943 57.9017C73.2713 57.8247 73.4253 57.8247 73.5023 57.9017C73.5793 57.9787 73.5793 58.1327 73.5023 58.2097C72.0393 59.7497 70.5764 61.3666 69.1134 62.9066C69.1134 62.9066 69.0364 62.9836 68.9594 62.9836Z" fill="black"/>
<path d="M67.5734 68.0654C67.4964 68.0654 67.4964 68.0654 67.4194 67.9884C67.3424 67.9114 67.3424 67.7574 67.4194 67.6804C69.6524 65.0625 72.0393 62.5216 74.5802 60.1347C74.6572 60.0577 74.8112 60.0577 74.8882 60.1347C74.9652 60.2116 74.9652 60.3656 74.8882 60.4426C72.3473 62.7526 69.9603 65.2935 67.7274 67.9114C67.6504 68.0654 67.6504 68.0654 67.5734 68.0654Z" fill="black"/>
<path d="M67.2655 72.5312C67.1885 72.5312 67.1885 72.5312 67.1115 72.4542C67.0345 72.3772 67.0345 72.2232 67.1115 72.1462L75.5041 63.2915C75.5811 63.2145 75.7351 63.2145 75.8121 63.2915C75.8891 63.3685 75.8891 63.5225 75.8121 63.5995L67.4194 72.4542C67.3425 72.5312 67.3424 72.5312 67.2655 72.5312Z" fill="black"/>
<path d="M68.1125 76.1501C68.0355 76.1501 68.0355 76.1501 67.9585 76.0731C67.8815 75.9961 67.8815 75.8421 67.9585 75.7651C70.9614 73.0702 73.8873 70.0673 76.5822 66.9874C76.6592 66.9104 76.8132 66.9104 76.8902 66.9874C76.9672 67.0644 76.9672 67.2184 76.8902 67.2954C74.1183 70.3753 71.2694 73.3012 68.1895 76.1501H68.1125Z" fill="black"/>
<path d="M72.3472 76.4581C72.2702 76.4581 72.2702 76.4581 72.1932 76.3811C72.1162 76.3041 72.1162 76.1501 72.1932 76.0731L76.9671 71.5303C77.0441 71.4533 77.1981 71.4533 77.2751 71.5303C77.3521 71.6073 77.3521 71.7613 77.2751 71.8383L72.5012 76.3811C72.4242 76.4581 72.3472 76.4581 72.3472 76.4581Z" fill="black"/>
<path d="M75.7352 76.612C75.6582 76.612 75.6582 76.612 75.5812 76.535C75.5042 76.458 75.5042 76.3041 75.5812 76.2271C76.0432 75.6881 76.5821 75.1491 77.1211 74.6101C77.1981 74.5331 77.3521 74.5331 77.4291 74.6101C77.5061 74.6871 77.5061 74.8411 77.4291 74.9181C76.8901 75.3801 76.3512 75.9191 75.8892 76.535C75.8892 76.612 75.8122 76.612 75.7352 76.612Z" fill="black"/>
<path d="M0.739982 78.9989C0.278 72.7622 1.27896 66.4484 3.51188 60.6736C3.97386 59.5957 4.43584 58.4407 5.28281 57.5937C6.12978 56.7468 7.36173 56.2078 8.51669 56.4388C10.2876 56.8238 11.1346 58.7487 11.6736 60.4426C13.5985 66.5254 14.8305 72.7622 15.0614 79.3069C11.0576 79.3069 7.05375 79.3069 3.12689 79.1529C2.27992 79.0759 1.50995 79.0759 0.739982 78.9989Z" fill="#FFA947"/>
<g opacity="0.1294">
<path d="M12.6745 48.8931C12.5205 48.3541 11.6736 48.3541 11.4426 48.8161C11.2116 49.432 11.4426 50.125 11.3656 50.741C11.3656 50.818 11.0576 51.9729 10.9036 52.2039C10.8266 52.2809 10.9806 52.1269 10.9806 52.1269C10.9036 52.2039 10.8266 52.2809 10.8266 52.3579L10.7496 52.4349C10.2876 52.8199 9.90262 53.2819 9.44064 53.6669C8.67066 54.1289 8.82466 53.9749 8.13168 54.2059C7.97769 54.2829 7.7467 54.2828 7.5927 54.3598C7.5927 54.3598 7.59271 54.3598 7.51571 54.3598C6.89973 54.3598 6.36075 54.3598 5.74477 54.3598H5.66778C5.35979 54.2828 5.0518 54.2059 4.74381 54.4368C4.05084 54.8218 4.20483 55.8998 4.9748 56.0538C5.74477 56.2848 6.59174 56.5158 7.43871 56.4388C8.43967 56.3618 9.44064 55.8228 10.2876 55.3608C12.7515 54.0519 13.3675 50.818 12.6745 48.8931Z" fill="black"/>
</g>
<g opacity="0.1294">
<path d="M44.4743 4.77376C44.3203 4.31178 43.6274 4.31178 43.3964 4.69676C43.1654 5.62073 43.3194 5.85172 43.0114 6.77569C42.8574 7.31467 41.6255 8.46962 40.7785 8.93161C40.6245 9.0086 39.5465 9.39359 39.1615 9.31659C37.6986 9.31659 37.5446 9.23959 36.2357 9.1626C35.8507 9.0856 35.4657 8.93161 35.0807 9.0086C34.1567 9.0856 34.0797 10.4715 35.0037 10.6255C36.1587 10.8565 37.0056 11.3185 37.5446 11.3185C38.7766 11.3955 40.0855 11.4725 41.2405 10.9335C42.5494 10.2406 43.5504 8.93161 44.1664 7.62265C44.3204 6.85268 44.6283 5.69773 44.4743 4.77376Z" fill="black"/>
</g>
<g opacity="0.1294">
<path d="M77.5831 48.3542C77.2752 48.0462 76.7362 48.0462 76.3512 48.3542C75.8892 48.8931 76.1972 49.1241 75.8892 50.0481C75.5812 51.357 73.8873 52.512 73.1943 52.82C72.1933 53.205 71.8854 53.205 71.4234 53.282C70.4224 53.282 70.6534 53.282 69.5754 53.051C69.3444 52.974 69.4214 53.051 68.9595 52.743C68.8055 52.666 68.5745 52.589 68.3435 52.666C67.7275 52.82 67.5735 53.744 68.1895 54.0519C71.4234 56.2079 74.5803 55.5919 76.8902 52.127C77.3521 51.357 77.6601 50.4331 77.7371 49.5091C77.8141 49.0471 77.8911 48.6621 77.5831 48.3542Z" fill="black"/>
</g>
<g opacity="0.1294">
<path d="M15.2155 77.767C15.2155 77.69 15.2155 77.69 15.2155 77.613C15.1385 76.4581 15.1385 75.3031 15.1385 74.1482C15.0615 73.1472 14.6765 70.5293 14.2145 68.5274C13.7526 66.6025 13.2906 64.6775 12.6746 62.8296C12.2126 61.2127 11.7506 59.5187 10.9807 57.9788C10.7497 57.5168 10.5187 57.1318 10.2107 56.8238C10.0567 56.5928 9.8257 56.4388 9.51771 56.4388C8.90174 56.4388 8.51675 57.2858 8.97873 57.7478C11.2117 60.5197 11.3656 65.2935 11.8276 68.6044C11.9816 70.6063 12.0586 70.2983 12.1356 71.6073C12.2126 72.6082 12.2126 73.6092 12.2896 74.6102C12.3666 74.9951 12.5976 76.3811 12.6746 76.7661C12.6746 77.1511 12.7516 77.536 12.7516 77.844C12.5206 78.46 12.8286 79.307 13.5216 79.538C14.3685 79.923 15.4465 79.23 15.3695 78.306C15.3695 78.075 15.2925 77.921 15.2155 77.767Z" fill="black"/>
</g>
<g opacity="0.1294">
<path d="M46.1683 32.4158C46.0913 30.4138 45.7833 28.7199 45.7063 27.7189C45.6293 26.872 45.1673 23.4071 44.6283 21.3282C43.9353 18.7103 43.2424 16.0924 42.2414 13.5515C42.0874 13.3205 41.9334 13.0125 41.7794 12.7815C41.5484 12.5505 41.4714 12.2425 41.0865 12.0885C40.3165 11.7035 39.5465 12.6275 40.0085 13.3205C40.7785 14.3214 40.8555 15.0914 41.2404 16.6313C41.6254 18.4793 41.8564 20.1732 42.0104 21.1742C42.0104 21.0972 42.0104 20.9432 41.9334 20.8662C42.0874 22.4831 42.3184 24.793 42.4724 25.64C42.6264 27.9499 42.7034 30.2598 42.9344 32.5698C43.0114 32.8007 43.0114 32.9547 43.0884 33.1857C43.0884 33.2627 43.0884 33.4167 43.1654 33.4937C43.1654 33.4937 43.1654 33.5707 43.1654 33.6477C43.1654 33.7247 43.1654 33.7247 43.1654 33.8017C43.1654 33.8017 43.1654 33.8017 43.1654 33.8787C43.1654 33.8017 43.1654 33.8017 43.1654 33.8017C43.1654 33.9557 43.2424 34.1867 43.3194 34.2637C43.3964 34.3407 43.3964 34.4177 43.4734 34.4947C43.6274 34.8027 44.0123 35.1107 44.3203 35.1877C44.3973 35.1877 44.4743 35.1877 44.5513 35.1877C44.4743 35.1877 44.4743 35.1877 44.3973 35.1877C45.5523 35.4956 46.2453 34.4947 46.0913 33.6477C46.1683 33.2627 46.0913 32.8007 46.1683 32.4158Z" fill="black"/>
</g>
<g opacity="0.1294">
<path d="M79.2001 75.3031C79.2001 75.2261 79.2001 75.2261 79.2001 75.1491C79.3541 74.7641 78.9691 72.9932 79.1231 73.6092C79.0461 73.1472 78.9691 72.6852 78.9691 72.3002V72.2232C78.8921 71.0683 78.6611 69.9133 78.4301 68.7584C77.7371 65.2165 77.3522 61.4436 75.5042 58.2098C74.9653 57.1318 74.2723 55.9768 73.1943 55.4379C72.0394 54.8989 70.9614 56.5158 71.8854 57.3628C72.8863 58.2098 72.6553 58.0558 73.2713 59.2877C73.9643 60.5197 74.0413 61.2126 74.5033 63.0606C75.4272 66.4484 75.5042 68.0654 75.7352 71.5303C75.7352 71.6842 75.8122 71.8382 75.8122 71.9922C75.8892 72.8392 75.8892 73.6862 75.8122 74.4561C75.8122 74.6871 75.8892 75.2261 75.9662 75.5341C75.9662 76.6891 75.9662 78.229 77.2752 78.614C78.0451 78.845 78.7381 78.383 79.1231 77.767C79.9701 77.305 80.0471 75.8421 79.2001 75.3031Z" fill="black"/>
</g>
<path d="M4.9748 35.5726H4.8978C4.58982 35.4956 4.35882 35.1876 4.43582 34.8796C6.05276 26.5639 11.5196 19.2492 19.0653 15.3224C19.3733 15.1684 19.6813 15.2454 19.8352 15.5534C19.9892 15.8613 19.9122 16.1693 19.6043 16.3233C12.4435 20.0962 7.20772 27.1029 5.59078 35.0336C5.51378 35.4186 5.28279 35.5726 4.9748 35.5726Z" fill="black"/>
<path d="M4.66681 35.8036C4.58982 35.8036 4.51282 35.8036 4.43582 35.7266C4.28183 35.6496 4.12783 35.4956 4.05084 35.3416C3.35786 32.9547 2.89588 30.4908 2.58789 28.1039C2.58789 27.7959 2.81888 27.4879 3.12687 27.4879C3.43486 27.4109 3.74285 27.7189 3.74285 28.0269C3.97384 30.1828 4.35882 32.2617 4.9748 34.3407C6.59174 33.2627 8.13168 32.0307 9.44063 30.5678C9.67163 30.3368 10.0566 30.3368 10.2876 30.5678C10.5186 30.7988 10.5186 31.1838 10.2876 31.4148C8.67066 33.1087 6.89973 34.5717 4.8978 35.8036C4.8978 35.7266 4.74381 35.8036 4.66681 35.8036Z" fill="black"/>
<path d="M73.7333 33.0317C73.5023 33.0317 73.2713 32.8777 73.1943 32.6467C70.2684 24.639 63.3387 18.1713 55.254 15.7843C54.946 15.7074 54.792 15.3994 54.869 15.0914C54.946 14.7834 55.254 14.6294 55.562 14.7064C64.0316 17.2473 71.1924 23.946 74.2723 32.3387C74.3493 32.6467 74.1953 32.9547 73.8873 33.1087C73.8103 33.0317 73.7333 33.0317 73.7333 33.0317Z" fill="black"/>
<path d="M58.1798 20.4042C57.9489 20.4042 57.7179 20.2502 57.6409 20.0962C56.7939 18.4023 55.7929 16.8623 54.715 15.3994C54.561 15.2454 54.561 15.0144 54.638 14.8604C54.715 14.7064 54.869 14.5524 55.023 14.4754C56.9479 13.9365 59.0268 13.7055 61.0287 13.8595C61.3367 13.8595 61.5677 14.1674 61.5677 14.4754C61.5677 14.7834 61.2597 15.0144 60.9517 15.0144C59.3348 14.8604 57.7179 15.0144 56.1779 15.3994C57.1789 16.7083 58.0258 18.1713 58.7188 19.6342C58.8728 19.9422 58.7188 20.2502 58.4878 20.4042C58.4108 20.4042 58.2568 20.4042 58.1798 20.4042Z" fill="black"/>
<path d="M39.0076 92.5505C34.6188 92.5505 30.2299 91.5495 26.2261 89.6246C25.9181 89.4706 25.8411 89.1626 25.9951 88.8546C26.1491 88.5466 26.4571 88.4696 26.7651 88.6236C34.3878 92.3965 43.7814 92.3965 51.4041 88.5466C51.7121 88.3926 52.0201 88.5466 52.1741 88.7776C52.3281 89.0856 52.1741 89.3936 51.9431 89.5476C47.9393 91.5495 43.4734 92.5505 39.0076 92.5505Z" fill="black"/>
<path d="M48.0933 94.0134C47.9393 94.0134 47.7853 93.9364 47.6313 93.7824C47.4003 93.5515 47.4773 93.1665 47.7083 92.9355C48.9402 91.9345 50.0182 90.7026 50.9421 89.3936C49.3252 89.0856 47.7083 88.6236 46.1683 88.0847C45.8603 88.0077 45.7063 87.6227 45.8603 87.3147C45.9373 87.0067 46.3223 86.8527 46.6303 87.0067C48.4012 87.6227 50.1722 88.0847 52.0201 88.3927C52.2511 88.3927 52.4051 88.5466 52.4821 88.7006C52.5591 88.8546 52.5591 89.0856 52.4821 89.2396C51.4041 91.0106 50.0952 92.5505 48.5552 93.7824C48.4012 93.9364 48.2472 94.0134 48.0933 94.0134Z" fill="black"/>
<path d="M39.0846 12.3195C38.2376 12.3195 37.4677 12.1655 36.6207 11.9345C36.0817 11.7805 35.6967 11.5495 35.3117 11.3185C34.6188 10.7795 34.0798 10.0096 33.6948 8.93161C33.4638 8.23864 33.3098 7.62266 33.3098 7.08368C33.3098 6.3907 33.4638 5.62073 33.7718 4.77376C34.3108 3.38782 35.0807 2.23286 36.1587 1.38589C37.3907 0.461926 38.8536 -5.64009e-05 40.2396 0.153938C41.6255 0.307932 42.9345 1.2319 43.9354 2.69484C44.7054 3.8498 45.0904 5.23575 45.0904 6.77569C45.0904 7.39167 45.0134 7.93065 44.9364 8.39263C44.5514 9.93257 43.2424 11.3185 41.6255 11.9345C40.7785 12.1655 39.9316 12.3195 39.0846 12.3195ZM39.7776 1.1549C38.7766 1.1549 37.7756 1.53989 36.9287 2.15586C36.0817 2.84884 35.3887 3.8498 34.9268 5.00476C34.6958 5.69773 34.5418 6.31371 34.5418 6.85269C34.5418 7.31467 34.6188 7.77665 34.8498 8.39263C35.1577 9.2396 35.5427 9.85557 36.0817 10.2406C36.3127 10.3946 36.6207 10.5485 37.0827 10.7025C38.4686 11.1645 39.9316 11.1645 41.1635 10.7025C42.4725 10.1636 43.4734 9.1626 43.7814 7.93065C43.8584 7.54566 43.9354 7.08368 43.9354 6.6217C43.9354 5.31274 43.6274 4.08079 43.0115 3.15683C42.6265 2.61785 41.6255 1.30889 40.1626 1.1549C40.0086 1.1549 39.8546 1.1549 39.7776 1.1549Z" fill="black"/>
<path d="M40.7015 35.5727C38.0066 35.5727 35.1577 35.4957 32.0778 35.2647C31.7699 35.2647 31.5389 35.0337 31.5389 34.7257C31.0769 28.5659 31.7699 22.5602 33.6948 16.9394C34.1568 15.5534 34.7727 14.0905 35.7737 12.9355C36.9287 11.6266 38.4686 11.0106 39.8546 11.3186C42.0875 11.8576 43.2424 14.4755 43.8584 16.3234C45.8603 22.2522 46.9383 28.4119 47.0153 34.7257C47.0153 35.0337 46.7843 35.2647 46.4763 35.3417C44.6284 35.4957 42.7034 35.5727 40.7015 35.5727ZM32.6938 34.1097C37.6216 34.4177 41.9335 34.4177 45.8603 34.2637C45.7063 28.2579 44.7054 22.3292 42.7804 16.7854C41.9335 14.1675 40.8555 12.7815 39.6236 12.5505C38.4686 12.3195 37.3906 13.0125 36.6977 13.7825C35.8507 14.7834 35.3117 16.0924 34.8497 17.4014C33.0788 22.5602 32.3088 28.4119 32.6938 34.1097Z" fill="black"/>
<path d="M72.1932 56.0539C71.3463 56.0539 70.5763 55.8999 69.7293 55.6689C69.1904 55.5149 68.8054 55.2839 68.4204 55.0529C67.7274 54.5139 67.1884 53.7439 66.8034 52.666C66.5725 51.973 66.4185 51.357 66.4185 50.8181C66.4185 50.1251 66.5725 49.3551 66.8804 48.5081C67.4194 47.1222 68.1894 45.9672 69.2674 45.1203C70.4993 44.1963 71.9622 43.7343 73.3482 43.8883C74.7341 44.0423 76.0431 44.9663 77.0441 46.4292C77.814 47.5842 78.199 48.9701 78.199 50.5101C78.199 51.126 78.122 51.665 78.045 52.127C77.66 53.6669 76.3511 55.0529 74.7341 55.6689C73.8872 55.8999 73.0402 56.0539 72.1932 56.0539ZM72.8092 44.9663C71.8083 44.9663 70.8073 45.3513 69.9603 45.9672C69.1134 46.6602 68.4204 47.6612 67.9584 48.8161C67.7274 49.5091 67.5734 50.1251 67.5734 50.6641C67.5734 51.126 67.6504 51.588 67.8814 52.204C68.1894 53.051 68.5744 53.6669 69.1134 54.0519C69.3443 54.2059 69.6523 54.3599 70.1143 54.5139C71.5003 54.9759 72.9632 54.9759 74.1952 54.5139C75.5041 53.9749 76.5051 52.974 76.8131 51.742C76.8901 51.357 76.9671 50.8951 76.9671 50.4331C76.9671 49.1241 76.6591 47.8922 76.0431 46.9682C75.6581 46.4292 74.6572 45.1203 73.1942 44.9663C73.1172 44.9663 72.9632 44.9663 72.8092 44.9663Z" fill="black"/>
<path d="M65.1865 79.3839C64.8785 79.3839 64.6475 79.153 64.5705 78.845C64.1086 72.6852 64.8785 66.2944 66.7265 60.7507C67.1884 59.3647 67.8044 57.9018 68.8054 56.7468C69.9603 55.4378 71.5003 54.8219 72.8862 55.1299C75.1191 55.6688 76.2741 58.2867 76.8901 60.1347C78.892 66.0634 79.97 72.2232 80.047 78.537C80.047 78.691 79.97 78.845 79.893 78.922C79.816 78.999 79.662 79.076 79.508 79.076C77.2751 79.153 67.4964 79.23 65.1865 79.3839C65.2635 79.3839 65.1865 79.3839 65.1865 79.3839ZM72.1933 56.2078C71.1923 56.2078 70.3453 56.8238 69.7294 57.5168C68.8824 58.5177 68.3434 59.8267 67.8814 61.1356C66.1105 66.3714 65.3405 72.3772 65.7255 78.152C68.4974 78.075 76.0431 77.998 78.892 77.998C78.738 71.9922 77.7371 66.1404 75.8121 60.5197C74.9652 57.9018 73.8872 56.5158 72.6552 56.2848C72.5012 56.2078 72.3472 56.2078 72.1933 56.2078Z" fill="black"/>
<path d="M7.82373 56.7468C6.97677 56.7468 6.20679 56.5929 5.35983 56.3619C4.82085 56.2079 4.43586 55.9769 4.05087 55.7459C3.3579 55.2069 2.81892 54.4369 2.43394 53.359C2.20294 52.666 2.04895 52.05 2.04895 51.511C2.04895 50.8181 2.20294 50.0481 2.51093 49.2011C3.04991 47.8152 3.81988 46.6602 4.89784 45.8133C6.1298 44.8893 7.59274 44.4273 8.97869 44.5813C10.3646 44.7353 11.6736 45.6593 12.6746 47.1222C13.4445 48.2772 13.8295 49.6631 13.8295 51.2031C13.8295 51.819 13.7525 52.358 13.6755 52.82C13.2905 54.3599 11.9816 55.7459 10.3646 56.3619C9.51767 56.5929 8.6707 56.7468 7.82373 56.7468ZM8.43971 45.5823C7.43875 45.5823 6.43779 45.9673 5.59082 46.5832C4.74385 47.2762 4.05088 48.2772 3.58889 49.4321C3.3579 50.2021 3.20391 50.8181 3.2809 51.357C3.2809 51.819 3.3579 52.281 3.58889 52.897C3.89688 53.744 4.28187 54.3599 4.82085 54.7449C5.05184 54.8989 5.35983 55.0529 5.82181 55.2069C7.20776 55.6689 8.6707 55.6689 9.90266 55.2069C11.2116 54.6679 12.2126 53.667 12.5206 52.435C12.5976 52.05 12.6746 51.588 12.6746 51.1261C12.6746 49.8171 12.3666 48.5852 11.7506 47.6612C11.3656 47.1222 10.3646 45.8133 8.90169 45.6593C8.7477 45.5823 8.59371 45.5823 8.43971 45.5823Z" fill="black"/>
<path d="M7.43873 79.9229C4.51284 79.9229 1.74094 79.8459 0.739982 79.6919C0.508991 79.6149 0.278 79.4609 0.278 79.153C-0.183983 73.0702 0.508991 66.9104 2.43392 61.3666C2.8959 59.9807 3.51188 58.5177 4.51284 57.3628C5.6678 56.0538 7.20774 55.4378 8.59369 55.7458C10.8266 56.2848 11.9816 58.9027 12.5975 60.7506C14.5995 66.6794 15.6774 72.8392 15.7544 79.153C15.7544 79.4609 15.5234 79.7689 15.2154 79.7689C13.9835 79.8459 10.5956 79.9229 7.43873 79.9229ZM1.43296 78.614C3.81987 78.922 11.5196 78.768 14.5995 78.691C14.4455 72.6852 13.4445 66.8334 11.5196 61.2126C10.6726 58.5947 9.59465 57.2088 8.3627 56.9778C7.20774 56.7468 6.12978 57.4398 5.43681 58.2097C4.58984 59.2107 4.05086 60.5196 3.58888 61.8286C1.74094 67.0644 1.04797 72.8392 1.43296 78.614Z" fill="black"/>
<path d="M64.2626 36.3426C64.0316 36.3426 63.8006 36.1886 63.7236 36.0346C62.0296 32.5698 59.1808 29.7979 55.7159 28.1809C55.4079 28.0269 55.3309 27.7189 55.4079 27.411C55.5619 27.103 55.8699 27.026 56.1779 27.103C59.8737 28.8739 62.8766 31.7998 64.7245 35.4957C64.8785 35.8036 64.7245 36.1116 64.4936 36.2656C64.4166 36.3426 64.3396 36.3426 64.2626 36.3426Z" fill="black"/>
<path d="M39.3925 82.1559C35.7736 82.1559 32.1548 81.3859 28.9979 79.846C28.6899 79.692 28.6129 79.384 28.6899 79.076C28.8439 78.768 29.1519 78.691 29.4599 78.768C35.0806 81.4629 41.8564 81.6939 47.7082 79.461C48.0162 79.307 48.3241 79.461 48.4781 79.769C48.6321 80.077 48.4781 80.3849 48.1702 80.5389C45.3983 81.6169 42.3954 82.1559 39.3925 82.1559Z" fill="black"/>
<path d="M15.9085 37.8056C15.8315 37.8056 15.8315 37.8056 15.7545 37.8056C15.4465 37.7286 15.2925 37.4206 15.3695 37.0356C16.7554 32.4158 20.2203 28.4119 24.5321 26.333C24.8401 26.179 25.1481 26.333 25.3021 26.641C25.4561 26.949 25.3021 27.257 24.9941 27.411C20.9903 29.3359 17.7564 33.1087 16.4474 37.4206C16.4474 37.5746 16.2164 37.8056 15.9085 37.8056Z" fill="black"/>
</g>
<defs>
<clipPath id="clip0_237_5744">
<rect width="80" height="94.0135" fill="white" transform="translate(0.124023)"/>
</clipPath>
</defs>
</svg>
