<svg width="280" height="286" viewBox="0 0 280 286" fill="none" xmlns="http://www.w3.org/2000/svg">
<g clip-path="url(#clip0_237_4881)">
<path d="M71.8584 284.87L1.57683 244.207C-0.901045 242.626 -0.675784 240.141 2.25261 238.333L70.5068 198.799C73.4352 196.992 77.9405 196.992 80.4183 198.348L150.7 239.011C153.178 240.592 152.953 243.077 150.024 244.885L81.7699 284.419C78.8415 286.226 74.5615 286.452 71.8584 284.87Z" fill="#F2F2F2"/>
<path d="M197.554 268.153L19.823 165.365C15.7683 163.106 16.2188 158.814 20.9493 156.103L83.572 119.957C88.3025 117.246 95.2856 117.02 99.3403 119.28L277.072 222.068C281.126 224.327 280.676 228.619 275.945 231.33L213.323 267.475C208.817 270.186 201.609 270.412 197.554 268.153Z" fill="#F2F2F2"/>
<path d="M113.982 97.5924C113.982 98.0443 113.982 98.4961 113.757 98.722L113.306 98.9479L58.1174 130.575L55.4143 125.831L110.603 94.2038L111.054 93.9779C111.279 93.9779 111.73 93.9779 112.18 94.2038C113.081 94.8815 113.982 96.4629 113.982 97.5924Z" fill="#FF9A49"/>
<path d="M69.3805 77.4866L50.008 172.594V172.82C50.008 173.272 49.5575 173.498 49.107 173.724C47.9807 174.401 45.9533 174.401 44.6018 173.724C44.1512 173.498 43.926 173.272 43.7007 172.82V172.594V172.368L58.568 74.5498L69.3805 77.4866Z" fill="#735F4F"/>
<path d="M259.501 219.131V219.357C259.501 219.809 259.051 220.035 258.6 220.261C257.474 220.938 255.446 220.938 254.095 220.261C253.644 220.035 253.419 219.809 253.194 219.357V218.905L236.75 128.09L246.661 126.057L259.501 218.679V219.131Z" fill="#735F4F"/>
<path d="M249.364 175.757C249.364 176.209 249.364 176.66 249.139 176.886L248.689 177.112L193.5 208.739L190.796 203.995L245.986 172.368L246.436 172.142C246.661 172.142 247.112 172.142 247.562 172.368C248.463 173.046 249.364 174.627 249.364 175.757Z" fill="#735F4F"/>
<path d="M195.752 157.006V256.858C195.752 257.31 195.302 257.536 194.851 257.761C193.725 258.439 191.697 258.439 190.346 257.761C189.895 257.536 189.445 257.084 189.445 256.632V256.18L185.615 157.006H195.752Z" fill="#735F4F"/>
<path d="M253.419 135.319L198.455 167.172V180.501L253.419 148.422C254.771 147.744 255.446 146.615 255.446 145.711V132.382C255.446 133.512 254.771 134.416 253.419 135.319Z" fill="#B4BCCF"/>
<path d="M47.7554 85.3934C46.4038 84.7157 45.7281 83.5861 45.7281 82.6825V96.0111C45.7281 96.9147 46.4038 98.0443 47.7554 98.722L189.22 180.501V167.172L47.7554 85.3934Z" fill="#C5CEE3"/>
<path d="M198.455 167.172V180.501C195.977 182.082 191.698 182.082 188.994 180.501V167.172C191.698 168.753 195.977 168.753 198.455 167.172Z" fill="#C5CEE3"/>
<path d="M253.419 129.671C256.122 131.253 256.122 133.512 253.419 135.093L198.455 167.172C195.977 168.754 191.697 168.754 188.994 167.172L47.7554 85.3933C45.0523 83.812 45.0523 81.5529 47.7554 79.9716L102.719 47.8926C105.197 46.3112 109.477 46.3112 112.18 47.8926L253.419 129.671Z" fill="#F2F2F2"/>
<path d="M253.419 132.382L198.455 164.461C195.977 166.043 191.697 166.043 188.994 164.461L47.7554 82.4565C47.0796 82.0047 46.6291 81.5529 46.1786 81.1011C45.2775 82.4565 45.7281 84.0379 47.7554 85.1674L189.22 167.172C191.923 168.754 195.977 168.754 198.681 167.172L253.644 135.093C255.446 133.964 256.122 132.382 255.221 131.027C254.545 131.479 254.095 131.93 253.419 132.382Z" fill="white"/>
<path d="M209.268 111.599C209.268 113.18 207.691 114.987 205.213 116.569L179.984 131.027H155.205L150.024 75.6793L206.565 108.436C207.916 108.888 209.268 110.017 209.268 111.599Z" fill="#CED3DE"/>
<path d="M192.373 108.888V110.017C192.373 110.921 191.698 111.599 190.571 112.276L160.386 129.671C159.936 129.897 159.26 130.123 158.584 130.349C156.782 130.801 154.755 130.801 153.403 130.123C153.178 130.123 152.953 129.897 152.727 129.897L103.395 101.433C102.494 100.981 102.043 100.303 102.043 99.6255V97.8183L102.945 98.496C103.17 98.2701 103.395 98.0442 103.846 97.8183L134.031 80.4233C136.283 79.0679 139.662 79.0679 141.689 80.1974L174.352 99.1737L190.796 108.662L192.373 108.888Z" fill="#47454D"/>
<path d="M192.373 108.436V110.017C192.373 110.921 191.698 111.599 190.571 112.276L160.386 129.671C159.936 129.897 159.26 130.123 158.584 130.349V99.1737H174.578L191.022 108.662L192.373 108.436Z" fill="#1F1E21"/>
<path d="M168.045 125.153L165.567 126.509V125.153L168.045 123.798V125.153Z" fill="#303030"/>
<path d="M167.82 124.927V123.798H168.045V125.153L165.567 126.509V126.283L167.82 124.927Z" fill="#F9F9F9"/>
<path d="M167.82 124.927L168.045 125.153V123.798H167.82V124.927Z" fill="#DCDEDD"/>
<path d="M167.82 124.927L166.919 124.701L165.567 125.379V126.283L167.82 124.927Z" fill="#666666"/>
<path d="M166.919 124.701V124.475L167.82 123.798V124.927L166.919 124.701Z" fill="#404040"/>
<path d="M103.395 99.8515L152.727 128.316C154.755 129.445 158.134 129.22 160.386 128.09L182.237 115.439L190.571 110.469C191.247 110.017 191.923 109.566 192.148 109.114C192.824 107.984 192.373 106.855 191.022 106.177L141.915 77.7125C139.887 76.5829 136.508 76.8088 134.256 77.9384L104.071 95.3333C103.846 95.3333 103.846 95.5592 103.62 95.5592C101.818 97.1406 101.593 98.9479 103.395 99.8515Z" fill="#605C66"/>
<path d="M139.437 118.15L118.262 105.725L131.327 98.2701L152.502 110.469L139.437 118.15Z" fill="#47454D"/>
<path d="M131.327 98.9479L151.826 110.921L152.502 110.469L131.327 98.2701L118.262 105.725L118.713 106.177L131.327 98.9479Z" fill="#47454D"/>
<path d="M131.327 98.9479V98.2701L118.262 105.725L118.713 106.177L131.327 98.9479Z" fill="#47454D"/>
<path d="M170.748 115.439L168.27 116.795L170.748 118.376L170.974 118.828H171.649L174.127 117.472L170.748 115.439Z" fill="#CCCCCC"/>
<path d="M170.973 118.376L167.82 116.343L170.298 114.987L173.677 117.02L170.973 118.376Z" fill="#999999"/>
<path d="M170.973 118.15L167.82 116.343L170.973 118.376L173.677 117.02L173.451 116.795L170.973 118.15Z" fill="white"/>
<path d="M173.677 117.021V117.246L170.973 118.828V118.376L173.677 117.021Z" fill="#1A1A1A"/>
<path d="M167.82 116.343V116.795L170.973 118.828V118.376L167.82 116.343Z" fill="#4D4D4D"/>
<path d="M166.468 112.954L163.765 114.31L166.468 115.665L166.694 116.117L167.144 116.343L169.847 114.761L166.468 112.954Z" fill="#CCCCCC"/>
<path d="M166.693 115.665L163.315 113.858L165.792 112.276L169.171 114.31L166.693 115.665Z" fill="#999999"/>
<path d="M166.693 115.665L163.54 113.858H163.315L166.693 115.665L169.171 114.31H168.946L166.693 115.665Z" fill="white"/>
<path d="M169.171 114.31V114.761L166.694 116.117V115.665L169.171 114.31Z" fill="#1A1A1A"/>
<path d="M163.315 113.858V114.31L166.693 116.117V115.665L163.315 113.858Z" fill="#4D4D4D"/>
<path d="M161.963 110.243L159.485 111.599L161.963 113.18L162.188 113.632H162.864L165.342 112.276L161.963 110.243Z" fill="#CCCCCC"/>
<path d="M162.188 113.18L158.809 111.147L161.287 109.791L164.666 111.825L162.188 113.18Z" fill="#999999"/>
<path d="M162.188 112.954L159.035 111.147H158.809L162.188 113.18L164.666 111.825V111.599L162.188 112.954Z" fill="white"/>
<path d="M164.666 111.825V112.05L162.188 113.632V113.18L164.666 111.825Z" fill="#1A1A1A"/>
<path d="M158.809 111.147V111.599L162.188 113.632V113.18L158.809 111.147Z" fill="#4D4D4D"/>
<path d="M134.932 94.2037L132.454 95.7851L134.932 97.1405L135.157 97.5924H135.833L138.311 96.2369L134.932 94.2037Z" fill="#CCCCCC"/>
<path d="M135.157 97.1406L131.778 95.3333L134.256 93.752L137.635 95.7851L135.157 97.1406Z" fill="#999999"/>
<path d="M135.157 97.1406L132.003 95.1074L131.778 95.3333L135.157 97.1406L137.635 95.7852L137.41 95.5592L135.157 97.1406Z" fill="white"/>
<path d="M137.635 95.7852V96.237L135.157 97.5924V97.1406L137.635 95.7852Z" fill="#1A1A1A"/>
<path d="M131.778 95.3334V95.7852L135.157 97.5925V97.1406L131.778 95.3334Z" fill="#4D4D4D"/>
<path d="M130.426 91.7188L127.949 93.0742L130.426 94.6556L130.652 95.1074H131.327L133.805 93.526L130.426 91.7188Z" fill="#CCCCCC"/>
<path d="M130.652 94.6556L127.273 92.6224L129.976 91.267L133.13 93.0742L130.652 94.6556Z" fill="#999999"/>
<path d="M130.652 94.4297L127.498 92.6224H127.273L130.652 94.6556L133.13 93.0743L130.652 94.4297Z" fill="white"/>
<path d="M133.13 93.0742V93.526L130.652 95.1074V94.6556L133.13 93.0742Z" fill="#1A1A1A"/>
<path d="M127.273 92.6224V93.0743L130.652 95.1074V94.6556L127.273 92.6224Z" fill="#4D4D4D"/>
<path d="M123.894 87.8783L121.191 89.2337L126.146 91.9446V92.3965H126.822L129.3 91.041L123.894 87.8783Z" fill="#CCCCCC"/>
<path d="M126.146 91.9447L120.74 88.782L123.218 87.4265L128.85 90.5892L126.146 91.9447Z" fill="#999999"/>
<path d="M126.146 91.9447L120.74 88.782L126.146 91.9447L128.85 90.5892L128.624 90.3633L126.146 91.9447Z" fill="white"/>
<path d="M128.85 90.5892V91.0411L126.146 92.3965V91.9447L128.85 90.5892Z" fill="#1A1A1A"/>
<path d="M120.74 88.782V89.2338L126.146 92.3965V91.9447L120.74 88.782Z" fill="#4D4D4D"/>
<path d="M155.43 106.403L152.953 107.984L157.458 110.695L157.683 110.921L158.359 111.147L160.837 109.565L155.43 106.403Z" fill="#CCCCCC"/>
<path d="M157.683 110.695L152.277 107.532L154.98 105.951L160.386 109.114L157.683 110.695Z" fill="#999999"/>
<path d="M157.683 110.469L152.502 107.306L152.277 107.532L157.683 110.695L160.386 109.114H160.161L157.683 110.469Z" fill="white"/>
<path d="M160.386 109.114V109.565L157.683 110.921V110.695L160.386 109.114Z" fill="#1A1A1A"/>
<path d="M152.277 107.532V107.984L157.683 110.921V110.695L152.277 107.532Z" fill="#4D4D4D"/>
<path d="M150.024 98.496L147.321 100.077L150.024 101.433L150.249 101.885H150.7L153.178 100.529L150.024 98.496Z" fill="#CCCCCC"/>
<path d="M150.249 101.433L146.87 99.6255L149.348 98.0442L152.727 100.077L150.249 101.433Z" fill="#999999"/>
<path d="M150.249 101.433L146.87 99.3997V99.6256L150.249 101.433L152.727 100.077L152.502 99.8515L150.249 101.433Z" fill="white"/>
<path d="M152.727 100.077V100.529L150.249 101.885V101.433L152.727 100.077Z" fill="#1A1A1A"/>
<path d="M146.87 99.6255V100.077L150.249 101.885V101.433L146.87 99.6255Z" fill="#4D4D4D"/>
<path d="M167.82 108.888L165.117 110.469L167.82 111.825V112.276H168.496L170.973 110.921L167.82 108.888Z" fill="#CCCCCC"/>
<path d="M167.82 111.825L164.666 110.017L167.144 108.436L170.523 110.469L167.82 111.825Z" fill="#999999"/>
<path d="M167.82 111.599L164.666 109.791V110.017L167.82 111.825L170.523 110.469L170.298 110.243L167.82 111.599Z" fill="white"/>
<path d="M170.523 110.469V110.695L167.82 112.276V111.825L170.523 110.469Z" fill="#1A1A1A"/>
<path d="M164.666 110.017V110.243L167.82 112.276V111.825L164.666 110.017Z" fill="#4D4D4D"/>
<path d="M163.315 106.403L160.837 107.758L163.315 109.34L163.54 109.565L163.99 109.791L166.693 108.21L163.315 106.403Z" fill="#CCCCCC"/>
<path d="M163.54 109.34L160.161 107.306L162.639 105.951L166.018 107.758L163.54 109.34Z" fill="#999999"/>
<path d="M163.54 109.114L160.386 107.306H160.161L163.54 109.34L166.018 107.758H165.792L163.54 109.114Z" fill="white"/>
<path d="M166.018 107.758V108.21L163.54 109.565V109.34L166.018 107.758Z" fill="#1A1A1A"/>
<path d="M160.161 107.306V107.758L163.54 109.565V109.34L160.161 107.306Z" fill="#4D4D4D"/>
<path d="M158.809 103.692L156.331 105.273L158.809 106.629L159.035 107.08H159.71L162.188 105.725L158.809 103.692Z" fill="#CCCCCC"/>
<path d="M159.035 106.629L155.656 104.821L158.134 103.24L161.512 105.273L159.035 106.629Z" fill="#999999"/>
<path d="M159.035 106.403L155.881 104.595L155.656 104.821L159.035 106.629L161.512 105.273V105.047L159.035 106.403Z" fill="white"/>
<path d="M161.512 105.273V105.725L159.035 107.08V106.629L161.512 105.273Z" fill="#1A1A1A"/>
<path d="M155.656 104.821V105.047L159.035 107.08V106.629L155.656 104.821Z" fill="#4D4D4D"/>
<path d="M154.304 101.207L151.826 102.562L154.304 104.144L154.529 104.595H155.205L157.683 103.014L154.304 101.207Z" fill="#CCCCCC"/>
<path d="M154.529 104.144L151.15 102.11L153.854 100.755L157.233 102.562L154.529 104.144Z" fill="#999999"/>
<path d="M154.529 103.918L151.376 102.11H151.15L154.529 104.144L157.233 102.562H157.007L154.529 103.918Z" fill="white"/>
<path d="M157.233 102.562V103.014L154.529 104.595V104.144L157.233 102.562Z" fill="#1A1A1A"/>
<path d="M151.15 102.11V102.562L154.529 104.595V104.144L151.15 102.11Z" fill="#4D4D4D"/>
<path d="M145.519 96.0109L143.041 97.3663L145.519 98.9477L145.744 99.3995H146.42L148.898 97.8181L145.519 96.0109Z" fill="#CCCCCC"/>
<path d="M145.744 98.9477L142.365 96.9145L144.843 95.5591L148.222 97.3663L145.744 98.9477Z" fill="#999999"/>
<path d="M145.744 98.7218L142.591 96.9146H142.365L145.744 98.9477L148.222 97.3664H147.997L145.744 98.7218Z" fill="white"/>
<path d="M148.222 97.3663V97.8182L145.744 99.3995V98.9477L148.222 97.3663Z" fill="#1A1A1A"/>
<path d="M142.365 96.9146V97.3664L145.744 99.3995V98.9477L142.365 96.9146Z" fill="#4D4D4D"/>
<path d="M140.788 93.3L138.311 94.8814L140.788 96.2369L141.014 96.6887H141.689L144.167 95.3332L140.788 93.3Z" fill="#CCCCCC"/>
<path d="M141.014 96.2369L137.635 94.4296L140.113 92.8483L143.492 94.8814L141.014 96.2369Z" fill="#999999"/>
<path d="M141.014 96.011L137.86 94.2037L137.635 94.4296L141.014 96.2369L143.492 94.8815L143.266 94.6556L141.014 96.011Z" fill="white"/>
<path d="M143.492 94.8815V95.3333L141.014 96.6887V96.2369L143.492 94.8815Z" fill="#1A1A1A"/>
<path d="M137.635 94.4297V94.6556L141.014 96.6888V96.237L137.635 94.4297Z" fill="#4D4D4D"/>
<path d="M136.283 90.8151L133.805 92.1705L136.283 93.7519L136.508 94.2037H137.184L139.662 92.6223L136.283 90.8151Z" fill="#CCCCCC"/>
<path d="M136.508 93.7519L133.13 91.7187L135.833 90.3633L138.986 92.1705L136.508 93.7519Z" fill="#999999"/>
<path d="M136.508 93.526L133.355 91.7188H133.13L136.508 93.7519L138.986 92.1706L136.508 93.526Z" fill="white"/>
<path d="M138.986 92.1705V92.6224L136.508 94.2037V93.7519L138.986 92.1705Z" fill="#1A1A1A"/>
<path d="M133.13 91.7188V92.1706L136.508 94.2037V93.7519L133.13 91.7188Z" fill="#4D4D4D"/>
<path d="M132.003 88.1041L129.525 89.6855L132.003 91.0409L132.228 91.4928L132.904 91.7187L135.382 90.1373L132.003 88.1041Z" fill="#CCCCCC"/>
<path d="M132.229 91.041L128.85 89.2337L131.327 87.6523L134.706 89.6855L132.229 91.041Z" fill="#999999"/>
<path d="M132.229 91.041L129.075 89.2338H128.85L132.229 91.041L134.706 89.6856H134.481L132.229 91.041Z" fill="white"/>
<path d="M134.706 89.6855V90.1374L132.229 91.4928V91.041L134.706 89.6855Z" fill="#1A1A1A"/>
<path d="M128.85 89.2338V89.6856L132.229 91.4928V91.041L128.85 89.2338Z" fill="#4D4D4D"/>
<path d="M127.723 85.6191L125.245 86.9746L127.723 88.5559L127.949 89.0078H128.624L131.102 87.4264L127.723 85.6191Z" fill="#CCCCCC"/>
<path d="M127.949 88.556L124.57 86.5228L127.047 85.1674L130.426 86.9746L127.949 88.556Z" fill="#999999"/>
<path d="M127.949 88.3301L124.795 86.5228H124.57L127.949 88.556L130.426 86.9746H130.201L127.949 88.3301Z" fill="white"/>
<path d="M130.426 86.9746V87.4264L127.949 89.0078V88.556L130.426 86.9746Z" fill="#1A1A1A"/>
<path d="M124.57 86.5228V86.9746L127.949 89.0078V88.556L124.57 86.5228Z" fill="#4D4D4D"/>
<path d="M172.776 111.824L170.072 113.18L174.803 115.891L175.028 116.343H175.479L177.957 114.987L172.776 111.824Z" fill="#CCCCCC"/>
<path d="M175.028 115.891L169.622 112.728L172.1 111.373L177.506 114.309L175.028 115.891Z" fill="#999999"/>
<path d="M175.028 115.665L169.622 112.728L175.028 115.891L177.506 114.31H177.281L175.028 115.665Z" fill="white"/>
<path d="M177.506 114.309V114.761L175.028 116.343V115.891L177.506 114.309Z" fill="#1A1A1A"/>
<path d="M169.622 112.728V113.18L175.028 116.343V115.891L169.622 112.728Z" fill="#4D4D4D"/>
<path d="M153.628 96.2368L151.15 97.5923L153.628 99.1736L153.854 99.6254H154.529L157.007 98.27L153.628 96.2368Z" fill="#CCCCCC"/>
<path d="M153.854 99.1737L150.475 97.1405L153.178 95.785L156.331 97.5923L153.854 99.1737Z" fill="#999999"/>
<path d="M153.854 98.9478L150.7 97.1405H150.475L153.854 99.1737L156.331 97.5923L153.854 98.9478Z" fill="white"/>
<path d="M156.332 97.5923V98.0441L153.854 99.6255V99.1736L156.332 97.5923Z" fill="#1A1A1A"/>
<path d="M150.475 97.1405V97.5923L153.854 99.6255V99.1737L150.475 97.1405Z" fill="#4D4D4D"/>
<path d="M171.199 106.403L168.721 107.984L171.199 109.34L171.424 109.791H172.1L174.578 108.436L171.199 106.403Z" fill="#CCCCCC"/>
<path d="M171.424 109.34L168.045 107.532L170.523 105.951L173.902 107.984L171.424 109.34Z" fill="#999999"/>
<path d="M171.424 109.114L168.27 107.306L168.045 107.532L171.424 109.34L173.902 107.984L173.677 107.758L171.424 109.114Z" fill="white"/>
<path d="M173.902 107.984V108.436L171.424 109.791V109.34L173.902 107.984Z" fill="#1A1A1A"/>
<path d="M168.045 107.532V107.984L171.424 109.791V109.34L168.045 107.532Z" fill="#4D4D4D"/>
<path d="M175.479 108.888L172.776 110.469L175.479 111.825L175.704 112.276H176.155L178.632 110.921L175.479 108.888Z" fill="#CCCCCC"/>
<path d="M175.704 111.825L172.325 110.017L174.803 108.436L178.182 110.469L175.704 111.825Z" fill="#999999"/>
<path d="M175.704 111.599L172.325 109.791V110.017L175.704 111.825L178.182 110.469L177.957 110.243L175.704 111.599Z" fill="white"/>
<path d="M178.182 110.469V110.695L175.704 112.276V111.825L178.182 110.469Z" fill="#1A1A1A"/>
<path d="M172.325 110.017V110.243L175.704 112.276V111.825L172.325 110.017Z" fill="#4D4D4D"/>
<path d="M166.919 103.918L164.441 105.499L166.919 106.855L167.144 107.306H167.595L170.298 105.951L166.919 103.918Z" fill="#CCCCCC"/>
<path d="M167.144 106.855L163.765 105.047L166.243 103.466L169.622 105.499L167.144 106.855Z" fill="#999999"/>
<path d="M167.144 106.629L163.99 104.821L163.765 105.047L167.144 106.855L169.622 105.499L169.397 105.273L167.144 106.629Z" fill="white"/>
<path d="M169.622 105.499V105.951L167.144 107.306V106.855L169.622 105.499Z" fill="#1A1A1A"/>
<path d="M163.765 105.047V105.499L167.144 107.306V106.855L163.765 105.047Z" fill="#4D4D4D"/>
<path d="M162.639 101.433L159.936 102.788L162.639 104.37L162.864 104.821H163.315L166.018 103.24L162.639 101.433Z" fill="#CCCCCC"/>
<path d="M162.864 104.37L159.485 102.336L161.963 100.981L165.342 102.788L162.864 104.37Z" fill="#999999"/>
<path d="M162.864 104.144L159.485 102.336L162.864 104.37L165.342 102.788H165.117L162.864 104.144Z" fill="white"/>
<path d="M165.342 102.788V103.24L162.864 104.821V104.37L165.342 102.788Z" fill="#1A1A1A"/>
<path d="M159.485 102.336V102.788L162.864 104.821V104.37L159.485 102.336Z" fill="#4D4D4D"/>
<path d="M158.134 98.7219L155.656 100.303L158.134 101.659L158.359 102.111H159.035L161.513 100.755L158.134 98.7219Z" fill="#CCCCCC"/>
<path d="M158.359 101.659L154.98 99.8515L157.458 98.2701L160.837 100.303L158.359 101.659Z" fill="#999999"/>
<path d="M158.359 101.659L155.205 99.6256L154.98 99.8515L158.359 101.659L160.837 100.303H160.611L158.359 101.659Z" fill="white"/>
<path d="M160.837 100.303V100.755L158.359 102.111V101.659L160.837 100.303Z" fill="#1A1A1A"/>
<path d="M154.98 99.8516V100.303L158.359 102.111V101.659L154.98 99.8516Z" fill="#4D4D4D"/>
<path d="M149.348 93.752L146.645 95.1074L149.348 96.4629V96.9147L150.024 97.1406L152.502 95.5592L149.348 93.752Z" fill="#CCCCCC"/>
<path d="M149.348 96.4628L146.195 94.6556L148.673 93.0742L152.052 95.1074L149.348 96.4628Z" fill="#999999"/>
<path d="M149.348 96.4629L146.195 94.6556L149.348 96.4629L152.052 95.1074H151.826L149.348 96.4629Z" fill="white"/>
<path d="M152.052 95.1074V95.5592L149.348 96.9147V96.4629L152.052 95.1074Z" fill="#1A1A1A"/>
<path d="M146.195 94.6556V95.1074L149.348 96.9147V96.4629L146.195 94.6556Z" fill="#4D4D4D"/>
<path d="M144.393 91.041L141.915 92.3965L144.618 93.9778V94.4296H145.294L147.772 92.8483L144.393 91.041Z" fill="#CCCCCC"/>
<path d="M144.618 93.9779L141.464 91.9447L143.942 90.5892L147.321 92.3965L144.618 93.9779Z" fill="#999999"/>
<path d="M144.618 93.752L141.464 91.9447L144.618 93.9779L147.321 92.3965H147.096L144.618 93.752Z" fill="white"/>
<path d="M147.321 92.3965V92.8483L144.618 94.4297V93.9778L147.321 92.3965Z" fill="#1A1A1A"/>
<path d="M141.464 91.9447V92.3965L144.618 94.4297V93.9779L141.464 91.9447Z" fill="#4D4D4D"/>
<path d="M140.113 88.3301L137.635 89.9114L140.113 91.2669L140.338 91.7187H140.788L143.492 90.3633L140.113 88.3301Z" fill="#CCCCCC"/>
<path d="M140.338 91.2669L136.959 89.4596L139.437 87.8783L142.816 89.9115L140.338 91.2669Z" fill="#999999"/>
<path d="M140.338 91.2669L137.184 89.2338L136.959 89.4597L140.338 91.2669L142.816 89.9115L142.591 89.6856L140.338 91.2669Z" fill="white"/>
<path d="M142.816 89.9115V90.3633L140.338 91.7188V91.267L142.816 89.9115Z" fill="#1A1A1A"/>
<path d="M136.959 89.4596V89.9114L140.338 91.7187V91.2669L136.959 89.4596Z" fill="#4D4D4D"/>
<path d="M135.833 85.8451L133.13 87.4265L135.833 88.7819V89.2337H136.508L138.986 87.8783L135.833 85.8451Z" fill="#CCCCCC"/>
<path d="M135.833 88.7819L132.679 86.9747L135.157 85.3933L138.536 87.4265L135.833 88.7819Z" fill="#999999"/>
<path d="M135.833 88.556L132.679 86.7488V86.9747L135.833 88.7819L138.536 87.4265L138.311 87.2006L135.833 88.556Z" fill="white"/>
<path d="M138.536 87.4265V87.6524L135.833 89.2338V88.782L138.536 87.4265Z" fill="#1A1A1A"/>
<path d="M132.679 86.9747V87.2006L135.833 89.2338V88.782L132.679 86.9747Z" fill="#4D4D4D"/>
<path d="M131.553 83.3601L128.85 84.7156L131.553 86.071L131.778 86.5228L132.229 86.7487L134.706 85.1674L131.553 83.3601Z" fill="#CCCCCC"/>
<path d="M131.778 86.071L128.399 84.2637L130.877 82.6824L134.256 84.7156L131.778 86.071Z" fill="#999999"/>
<path d="M131.778 86.0711L128.399 84.2638L131.778 86.0711L134.256 84.7156H134.031L131.778 86.0711Z" fill="white"/>
<path d="M134.256 84.7156V85.1674L131.778 86.5228V86.071L134.256 84.7156Z" fill="#1A1A1A"/>
<path d="M128.399 84.2638V84.7156L131.778 86.5229V86.0711L128.399 84.2638Z" fill="#4D4D4D"/>
<path d="M174.578 104.144L172.1 105.725L174.578 107.08L174.803 107.532H175.479L177.957 106.177L174.578 104.144Z" fill="#CCCCCC"/>
<path d="M174.803 107.081L171.424 105.273L173.902 103.692L177.281 105.725L174.803 107.081Z" fill="#999999"/>
<path d="M174.803 106.855L171.649 105.047L171.424 105.273L174.803 107.081L177.281 105.725V105.499L174.803 106.855Z" fill="white"/>
<path d="M177.281 105.725V106.177L174.803 107.532V107.081L177.281 105.725Z" fill="#1A1A1A"/>
<path d="M171.424 105.273V105.499L174.803 107.532V107.08L171.424 105.273Z" fill="#4D4D4D"/>
<path d="M178.858 106.629L176.155 108.21L178.858 109.565L179.083 110.017H179.533L182.237 108.662L178.858 106.629Z" fill="#CCCCCC"/>
<path d="M179.083 109.566L175.704 107.758L178.182 106.177L181.561 108.21L179.083 109.566Z" fill="#999999"/>
<path d="M179.083 109.34L175.704 107.532V107.758L179.083 109.566L181.561 108.21L181.336 107.984L179.083 109.34Z" fill="white"/>
<path d="M181.561 108.21V108.436L179.083 110.017V109.566L181.561 108.21Z" fill="#1A1A1A"/>
<path d="M175.704 107.758V107.984L179.083 110.017V109.566L175.704 107.758Z" fill="#4D4D4D"/>
<path d="M136.959 79.7456L135.607 80.4233L138.085 81.7788L138.311 82.2306H138.986L140.338 81.5529L136.959 79.7456Z" fill="#CCCCCC"/>
<path d="M138.311 81.7788L134.932 79.9715L136.283 79.0679L139.662 81.101L138.311 81.7788Z" fill="#999999"/>
<path d="M138.311 81.7788L135.157 79.7456L134.932 79.9715L138.311 81.7788L139.662 81.1011H139.437L138.311 81.7788Z" fill="white"/>
<path d="M139.662 81.1011V81.5529L138.311 82.2306V81.7788L139.662 81.1011Z" fill="#1A1A1A"/>
<path d="M134.932 79.9716V80.4234L138.311 82.2306V81.7788L134.932 79.9716Z" fill="#4D4D4D"/>
<path d="M141.239 82.2306L139.887 82.9083L142.365 84.4897L142.591 84.7156L143.266 84.9415L144.618 84.0379L141.239 82.2306Z" fill="#CCCCCC"/>
<path d="M142.591 84.4897L139.212 82.4565L140.563 81.7788L143.942 83.5861L142.591 84.4897Z" fill="#999999"/>
<path d="M142.591 84.2638L139.437 82.4565H139.212L142.591 84.4897L143.942 83.5861H143.717L142.591 84.2638Z" fill="white"/>
<path d="M143.942 83.5861V84.0379L142.591 84.7156V84.4897L143.942 83.5861Z" fill="#1A1A1A"/>
<path d="M139.212 82.4565V82.9084L142.591 84.7156V84.4897L139.212 82.4565Z" fill="#4D4D4D"/>
<path d="M145.519 84.7156L144.167 85.3933L146.645 86.9747L146.871 87.4265H147.546L148.898 86.7488L145.519 84.7156Z" fill="#CCCCCC"/>
<path d="M146.871 86.9747L143.492 84.9415L144.843 84.2638L148.222 86.0711L146.871 86.9747Z" fill="#999999"/>
<path d="M146.871 86.7488L143.717 84.9415H143.492L146.871 86.9747L148.222 86.0711L146.871 86.7488Z" fill="white"/>
<path d="M148.222 86.071V86.5229L146.871 87.4265V86.9747L148.222 86.071Z" fill="#1A1A1A"/>
<path d="M143.492 84.9415V85.3933L146.871 87.4265V86.9747L143.492 84.9415Z" fill="#4D4D4D"/>
<path d="M149.799 87.2006L148.447 88.1042L150.925 89.4596L151.15 89.9115H151.826L153.178 89.2337L149.799 87.2006Z" fill="#CCCCCC"/>
<path d="M151.15 89.4597L147.772 87.4265L149.348 86.7488L152.502 88.7819L151.15 89.4597Z" fill="#999999"/>
<path d="M151.15 89.2338L147.997 87.4265H147.772L151.15 89.4597L152.502 88.782V88.5561L151.15 89.2338Z" fill="white"/>
<path d="M152.502 88.782V89.0079L151.151 89.9115V89.4597L152.502 88.782Z" fill="#1A1A1A"/>
<path d="M147.772 87.4265V87.8783L151.15 89.9115V89.4597L147.772 87.4265Z" fill="#4D4D4D"/>
<path d="M154.079 89.6855L152.727 90.5892L155.43 91.9446V92.3964H156.106L157.458 91.7187L154.079 89.6855Z" fill="#CCCCCC"/>
<path d="M155.43 91.9447L152.277 90.1374L153.628 89.2338L157.007 91.2669L155.43 91.9447Z" fill="#999999"/>
<path d="M155.43 91.7188L152.277 89.9115V90.1374L155.43 91.9447L157.007 91.267H156.782L155.43 91.7188Z" fill="white"/>
<path d="M157.007 91.267V91.7188L155.43 92.3965V91.9447L157.007 91.267Z" fill="#1A1A1A"/>
<path d="M152.277 90.1375V90.5893L155.43 92.3965V91.9447L152.277 90.1375Z" fill="#4D4D4D"/>
<path d="M158.584 92.3965L157.007 93.0742L159.71 94.4297L159.936 94.8815L160.386 95.1074L161.738 94.2037L158.584 92.3965Z" fill="#CCCCCC"/>
<path d="M159.936 94.4297L156.557 92.6224L157.908 91.9447L161.287 93.752L159.936 94.4297Z" fill="#999999"/>
<path d="M159.936 94.4297L156.557 92.6224L159.936 94.4297L161.287 93.752H161.062L159.936 94.4297Z" fill="white"/>
<path d="M161.287 93.752V94.2038L159.936 94.8815V94.4297L161.287 93.752Z" fill="#1A1A1A"/>
<path d="M156.557 92.6224V93.0743L159.936 94.8815V94.4297L156.557 92.6224Z" fill="#4D4D4D"/>
<path d="M162.864 94.8815L161.513 95.5592L163.99 97.1406L164.216 97.5924H164.666L166.243 96.6887L162.864 94.8815Z" fill="#CCCCCC"/>
<path d="M164.216 97.1406L160.837 95.1074L162.188 94.4297L165.567 96.237L164.216 97.1406Z" fill="#999999"/>
<path d="M164.216 96.9147L161.062 95.1074H160.837L164.216 97.1406L165.567 96.237H165.342L164.216 96.9147Z" fill="white"/>
<path d="M165.567 96.2369V96.6888L164.216 97.5924V97.1406L165.567 96.2369Z" fill="#1A1A1A"/>
<path d="M160.837 95.1074V95.5592L164.216 97.5924V97.1406L160.837 95.1074Z" fill="#4D4D4D"/>
<path d="M167.144 97.3665L165.792 98.0442L168.27 99.6255L168.496 100.077H169.171L170.523 99.3996L167.144 97.3665Z" fill="#CCCCCC"/>
<path d="M168.496 99.6256L165.117 97.5924L166.468 96.9147L169.847 98.9478L168.496 99.6256Z" fill="#999999"/>
<path d="M168.496 99.3997L165.342 97.5924H165.117L168.496 99.6256L169.847 98.9479L169.622 98.7219L168.496 99.3997Z" fill="white"/>
<path d="M169.847 98.9479V99.1738L168.496 100.077V99.6256L169.847 98.9479Z" fill="#1A1A1A"/>
<path d="M165.117 97.5924V98.0442L168.496 100.077V99.6256L165.117 97.5924Z" fill="#4D4D4D"/>
<path d="M171.424 99.8514L170.072 100.755L172.55 102.111L172.776 102.562H173.451L174.803 101.885L171.424 99.8514Z" fill="#CCCCCC"/>
<path d="M172.776 102.111L169.397 100.303L170.748 99.3997L174.127 101.433L172.776 102.111Z" fill="#999999"/>
<path d="M172.776 101.885L169.622 100.077L169.397 100.303L172.776 102.111L174.127 101.433L173.902 101.207L172.776 101.885Z" fill="white"/>
<path d="M174.127 101.433V101.885L172.776 102.562V102.111L174.127 101.433Z" fill="#1A1A1A"/>
<path d="M169.397 100.303V100.529L172.776 102.562V102.111L169.397 100.303Z" fill="#4D4D4D"/>
<path d="M175.704 102.562L174.352 103.24L176.83 104.595L177.056 105.047H177.731L179.083 104.37L175.704 102.562Z" fill="#CCCCCC"/>
<path d="M177.056 104.595L173.677 102.788L175.028 102.11L178.407 103.918L177.056 104.595Z" fill="#999999"/>
<path d="M177.056 104.595L173.902 102.562L173.677 102.788L177.056 104.595L178.407 103.918L177.056 104.595Z" fill="white"/>
<path d="M178.407 103.918V104.37L177.056 105.047V104.595L178.407 103.918Z" fill="#1A1A1A"/>
<path d="M173.677 102.788V103.24L177.056 105.047V104.595L173.677 102.788Z" fill="#4D4D4D"/>
<path d="M179.984 105.047L178.632 105.725L181.11 107.306L181.336 107.532L182.011 107.758L183.363 106.855L179.984 105.047Z" fill="#CCCCCC"/>
<path d="M181.336 107.306L177.957 105.273L179.533 104.595L182.687 106.403L181.336 107.306Z" fill="#999999"/>
<path d="M181.336 107.08L178.182 105.273H177.957L181.336 107.306L182.687 106.403L181.336 107.08Z" fill="white"/>
<path d="M182.687 106.403V106.855L181.336 107.532V107.306L182.687 106.403Z" fill="#1A1A1A"/>
<path d="M177.957 105.273V105.725L181.336 107.532V107.306L177.957 105.273Z" fill="#4D4D4D"/>
<path d="M184.264 107.532L182.912 108.21L185.616 109.791L185.841 110.243H186.291L187.643 109.566L184.264 107.532Z" fill="#CCCCCC"/>
<path d="M185.841 109.791L182.462 107.758L183.813 107.081L187.192 109.114L185.841 109.791Z" fill="#999999"/>
<path d="M185.841 109.566L182.462 107.758L185.841 109.791L187.192 109.114L186.967 108.888L185.841 109.566Z" fill="white"/>
<path d="M187.192 109.114V109.34L185.841 110.243V109.791L187.192 109.114Z" fill="#1A1A1A"/>
<path d="M182.462 107.758V108.21L185.841 110.243V109.791L182.462 107.758Z" fill="#4D4D4D"/>
<path d="M170.298 101.659L167.82 103.24L170.298 104.595L170.523 105.047H171.199L173.677 103.692L170.298 101.659Z" fill="#CCCCCC"/>
<path d="M170.523 104.596L167.144 102.788L169.622 101.207L173.001 103.24L170.523 104.596Z" fill="#999999"/>
<path d="M170.523 104.37L167.369 102.562L167.144 102.788L170.523 104.596L173.001 103.24L172.776 103.014L170.523 104.37Z" fill="white"/>
<path d="M173.001 103.24V103.692L170.523 105.047V104.596L173.001 103.24Z" fill="#1A1A1A"/>
<path d="M167.144 102.788V103.014L170.523 105.047V104.596L167.144 102.788Z" fill="#4D4D4D"/>
<path d="M166.018 99.1737L163.54 100.529L166.018 102.111L166.243 102.336L166.694 102.562L169.397 100.981L166.018 99.1737Z" fill="#CCCCCC"/>
<path d="M166.243 102.111L162.864 100.077L165.342 98.7219L168.721 100.529L166.243 102.111Z" fill="#999999"/>
<path d="M166.243 101.885L163.089 100.077H162.864L166.243 102.111L168.721 100.529H168.496L166.243 101.885Z" fill="white"/>
<path d="M168.721 100.529V100.981L166.243 102.336V102.111L168.721 100.529Z" fill="#1A1A1A"/>
<path d="M162.864 100.077V100.529L166.243 102.336V102.111L162.864 100.077Z" fill="#4D4D4D"/>
<path d="M161.513 96.4628L159.035 98.0441L161.513 99.3996L161.738 99.8514H162.414L164.891 98.4959L161.513 96.4628Z" fill="#CCCCCC"/>
<path d="M161.738 99.3996L158.359 97.5923L160.837 96.011L164.216 98.0442L161.738 99.3996Z" fill="#999999"/>
<path d="M161.738 99.3996L158.584 97.3665L158.359 97.5924L161.738 99.3996L164.216 98.0442V97.8183L161.738 99.3996Z" fill="white"/>
<path d="M164.216 98.0442V98.496L161.738 99.8515V99.3996L164.216 98.0442Z" fill="#1A1A1A"/>
<path d="M158.359 97.5923V98.0441L161.738 99.8514V99.3996L158.359 97.5923Z" fill="#4D4D4D"/>
<path d="M157.007 93.9778L154.529 95.3332L157.007 96.9146L157.233 97.1405L157.908 97.3664L160.386 95.7851L157.007 93.9778Z" fill="#CCCCCC"/>
<path d="M157.233 96.9146L153.854 94.8814L156.332 93.526L159.71 95.3333L157.233 96.9146Z" fill="#999999"/>
<path d="M157.233 96.6887L154.079 94.8815H153.854L157.233 96.9146L159.71 95.3333L157.233 96.6887Z" fill="white"/>
<path d="M159.71 95.3333V95.7851L157.233 97.1405V96.9146L159.71 95.3333Z" fill="#1A1A1A"/>
<path d="M153.854 94.8815V95.3333L157.233 97.1406V96.9146L153.854 94.8815Z" fill="#4D4D4D"/>
<path d="M152.727 91.2668L150.024 92.8482L152.727 94.2037L152.953 94.6555H153.403L155.881 93.3L152.727 91.2668Z" fill="#CCCCCC"/>
<path d="M152.953 94.2037L149.574 92.3964L152.052 90.8151L155.43 92.8482L152.953 94.2037Z" fill="#999999"/>
<path d="M152.953 94.2037L149.574 92.1705V92.3964L152.953 94.2037L155.43 92.8483H155.205L152.953 94.2037Z" fill="white"/>
<path d="M155.43 92.8483V93.3001L152.953 94.6555V94.2037L155.43 92.8483Z" fill="#1A1A1A"/>
<path d="M149.574 92.3965V92.8483L152.953 94.6556V94.2037L149.574 92.3965Z" fill="#4D4D4D"/>
<path d="M147.997 88.7819L145.294 90.1373L147.997 91.7187L148.222 92.1705H148.673L151.15 90.5891L147.997 88.7819Z" fill="#CCCCCC"/>
<path d="M148.222 91.7187L144.843 89.6855L147.321 88.3301L150.7 90.1374L148.222 91.7187Z" fill="#999999"/>
<path d="M148.222 91.4928L144.843 89.6855L148.222 91.7187L150.7 90.1374H150.475L148.222 91.4928Z" fill="white"/>
<path d="M150.7 90.1373V90.5891L148.222 92.1705V91.7187L150.7 90.1373Z" fill="#1A1A1A"/>
<path d="M144.843 89.6855V90.1374L148.222 92.1705V91.7187L144.843 89.6855Z" fill="#4D4D4D"/>
<path d="M143.492 86.071L141.014 87.6524L143.492 89.0079L143.717 89.4597H144.167L146.87 88.1042L143.492 86.071Z" fill="#CCCCCC"/>
<path d="M143.717 89.0079L140.338 87.2006L142.816 85.6193L146.195 87.6524L143.717 89.0079Z" fill="#999999"/>
<path d="M143.717 88.782L140.563 86.9747L140.338 87.2006L143.717 89.0079L146.195 87.6525L145.969 87.4265L143.717 88.782Z" fill="white"/>
<path d="M146.195 87.6525V88.1043L143.717 89.4597V89.0079L146.195 87.6525Z" fill="#1A1A1A"/>
<path d="M140.338 87.2006V87.6524L143.717 89.4596V89.0078L140.338 87.2006Z" fill="#4D4D4D"/>
<path d="M139.212 83.5861L136.509 84.9415L139.212 86.5229L139.437 86.9747H139.887L142.365 85.6192L139.212 83.5861Z" fill="#CCCCCC"/>
<path d="M139.437 86.5229L136.058 84.4897L138.536 83.1343L141.915 85.1675L139.437 86.5229Z" fill="#999999"/>
<path d="M139.437 86.297L136.058 84.4897L139.437 86.5229L141.915 85.1675L141.69 84.9416L139.437 86.297Z" fill="white"/>
<path d="M141.915 85.1675V85.3934L139.437 86.9747V86.5229L141.915 85.1675Z" fill="#1A1A1A"/>
<path d="M136.058 84.4897V84.9416L139.437 86.9747V86.5229L136.058 84.4897Z" fill="#4D4D4D"/>
<path d="M134.932 80.8751L132.229 82.4565L134.932 83.8119L135.157 84.2637H135.607L138.085 82.9083L134.932 80.8751Z" fill="#CCCCCC"/>
<path d="M135.157 83.812L131.778 82.0047L134.256 80.4233L137.635 82.4565L135.157 83.812Z" fill="#999999"/>
<path d="M135.157 83.812L131.778 81.7788V82.0047L135.157 83.812L137.635 82.4565H137.41L135.157 83.812Z" fill="white"/>
<path d="M137.635 82.4565V82.9084L135.157 84.2638V83.812L137.635 82.4565Z" fill="#1A1A1A"/>
<path d="M131.778 82.0048V82.4566L135.157 84.2638V83.812L131.778 82.0048Z" fill="#4D4D4D"/>
<path d="M183.363 109.34L177.056 112.728L178.632 113.632L178.858 114.084H179.308L185.615 110.695L183.363 109.34Z" fill="#CCCCCC"/>
<path d="M178.858 113.632L176.38 112.276L182.687 108.888L184.94 110.017L178.858 113.632Z" fill="#999999"/>
<path d="M178.858 113.632L176.605 112.276H176.38L178.858 113.632L184.94 110.017L178.858 113.632Z" fill="white"/>
<path d="M184.94 110.017V110.469L178.858 114.084V113.632L184.94 110.017Z" fill="#1A1A1A"/>
<path d="M176.38 112.276V112.728L178.858 114.084V113.632L176.38 112.276Z" fill="#4D4D4D"/>
<path d="M139.437 97.1405L136.959 98.4959L150.925 106.855L151.15 107.306H151.826L154.304 105.725L139.437 97.1405Z" fill="#CCCCCC"/>
<path d="M151.15 106.855L136.283 98.0441L138.986 96.4628L153.854 105.273L151.15 106.855Z" fill="#999999"/>
<path d="M151.15 106.629L136.508 98.0442H136.283L151.15 106.855L153.854 105.273H153.628L151.15 106.629Z" fill="white"/>
<path d="M153.854 105.273V105.725L151.15 107.306V106.855L153.854 105.273Z" fill="#1A1A1A"/>
<path d="M136.283 98.0442V98.496L151.15 107.306V106.855L136.283 98.0442Z" fill="#4D4D4D"/>
<path d="M144.843 41.793H145.294L146.195 42.0189V42.2449C146.195 42.4708 146.195 42.6967 145.969 42.9226L145.294 51.0553L143.492 72.2907C143.266 74.5497 144.393 77.0347 146.195 77.9384L192.599 104.821L192.148 106.177L193.274 105.725C193.95 105.499 194.401 104.596 194.626 103.692C194.626 103.466 194.626 103.466 194.626 103.24L197.104 73.872C197.329 72.2907 196.653 70.7093 195.752 69.5798C195.302 69.1279 194.851 68.6761 194.401 68.2243L147.772 41.3412C147.096 40.8894 146.42 40.8894 145.744 41.1153L145.068 41.5671L144.843 41.793Z" fill="#1F1E21"/>
<path d="M145.294 41.5671L146.195 42.2449L194.626 70.0316L195.752 69.5798C195.302 69.1279 194.851 68.6761 194.401 68.2243L147.772 41.3412C147.096 40.8894 146.42 40.8894 145.744 41.1153L145.294 41.5671Z" fill="#605C66"/>
<path d="M143.717 44.278L143.041 52.4107L141.239 73.6461C141.014 75.9052 142.14 78.3902 143.942 79.2938L178.407 98.9479L190.346 106.177C191.698 106.855 192.824 106.403 193.5 105.047C193.5 104.821 193.725 104.596 193.725 104.37C193.725 104.144 193.725 104.144 193.725 103.918L195.977 74.5497C196.203 72.2907 195.076 69.8057 193.274 68.902L176.38 59.188L160.386 49.6998L147.096 42.0189C145.969 41.3412 145.068 41.5671 144.393 42.4708C143.942 42.9226 143.717 43.3744 143.717 44.278Z" fill="#47454D"/>
<path d="M194.401 72.7425L191.472 104.596L142.816 75.9052L145.744 44.0521L194.401 72.7425Z" fill="#6B6CB3"/>
<path d="M160.386 54.218C161.062 54.218 161.963 54.4439 162.639 54.6698C163.54 55.1216 164.441 56.0253 164.666 57.1548C164.891 58.0584 164.666 59.188 164.891 60.0916C165.117 60.9953 165.792 61.8989 166.243 62.8025C166.694 63.7062 166.919 64.6098 167.144 65.5134C167.369 67.7725 166.694 70.0316 166.468 72.0648C166.243 74.3239 166.468 77.0348 165.117 78.842C164.891 79.2938 164.441 79.7457 163.765 79.9716C163.315 80.1975 162.864 80.1975 162.414 79.9716C161.287 79.5197 160.386 78.842 160.161 77.7125C159.71 76.5829 159.26 75.4534 158.809 74.0979C158.134 72.2907 157.683 70.2575 157.458 68.2243C157.458 67.3207 157.458 66.4171 157.458 65.5134C157.458 64.6098 157.683 63.7062 157.683 62.8025C157.683 62.1248 157.458 61.4471 157.233 60.7693C157.007 59.8657 157.007 58.9621 157.007 58.0585C157.007 56.703 157.233 54.8957 158.584 53.9921C159.035 53.7662 159.26 53.5403 159.71 53.5403C159.71 54.218 160.161 54.218 160.386 54.218Z" fill="#47454D"/>
<path d="M166.243 89.6856L142.816 75.9052V75.4534C143.041 75.2275 143.266 75.0016 143.492 74.7757C145.294 73.1943 147.546 72.0648 150.024 71.8389C150.925 71.8389 151.826 71.8389 152.727 71.8389C153.854 72.0648 154.98 72.5166 156.331 72.9684C157.683 73.4202 159.26 74.098 160.386 75.0016C162.639 76.5829 164.666 78.842 165.567 81.327C166.243 82.6825 166.468 84.2638 166.694 85.8452C166.694 86.9747 166.694 88.5561 166.243 89.6856Z" fill="#FF5740"/>
<path d="M160.161 74.5497C159.71 73.6461 159.485 72.5166 159.26 71.387C159.035 70.7093 159.26 69.3538 158.134 69.8057C157.683 70.0316 157.233 70.2575 156.782 70.2575C155.881 70.4834 154.98 70.2575 153.854 70.0316C153.178 69.8057 152.727 69.8057 152.052 69.8057C151.376 69.8057 150.925 70.0316 150.475 70.4834C150.024 71.1611 150.249 71.8388 150.249 72.5166C150.249 72.9684 150.024 73.1943 150.024 73.6461C149.799 74.0979 149.799 74.7756 149.574 75.2275C149.348 75.9052 150.475 76.5829 151.15 76.8088C151.826 77.0347 152.502 77.2606 153.178 77.2606C154.755 77.4865 156.557 77.4865 158.134 77.0347C158.809 76.8088 159.485 76.5829 159.936 76.1311C160.611 76.1311 160.386 75.4534 160.161 74.5497Z" fill="#FFB78C"/>
<path d="M161.738 68.2243C163.315 66.4171 163.315 63.2543 162.864 60.9952C162.639 59.4139 161.738 57.6066 160.611 56.4771C158.809 54.8957 156.106 54.218 153.854 54.8957C151.601 55.5734 149.574 57.3807 148.673 59.6398C148.222 60.7693 147.997 62.1248 147.997 63.2543C147.772 64.6098 147.772 65.9652 147.772 67.0948C147.772 67.9984 147.997 68.902 148.447 69.8057C148.898 71.1611 149.574 72.2907 150.249 73.6461C150.475 73.872 150.7 74.3238 150.925 74.5498C151.376 74.7757 151.826 74.7757 152.277 74.7757C153.854 74.7757 155.43 74.0979 156.782 73.4202C157.683 72.9684 158.359 72.5166 159.035 71.8389C159.71 71.1611 160.161 70.2575 159.936 69.3539C160.611 69.3539 161.287 68.902 161.738 68.2243Z" fill="#FFE5CC"/>
<path d="M163.315 59.188C162.864 58.0584 162.414 57.1548 161.512 56.2511C161.287 56.0252 161.287 56.0252 161.062 55.7993C160.386 55.3475 159.71 54.8957 158.809 54.6698C157.908 54.4439 157.233 54.218 156.331 53.9921C154.755 53.9921 153.178 54.4439 151.826 55.1216C150.7 55.7993 149.574 56.9289 148.898 58.2843C148.673 58.5102 147.546 60.9952 148.222 61.2211C148.673 60.7693 148.898 59.8657 149.799 59.8657C150.475 59.6398 151.15 59.8657 151.826 59.8657C152.502 60.0916 153.178 60.0916 153.854 60.0916C153.628 60.5434 154.079 60.9952 154.529 61.447C155.205 61.8989 155.881 62.1248 156.782 62.5766C157.458 63.0284 158.134 63.4802 158.584 64.1579C158.809 64.6098 158.809 65.0616 159.035 65.5134C159.035 65.7393 159.26 66.1911 159.71 66.417C159.936 66.417 160.161 65.9652 160.386 65.5134C160.611 65.2875 160.837 64.8357 161.062 64.8357C161.512 64.3839 162.188 64.6098 162.188 65.2875C162.188 65.9652 161.963 66.6429 161.512 67.0948C161.062 67.7725 160.386 68.2243 159.936 69.1279C159.936 69.3538 159.71 69.8057 159.936 70.0316C160.161 70.0316 160.161 70.2575 160.386 70.2575C160.837 70.2575 161.287 70.0316 161.512 69.5797C163.089 68.2243 163.765 65.9652 163.99 63.932C163.99 62.3507 163.765 60.7693 163.315 59.188Z" fill="#605C66"/>
<path d="M194.401 72.7425L191.472 104.596L165.117 89.2338L168.27 57.3807L194.401 72.7425Z" fill="#4D4D80"/>
<path d="M173.001 63.4803L168.946 60.9953V60.0917L173.226 62.3508L173.001 63.4803Z" fill="white"/>
<path d="M177.506 67.7726L168.721 62.5767V61.4471L177.731 66.643L177.506 67.7726Z" fill="white"/>
<path d="M175.253 67.9984L168.496 64.158L168.721 63.0284L175.479 66.8689L175.253 67.9984Z" fill="white"/>
<path d="M189.67 103.466C189.67 103.692 189.67 103.692 189.67 103.466L166.018 89.6856C166.243 89.2338 166.693 88.556 166.919 88.3301C168.721 86.7488 170.973 85.6192 173.451 85.3933C174.352 85.3933 175.253 85.3933 176.154 85.3933C177.281 85.6192 178.632 86.071 179.759 86.5229C181.11 86.9747 182.687 87.6524 183.813 88.556C186.066 90.1374 188.093 92.3965 189.22 94.8815C189.895 96.2369 190.121 97.8183 190.346 99.3996C190.346 100.755 190.346 102.336 189.67 103.466Z" fill="#F76D31"/>
<path d="M183.813 88.3301C183.363 87.4265 183.138 86.297 182.912 85.1674C182.687 84.4897 182.912 83.1342 181.786 83.5861C181.335 83.812 180.885 84.0379 180.434 84.0379C179.533 84.2638 178.632 84.0379 177.506 83.812C176.83 83.5861 176.38 83.5861 175.704 83.5861C175.028 83.5861 174.578 83.812 174.127 84.2638C173.677 84.9415 173.902 85.6192 173.902 86.297C173.902 86.7488 173.677 86.9747 173.677 87.4265C173.451 87.8783 173.451 88.556 173.226 89.0079C173.001 89.6856 174.127 90.3633 174.803 90.5892C175.479 90.8151 176.154 91.041 176.83 91.041C178.407 91.2669 180.209 91.2669 181.786 90.8151C182.462 90.5892 183.138 90.3633 183.588 89.9115C184.489 89.9115 184.264 89.2338 183.813 88.3301Z" fill="#FFB78C"/>
<path d="M171.424 75.6793C171.199 76.357 171.199 76.8088 170.973 77.4865C170.748 78.6161 170.748 79.7456 170.748 80.8752V81.1011C170.748 81.327 171.199 81.327 171.199 81.5529C171.424 81.7788 171.424 81.7788 171.649 82.0047C172.1 82.2306 172.55 82.4565 173.226 82.4565H173.451V82.2306C173.451 82.0047 173.226 81.5529 173.451 81.327C173.451 81.1011 173.677 80.8752 173.677 80.6493C173.902 79.9715 174.127 79.5197 174.127 78.842C174.352 77.7125 174.803 76.5829 174.803 75.2275C174.803 74.5497 174.803 73.6461 174.578 73.1943C174.352 72.7425 174.127 72.2906 173.677 72.2906C173.226 72.2906 172.776 72.5166 172.55 72.7425C172.325 72.9684 172.1 73.4202 171.875 73.872C171.649 74.5497 171.424 75.2275 171.424 75.6793Z" fill="#754600"/>
<path d="M185.615 82.0047C187.192 80.1974 187.192 77.0347 186.742 74.7756C186.516 73.1943 185.615 71.387 184.489 70.2575C182.687 68.6761 179.984 67.9984 177.731 68.6761C175.479 69.3538 173.451 71.1611 172.55 73.4202C172.1 74.5497 171.875 75.9052 171.875 77.0347C171.649 78.3902 171.649 79.7456 171.649 80.8752C171.649 81.7788 171.874 82.6824 172.325 83.5861C172.776 84.9415 173.451 86.0711 174.127 87.4265C174.352 87.6524 174.578 88.1042 174.803 88.3301C175.253 88.5561 175.704 88.5561 176.154 88.5561C177.731 88.5561 179.308 87.8783 180.66 87.2006C181.561 86.7488 182.237 86.297 182.912 85.6192C183.588 84.9415 184.039 84.0379 183.813 83.1343C184.489 83.1343 185.165 82.6824 185.615 82.0047Z" fill="#FFE5CC"/>
<path d="M173.451 73.872C174.127 73.6461 174.803 73.872 175.479 73.872C176.154 74.0979 176.83 74.0979 177.506 74.0979C177.281 74.5498 177.731 75.0016 178.182 75.4534C178.858 75.9052 179.533 76.1311 180.434 76.5829C181.11 77.0348 181.786 77.4866 182.237 78.1643C182.462 78.6161 182.462 79.0679 182.687 79.5197C182.912 79.9716 183.138 80.4234 183.813 80.6493C183.588 80.6493 184.489 79.2938 184.489 79.2938C184.714 79.0679 184.94 78.842 185.39 78.842C186.516 78.842 186.516 80.4234 186.066 81.1011C185.615 81.5529 185.165 82.0047 184.489 82.4566C184.039 82.9084 183.363 83.3602 183.138 83.812C182.912 84.2638 182.912 84.9415 182.912 85.3934C182.912 85.6193 182.912 85.8452 183.138 85.8452C183.138 86.0711 183.363 86.0711 183.588 86.0711C184.264 86.297 184.94 86.0711 185.615 85.8452C186.516 85.3934 187.418 84.9415 188.319 84.2638C188.544 84.0379 188.544 84.0379 188.769 83.812C188.769 83.5861 188.769 83.5861 188.994 83.3602C189.67 80.4234 189.445 77.0347 188.544 74.0979C187.868 72.2907 186.967 70.4834 185.39 69.3539C184.714 68.9021 183.813 68.4502 183.138 68.2243C179.984 67.3207 176.605 68.2243 174.352 70.4834C173.451 71.387 172.776 72.2907 172.325 73.4202C172.325 73.6461 171.874 75.0016 172.325 74.7757L172.55 74.5498C172.776 74.0979 173.226 74.0979 173.451 73.872Z" fill="#754600"/>
<path d="M142.816 75.9052L145.969 77.7125L185.615 67.5466L168.045 57.1548L143.942 63.2543L142.816 75.9052Z" fill="#2E2E2E"/>
<path d="M157.908 84.7156L175.479 95.3333L192.599 90.8151L194.175 75.4534L157.908 84.7156Z" fill="#2E2E2E"/>
<path d="M146.42 44.5039L143.717 75.4534L191.472 103.692V104.596L142.816 75.9052L145.744 44.0521L146.42 44.5039Z" fill="#1F1E21"/>
<path d="M191.472 104.596L142.816 75.9052L143.717 75.4534L191.472 103.692V104.596Z" fill="#605C66"/>
<path d="M169.847 56.9289C169.847 57.3808 170.072 57.8326 170.523 58.0585H170.748H170.973C171.199 58.0585 171.424 57.8326 171.424 57.3808C171.424 56.9289 171.199 56.4771 170.748 56.2512H170.523H170.298C170.072 56.4771 169.847 56.4771 169.847 56.9289Z" fill="#F2F2F2"/>
<path d="M171.199 57.6067C171.199 57.8326 171.199 57.8326 171.199 57.6067C171.199 58.0585 170.973 58.0585 170.973 58.0585C170.973 58.0585 170.973 58.0585 170.748 58.0585H170.523C170.298 57.8326 170.072 57.3808 170.072 56.929C170.072 56.7031 170.298 56.4772 170.298 56.4772C170.298 56.4772 170.298 56.4772 170.523 56.4772H170.748C170.973 56.7031 171.199 57.1549 171.199 57.6067Z" fill="#4A8E90"/>
<path d="M171.199 57.6067C171.199 57.8326 171.199 57.8326 171.199 57.6067C171.199 57.8326 170.973 57.8326 170.973 57.8326C170.973 57.8326 170.973 57.8326 170.748 57.8326H170.523C170.298 57.6067 170.072 57.3808 170.072 56.929C170.072 56.7031 170.072 56.4772 170.298 56.4772C170.298 56.4772 170.298 56.4772 170.523 56.4772C170.973 56.7031 171.199 57.1549 171.199 57.6067Z" fill="#333333"/>
<path d="M109.252 85.3933L94.6098 76.8088C93.2582 75.9052 93.2582 74.5497 95.0603 73.4202L116.911 60.7693C118.488 59.8657 121.191 59.6398 122.542 60.5434L137.184 68.902C138.536 69.8056 138.536 71.1611 136.734 72.2906L114.883 85.1674C113.081 86.071 110.603 86.2969 109.252 85.3933Z" fill="#6B6CB3"/>
<path d="M111.279 79.5197L103.846 75.2274C103.62 75.0015 103.62 74.7756 103.846 74.5497L116.685 67.0947C117.136 66.8688 117.586 66.8688 117.812 67.0947L125.245 71.387C125.471 71.6129 125.471 71.8388 125.245 72.0647L112.631 79.5197C112.18 79.7456 111.73 79.7456 111.279 79.5197Z" fill="#4D4D80"/>
<path d="M112.405 77.7124C112.405 77.7124 118.713 74.3238 123.669 70.9351L117.586 70.7092L113.532 71.6129L111.955 73.646L112.405 77.7124Z" fill="#747474"/>
<path d="M123.669 70.7092C123.894 70.4833 123.218 70.0315 123.218 69.8056C121.416 67.9983 118.713 66.8688 116.235 67.0947C114.208 67.3206 112.405 68.4501 110.829 69.5797C109.477 70.4833 108.351 71.8388 107.45 72.9683C107.224 73.1942 107.224 73.4201 106.999 73.646L106.774 73.8719C106.774 73.8719 107.45 77.2606 112.405 77.2606C113.757 76.131 115.109 75.0015 116.46 73.8719C118.262 72.5165 120.29 71.3869 122.542 70.7092C122.993 70.9351 123.218 70.9351 123.669 70.7092C123.669 70.9351 123.669 70.7092 123.669 70.7092Z" fill="url(#paint0_linear_237_4881)"/>
<path d="M67.8037 144.13C71.4079 145.485 75.012 147.744 78.1657 150.003C78.391 150.229 78.8415 150.455 79.0667 150.907C79.292 151.359 79.292 151.81 79.5173 152.262C79.9678 155.199 80.1931 158.362 79.9678 161.299C79.9678 163.106 79.5173 164.235 77.9404 165.591C76.5889 166.72 75.012 167.624 73.6605 168.528C68.2542 171.916 45.7281 187.504 43.2502 189.085C37.1681 193.152 30.6355 196.088 23.2019 197.218C27.7071 188.859 29.5092 179.145 29.0587 169.431C28.8334 166.043 28.3829 162.654 27.4819 159.265C27.0313 157.458 26.5808 155.877 26.1303 154.295C25.905 153.392 25.6798 152.714 25.2293 151.81C25.004 151.133 24.5535 150.455 25.004 149.777C25.2293 149.325 25.6798 149.1 25.905 148.874C26.5808 148.422 27.2566 147.744 28.1577 147.292C29.0587 146.615 30.4103 146.389 31.3113 145.937C34.2397 144.807 37.3934 143.452 40.547 142.774C47.3049 141.419 54.288 140.741 61.0458 142.096C63.5237 142.774 65.7763 143.226 67.8037 144.13Z" fill="#FF5740"/>
<path d="M34.9155 187.278L26.1303 194.507L13.9662 239.689C13.7409 240.367 14.1915 241.044 14.642 241.496C15.543 241.948 16.6693 241.722 16.8946 240.592L33.7892 198.799L54.288 188.634L34.9155 187.278Z" fill="#906444"/>
<path d="M142.59 204.447C142.59 203.092 140.788 202.414 139.437 202.188C136.959 201.736 134.481 201.059 132.003 200.607C129.976 200.155 127.723 199.703 125.696 199.477C123.443 199.251 120.965 199.251 118.713 199.929C116.235 201.059 114.883 203.318 113.982 206.028C113.532 207.158 113.532 208.513 113.306 209.643C113.306 211.902 114.208 213.935 116.685 213.935C117.812 213.935 119.163 213.483 120.064 212.806C121.191 212.128 122.092 211.45 123.218 210.998C125.02 210.321 127.047 210.095 128.85 210.095C131.778 209.869 134.481 209.643 137.409 209.191C138.536 208.965 139.887 208.513 140.788 207.836C141.915 206.932 142.59 205.803 142.59 204.447Z" fill="#4D4D80"/>
<path d="M107.675 165.817C107.9 171.69 108.351 177.79 109.702 183.664C111.279 190.893 113.982 197.67 114.883 205.125C114.883 205.351 114.883 205.803 115.109 206.028C115.334 206.254 115.559 206.254 115.784 206.254C119.839 206.706 123.894 205.803 127.273 203.543C127.498 203.318 127.723 203.318 127.723 203.092C127.948 202.866 127.723 202.64 127.723 202.188C127.273 199.025 126.597 196.089 126.146 192.926C125.02 184.567 125.471 176.209 125.02 167.85C124.795 163.332 124.57 159.04 123.894 154.747C123.669 152.714 123.218 150.455 122.092 148.648C118.938 143.678 111.73 146.84 109.252 151.133C107.675 154.07 107.45 157.458 107.45 160.847C107.675 162.654 107.675 164.235 107.675 165.817Z" fill="#F76D31"/>
<path d="M124.795 218.453C124.795 219.357 124.795 220.261 125.02 220.938C125.471 222.068 126.822 222.746 128.174 222.746C129.525 222.746 130.652 222.52 132.003 222.068C133.129 221.616 134.481 221.164 135.607 220.938C137.184 220.712 138.761 221.164 140.338 220.938C141.915 220.712 143.717 220.487 145.294 219.809C147.096 219.131 148.673 218.227 150.024 216.872C151.376 215.517 152.277 213.935 152.727 212.128C152.727 211.45 152.727 210.998 152.277 210.547C151.826 210.095 151.376 209.869 150.925 209.869C149.574 209.417 148.447 209.191 147.096 208.965C144.393 208.513 141.915 208.513 139.212 208.513C136.283 208.513 133.58 208.965 130.877 210.095C127.498 211.676 125.245 214.839 124.795 218.453Z" fill="#6B6CB3"/>
<path d="M128.85 156.554C128.624 157.006 128.174 157.232 127.948 157.684C126.146 159.717 125.02 162.202 124.119 164.687C122.542 168.754 121.416 172.594 121.191 177.112C120.965 181.404 121.641 185.471 122.542 189.537C123.894 195.411 125.921 201.284 126.372 207.384C126.597 209.643 126.597 212.128 126.597 214.387C126.597 214.839 126.597 215.291 126.822 215.742C127.273 216.194 127.723 216.42 128.399 216.42C132.228 216.872 136.283 215.291 138.761 212.58C138.986 212.354 139.212 212.128 139.212 211.902C139.212 211.676 139.212 211.224 138.986 210.998C136.283 201.962 138.536 192.022 138.986 182.534C139.212 176.434 138.986 170.561 138.311 164.461C137.86 161.299 137.409 152.94 132.228 154.521C130.877 154.521 129.751 155.425 128.85 156.554Z" fill="#FFA947"/>
<path d="M106.323 193.152L120.515 193.604L137.635 237.882C137.86 238.785 137.635 239.689 136.959 240.141C136.058 240.592 134.932 240.367 134.481 239.463L115.559 204.899L98.4392 201.059L106.323 193.152Z" fill="#906444"/>
<path d="M80.6436 194.959L64.65 216.872L73.21 274.705C73.4352 275.834 74.5615 276.286 75.4626 275.834C75.9131 275.608 76.3636 274.931 76.1384 274.479L72.3089 221.39L95.0603 198.574L80.6436 194.959Z" fill="#906444"/>
<path d="M124.795 178.694H116.235V181.63L82.4457 161.976C78.8415 159.943 72.5342 160.169 68.4795 162.654L36.0418 181.405V178.694H27.4819V188.634C27.2566 189.989 28.1577 191.344 29.9598 192.474L69.831 215.517C73.4352 217.55 79.7426 217.324 83.7973 214.839L121.191 193.152C123.443 191.796 124.57 190.215 124.57 188.408L124.795 178.694Z" fill="#FF8400"/>
<path d="M122.542 175.079L82.671 152.036C79.7426 150.229 75.0121 150.229 70.9574 151.585C38.5197 160.847 28.6082 176.66 28.6082 176.66C27.2566 178.694 27.7072 180.953 30.185 182.534L70.0563 205.577C73.6605 207.61 79.9678 207.384 84.0225 204.899L121.416 183.212C125.471 180.727 125.921 177.112 122.542 175.079Z" fill="#ED341A"/>
<path d="M94.8351 102.562C94.8351 102.562 95.2856 104.144 95.2856 104.37C95.2856 105.047 95.2856 105.725 95.2856 106.177C95.2856 107.307 95.7361 108.21 96.4119 109.114C96.6372 109.566 97.0877 110.017 97.313 110.469C97.313 110.469 97.9888 111.825 97.7635 111.825C100.692 111.599 103.395 111.373 106.323 110.921C109.252 110.469 112.405 110.017 115.334 109.566C115.559 109.566 116.01 109.566 116.235 109.792C117.812 110.243 118.938 111.373 120.515 111.599C122.542 111.825 124.119 110.469 126.146 110.017C128.624 109.566 131.327 111.147 133.805 110.243C133.805 110.243 134.031 110.243 134.031 110.017C134.031 110.017 134.031 109.792 134.031 109.566C133.805 108.662 133.13 107.984 132.228 107.532C131.327 107.307 130.426 107.307 129.3 107.307C128.399 107.307 127.273 107.307 126.597 107.081C126.372 107.081 126.372 106.855 126.146 106.855C126.146 106.629 126.372 106.403 126.597 106.403C129.525 105.499 132.904 106.177 136.058 105.499C136.508 105.499 136.959 105.047 136.734 104.596C136.734 104.37 136.508 104.37 136.508 104.37C136.058 103.918 135.382 103.918 134.706 103.692C132.003 103.014 129.3 102.562 126.597 102.111C125.696 101.885 125.02 101.885 124.119 101.885C123.894 101.885 123.669 101.885 123.443 101.885C122.092 102.111 120.74 102.562 119.163 102.562C117.586 102.788 116.01 102.788 114.658 102.788C112.18 102.788 96.4119 101.885 94.8351 102.562Z" fill="#FFB78C"/>
<path d="M56.5406 168.302C58.3427 171.916 61.7216 175.079 65.7763 175.531C68.029 175.757 70.5068 175.531 72.7594 175.079C77.7152 174.175 82.4457 172.368 87.1762 170.787C92.1319 168.979 97.3129 167.172 102.043 165.139C106.999 163.106 111.504 160.395 116.235 158.136C118.262 157.006 120.74 156.103 122.092 154.069C123.669 151.585 122.767 148.648 120.74 146.615C119.389 145.259 117.586 144.355 115.559 143.678C111.73 142.548 107.675 142.096 103.62 141.87C99.115 141.645 94.3845 141.645 89.6541 141.645C85.3741 141.645 81.0941 141.419 77.0394 142.096C72.7595 142.774 68.4795 143.904 64.4248 145.711C63.2985 146.163 61.9469 146.84 60.8206 147.518C60.1448 147.97 58.568 149.325 58.3427 147.744C55.4143 152.488 53.6122 157.91 54.5133 163.558C55.1891 165.139 55.6396 166.72 56.5406 168.302Z" fill="#F76D31"/>
<path d="M64.8753 174.175C67.5784 177.338 71.4079 179.145 75.2373 180.275C81.3194 182.082 88.0772 182.082 94.3846 181.179C100.692 180.275 106.999 178.468 113.081 176.209C118.037 174.627 122.767 172.594 127.273 170.561C129.525 169.431 132.003 168.302 134.256 166.946C138.085 164.687 138.986 160.169 136.734 156.329C135.607 154.07 133.13 152.94 130.652 152.262C125.921 150.681 120.965 150.455 116.01 150.455C109.252 150.229 102.269 150.681 95.5109 150.907C87.1762 151.359 78.8415 151.81 71.1826 154.521C69.1553 155.199 67.1279 156.103 65.5511 157.458C64.65 158.136 64.4248 158.814 63.2985 158.362C63.0732 158.136 61.2711 157.232 61.4964 156.555C60.1448 158.814 59.9196 161.75 60.3701 164.461C60.8206 168.076 62.3974 171.464 64.8753 174.175Z" fill="#FFA947"/>
<path d="M57.4417 83.812C56.0901 85.3934 55.1891 87.6525 54.7385 89.4597C54.288 91.7188 54.0628 94.2038 54.288 96.6888C54.288 102.337 54.7385 107.984 55.4143 113.632C56.7659 124.476 55.8648 135.545 55.4143 146.389C55.4143 149.777 54.5133 153.844 55.6396 157.232C56.5406 159.943 58.7932 161.75 61.0459 163.106C71.1826 168.528 83.7973 169.657 94.8351 165.817C97.7635 164.913 100.692 163.332 101.593 160.395C102.043 158.814 101.818 157.232 101.368 155.651C100.467 152.488 99.115 149.551 98.4393 146.615C97.5382 141.419 98.6645 136.223 100.016 131.027C101.368 126.057 102.494 120.861 103.846 115.891C104.972 111.825 104.296 109.34 101.368 106.403C97.313 102.337 92.5825 98.4961 88.0772 94.6556C85.5994 92.6225 82.8962 90.3634 80.1931 88.5561C76.1384 85.8452 71.6332 84.0379 66.9027 82.9084C64.4248 82.4566 60.3701 81.5529 58.3427 82.9084C58.1175 83.1343 57.8922 83.3602 57.4417 83.812Z" fill="#4D4D80"/>
<path d="M93.4835 57.6067C93.7088 58.0585 93.7088 58.2844 93.934 58.7362C94.1593 59.6398 94.3845 60.5435 94.1593 61.4471C93.934 62.5766 93.2582 63.2544 93.033 64.3839C92.8077 65.0616 93.033 65.9653 93.2582 66.643C93.934 69.3539 93.4835 72.2907 92.1319 74.7757C90.7804 77.2607 88.753 79.2939 86.0499 80.4234C85.5994 80.6493 85.1488 80.6493 84.9236 81.1011C84.6983 81.327 84.473 81.7789 84.2478 82.2307C82.671 86.0711 83.3467 90.8152 86.2751 93.752C85.1488 93.752 84.2478 93.0743 83.3467 92.6225C81.0941 91.4929 78.6162 90.5893 76.1384 90.1375C73.8858 89.6857 71.4079 89.6856 69.1553 88.782C66.9027 88.1043 64.65 86.5229 63.9742 84.2638C63.9742 84.0379 63.9742 83.812 63.9742 83.5861C63.9742 83.3602 64.4248 83.3602 64.65 83.1343C66.0016 82.6825 66.4521 81.1011 66.4521 79.7457C66.6774 75.6793 64.4248 71.8389 63.5237 67.7725C62.3974 63.2544 62.8479 58.2844 64.8753 54.218C65.5511 52.8626 66.2269 51.733 67.1279 50.6035C68.7047 48.7962 70.9574 47.8926 73.21 47.2149C74.3363 46.989 75.4626 46.7631 76.5889 46.7631C79.9678 46.7631 83.572 47.4408 86.5004 49.2481C89.8793 51.0553 92.1319 53.9921 93.4835 57.6067Z" fill="#FFE5CC"/>
<path d="M77.2647 44.9558C73.6605 44.9558 69.8311 45.8594 66.9027 48.1185C63.9743 50.3776 61.2711 54.6699 60.8206 58.2844C60.3701 61.8989 60.3701 65.0617 61.0459 68.6762C61.7217 71.8389 63.0732 74.7757 65.3258 77.0348C66.4521 78.3902 67.3532 79.2939 68.93 79.5198C70.7321 79.5198 72.5342 79.068 74.111 78.3903C76.1384 77.2607 77.9405 75.6794 79.292 73.8721C80.6436 72.2907 81.7699 70.7094 83.7973 69.8057C85.3741 69.128 86.9509 68.4503 88.3025 67.5466C91.9067 65.0617 92.8077 60.3176 92.8077 56.2512C92.8077 53.5403 91.9067 51.7331 90.1046 49.9258C88.3025 48.3444 86.2752 46.989 84.0225 46.3113C81.9952 45.4076 79.7426 44.9558 77.2647 44.9558Z" fill="#754600"/>
<path d="M62.3974 80.4234C62.6227 80.8752 62.6227 81.553 62.6227 82.0048C62.6227 82.4566 62.1722 82.9084 61.9469 83.1343C59.9196 85.6193 59.2438 89.0079 59.9196 92.1707C60.1448 92.8484 60.1448 93.3002 60.1448 93.9779C60.1448 94.6556 59.6943 95.3334 59.469 95.7852C58.568 97.5925 58.568 99.8515 59.0185 101.659C59.2438 102.111 59.2438 102.337 59.2438 102.788C59.2438 103.24 59.0185 103.692 58.7933 104.144C57.667 107.081 57.2164 110.695 59.0185 113.406C59.2438 113.858 59.6943 114.31 59.6943 114.761C59.6943 115.213 59.469 115.665 59.2438 116.117C58.1175 118.15 58.1175 120.635 58.7933 122.894C59.2438 123.798 59.6943 124.927 59.6943 126.057C59.6943 127.412 59.2438 128.542 58.568 129.671C56.7659 133.738 55.6396 138.256 55.4143 142.774C55.4143 145.485 55.8649 148.422 57.8922 149.777C61.2711 143 63.5237 135.545 62.6227 128.09C62.6227 127.186 62.3974 126.509 62.6227 125.605C62.848 125.153 63.0732 124.476 63.2985 124.024C64.1995 122.216 64.6501 119.957 64.8753 117.924C64.8753 116.343 64.6501 114.761 64.6501 113.18C64.8753 110.469 66.0016 107.984 65.3258 105.273C65.1006 104.37 64.8753 103.692 64.8753 102.788C64.8753 102.111 65.3258 101.433 65.5511 100.755C66.0016 99.3997 66.0016 98.0443 65.7764 96.6888C65.5511 96.237 65.5511 95.7852 65.5511 95.1075C65.5511 94.4297 66.0016 93.9779 66.2269 93.5261C67.8037 90.8152 68.4795 87.6525 67.8037 84.4898C67.8037 84.2639 67.5785 83.812 67.8037 83.5861C67.8037 83.1343 68.029 82.9084 68.4795 82.4566C69.8311 80.6493 70.7321 78.1643 70.0563 75.9053C69.3805 73.8721 66.6774 71.8389 64.4248 72.7425C61.9469 74.098 61.9469 78.1643 62.3974 80.4234Z" fill="#754600"/>
<path d="M147.772 113.406C147.546 113.18 147.321 113.18 147.096 112.954C145.068 112.277 142.816 112.502 140.563 112.277C140.338 112.277 140.338 112.277 140.113 112.051C139.887 111.825 140.338 111.599 140.563 111.599C142.14 111.147 143.717 111.147 145.294 110.695C145.519 110.469 145.969 110.243 145.969 110.017C145.969 109.792 145.519 109.566 145.294 109.566C144.393 109.34 143.717 109.114 142.816 108.888C142.816 108.436 142.591 108.21 142.365 107.984C141.689 107.532 140.788 107.081 139.662 106.855C139.662 106.403 139.212 106.177 138.986 105.951C138.311 105.499 137.41 105.047 136.734 105.273C136.058 105.273 135.607 105.725 135.157 106.177C132.679 107.984 121.641 117.021 119.389 118.602C118.488 119.28 117.586 120.183 116.46 119.957C116.01 119.957 115.784 119.506 115.559 119.506C114.883 119.054 114.208 118.602 113.532 117.924C111.73 116.569 110.153 114.987 108.351 113.632C107.45 112.954 106.774 112.051 105.873 111.373C105.197 110.695 104.296 110.017 103.395 109.34C102.719 108.888 101.593 107.984 100.467 107.984C100.016 107.984 99.3403 108.21 98.6645 108.436C97.9888 108.436 97.5382 108.436 96.8624 108.436C94.6098 108.888 92.5825 109.792 91.2309 111.599C89.8793 113.406 89.6541 116.117 90.1046 118.15C90.5551 120.183 92.132 121.991 93.7088 123.346C96.8624 126.283 100.917 128.09 104.972 129.671C107.45 130.575 109.702 131.705 112.18 132.382C113.307 132.834 114.658 133.06 116.01 133.286C116.685 133.286 117.136 133.512 117.812 133.512C118.488 133.512 118.938 133.06 119.614 132.608C120.74 131.931 121.641 131.479 122.542 130.575C124.344 129.22 126.146 127.412 127.723 125.831C129.751 123.572 131.327 121.087 132.904 118.376C133.13 118.15 133.58 118.15 133.805 117.924C135.382 117.472 136.734 116.795 138.085 116.117C138.761 115.665 139.437 115.213 140.338 114.987C142.591 114.084 145.294 114.761 147.546 114.31C147.772 114.31 147.997 114.31 147.997 114.084C147.997 113.858 147.772 113.632 147.772 113.406Z" fill="#FFE5CC"/>
<path d="M81.5447 103.692C80.6436 106.177 81.3194 109.34 82.2204 111.825C82.4457 112.502 82.8962 113.18 83.1215 113.858C84.4731 116.117 86.0499 118.15 88.0772 120.183C88.9783 121.087 90.1046 121.991 91.0056 122.894C91.6814 123.572 92.8077 124.927 93.934 124.927C94.3846 124.927 94.8351 124.927 95.2856 124.702C98.214 123.798 100.692 121.765 102.494 119.506C104.296 117.247 105.648 114.31 106.323 111.373C106.323 111.147 106.323 110.921 106.323 110.695C106.323 110.469 106.098 110.469 106.098 110.243C102.269 106.403 98.4393 102.337 93.7088 100.077C91.2309 98.948 88.3025 98.2702 85.8246 99.1739C84.2478 99.8516 82.671 100.981 81.7699 102.562C81.7699 103.014 81.5447 103.24 81.5447 103.692Z" fill="#6B6CB3"/>
<path d="M81.0941 213.935C81.0941 213.483 81.3194 213.257 81.3194 213.032C83.3467 205.125 84.2478 196.992 83.572 188.633C83.3467 185.471 82.8962 182.534 81.7699 179.597C80.6436 176.886 79.0668 174.401 75.9131 173.949C74.3363 173.724 72.9847 173.498 71.4079 173.272C67.3532 172.142 64.1995 168.076 62.3974 164.235C60.8206 160.395 59.2437 156.78 56.5406 153.618C52.9364 149.325 48.2059 145.485 43.0249 143.452C37.8439 141.645 31.5366 143 27.0314 145.711C22.5261 148.422 18.6967 152.262 15.9935 156.78C10.362 166.043 10.5873 177.79 13.5157 187.956C17.7956 203.092 28.8335 215.517 43.7007 220.712C51.1343 223.197 59.2437 224.779 67.1279 223.875C68.7047 223.649 70.2816 223.423 71.8584 222.746C73.21 222.294 74.3363 221.842 75.4626 221.164C76.8141 220.487 78.6162 220.035 79.7425 218.905C79.9678 218.679 79.9678 218.453 79.9678 218.002C80.1931 217.55 80.1931 217.098 80.4183 216.646C80.6436 215.742 80.8689 214.839 81.0941 213.935Z" fill="#ED341A"/>
<path d="M113.081 170.561C116.01 171.69 118.713 173.046 121.191 174.853C122.092 175.531 122.993 176.209 123.669 176.886C124.57 177.79 124.795 178.468 124.795 179.823C125.02 182.534 125.245 185.245 125.245 187.956C125.245 189.763 124.795 190.893 123.218 192.248C121.866 193.378 120.29 194.281 118.938 195.185C113.532 198.574 91.0056 214.161 88.5277 215.743C82.4457 219.809 75.9131 222.746 68.4795 223.875C72.9847 215.517 74.7868 205.803 74.3363 196.089C73.8857 187.278 71.1826 178.694 67.3531 170.787C67.8037 171.69 69.6058 172.368 70.5068 172.594C71.8584 173.046 72.9847 173.046 74.3363 172.82C77.2647 172.368 80.1931 171.69 82.8962 170.787C90.5551 168.754 98.6645 167.398 106.549 168.754C108.801 169.205 111.054 169.657 113.081 170.561Z" fill="#FF5740"/>
<path d="M195.076 143.678C195.076 143.678 185.615 131.253 177.731 128.542C177.731 128.542 181.335 120.409 205.889 111.147C205.889 111.147 219.179 120.183 223.234 126.057L195.076 143.678Z" fill="#CED3DE"/>
<path d="M195.076 143.678C195.076 143.678 203.411 145.485 208.817 149.099L237.651 129.671C237.651 129.671 229.767 123.572 223.009 125.831L195.076 143.678Z" fill="#CED3DE"/>
<path d="M223.234 126.057C217.377 115.891 206.339 109.34 206.339 109.34C187.643 116.343 179.083 125.379 179.083 125.379C188.994 128.542 195.302 143.678 195.302 143.678L223.234 126.057Z" fill="#F2F2F2"/>
<path d="M220.306 126.283H220.531C220.756 126.283 220.756 126.509 220.756 126.509C220.756 126.735 220.531 126.735 220.531 126.96C220.306 127.186 220.306 127.186 220.08 127.412C219.855 127.638 219.63 127.864 219.179 128.09H218.954L218.729 127.864C218.504 127.864 218.504 127.638 218.504 127.412C218.504 127.186 218.729 127.186 218.729 126.96C219.405 126.735 219.855 126.509 220.306 126.283Z" fill="#FFA947"/>
<path d="M202.735 136.9C201.158 137.804 199.582 138.934 198.906 140.741C200.257 140.515 201.609 139.837 202.961 139.159C207.466 136.674 218.053 129.897 218.954 128.994C219.405 128.542 219.855 127.864 219.179 127.412C218.954 127.186 218.504 127.186 218.053 127.412C216.702 127.638 204.087 135.997 202.735 136.9Z" fill="#4D4D80"/>
<path d="M231.344 28.0126L188.544 3.38857C187.643 2.93675 186.742 2.71084 186.066 3.16266L182.912 4.96993C183.588 4.51811 184.489 4.51811 185.39 5.19584L227.965 29.8199C229.767 30.9494 231.344 33.6603 231.344 35.6935V63.7061C231.344 64.8357 230.893 65.5134 230.442 65.9652L233.596 64.1579C234.272 63.7061 234.497 63.0284 234.497 61.8988V33.8862C234.722 31.853 233.146 29.1421 231.344 28.0126Z" fill="#CED3DE"/>
<path d="M228.19 29.8198C229.992 30.9494 231.569 33.4344 231.569 35.6934V63.7061C231.569 65.9652 229.992 66.6429 228.19 65.7393L201.834 50.3775L186.742 58.962V41.5671L185.615 40.8893C183.813 39.7598 182.237 37.0489 182.237 35.0157V7.00309C182.237 4.744 183.813 4.06628 185.615 4.96991L228.19 29.8198Z" fill="#EFF0F2"/>
<path d="M199.582 38.6302C199.582 39.9857 198.681 40.4375 197.554 39.7598C196.428 39.0821 195.527 37.5007 195.527 36.1453C195.527 34.7898 196.428 34.338 197.554 35.0157C198.681 35.6934 199.582 37.2748 199.582 38.6302Z" fill="#F76D31"/>
<path d="M205.438 41.793C205.438 43.1484 204.537 43.6002 203.411 42.9225C202.285 42.2448 201.384 40.6634 201.384 39.308C201.384 37.9525 202.285 37.5007 203.411 38.1784C204.537 39.0821 205.438 40.6634 205.438 41.793Z" fill="#F76D31"/>
<path d="M211.07 45.1816C211.07 46.5371 210.169 46.9889 209.043 46.3112C207.916 45.6335 207.015 44.0521 207.015 42.6966C207.015 41.3412 207.916 40.8894 209.043 41.5671C210.169 42.2448 211.07 43.8262 211.07 45.1816Z" fill="#F76D31"/>
<path d="M216.927 48.5702C216.927 49.9256 216.026 50.3775 214.899 49.6997C213.773 49.022 212.872 47.4406 212.872 46.0852C212.872 44.7297 213.773 44.2779 214.899 44.9557C216.026 45.6334 216.927 47.2147 216.927 48.5702Z" fill="#F76D31"/>
<path d="M54.7385 2.03316L51.5849 0.225893C50.9091 -0.225924 50.008 -1.56052e-05 49.107 0.451801L52.2607 2.25907C53.1617 1.80725 54.0627 1.80725 54.7385 2.03316Z" fill="#F2F2F2"/>
<path d="M4.0547 61.2211L7.20836 63.0284C6.53258 62.5766 6.30732 61.8988 6.30732 60.7693L3.15366 58.962C3.15366 60.0916 3.60418 60.7693 4.0547 61.2211Z" fill="#F2F2F2"/>
<path d="M6.30732 32.9826L3.15366 30.9495V58.9621L6.30732 60.7694V32.9826Z" fill="#F2F2F2"/>
<path d="M52.2607 2.25905L49.107 0.451782L6.53259 25.0758L9.68625 26.8831L52.2607 2.25905Z" fill="#F2F2F2"/>
<path d="M9.68624 26.8831L6.53258 25.0758C4.73049 26.2053 3.15366 28.6903 3.15366 30.9494L6.30732 32.7567C6.30732 30.7235 7.65889 28.0126 9.68624 26.8831Z" fill="#F2F2F2"/>
<path d="M9.68623 26.8831C7.88414 28.0126 6.30731 30.4976 6.30731 32.7567V60.7693C6.30731 63.0284 7.88414 63.7061 9.68623 62.8025L36.2671 47.4407L51.3596 56.0252V38.6303L52.4859 37.9526C54.288 36.823 55.8648 34.1121 55.8648 32.079V4.06632C55.8648 1.80724 54.288 1.12951 52.4859 2.03315L9.68623 26.8831Z" fill="#CED3DE"/>
<path d="M36.0418 36.1454C36.0418 37.5008 36.9429 37.9527 38.0692 37.2749C39.1955 36.5972 40.0965 35.0158 40.0965 33.6604C40.0965 32.3049 39.1955 31.8531 38.0692 32.5309C36.9429 33.2086 36.0418 34.7899 36.0418 36.1454Z" fill="#4D4D80"/>
<path d="M30.4103 39.5341C30.4103 40.8895 31.3113 41.3413 32.4376 40.6636C33.5639 39.9859 34.465 38.4045 34.465 37.0491C34.465 35.6936 33.5639 35.2418 32.4376 35.9195C31.3113 36.5972 30.4103 38.1786 30.4103 39.5341Z" fill="#4D4D80"/>
<path d="M24.5535 42.9226C24.5535 44.2781 25.4545 44.7299 26.5809 44.0521C27.7072 43.3744 28.6082 41.7931 28.6082 40.4376C28.6082 39.0822 27.7072 38.6303 26.5809 39.3081C25.4545 39.9858 24.5535 41.5672 24.5535 42.9226Z" fill="#4D4D80"/>
<path d="M18.6967 46.3113C18.6967 47.6667 19.5977 48.1185 20.724 47.4408C21.8503 46.7631 22.7514 45.1817 22.7514 43.8263C22.7514 42.4708 21.8503 42.019 20.724 42.6967C19.823 43.3745 18.6967 44.9558 18.6967 46.3113Z" fill="#4D4D80"/>
</g>
<defs>
<linearGradient id="paint0_linear_237_4881" x1="117.375" y1="69.8228" x2="109.305" y2="79.698" gradientUnits="userSpaceOnUse">
<stop stop-color="white"/>
<stop offset="1" stop-color="#999999"/>
</linearGradient>
<clipPath id="clip0_237_4881">
<rect width="280" height="286" fill="white"/>
</clipPath>
</defs>
</svg>
