<svg width="300" height="285" viewBox="0 0 300 285" fill="none" xmlns="http://www.w3.org/2000/svg">
<g clip-path="url(#clip0_237_4790)">
<path d="M209.733 283.284L67.9792 201.486C64.4131 199.48 64.8588 195.914 68.8707 193.462L141.976 151.337C145.988 148.886 152.229 148.663 155.795 150.669L297.548 232.467C301.114 234.473 300.669 238.039 296.657 240.49L223.551 282.615C219.316 285.067 213.299 285.29 209.733 283.284Z" fill="#F2F2F2"/>
<path d="M215.082 274.591L283.507 235.141V230.684L183.878 177.637L115.676 212.63V217.088L215.082 274.591Z" fill="#FEDD6C"/>
<path d="M183.878 173.18L260.996 217.756L272.585 211.07L284.844 206.166L287.519 219.094L286.627 228.455L283.507 230.684L215.082 269.911L115.676 212.63L183.878 173.18Z" fill="#FFA947"/>
<path d="M118.351 191.01V211.07L213.299 265.899L278.826 228.009C279.941 227.34 280.609 226.226 281.055 225.111C281.946 221.545 283.284 213.744 278.603 207.95C272.585 199.926 191.679 184.101 191.679 184.101L118.351 191.01Z" fill="#CED3DE"/>
<path d="M213.522 251.412L281.946 216.419L213.522 253.195V251.412Z" fill="white"/>
<path d="M213.522 265.899V241.382L118.351 191.01V211.07L213.522 265.899Z" fill="white"/>
<path d="M118.351 195.691L154.458 215.527L118.351 197.251V195.691Z" fill="white"/>
<path d="M213.522 257.652L177.637 240.49L213.522 260.55V257.652Z" fill="#CED3DE"/>
<path d="M215.082 269.911V274.591L115.676 217.088V212.63L215.082 269.911Z" fill="#F76D31"/>
<path d="M215.082 246.954L283.507 207.504V203.046L183.878 150L115.676 184.993V189.45L215.082 246.954Z" fill="#FEDD6C"/>
<path d="M215.082 242.496L286.181 204.383L183.878 145.542L115.676 184.993L215.082 242.496Z" fill="#FFA947"/>
<path d="M215.082 242.496V246.954L115.676 189.45V184.993L215.082 242.496Z" fill="#F76D31"/>
<path d="M281.501 208.618L275.483 212.184L215.082 246.954V242.496L275.483 207.727L280.832 204.606C281.724 204.161 282.392 203.938 283.284 203.938C285.958 203.938 288.633 206.166 288.633 209.287V227.34C288.633 230.461 286.85 233.358 284.175 234.918L275.26 240.045L214.859 274.814V270.357L275.26 235.587L280.609 232.467C280.832 232.467 281.055 232.244 281.055 232.244L281.724 231.798C283.73 230.684 285.067 228.455 285.067 226.003V211.293C285.513 208.841 283.284 207.727 281.501 208.618Z" fill="#F76D31"/>
<path d="M215.305 238.484L279.495 201.486V197.251L178.975 143.313L114.785 176.3V180.535L215.305 238.484Z" fill="#FEDD6C"/>
<path d="M178.975 139.079L258.544 184.993L269.465 178.752L280.832 174.071L283.507 186.33L282.615 195.245L279.495 197.251L215.305 234.25L114.785 176.3L178.975 139.079Z" fill="#FF5740"/>
<path d="M117.236 156.018V174.74L213.522 230.238L275.26 194.354C276.374 193.685 277.043 192.793 277.266 191.679C278.158 188.336 279.272 180.981 275.037 175.409C269.465 168.276 186.33 149.331 186.33 149.331L117.236 156.018Z" fill="#CED3DE"/>
<path d="M213.522 216.865L278.158 183.878L213.522 218.425V216.865Z" fill="white"/>
<path d="M213.522 230.461V207.281L117.236 156.018V174.74L213.522 230.461Z" fill="white"/>
<path d="M117.236 160.475L151.337 178.975L117.236 161.813V160.475Z" fill="#A6A6A6"/>
<path d="M213.522 222.66L179.866 206.612L213.522 225.334V222.66Z" fill="#E6E6E6"/>
<path d="M215.305 234.25V238.484L114.785 180.535V176.3L215.305 234.25Z" fill="#ED341A"/>
<path d="M215.305 212.63L279.495 175.409V171.174L178.975 117.459L114.785 150.223V154.458L215.305 212.63Z" fill="#FEDD6C"/>
<path d="M215.305 208.395L282.169 172.511L178.975 113.224L114.785 150.223L215.305 208.395Z" fill="#FF5740"/>
<path d="M215.305 208.395V212.63L114.785 154.458V150.223L215.305 208.395Z" fill="#ED341A"/>
<path d="M277.712 176.523L271.917 179.866L215.305 212.63V208.395L272.14 175.632L277.266 172.734C277.935 172.288 278.826 172.065 279.718 172.065C282.392 172.065 284.844 174.071 284.844 176.969V193.908C284.844 196.805 283.284 199.703 280.609 201.04L272.14 205.944L215.305 238.484V234.25L272.14 201.486L277.266 198.588C277.489 198.588 277.712 198.366 277.712 198.366L278.38 197.92C280.386 196.805 281.501 194.799 281.501 192.571V178.752C281.501 176.746 279.495 175.409 277.712 176.523Z" fill="#DE2910"/>
<path d="M42.3477 144.651C42.1248 143.091 41.4562 141.53 40.7875 140.193C40.1189 139.302 39.0045 137.519 37.89 138.187C37.4443 138.41 37.2214 138.856 36.9985 139.302C35.4383 142.199 34.9926 145.765 34.101 148.886C32.9866 152.452 31.2036 156.018 28.7519 159.138C27.4146 160.921 25.8544 162.259 24.2942 163.819C22.734 165.379 20.951 166.939 19.3908 168.499C18.7221 169.168 18.0535 170.059 17.162 170.505C16.2704 170.951 15.6018 170.282 14.9331 170.059C14.0416 169.837 13.1501 169.614 12.2585 169.614C8.9153 169.168 5.34918 169.391 2.00594 168.722C1.56018 168.722 0.89153 168.499 0.445765 168.945C-3.50177e-07 168.945 -3.50177e-07 169.391 0.222882 169.837C0.445765 170.282 0.668647 170.505 1.11441 170.728C2.89747 171.843 5.1263 171.62 7.13224 172.288C7.57801 172.511 8.02377 172.734 7.80089 173.18L7.57801 173.403C5.79495 175.186 3.34324 176.3 1.56018 178.306C1.11441 178.752 0.89153 179.198 0.89153 179.866C0.89153 180.535 1.3373 180.981 2.00594 180.981C1.78306 181.649 1.56018 182.541 2.00594 182.987C2.22883 183.432 2.89747 183.432 3.34324 183.432C3.789 183.432 4.23477 182.987 4.68053 182.764C5.1263 182.318 5.79495 182.095 6.01783 181.426C7.35513 181.649 8.69242 181.649 9.80683 181.426C10.0297 181.426 10.2526 181.426 10.4755 181.426C10.6984 181.426 10.9212 181.426 11.1441 181.649C13.5958 182.318 16.2704 181.872 18.2764 180.312C18.945 179.866 19.6137 179.198 20.0594 178.306C22.2883 178.083 24.2942 177.192 26.3001 176.523C28.7519 175.632 31.4264 175.186 33.6553 173.848C36.7756 172.065 38.3358 168.945 39.6731 165.825C40.5646 163.819 40.7875 161.144 41.2333 158.915C41.679 156.464 42.1248 154.235 42.3477 151.783C42.5706 149.331 42.7935 146.88 42.3477 144.651Z" fill="#FFB78C"/>
<path d="M51.0401 122.363C48.1426 123.254 45.2452 124.146 42.3477 125.706C40.5646 126.597 39.2273 127.712 38.1129 129.495C36.9985 131.055 35.8841 132.838 34.9926 134.621C34.5468 135.513 34.101 136.404 33.6553 137.073C33.2095 137.741 32.7637 138.633 32.5409 139.524C32.0951 140.862 32.9866 142.422 33.8782 143.536C34.5468 144.428 35.6612 145.097 36.5527 145.765C37.2214 146.211 37.89 146.434 38.7816 146.434C38.7816 145.765 38.5587 145.097 38.7816 144.428C39.0045 143.759 39.2273 142.868 39.4502 142.199C39.896 140.862 40.7875 139.302 41.4562 137.964C42.3477 136.404 43.0163 134.844 43.9079 133.507C44.5765 132.169 45.4681 131.055 46.3596 129.718C46.8053 129.049 47.2511 128.603 47.9198 127.935C48.5884 127.489 49.0342 126.597 49.4799 125.929C50.3715 124.591 51.7088 123.254 52.8232 122.14C52.1545 122.14 51.4859 122.363 51.0401 122.363Z" fill="#6B6CB3"/>
<path d="M85.5869 140.416C85.364 141.976 84.2496 143.313 83.1352 144.428C78.9004 149.777 77.786 156.686 77.1174 163.596C76.2258 172.957 75.5572 182.318 77.786 191.679C78.9004 196.36 80.2377 201.04 80.9064 205.721L33.2095 178.083C33.2095 172.957 32.9866 168.053 32.7637 162.927C32.5409 161.144 32.5409 159.361 32.318 157.578C32.0951 155.349 30.9807 153.566 31.4264 151.337C31.8722 148.217 34.101 145.765 35.2155 143.091C36.3299 140.862 36.7756 138.187 37.6672 135.735C38.5587 133.061 39.4502 130.609 40.5646 128.157C40.7875 127.712 41.0104 127.043 41.4562 126.82C41.9019 126.152 42.7935 125.929 43.4621 125.483C49.2571 122.808 55.2749 120.802 61.5156 119.242C62.4071 119.019 63.2987 118.796 64.1902 118.796C65.9732 118.796 67.7563 119.911 69.0936 121.025C74.2199 125.26 79.1233 129.941 83.581 134.844C84.6954 136.404 86.0327 138.41 85.5869 140.416Z" fill="#4D4D80"/>
<path d="M87.8157 153.566C86.4784 154.458 84.9183 155.349 83.3581 155.572C80.6835 156.018 78.0089 155.572 75.5572 154.903C74.6657 154.681 73.5513 154.458 72.6597 154.681C69.3165 155.349 71.0996 159.361 71.3224 161.59C71.7682 164.933 71.9911 168.276 71.9911 171.397C71.9911 173.18 72.214 175.186 71.9911 176.969C71.7682 178.529 70.6538 178.975 69.0936 179.421C66.8648 180.089 64.4131 180.981 62.1842 181.426C57.9495 182.541 43.4621 184.77 42.7935 184.77C42.1248 184.77 41.679 184.993 41.0104 184.77C40.5646 184.77 40.3418 184.324 39.896 184.101H39.6731C39.0045 183.878 38.3358 184.101 37.89 184.101C37.2214 184.101 36.5527 184.324 35.8841 184.547C32.0951 185.438 28.0832 186.107 24.2942 185.215C22.9569 184.993 21.6196 184.547 20.2823 184.324C19.6137 184.324 18.945 184.324 18.4993 184.77C18.2764 184.993 18.2764 185.215 18.0535 185.215C17.3848 185.661 16.4933 185.438 15.8247 185.884C15.156 186.33 15.156 187.221 15.6018 187.667C16.0475 188.336 17.162 188.113 17.6077 188.782C16.9391 188.782 16.2704 188.559 15.6018 188.782C14.9331 188.782 14.0416 189.45 14.2645 190.119C14.2645 190.342 14.4874 190.565 14.7103 190.788C15.156 191.233 15.8247 191.456 16.4933 191.679C15.8247 191.902 15.8247 192.793 16.2704 193.239C16.7162 193.685 17.3848 193.685 18.0535 193.685C18.945 193.685 19.8366 193.462 20.7281 193.239C23.6256 192.571 26.7459 192.571 29.8663 192.571C32.7637 192.571 35.4383 192.348 38.3358 192.125C39.6731 192.125 41.2333 191.902 42.5706 191.902C43.2392 191.902 68.8707 192.125 80.4606 189.673C82.0208 189.227 83.8039 188.782 84.6954 187.221C85.8098 185.438 86.2556 182.764 86.7013 180.758C87.8157 175.632 88.0386 170.505 88.0386 165.379C88.0386 164.71 88.0386 163.819 88.0386 163.15C88.2615 159.807 88.2615 156.687 87.8157 153.566Z" fill="#FFE5CC"/>
<path d="M52.8232 126.374C52.8232 126.597 52.8232 126.82 52.8232 127.266C52.8232 127.489 53.2689 127.712 53.4918 127.935C54.1605 128.38 54.8291 128.603 55.4978 128.603C58.6181 129.272 62.1842 129.049 65.3046 128.38C66.8648 127.935 68.425 127.489 69.9851 127.043C70.8767 126.82 72.8826 126.374 72.8826 125.26C72.8826 124.814 72.6597 124.368 72.214 124.146C71.9911 123.923 71.5453 123.7 71.3224 123.254C70.8767 122.808 70.4309 122.363 70.208 121.694C69.9851 120.579 69.7623 119.688 69.5394 118.574C69.0936 115.676 68.425 112.779 67.9792 110.104C67.9792 109.658 67.7563 108.99 67.3105 108.99C66.6419 108.767 65.7504 109.658 65.3046 109.881C64.636 110.327 63.9673 110.773 63.2987 111.218C61.9614 111.887 60.4012 112.556 58.6181 112.779C57.0579 113.001 55.4978 113.224 53.9376 113.447C53.7147 113.447 53.4918 113.447 53.4918 113.67C53.2689 113.893 53.2689 114.116 53.2689 114.339C53.0461 115.899 53.2689 117.459 53.0461 119.019C53.0461 120.579 52.8232 122.14 52.8232 123.7C52.8232 124.591 52.8232 125.483 52.8232 126.374Z" fill="#FFB78C"/>
<path d="M45.0223 91.8276C44.3536 93.1649 43.685 94.5022 43.4621 95.8395C42.7935 98.5141 42.7935 101.189 42.7935 103.863C42.7935 105.423 42.7935 107.207 43.0163 108.767C43.0163 109.658 43.2392 110.327 43.4621 111.218C43.685 111.664 43.685 112.556 43.9079 112.779C44.5765 113.67 46.5825 113.224 47.474 113.001C48.8113 112.779 50.1486 112.11 51.4859 111.664C52.8232 111.218 54.1605 110.773 55.2749 109.881C55.9435 109.435 56.6122 108.767 57.0579 108.321C57.2808 108.098 57.2808 108.098 57.5037 107.875C57.5037 107.652 57.5037 107.652 57.5037 107.429C57.7266 104.086 57.9495 100.743 57.9495 97.6226C57.9495 95.3937 57.9495 92.942 57.2808 90.9361C56.8351 90.0446 56.3893 88.9302 55.4978 88.2615C55.052 87.8157 54.6062 87.8157 53.9376 87.8157C53.2689 87.5929 52.8232 87.37 52.1545 87.1471C51.0401 86.9242 49.9257 87.37 48.8113 88.0386C47.2511 88.7073 45.9138 90.2675 45.0223 91.8276Z" fill="#754600"/>
<path d="M51.0401 87.1471C48.8113 88.7073 47.0282 91.159 46.1367 93.6107C45.2452 96.5082 44.3536 99.8514 44.5765 102.972C44.5765 105.646 45.0223 108.321 45.4681 110.996C45.9138 113.224 46.3596 115.23 46.5825 117.459C46.8053 118.128 46.8053 118.796 47.474 119.465C48.1426 120.134 49.4799 120.134 50.3715 119.911C53.7147 119.465 57.0579 118.574 60.4012 117.236C61.7385 116.791 63.0758 116.122 64.4131 115.007C65.7504 113.893 66.419 112.779 66.6419 111.218C67.7563 111.218 68.6478 110.773 69.5394 109.881C73.7741 106.092 75.3343 100.074 74.4428 94.5022C74.2199 92.7192 73.7741 91.159 72.8826 89.5988C71.0996 86.7014 67.9792 84.9183 64.636 84.2496C59.9554 83.581 55.052 84.4725 51.0401 87.1471Z" fill="#FFE5CC"/>
<path d="M55.2749 90.9361C55.052 90.9361 55.4978 92.7192 55.7207 92.942C55.9435 93.6107 56.3893 94.2793 56.8351 94.7251C58.841 96.731 61.9614 97.1768 63.0758 99.6285C63.5215 100.52 63.7444 101.189 63.9673 102.08C64.1902 102.972 64.8588 103.64 65.5275 104.086C65.7504 102.749 67.0877 101.857 68.2021 102.08C69.5394 102.303 70.4309 103.418 70.4309 104.755C70.6538 106.092 70.208 107.207 69.3165 108.321C68.6478 109.212 67.5334 110.104 66.419 110.55C65.5275 110.996 64.4131 111.664 64.1902 112.556C63.9673 113.001 63.9673 113.447 63.9673 113.67C63.9673 115.007 63.9673 118.574 65.7504 118.796C67.9792 119.242 70.6538 118.128 72.8826 117.459C74.2199 117.013 75.5572 116.568 76.6716 115.676C77.3403 115.23 78.0089 114.562 78.4547 114.116C78.6776 113.893 78.6776 113.893 78.9004 113.67C78.9004 113.447 78.9004 113.447 78.9004 113.224C79.1233 109.881 79.3462 106.538 79.3462 103.418C79.3462 100.743 79.1233 98.0683 78.6776 95.3937C77.1174 88.4844 70.4309 82.6894 63.2987 82.4666C61.7385 82.4666 60.1783 82.4666 58.6181 82.9123C56.1664 83.3581 53.7147 84.0267 51.4859 85.364C50.1486 86.0327 48.8113 86.9242 47.9198 88.0386C47.474 88.4844 46.8053 89.153 46.3596 89.8217C45.9138 90.4903 46.5825 90.9361 47.2511 91.159C49.9257 91.8276 52.6003 91.8276 55.2749 90.9361Z" fill="#754600"/>
<path d="M73.7741 135.958C71.3224 139.302 69.9851 143.313 69.5394 147.548C69.0936 150.891 69.3165 154.235 69.7623 157.355C69.7623 158.469 69.7623 159.807 70.6538 160.253C71.9911 161.144 73.997 161.144 75.5572 161.144C80.0149 161.367 84.4725 160.921 88.2615 158.469C90.0446 157.355 89.5988 154.68 89.3759 152.675C89.153 149.777 88.7073 146.657 88.0386 143.759C87.1471 139.97 85.8098 135.958 82.6894 133.284C81.1293 131.946 80.0148 131.724 78.2318 132.392C76.4487 133.284 74.8885 134.621 73.7741 135.958Z" fill="#6B6CB3"/>
<path d="M28.0832 186.553C28.529 186.999 28.9747 186.999 29.6434 187.221C30.9807 187.444 32.5409 187.89 33.8782 188.113C35.2155 188.336 36.5527 188.782 38.1129 188.782C39.2273 188.782 40.5646 188.336 41.0104 187.444C41.4562 186.776 41.679 185.884 41.2333 185.215C41.0104 184.547 40.3418 183.878 39.4502 183.655C38.7816 183.432 37.89 183.655 37.2214 183.878C36.5527 184.101 35.8841 184.547 35.2155 184.77C34.5468 184.993 33.8782 184.993 33.2095 184.993C32.0951 184.993 30.9807 184.77 30.0892 184.77C29.4205 184.77 28.3061 184.77 28.0832 185.438C27.8603 185.661 27.8603 186.107 28.0832 186.33C27.8603 186.33 27.8603 186.553 28.0832 186.553Z" fill="#FFB78C"/>
<path d="M127.266 71.5453L80.4606 44.3536C79.3462 43.685 78.4547 43.685 77.786 44.1307L74.2199 46.1367C74.8886 45.6909 75.7801 45.6909 76.8945 46.3596L123.923 73.5512C125.929 74.6657 127.712 77.5631 127.712 80.0148V110.55C127.712 111.664 127.266 112.556 126.597 113.001L130.163 110.996C130.832 110.55 131.278 109.881 131.278 108.544V78.0089C131.055 75.5572 129.495 72.6597 127.266 71.5453Z" fill="#CED3DE"/>
<path d="M123.923 73.5513C125.929 74.6657 127.712 77.5632 127.712 80.0149V110.55C127.712 113.002 125.929 113.893 123.923 112.779L94.7251 96.0624L78.0089 105.424V86.2556L76.8945 85.587C74.8886 84.4725 73.1055 81.5751 73.1055 79.1234V48.5884C73.1055 46.1367 74.8886 45.2452 76.8945 46.3596L123.923 73.5513Z" fill="#F2F2F2"/>
<path d="M92.4963 83.1352C92.4963 84.4725 91.3819 85.1411 90.2675 84.4725C88.9302 83.8038 88.0386 82.0208 88.0386 80.6835C88.0386 79.3462 89.153 78.6775 90.2675 79.3462C91.3819 79.7919 92.4963 81.575 92.4963 83.1352Z" fill="#4D4D80"/>
<path d="M98.737 86.7013C98.737 88.0386 97.6226 88.7073 96.5082 88.0386C95.1709 87.37 94.2794 85.5869 94.2794 84.2496C94.2794 82.9123 95.3938 82.2437 96.5082 82.9123C97.6226 83.581 98.737 85.364 98.737 86.7013Z" fill="#4D4D80"/>
<path d="M105.201 90.4903C105.201 91.8276 104.086 92.4962 102.972 91.8276C101.634 91.1589 100.743 89.3759 100.743 88.0386C100.743 86.7013 101.857 86.0326 102.972 86.7013C104.086 87.147 105.201 88.9301 105.201 90.4903Z" fill="#4D4D80"/>
<path d="M111.441 94.0564C111.441 95.3937 110.327 96.0624 109.212 95.3937C107.875 94.7251 106.984 92.942 106.984 91.6047C106.984 90.2674 108.098 89.5988 109.212 90.2674C110.55 90.9361 111.441 92.7192 111.441 94.0564Z" fill="#4D4D80"/>
<path d="M171.842 158.024C165.825 161.59 156.018 161.59 150 158.024C143.982 154.458 143.982 148.886 150 145.319C156.018 141.753 165.825 141.753 171.842 145.319C177.86 148.886 177.86 154.681 171.842 158.024Z" fill="#ED341A"/>
<path d="M174.517 146.657H147.103V149.777C147.103 151.783 148.44 153.789 151.114 155.349C156.464 158.47 165.156 158.47 170.505 155.349C173.18 153.789 174.517 151.783 174.517 149.777V146.657Z" fill="#999999"/>
<path d="M174.568 146.996C174.592 142.564 168.425 138.938 160.793 138.897C153.161 138.855 146.955 142.414 146.931 146.846C146.907 151.277 153.074 154.903 160.706 154.944C168.338 154.986 174.544 151.427 174.568 146.996Z" fill="#E6E6E6"/>
<path d="M167.831 143.313H153.789V146.434C153.789 147.548 154.458 148.44 155.795 149.331C158.47 150.891 162.927 150.891 165.825 149.331C167.162 148.44 167.831 147.548 167.831 146.434V143.313Z" fill="#999999"/>
<path d="M165.825 146.434C163.15 147.994 158.692 147.994 155.795 146.434C153.12 144.874 153.12 142.199 155.795 140.639C158.47 139.079 162.927 139.079 165.825 140.639C168.499 142.199 168.499 144.874 165.825 146.434Z" fill="#E6E6E6"/>
<path d="M164.264 13.15H157.578V143.091C157.578 143.536 158.024 143.982 158.47 144.428C159.807 145.097 161.813 145.097 163.15 144.428C163.819 143.982 164.042 143.536 164.042 143.091L164.264 13.15Z" fill="#999999"/>
<path d="M163.15 14.4874C161.813 15.156 159.807 15.156 158.47 14.4874C157.132 13.8187 157.132 12.4814 158.47 11.8128C159.807 11.1441 161.813 11.1441 163.15 11.8128C164.487 12.4814 164.487 13.8187 163.15 14.4874Z" fill="#E6E6E6"/>
<path d="M162.704 7.578H158.915V12.9272C158.915 13.1501 159.138 13.373 159.361 13.5958C160.03 14.0416 161.144 14.0416 162.036 13.5958C162.481 13.373 162.704 13.1501 162.704 12.9272V7.578Z" fill="#999999"/>
<path d="M162.259 8.24668C161.59 8.69244 160.475 8.69244 159.584 8.24668C158.915 7.80091 158.915 7.13226 159.584 6.6865C160.253 6.24073 161.367 6.24073 162.259 6.6865C162.927 7.35514 162.927 8.02379 162.259 8.24668Z" fill="#E6E6E6"/>
<path d="M166.716 5.79495C166.716 8.9153 164.042 11.5899 160.921 11.5899C157.801 11.5899 155.126 8.9153 155.126 5.79495C155.126 2.67459 157.801 0 160.921 0C164.042 0 166.716 2.67459 166.716 5.79495Z" fill="#999999"/>
<path d="M163.819 4.23481C163.819 6.24075 162.036 8.02381 160.03 8.02381C158.024 8.02381 156.241 6.24075 156.241 4.23481C156.241 2.22886 158.024 0.445801 160.03 0.445801C162.259 0.445801 163.819 2.22886 163.819 4.23481Z" fill="#E6E6E6"/>
<path d="M252.08 64.8588L166.716 15.6018C165.602 14.9331 164.71 14.9331 163.819 15.3789L161.367 16.7162C161.367 16.7162 162.036 17.3849 162.481 17.8306C162.481 18.0535 162.481 18.4993 162.481 18.7221V86.4785C162.481 89.5988 164.487 93.3878 166.716 94.7251L252.08 143.982C252.303 144.205 252.526 144.205 252.749 144.205L252.526 145.542L254.978 143.982C255.869 143.314 256.315 142.199 256.315 140.639V73.1055C256.315 69.9851 254.532 66.1961 252.08 64.8588Z" fill="#D9D9D9"/>
<path d="M249.851 145.319L164.264 96.0624C161.813 94.7251 160.03 90.9361 160.03 87.8157V20.0594C160.03 16.9391 162.036 15.3789 164.264 16.7162L249.629 65.9732C252.08 67.3105 253.863 71.0995 253.863 74.2199V141.976C254.086 145.319 252.08 146.657 249.851 145.319Z" fill="#4D4D80"/>
<path d="M254.086 73.997V81.7979L215.75 88.0386L209.287 77.1173L251.857 68.4249C253.195 69.9851 254.086 72.2139 254.086 73.997Z" fill="#F2F2F2"/>
<path d="M207.058 76.003L200.594 79.5691L160.03 22.7341V19.6137C160.03 16.7162 162.036 15.3789 164.71 16.9391L165.602 17.6078L207.058 76.003Z" fill="#F2F2F2"/>
<path d="M254.086 135.958V142.645C254.086 144.874 252.972 146.211 251.412 145.988L214.636 96.9539L224.443 94.5022L254.086 135.958Z" fill="#F2F2F2"/>
<path d="M254.086 73.997V75.1114L213.522 82.6894L210.847 84.2496L208.395 85.5869L205.721 87.1471L204.16 88.0386L201.709 83.5809L203.269 82.6894L205.944 81.1292L208.395 79.7919L209.51 79.1233L211.07 78.2317L252.972 69.7622C253.64 71.3224 254.086 72.6597 254.086 73.997Z" fill="#ED341A"/>
<path d="M212.63 92.7192L209.955 94.2794L205.721 87.1471L203.269 82.6895L160.03 21.1739V19.6137C160.03 18.2764 160.475 17.3849 160.921 16.9391L203.269 76.6716L205.721 81.1293L208.395 85.5869L212.63 92.7192Z" fill="#ED341A"/>
<path d="M254.086 137.073V142.645C254.086 142.868 254.086 142.868 254.086 143.091L211.07 84.2496L207.281 77.786L208.395 77.1174L209.733 76.2258L254.086 137.073Z" fill="#ED341A"/>
<path d="M199.48 86.7014L162.704 94.5023C161.144 92.7192 160.03 90.2675 160.03 88.2616V81.3522L193.016 75.7802L199.48 86.7014Z" fill="#F2F2F2"/>
<path d="M209.51 79.1233L208.395 79.792L205.944 81.1293L203.269 82.6894L201.709 83.581L161.59 93.3878C160.475 91.8276 160.03 90.0446 160.03 88.4844L200.817 78.4547L203.492 76.8945L207.058 74.8885L208.395 77.3403L209.51 79.1233Z" fill="#ED341A"/>
<path d="M254.086 96.7311V119.688L216.642 98.0684V126.152L196.582 114.562V86.4785L160.03 65.5275V42.5706L196.582 63.5216V35.4384L216.642 47.0283V75.1115L254.086 96.7311Z" fill="#F2F2F2"/>
<path d="M254.086 101.634V115.007L212.407 90.9361V123.923L200.594 117.013V84.2496L160.03 60.8469V47.2511L200.594 70.6538V37.89L212.407 44.5765V77.5631L254.086 101.634Z" fill="#ED341A"/>
</g>
<defs>
<clipPath id="clip0_237_4790">
<rect width="300" height="284.621" fill="white"/>
</clipPath>
</defs>
</svg>
