<svg width="80" height="54" viewBox="0 0 80 54" fill="none" xmlns="http://www.w3.org/2000/svg">
<g clip-path="url(#clip0_237_5489)">
<path d="M11.9418 10.0758C10.3558 8.86294 9.51611 6.71717 9.88929 4.75798C10.2625 2.7988 11.7552 1.07285 13.6677 0.466439C14.694 0.139908 15.8601 0.139908 16.7931 0.699675C18.3324 1.58597 18.7989 3.54516 18.8922 5.31775C18.9389 6.11075 18.9855 6.9504 18.7056 7.74341C18.2858 9.00288 17.073 9.93583 15.7668 10.2624C14.4141 10.5889 12.8281 10.7288 11.9418 10.0758Z" fill="white"/>
<path d="M10.0758 29.8543C10.0758 29.8543 11.2886 13.8543 11.2886 13.9009C11.5219 13.1546 11.8484 12.5015 12.2682 11.8484C12.5015 11.4753 12.7813 11.1021 13.1545 10.8688C13.9009 10.4024 14.8805 10.4024 15.6735 10.7755C16.4665 11.1487 17.0262 11.8951 17.3994 12.6881C17.7726 13.4811 17.9592 14.3207 18.0991 15.207C18.3324 16.6531 18.519 18.1458 18.6589 19.5919C19.0321 23.0904 19.3586 26.589 19.7318 30.0875L10.0758 29.8543Z" fill="white"/>
<path d="M37.2245 9.37601C36.4782 8.34978 36.0584 7.0903 36.1517 5.83082C36.1983 4.57135 36.7114 3.31187 37.5511 2.37893C37.8776 2.00575 38.2974 1.67922 38.7639 1.39934C39.6036 0.886218 40.6298 0.606334 41.6094 0.652982C41.8426 0.652982 42.0759 0.699629 42.3091 0.746276C42.589 0.839571 42.8222 1.02616 43.0555 1.2594C44.828 2.9387 45.4811 5.69088 44.6415 7.9766C44.5015 8.30313 44.3616 8.67631 44.1283 8.95619C43.8951 9.28272 43.5219 9.46931 43.1954 9.70254C42.0759 10.3556 40.7697 10.7288 39.5569 10.4489C39.0904 10.3556 38.624 10.169 38.1575 9.93578C37.691 9.6559 37.2245 9.42266 37.2245 9.37601Z" fill="white"/>
<path d="M63.0204 8.02325C62.5539 7.1836 62.5073 6.15736 62.6939 5.17777C62.8805 4.24482 63.3003 3.35852 63.8134 2.51887C63.9534 2.28564 64.0933 2.0524 64.2799 1.86581C64.7464 1.35269 65.3994 1.11946 66.0058 0.886221C66.7055 0.652985 67.4519 0.466396 68.1516 0.559691C68.758 0.652985 69.2711 0.979516 69.7843 1.30605C70.0641 1.49264 70.344 1.72587 70.5773 2.00576C70.9971 2.51887 71.137 3.17194 71.2303 3.825C71.3236 4.38476 71.4169 4.89788 71.4636 5.45765C71.5102 5.87748 71.5569 6.2973 71.5102 6.67048C71.4636 7.37019 71.0904 8.06989 70.6239 8.58301C70.1574 9.14278 69.551 9.51596 68.898 9.84249C68.3848 10.0757 67.8717 10.309 67.312 10.3556C66.6122 10.4023 65.9125 10.2157 65.2595 9.93578C64.9329 9.79584 64.6531 9.6559 64.3732 9.46931C63.7668 9.09613 63.2537 8.44307 63.0204 8.02325Z" fill="white"/>
<path d="M36.3849 30.2274C36.1983 24.9096 36.6181 19.5919 37.5977 14.3674C37.691 13.8076 37.7843 13.2945 38.0176 12.7814C38.2974 12.1283 38.7173 11.5219 39.277 11.1021C40.0234 10.4956 41.0963 10.1691 42.0292 10.5889C42.7756 10.9155 43.1954 11.7085 43.5219 12.4548C44.5948 14.9271 44.7814 17.726 44.968 20.4315C45.1546 23.6968 45.3878 26.9155 45.5744 30.2274C42.4957 30.554 39.417 30.554 36.3849 30.2274Z" fill="white"/>
<path d="M11.8018 16.4197H11.7551C11.7085 16.3731 11.7085 16.3264 11.7085 16.2332C12.828 14.6005 14.0409 13.0611 15.347 11.5684C15.3936 11.5218 15.4869 11.5218 15.5336 11.5684C15.5802 11.6151 15.5802 11.7084 15.5336 11.755C14.2274 13.2011 13.0146 14.7871 11.9417 16.3731C11.8951 16.3731 11.8484 16.4197 11.8018 16.4197Z" fill="black"/>
<path d="M11.6151 20.0117H11.5685C11.5218 19.965 11.5219 19.9184 11.5219 19.8251C13.0146 17.586 14.6472 15.4403 16.3265 13.3411C16.3732 13.2945 16.4198 13.2945 16.5131 13.3411C16.5598 13.3878 16.5598 13.4344 16.5131 13.5277C14.8338 15.5802 13.2012 17.7726 11.7084 20.0117C11.7084 20.0117 11.6618 20.0117 11.6151 20.0117Z" fill="black"/>
<path d="M11.8484 22.8571C11.8018 22.8571 11.8018 22.8571 11.7551 22.8104C11.7085 22.7638 11.7085 22.7171 11.7085 22.6238L16.6997 15.9066C16.7464 15.86 16.793 15.86 16.8863 15.86C16.933 15.9066 16.933 15.9533 16.933 16.0466L11.9417 22.8104C11.8951 22.8571 11.8484 22.8571 11.8484 22.8571Z" fill="black"/>
<path d="M11.7084 26.7289H11.6618C11.6151 26.6822 11.5685 26.6356 11.6151 26.5423C13.2944 23.93 15.1137 21.3178 16.9796 18.8455C17.0262 18.7988 17.0729 18.7988 17.1662 18.7988C17.2128 18.8455 17.2128 18.8921 17.2128 18.9854C15.3469 21.4577 13.5277 24.07 11.8484 26.6822C11.7551 26.6822 11.7084 26.7289 11.7084 26.7289Z" fill="black"/>
<path d="M12.0816 29.1545C12.035 29.1545 12.035 29.1545 11.9884 29.1079C11.9417 29.0612 11.9417 29.0146 11.9884 28.9213L17.3994 21.8309C17.4461 21.7842 17.4927 21.7842 17.586 21.8309C17.6327 21.8775 17.6327 21.9242 17.586 22.0175L12.1749 29.1079C12.1749 29.1079 12.1283 29.1545 12.0816 29.1545Z" fill="black"/>
<path d="M14.2275 29.2478C14.1808 29.2478 14.1808 29.2478 14.1808 29.2478C14.1342 29.2011 14.1342 29.1545 14.1342 29.0612L17.6793 24.2099C17.726 24.1632 17.7726 24.1632 17.8659 24.1632C17.9126 24.2099 17.9126 24.2565 17.9126 24.3498L14.3674 29.2011C14.3207 29.2478 14.2741 29.2478 14.2275 29.2478Z" fill="black"/>
<path d="M16.2799 29.1078C16.2332 29.1078 16.2332 29.1078 16.1866 29.0612C16.1399 29.0145 16.1399 28.9679 16.1866 28.8746L17.8659 26.7755C17.9125 26.7288 17.9592 26.7288 18.0525 26.7755C18.0991 26.8221 18.0991 26.8688 18.0525 26.9621L16.3732 29.0612C16.3265 29.0612 16.3265 29.1078 16.2799 29.1078Z" fill="black"/>
<path d="M62.9738 30.1341C62.9738 25.1895 63.3003 20.2915 63.9533 15.3935C64.1399 14.0408 64.3732 12.6414 65.2128 11.5685C66.0525 10.4956 67.6851 9.88917 68.8047 10.6822C69.3178 11.0087 69.6443 11.5218 69.8775 12.0816C70.9038 14.2274 71.1837 16.653 71.3703 18.9854C71.6968 22.6239 72.07 26.2157 72.3965 29.8542C72.3965 29.9475 72.3965 30.0408 72.3499 30.1341C72.3032 30.1807 72.2566 30.1807 72.1633 30.1807C70.484 30.414 68.8047 30.3207 67.1254 30.2274C66.2391 30.1807 65.3528 30.1341 64.4665 30.0408C63.9067 29.9941 63.3936 29.9475 62.9738 30.1341Z" fill="#FFA947"/>
<g opacity="0.1294">
<path d="M18.9854 3.9183C18.9854 3.87165 18.9854 3.825 18.9854 3.77836C18.9387 3.49847 18.9854 3.17194 18.7988 2.93871C18.6589 2.79877 18.379 2.75212 18.1924 2.84541C17.9591 2.98535 17.9591 3.26524 18.0058 3.49847C18.0524 3.77836 18.0524 4.05824 18.0524 4.29148C18.0524 4.66465 18.0058 5.31772 17.8658 5.92413C17.3994 7.83667 16.3731 8.72296 15.207 8.9562C14.6472 9.00285 14.414 9.04949 13.5277 9.04949C13.3877 9.04949 12.8746 9.00285 12.7347 9.00285C12.3615 8.9562 12.0349 8.90955 11.6618 8.81626C11.5218 8.76961 11.3819 8.81626 11.2886 8.8629C10.9154 9.04949 11.0087 9.65591 11.3819 9.7492C11.5218 9.79585 11.6151 9.79585 11.7551 9.8425C11.8017 9.88914 11.8484 9.93579 11.9417 9.98244C12.3615 10.1224 12.8279 10.2623 13.2944 10.309C13.5743 10.309 13.8542 10.309 14.1341 10.309C14.414 10.309 14.6472 10.309 14.9271 10.309H14.9737C16.1865 10.3556 17.2594 9.65591 18.0524 8.76961C18.8921 7.88331 19.2653 6.11072 19.3119 5.36436C19.3586 4.89789 19.3586 4.15153 18.9854 3.9183Z" fill="black"/>
</g>
<g opacity="0.1294">
<path d="M19.3586 29.621C19.3586 29.5743 19.3586 29.4811 19.3586 29.3878C19.4986 28.9213 19.3586 28.4082 19.4053 27.9417C19.3586 26.7289 19.3586 26.6356 19.2187 25.2828C19.0321 23.6968 18.7989 21.8776 18.6123 19.965C18.4257 18.519 18.1458 15.1604 17.6327 12.9213C17.5394 12.6414 17.4461 12.2216 17.2129 11.9883C17.1662 11.8484 17.0729 11.7085 16.9796 11.5685C16.793 11.3353 16.6997 10.9155 16.3732 10.8222C16 10.7289 15.6269 11.1953 15.8601 11.5219C17.0729 13.2478 17.0263 15.0204 17.0263 17.3061C17.2129 20.758 17.0263 24.2566 17.1196 27.7085C17.1196 28.4548 17.0729 28.8746 17.0729 29.2945C17.0729 29.5743 17.0263 29.8542 17.1196 30.0875C17.1662 30.2741 17.3062 30.414 17.4461 30.4606C17.7726 30.5539 17.9592 30.4606 18.0992 30.3207C18.5656 30.6939 19.4053 30.3207 19.3586 29.621C19.3586 29.6676 19.3586 29.6676 19.3586 29.621Z" fill="black"/>
</g>
<g opacity="0.1294">
<path d="M44.7813 4.24487C44.3615 4.33817 44.3149 4.80464 44.3149 5.17782C44.3615 4.85129 44.3149 5.36441 44.2682 5.55099C44.0816 6.71717 43.8017 7.32359 43.4286 7.74341C42.8222 8.39648 41.2828 9.09618 40.6297 9.18948C40.5831 9.18948 40.5831 9.18948 40.5831 9.18948C40.4898 9.18948 40.3499 9.14283 40.2566 9.14283C40.0233 9.09618 39.7901 9.09618 39.5569 9.09618C39.5102 9.09618 39.4169 9.09618 39.3703 9.14283C39.1837 9.14283 38.9504 9.14283 38.7638 9.23612C38.0641 9.46936 38.2974 10.5889 39.0437 10.5422C39.7901 10.5422 39.137 10.5889 40.0233 10.5889C40.2099 10.5889 40.3965 10.5422 40.5831 10.4956C41.3761 10.449 42.2624 10.2157 43.3353 9.65595C44.7813 8.8163 45.5277 7.09035 45.5743 5.4577C45.5277 4.85129 45.621 4.15158 44.7813 4.24487Z" fill="black"/>
</g>
<g opacity="0.1294">
<path d="M45.5277 28.4548C45.481 28.0816 45.481 27.6618 45.3877 27.3353C45.2945 26.7289 45.2945 26.7289 45.2478 26.5423C45.2012 25.4228 45.1079 22.0642 44.8746 20.1983C44.7813 19.0321 44.5947 17.586 44.4548 16.8397C44.3149 15.5335 44.1749 14.2274 43.7551 13.0146C43.4752 12.1749 43.102 11.1953 42.3557 10.6822C41.7959 10.449 41.2828 11.1953 41.7493 11.6152C43.1487 13.1545 42.9154 15.207 42.9621 17.9125C43.0554 19.2187 43.0554 20.5248 43.1953 21.7843C43.3353 23.1837 43.6151 24.1633 43.7084 26.6356C43.7084 27.6618 43.6151 28.1749 43.895 29.2945C43.895 29.2478 43.895 29.2478 43.895 29.4811C43.895 29.5744 43.9417 29.7143 43.9883 29.8076V29.8542C44.035 29.9475 44.035 30.0408 44.0816 30.0875C44.2682 30.6006 45.1079 30.6006 45.2944 30.0408C45.3411 29.9942 45.3411 29.9009 45.3411 29.8076C45.3411 29.7609 45.3411 29.7143 45.3411 29.6677C45.3411 29.621 45.3411 29.5744 45.3411 29.5277C45.5277 29.2478 45.5277 29.1079 45.5277 28.4548Z" fill="black"/>
</g>
<g opacity="0.1294">
<path d="M71.8368 4.6181C71.6502 4.38486 71.2303 4.57145 71.277 4.85133C71.277 5.17786 70.9971 5.87757 70.8105 6.39069C70.4373 7.41693 69.5977 8.25658 68.2916 8.90964C67.8251 9.09623 66.7522 9.32947 65.726 9.28282C65.4927 9.28282 65.2129 9.18953 64.6997 9.09623C64.5598 9.04958 64.4198 9.09623 64.3266 9.14288C63.9534 9.32947 64.0467 9.93588 64.4665 10.0292C66.1458 10.5889 68.105 10.2624 69.6443 9.37611C70.2508 8.95629 70.9038 8.44317 71.1837 7.74346L71.1371 7.83676C71.3703 7.46358 71.5569 7.04375 71.6968 6.62393C71.8368 6.2041 71.9301 5.55104 71.9301 5.31781C71.8834 5.08457 72.0234 4.80469 71.8368 4.6181Z" fill="black"/>
</g>
<g opacity="0.1294">
<path d="M72.6765 28.8746C72.6298 28.1749 72.5832 27.5218 72.5365 26.8221C72.4899 26.0291 72.3966 25.2361 72.3499 24.4431C72.1167 24.3965 71.8834 24.4431 71.6969 24.583C71.6502 22.6239 71.6036 20.7113 71.417 18.7988C71.2304 16.4664 71.1371 15.1603 70.8572 14.1807C70.7173 13.2011 70.5307 12.688 70.3441 12.3615C70.1109 11.7551 69.7377 11.2419 69.3179 10.7755C69.0846 10.5422 68.9447 10.2157 68.5715 10.2157C68.1517 10.2157 67.8718 10.7755 68.1983 11.102C68.9447 11.9416 68.9447 12.1749 69.1313 12.9212C69.2246 13.5277 69.2246 13.5743 69.3179 14.4139C69.3179 14.6005 69.3179 14.7871 69.3179 14.9737C69.3179 14.9271 69.3179 14.9271 69.3179 14.8804C69.3179 15.4868 69.4578 16.0932 69.5044 16.6997C69.5511 18.7055 69.6444 20.7113 69.691 22.7172C69.7377 24.6763 69.831 26.5889 69.9243 28.5481C69.9709 28.8746 69.9243 29.1545 70.0176 29.481C70.0176 29.5277 70.0176 29.5277 70.0176 29.5743C70.0176 29.8542 70.0176 30.1341 70.2508 30.3207C70.5773 30.6472 71.1837 30.6005 71.417 30.1807C71.4636 30.1341 71.4636 30.0874 71.4636 30.0408C71.8368 30.3673 72.3966 30.274 72.6765 29.9008C72.7231 29.5743 72.6765 29.2011 72.6765 28.8746Z" fill="black"/>
</g>
<path d="M14.2274 10.6822C13.5277 10.6822 12.828 10.5422 12.1749 10.309C11.7084 10.1691 11.3819 9.98248 11.102 9.74924C10.4956 9.28277 10.0758 8.62971 9.74926 7.69677C9.56267 7.09035 9.46938 6.57723 9.42273 6.06411C9.42273 5.4577 9.51602 4.80464 9.79591 4.05828C10.2157 2.84545 10.9154 1.81921 11.8017 1.07286C12.828 0.233209 14.0875 -0.139969 15.2536 -0.0466748C16.4198 0.0932669 17.5393 0.88627 18.3323 2.14575C18.9388 3.12534 19.2653 4.38481 19.3119 5.73758C19.3119 6.29735 19.2653 6.71717 19.172 7.137C18.8455 8.48977 17.7726 9.65595 16.3732 10.2157C15.6735 10.5422 14.9737 10.6822 14.2274 10.6822ZM14.7872 0.699681C13.9009 0.699681 12.9679 1.02621 12.2216 1.67927C11.4286 2.33233 10.8221 3.21863 10.449 4.33817C10.2157 4.99123 10.1224 5.55099 10.1224 6.06411C10.1224 6.48394 10.2157 6.95041 10.4023 7.46353C10.6822 8.25653 11.0554 8.8163 11.5219 9.18948C11.7551 9.37607 12.035 9.51601 12.4082 9.65595C13.621 10.0758 14.9738 10.0758 16.0466 9.6093C17.2128 9.14283 18.1458 8.11659 18.4256 6.99706C18.5189 6.62388 18.5656 6.2507 18.5656 5.73758C18.5656 4.52475 18.2857 3.40522 17.7259 2.51892C17.3994 2.0058 16.5131 0.792975 15.1603 0.653034C15.0204 0.699681 14.9271 0.699681 14.7872 0.699681Z" fill="black"/>
<path d="M15.1603 30.6472C13.5743 30.6472 11.8484 30.6006 10.0758 30.5073C9.88921 30.5073 9.74927 30.3207 9.74927 30.1341C9.84256 24.9563 10.1224 20.2915 10.5889 15.86C10.7289 14.4606 10.9154 13.1079 11.6152 11.9417C12.2682 10.8221 13.7143 9.74925 15.2536 10.1224C16.793 10.449 17.8192 11.9883 18.2857 14.6472C19.172 19.7784 19.5918 25.0029 20.0117 30.0874C20.0117 30.1807 20.0117 30.274 19.9184 30.3673C19.8717 30.4606 19.7784 30.4606 19.6851 30.5073C18.1924 30.6006 16.7464 30.6472 15.1603 30.6472ZM10.449 29.8076C13.6676 29.9942 16.5131 29.9942 19.2187 29.8076C18.8455 24.863 18.4257 19.7318 17.5394 14.7872C17.1195 12.4081 16.2799 11.102 15.0671 10.8221C13.9475 10.5889 12.7813 11.3819 12.1749 12.3149C11.5685 13.3411 11.3819 14.5539 11.242 15.9067C10.8222 20.1982 10.5423 24.7697 10.449 29.8076Z" fill="black"/>
<path d="M11.4752 43.6152C11.2886 43.6152 11.1021 43.4752 11.1021 43.242L11.1487 30.2741C11.1487 30.0875 11.2886 29.9009 11.5219 29.9009C11.7085 29.9009 11.8951 30.0408 11.8951 30.2741L11.8484 43.242C11.8484 43.4286 11.7085 43.6152 11.4752 43.6152Z" fill="black"/>
<path d="M18.2858 43.7085C18.0992 43.7085 17.9126 43.5685 17.9126 43.3353C17.9126 38.9971 17.8193 34.6123 17.6327 30.2741C17.6327 30.0875 17.7726 29.9009 17.9592 29.9009C18.1458 29.9009 18.3324 30.0408 18.3324 30.2274C18.519 34.5656 18.6123 38.9504 18.6123 43.2886C18.6123 43.5219 18.4723 43.7085 18.2858 43.7085Z" fill="black"/>
<path d="M10.8222 15.8134C10.7289 15.8134 10.6356 15.7668 10.5889 15.7201C7.04375 12.3615 3.54521 8.81636 0.233252 5.22452C0.0933105 5.08458 0.0933105 4.85134 0.233252 4.7114C0.373194 4.57146 0.60643 4.57146 0.746372 4.7114C4.05833 8.30324 7.51022 11.8484 11.0554 15.207C11.1954 15.347 11.1954 15.5802 11.0554 15.7201C11.0088 15.7668 10.9155 15.8134 10.8222 15.8134Z" fill="black"/>
<path d="M18.1458 16.2799C18.0525 16.2799 18.0059 16.2799 17.9592 16.2332C17.8193 16.1399 17.7726 15.9067 17.8659 15.7201C20.6181 11.8017 23.5102 7.97667 26.5423 4.29154C26.6822 4.1516 26.8688 4.10496 27.0554 4.2449C27.1954 4.38484 27.242 4.57143 27.1021 4.75802C24.07 8.3965 21.1312 12.2216 18.4257 16.1399C18.3324 16.2332 18.2391 16.2799 18.1458 16.2799Z" fill="black"/>
<path d="M40.5365 10.6822C39.8368 10.6822 39.1371 10.5423 38.484 10.309C38.0175 10.1691 37.691 9.98251 37.4111 9.74927C36.8047 9.2828 36.3849 8.62974 36.0583 7.6968C35.8718 7.09038 35.7785 6.57726 35.7318 6.06414C35.7318 5.45773 35.8251 4.80467 36.105 4.05831C36.5248 2.84548 37.2245 1.81925 38.1108 1.07289C39.0904 0.279886 40.3499 -0.0932914 41.5161 3.0864e-06C42.6822 0.139945 43.8018 0.932948 44.5948 2.19242C45.2012 3.17201 45.5277 4.43149 45.5744 5.78426C45.5744 6.34403 45.5277 6.76385 45.4344 7.18368C45.1079 8.53645 44.035 9.70263 42.6356 10.2624C41.9825 10.5423 41.2362 10.6822 40.5365 10.6822ZM41.0962 0.699712C40.2099 0.699712 39.277 1.02624 38.5306 1.6793C37.7376 2.33236 37.1312 3.21866 36.7581 4.3382C36.5248 4.99126 36.4315 5.55102 36.4315 6.06414C36.4315 6.48397 36.5248 6.95044 36.7114 7.46356C36.9913 8.25656 37.3645 8.81633 37.8309 9.18951C38.0642 9.3761 38.3441 9.51604 38.7172 9.65598C39.9301 10.0758 41.2828 10.0758 42.3557 9.60933C43.5219 9.14286 44.4082 8.11662 44.7347 6.99709C44.828 6.62391 44.8747 6.25073 44.8747 5.73761C44.8747 4.52479 44.5948 3.40525 44.035 2.51895C43.7085 2.00583 42.8222 0.793006 41.4694 0.653064C41.3295 0.699712 41.1895 0.699712 41.0962 0.699712Z" fill="black"/>
<path d="M41.4694 30.6472C39.8834 30.6472 38.1575 30.6006 36.3849 30.5073C36.1983 30.5073 36.0583 30.3207 36.0583 30.1341C36.105 24.9096 36.3849 20.2449 36.8514 15.8134C36.9913 14.414 37.1779 13.0612 37.8776 11.895C38.5307 10.7755 39.9767 9.70262 41.5161 10.0758C43.0554 10.4023 44.0817 11.9417 44.5481 14.6006C45.4344 19.7318 45.8543 24.9563 46.2741 30.0408C46.2741 30.1341 46.2741 30.2274 46.1808 30.3207C46.1342 30.414 46.0409 30.414 45.9476 30.4606C44.5015 30.6006 43.0088 30.6472 41.4694 30.6472ZM36.7581 29.8076C39.9767 29.9942 42.8222 29.9942 45.5277 29.8076C45.1546 24.863 44.7347 19.7318 43.8484 14.7872C43.4286 12.4082 42.589 11.102 41.3761 10.8222C40.2566 10.5889 39.0904 11.3819 38.484 12.3149C37.8776 13.3411 37.691 14.5539 37.5511 15.9067C37.1312 20.1982 36.8514 24.7697 36.7581 29.8076Z" fill="black"/>
<path d="M37.7843 43.6152C37.5977 43.6152 37.4111 43.4752 37.4111 43.242L37.4578 30.2741C37.4578 30.0875 37.5977 29.9009 37.831 29.9009C38.0175 29.9009 38.2041 30.0408 38.2041 30.2741L38.1575 43.242C38.1575 43.4286 37.9709 43.6152 37.7843 43.6152Z" fill="black"/>
<path d="M44.5482 43.7085C44.3616 43.7085 44.175 43.5685 44.175 43.3353C44.175 38.9971 44.0817 34.6123 43.8951 30.2741C43.8951 30.0875 44.0351 29.9009 44.2217 29.9009C44.4083 29.9009 44.5949 30.0408 44.5949 30.2274C44.7814 34.5656 44.8747 38.9504 44.8747 43.2886C44.9214 43.5219 44.7348 43.7085 44.5482 43.7085Z" fill="black"/>
<path d="M37.1313 15.8134C37.038 15.8134 36.9447 15.7668 36.898 15.7201C33.3528 12.3615 29.8543 8.81636 26.5423 5.22452C26.4024 5.08458 26.4024 4.85134 26.5423 4.7114C26.6823 4.57146 26.9155 4.57146 27.0555 4.7114C30.3674 8.30324 33.8193 11.8484 37.3645 15.207C37.5044 15.347 37.5044 15.5802 37.3645 15.7201C37.3178 15.7668 37.2245 15.8134 37.1313 15.8134Z" fill="black"/>
<path d="M44.4083 16.2799C44.315 16.2799 44.2683 16.2799 44.2217 16.2332C44.0817 16.1399 44.0351 15.9067 44.1284 15.7201C46.8806 11.8017 49.7727 7.97667 52.8048 4.29154C52.9447 4.1516 53.1313 4.10496 53.3179 4.2449C53.4578 4.38484 53.5045 4.57143 53.3645 4.75802C50.3325 8.44315 47.4403 12.2682 44.7348 16.1866C44.6415 16.2332 44.5015 16.2799 44.4083 16.2799Z" fill="black"/>
<path d="M67.0787 10.6822C66.379 10.6822 65.6793 10.5422 65.0262 10.309C64.5598 10.1691 64.2332 9.98248 63.9534 9.74924C63.3469 9.28277 62.9271 8.62971 62.6006 7.69677C62.414 7.09035 62.3207 6.57723 62.274 6.06411C62.274 5.4577 62.3673 4.80464 62.6472 4.05828C63.0671 2.84545 63.7668 1.81921 64.6531 1.07286C65.6793 0.233209 66.9388 -0.139969 68.105 -0.0466748C69.2711 0.0932669 70.3907 0.88627 71.1837 2.14575C71.7901 3.12534 72.1166 4.38481 72.1633 5.73758C72.1633 6.29735 72.1166 6.71717 72.0233 7.137C71.6968 8.48977 70.6239 9.65595 69.2245 10.2157C68.5248 10.5422 67.7784 10.6822 67.0787 10.6822ZM67.6385 0.699681C66.7522 0.699681 65.8192 1.02621 65.0729 1.67927C64.2799 2.33233 63.6735 3.21863 63.3003 4.33817C63.067 4.99123 62.9738 5.55099 62.9738 6.06411C62.9738 6.48394 63.0671 6.95041 63.2536 7.46353C63.5335 8.25653 63.9067 8.8163 64.3732 9.18948C64.6064 9.37607 64.8863 9.51601 65.2595 9.65595C66.4723 10.0758 67.8251 10.0758 68.898 9.6093C70.0641 9.14283 70.9971 8.11659 71.277 6.99706C71.3703 6.62388 71.4169 6.2507 71.4169 5.73758C71.4169 4.52475 71.137 3.40522 70.5773 2.51892C70.2507 2.0058 69.3644 0.792975 68.0117 0.653034C67.8717 0.699681 67.7318 0.699681 67.6385 0.699681Z" fill="black"/>
<path d="M68.0117 30.6472C66.4257 30.6472 64.6997 30.6006 62.9271 30.5073C62.7405 30.5073 62.6006 30.3207 62.6006 30.1341C62.6939 24.9563 62.9738 20.2915 63.4402 15.86C63.5802 14.4606 63.7668 13.1079 64.4665 11.9417C65.1195 10.8221 66.5656 9.74925 68.105 10.1224C69.6443 10.449 70.6706 11.9883 71.137 14.6472C72.0233 19.7784 72.4432 25.0029 72.863 30.0874C72.863 30.1807 72.863 30.274 72.7697 30.3673C72.723 30.4606 72.6297 30.4606 72.5364 30.5073C71.0437 30.6006 69.551 30.6472 68.0117 30.6472ZM63.3003 29.8076C66.519 29.9942 69.3644 29.9942 72.07 29.8076C71.6968 24.863 71.277 19.7318 70.3907 14.7872C69.9708 12.4081 69.1312 11.102 67.9184 10.8221C66.7988 10.5889 65.6327 11.3819 65.0262 12.3149C64.4198 13.3411 64.2332 14.5539 64.0933 15.9067C63.6735 20.1982 63.3936 24.7697 63.3003 29.8076Z" fill="black"/>
<path d="M64.3265 43.6152C64.14 43.6152 63.9534 43.4752 63.9534 43.242L64 30.2741C64 30.0875 64.14 29.9009 64.3732 29.9009C64.5598 29.9009 64.7464 30.0408 64.7464 30.2741L64.6997 43.242C64.6531 43.4286 64.5131 43.6152 64.3265 43.6152Z" fill="black"/>
<path d="M71.0904 43.7085C70.9038 43.7085 70.7173 43.5685 70.7173 43.3353C70.7173 38.9971 70.624 34.6123 70.4374 30.2741C70.4374 30.0875 70.5773 29.9009 70.7639 29.9009C70.9505 29.9009 71.1371 30.0408 71.1371 30.2274C71.3237 34.5656 71.417 38.9504 71.417 43.2886C71.417 43.5219 71.277 43.7085 71.0904 43.7085Z" fill="black"/>
<path d="M63.6735 15.8134C63.5802 15.8134 63.4869 15.7668 63.4403 15.7201C59.8951 12.3615 56.3965 8.81636 53.0846 5.22452C52.9446 5.08458 52.9446 4.85134 53.0846 4.7114C53.2245 4.57146 53.4577 4.57146 53.5977 4.7114C56.9096 8.30324 60.3615 11.8484 63.9067 15.207C64.0467 15.347 64.0467 15.5802 63.9067 15.7201C63.8601 15.7668 63.7668 15.8134 63.6735 15.8134Z" fill="black"/>
<path d="M70.9505 16.2799C70.8572 16.2799 70.8105 16.2799 70.7639 16.2332C70.624 16.1399 70.5773 15.9067 70.6706 15.7201C73.4228 11.8017 76.3149 7.97667 79.347 4.29154C79.4869 4.1516 79.6735 4.10496 79.8601 4.2449C80.0001 4.38484 80.0467 4.57143 79.9068 4.75802C76.8747 8.44315 73.9826 12.2682 71.277 16.1866C71.1837 16.2332 71.0438 16.2799 70.9505 16.2799Z" fill="black"/>
<path d="M79.6268 44.1749H0.326547C0.139958 44.1749 -0.0466309 44.035 -0.0466309 43.8018C-0.0466309 43.6152 0.0933108 43.4286 0.2799 43.4286H79.5802C79.7668 43.4286 79.9534 43.5685 79.9534 43.8018C79.9534 44.035 79.8601 44.1749 79.6268 44.1749Z" fill="black"/>
<path d="M10.1691 48.6997C9.98249 48.6997 9.84255 48.5597 9.7959 48.3731C9.7959 48.1866 9.93584 48 10.1224 48C32.3265 47.3469 54.8105 47.1603 77.0146 47.4868C77.2011 47.4868 77.3877 47.6734 77.3877 47.86C77.3877 48.0466 77.2478 48.2332 77.0146 48.2332C54.8105 47.86 32.3265 48.0466 10.1691 48.6997Z" fill="black"/>
<path d="M33.3061 53.5044L16.5131 53.1779C16.3265 53.1779 16.1399 52.9913 16.1866 52.8047C16.1866 52.6181 16.3265 52.4781 16.5597 52.4781L33.3061 52.8047C33.4927 52.8047 33.6793 52.9913 33.6326 53.1779C33.6793 53.3644 33.5393 53.5044 33.3061 53.5044Z" fill="black"/>
</g>
<defs>
<clipPath id="clip0_237_5489">
<rect width="80" height="53.5044" fill="white"/>
</clipPath>
</defs>
</svg>
