<svg width="450" height="499" viewBox="0 0 450 499" fill="none" xmlns="http://www.w3.org/2000/svg">
<g filter="url(#filter0_dd_237_4520)">
<mask id="mask0_237_4520" style="mask-type:alpha" maskUnits="userSpaceOnUse" x="28" y="82" width="422" height="360">
<rect x="28.3333" y="82.6439" width="421.159" height="358.416" rx="60" fill="#DCDCDC"/>
</mask>
<g mask="url(#mask0_237_4520)">
</g>
<g clip-path="url(#clip0_237_4520)">
<path d="M379.965 224.935L201.017 121.517V118.415L379.965 221.833V224.935Z" fill="#AD9786"/>
<path d="M389.102 219.764L379.965 224.935V221.833L389.102 216.662V219.764Z" fill="#735F4F"/>
<path d="M209.981 113.244L201.017 118.415L379.965 221.833L389.102 216.662L209.981 113.244Z" fill="#D1B7A3"/>
<path d="M383.413 218.903L203.603 115.14V8.2749L383.413 112.037V218.903Z" fill="#AD9887"/>
<path d="M211.533 110.659V21.8916L375.483 116.691V205.286L211.533 110.659Z" fill="#F76D31"/>
<path d="M369.276 126.861L290.491 81.3568C289.801 81.0121 289.112 79.8055 289.112 78.9437V77.7372C289.112 76.703 289.629 76.3583 290.491 76.703L369.276 122.207C369.966 122.552 370.656 123.758 370.656 124.62V125.826C370.483 126.861 369.966 127.378 369.276 126.861Z" fill="white"/>
<path d="M369.276 151.164L290.491 105.66C289.801 105.315 289.112 104.109 289.112 103.247V102.04C289.112 101.006 289.629 100.661 290.491 101.006L369.276 146.51C369.966 146.855 370.656 148.061 370.656 148.923V150.13C370.483 151.164 369.966 151.509 369.276 151.164Z" fill="white"/>
<path d="M369.276 183.913L290.491 138.409C289.801 138.064 289.112 136.858 289.112 135.996V134.789C289.112 133.755 289.629 133.411 290.491 133.755L369.276 179.259C369.966 179.604 370.656 180.81 370.656 181.672V182.879C370.483 183.913 369.966 184.43 369.276 183.913Z" fill="white"/>
<path d="M362.38 131.17L290.318 89.6303C289.629 89.2855 289.112 88.079 289.112 87.2172V86.0106C289.112 85.1488 289.629 84.6317 290.318 85.1488L362.38 126.688C363.07 127.033 363.587 128.24 363.587 129.101V130.48C363.76 131.17 363.07 131.687 362.38 131.17Z" fill="white"/>
<path d="M357.381 136.168L290.318 97.3866C289.629 97.0419 289.112 96.0077 289.112 95.1459V93.767C289.112 92.9052 289.629 92.3881 290.318 92.9052L357.381 131.687C358.071 132.032 358.588 133.066 358.588 133.928V135.306C358.588 135.996 358.071 136.513 357.381 136.168Z" fill="white"/>
<path d="M310.489 125.482L290.318 113.761C289.629 113.416 289.112 112.382 289.112 111.52V109.969C289.112 109.107 289.629 108.763 290.318 109.107L310.489 120.828C311.178 121.173 311.696 122.207 311.696 123.069V124.62C311.696 125.482 311.178 125.827 310.489 125.482Z" fill="white"/>
<path d="M310.489 133.755L290.318 122.034C289.629 121.69 289.112 120.656 289.112 119.794V118.242C289.112 117.381 289.629 117.036 290.318 117.381L310.489 129.101C311.178 129.446 311.696 130.48 311.696 131.342V132.893C311.696 133.583 311.178 134.1 310.489 133.755Z" fill="white"/>
<path d="M310.489 141.856L290.318 130.136C289.629 129.791 289.112 128.757 289.112 127.895V126.344C289.112 125.482 289.629 125.137 290.318 125.482L310.489 137.202C311.178 137.547 311.696 138.581 311.696 139.443V140.994C311.696 141.856 311.178 142.201 310.489 141.856Z" fill="white"/>
<path d="M310.489 158.058L290.318 146.338C289.629 145.993 289.112 144.959 289.112 144.097V142.546C289.112 141.684 289.629 141.339 290.318 141.684L310.489 153.405C311.178 153.749 311.696 154.783 311.696 155.645V157.197C311.696 158.058 311.178 158.403 310.489 158.058Z" fill="white"/>
<path d="M214.291 108.935V23.6152L211.533 21.8916V110.659L375.483 205.286V202.011L214.291 108.935Z" fill="#D1B7A3"/>
<path d="M211.533 110.659L214.291 108.935V23.6152L211.533 21.8916V110.659Z" fill="#735F4F"/>
<path d="M389.102 215.628L383.413 218.903V112.037L389.102 108.763V215.628Z" fill="#735F4F"/>
<path d="M209.464 5L203.603 8.2749L383.413 112.037L389.102 108.763L209.464 5Z" fill="#D1B7A3"/>
<path d="M219.98 200.287L206.706 207.699C206.361 207.871 206.361 208.216 206.706 208.388L369.966 302.671C370.655 303.016 371.517 303.016 372.207 302.671L385.482 295.259C385.826 295.087 385.826 294.57 385.482 294.398L222.394 200.287C221.704 199.943 220.842 199.943 219.98 200.287Z" fill="#F2F2F2"/>
<path d="M252.798 262.557C252.861 250.943 236.626 241.44 216.536 241.331C196.447 241.223 180.11 250.549 180.047 262.163C179.984 273.776 196.219 283.279 216.308 283.388C236.398 283.497 252.735 274.171 252.798 262.557Z" fill="#F2F2F2"/>
<path d="M225.325 247.687C225.152 248.894 225.325 250.273 225.842 251.307C226.531 252.513 227.738 253.031 228.773 253.892C231.703 256.305 232.565 260.614 235.496 263.028C236.875 264.062 238.599 264.579 240.151 264.579C240.84 264.579 241.358 264.406 241.875 264.062C243.254 263.2 242.737 260.787 242.564 259.408C242.392 257.857 241.875 256.133 241.185 254.927C240.323 253.375 238.944 252.341 237.737 251.135C235.668 249.239 233.6 247.17 232.221 244.757C231.703 243.895 231.359 243.033 230.497 242.516C229.807 241.999 228.773 241.827 228.083 242.172C227.049 242.516 226.531 243.378 226.187 244.24C226.014 245.447 225.497 246.481 225.325 247.687Z" fill="#4D4D80"/>
<path d="M221.532 213.559C221.877 214.766 222.049 216.145 222.049 217.524C222.739 226.142 223.945 234.588 226.014 243.033C226.359 244.068 226.359 245.446 227.049 246.481C227.738 247.515 228.428 248.549 229.29 249.583C230.841 251.652 232.565 253.375 234.462 255.099C235.668 256.305 237.048 257.34 238.599 257.857C239.289 258.029 240.323 258.201 240.323 257.34C240.323 256.478 239.978 255.616 239.461 254.926C238.772 253.72 237.91 252.686 237.048 251.652C236.358 250.962 235.841 250.273 235.324 249.583C233.082 246.481 233.255 242.172 233.427 238.552C233.772 232.175 235.668 225.969 235.151 219.764C234.806 215.283 233.255 210.974 233.6 206.492C232.91 207.182 232.048 207.527 231.186 207.699C228.428 207.871 226.359 204.941 223.773 205.114C222.049 205.286 221.015 206.837 220.67 208.388C220.153 210.112 221.015 211.491 221.532 213.559Z" fill="#FFB78C"/>
<path d="M199.293 256.995C198.603 258.029 197.741 258.891 196.879 259.925C194.466 262.683 191.88 265.785 191.88 269.75C191.88 271.473 192.052 274.059 194.121 274.231C195.5 274.404 196.879 273.886 197.913 273.197C198.948 272.508 199.982 271.473 200.844 270.439C202.223 268.716 203.603 266.82 204.292 264.751C204.465 263.889 205.327 262.855 206.189 262.338C206.533 262.166 206.878 261.993 207.223 261.821C208.602 260.959 209.809 259.58 209.981 257.857C209.981 256.822 209.809 255.788 209.292 254.926C208.774 253.72 208.257 252.513 207.395 251.479L207.051 251.652C206.878 251.652 206.706 251.479 206.533 251.307C206.189 251.134 205.844 250.962 205.499 250.79C204.809 250.617 203.947 250.617 203.258 250.79C200.672 251.824 200.672 254.926 199.293 256.995Z" fill="#6B6CB3"/>
<path d="M200.672 223.556C200.327 226.659 200.499 229.589 200.499 232.692C200.499 236.656 200.499 240.62 200.672 244.585C200.672 247.515 201.189 250.79 200.499 253.72C199.982 255.961 199.12 258.201 197.913 260.097C197.224 261.304 196.534 262.338 196.189 263.717C196.189 263.889 196.189 264.234 196.362 264.406C196.534 264.406 196.534 264.406 196.707 264.406C197.741 264.406 198.603 263.889 199.465 263.2C201.706 261.649 203.775 259.753 205.499 257.512C206.361 256.305 207.223 255.271 207.913 253.892C208.947 251.307 209.464 248.549 209.981 245.791C210.326 244.068 210.498 242.516 210.843 240.793C211.188 238.897 211.533 237.001 211.878 235.105C213.257 228.383 215.153 221.833 216.36 215.111C216.532 214.249 216.705 213.215 216.532 212.353C216.36 211.491 216.015 210.457 215.67 209.595C214.808 207.527 213.774 205.631 212.222 204.079C210.671 202.528 208.602 201.322 206.361 201.322C203.947 201.322 200.672 203.045 201.017 205.975C201.189 207.699 201.534 209.423 201.706 211.146C201.706 213.042 201.706 214.938 201.361 217.007C201.189 219.075 200.844 221.316 200.672 223.556Z" fill="#FFE5CC"/>
<path d="M197.569 178.57C197.396 184.43 197.569 190.118 198.258 195.806C198.603 199.081 199.12 202.356 199.637 205.458C199.982 207.009 200.327 208.733 200.672 210.284C201.189 212.18 202.223 212.697 203.947 213.559C205.671 214.421 207.395 214.938 209.119 215.455C212.74 216.317 216.532 216.489 220.325 216.489C222.911 216.489 225.669 216.145 228.255 215.455C230.497 214.766 235.151 213.215 235.496 210.629C235.668 208.905 236.358 207.354 236.703 205.631C237.048 203.907 237.22 202.011 237.565 200.115C238.254 196.151 238.772 192.014 239.116 188.05C239.634 181.672 239.806 175.122 239.461 168.745C238.944 162.712 238.427 156.852 236.013 150.991C236.013 150.819 235.841 150.819 235.841 150.647C235.496 149.785 234.634 147.717 233.6 147.717C233.083 147.717 232.393 148.061 231.703 148.061C231.014 148.061 230.324 148.061 229.635 148.234C224.118 148.751 218.429 149.095 212.912 149.268C210.154 149.268 207.223 149.095 204.465 149.268C202.396 149.268 201.361 151.336 200.844 153.06C199.465 157.197 199.293 161.161 198.603 165.298C197.913 169.607 197.569 174.088 197.569 178.57Z" fill="#ED341A"/>
<path d="M191.362 122.896C190.328 125.826 189.811 128.757 189.121 131.687C188.259 135.306 187.052 138.926 186.708 142.546C186.708 142.718 186.708 142.718 186.708 142.89L186.88 143.063C187.397 143.58 188.259 143.925 188.949 143.925C189.983 144.097 191.19 144.269 192.224 144.269C192.742 144.269 193.431 144.269 193.948 143.925C194.638 143.58 195.155 143.235 195.672 142.718C195.845 142.546 195.845 142.546 196.017 142.373C196.189 142.029 196.189 141.684 196.362 141.339C197.224 137.375 198.431 133.238 200.672 129.791C200.844 129.618 201.017 129.274 201.017 129.101C201.017 128.757 201.017 128.584 201.017 128.24C200.844 126.516 200.499 124.62 199.81 123.069C199.293 121.517 198.258 119.966 196.707 119.277C195.845 118.932 194.983 118.932 194.293 119.104C193.604 119.104 193.086 119.794 192.569 120.311C191.88 121 191.707 122.207 191.362 122.896Z" fill="#FFB78C"/>
<path d="M197.051 111.176C193.259 114.451 191.707 119.794 190.5 124.275C189.638 127.205 187.742 134.617 187.57 135.134C187.397 135.651 187.225 135.996 187.57 136.513C188.432 137.375 189.638 137.892 190.673 138.237C192.052 138.581 193.431 138.754 194.81 138.754C195.5 138.754 196.362 138.754 197.051 138.409C197.224 138.409 197.224 138.409 197.396 138.237C197.569 138.237 197.569 138.064 197.569 137.892C198.258 136.168 198.775 134.617 199.465 132.893C200.155 131.17 201.017 129.619 201.706 127.723C202.396 125.999 202.223 124.103 202.223 122.207C202.568 119.104 202.913 116.002 202.223 113.072C201.879 111.693 200.844 110.141 201.534 108.763C199.81 109.452 198.258 110.141 197.051 111.176Z" fill="#6B6CB3"/>
<path d="M248.081 136.341C249.633 137.375 251.012 138.409 252.563 139.271C254.632 140.477 257.046 141.512 259.459 142.029C260.666 142.373 262.045 142.546 263.252 142.373C263.424 142.373 263.597 142.201 263.769 142.201C263.942 142.029 263.942 141.856 263.942 141.684C264.286 140.305 264.286 138.754 264.286 137.375C264.286 136.858 264.114 136.168 264.114 135.651C263.942 134.445 263.252 133.066 262.39 132.204C261.873 131.687 261.183 131.342 260.494 130.997C259.287 130.48 258.253 129.791 257.218 129.101C254.977 127.722 252.736 125.999 251.012 123.758C250.667 123.241 250.15 122.724 249.805 122.034C249.633 121.517 249.46 121 249.115 120.483C248.426 119.449 247.564 118.415 246.357 117.898C245.323 117.381 244.288 117.381 243.254 117.553C241.013 117.898 238.944 119.104 237.737 121C237.22 122.034 236.875 123.241 237.22 124.448C237.392 125.654 238.082 126.516 238.599 127.55C239.289 128.757 240.323 129.791 241.185 130.653C242.22 131.687 243.254 132.549 244.288 133.41C245.495 134.445 246.874 135.479 248.081 136.341Z" fill="#FFE5CC"/>
<path d="M287.215 99.1102C287.215 98.9379 286.87 98.9379 286.87 98.9379C286.698 98.9379 286.526 99.1102 286.353 99.1102C286.353 98.5931 286.353 97.7313 285.664 97.559C285.146 97.3866 284.629 97.9037 284.284 98.4208C283.595 99.455 283.078 100.661 282.905 101.868C282.905 102.385 282.733 102.73 282.561 103.247C282.388 103.592 282.043 103.936 281.526 103.936C281.354 103.936 281.354 103.936 281.181 103.764V103.592C281.181 103.247 281.181 102.902 281.181 102.557C281.181 102.385 281.181 102.213 281.009 102.04C280.837 101.868 280.664 101.868 280.492 101.868C279.975 101.868 279.63 102.04 279.285 102.213C278.423 102.73 278.423 103.936 277.906 104.626C277.561 104.971 277.216 105.315 276.871 105.66C275.837 106.522 274.975 107.556 274.113 108.418C273.768 108.763 273.423 109.28 273.251 109.797C273.079 110.141 273.079 110.659 273.079 111.003C273.079 111.693 273.251 112.555 273.079 113.244C272.906 113.933 272.561 114.623 272.217 115.14C271.699 116.002 271.355 117.036 270.837 117.898C269.114 120.828 267.217 123.586 264.804 125.999C263.424 127.378 262.045 128.584 260.494 129.446C259.976 129.791 259.287 130.136 258.942 130.653C258.597 130.997 258.597 131.514 258.425 132.032C257.735 134.962 258.425 138.064 259.976 140.65C260.494 141.339 261.183 142.029 262.045 142.201C263.08 142.373 263.942 141.339 264.631 140.477C270.148 133.583 274.63 125.827 277.733 117.725C278.251 116.519 278.768 115.829 279.802 114.968C280.837 113.933 281.526 112.899 282.388 111.693C283.078 110.486 283.767 109.452 284.284 108.245C284.629 107.384 284.802 106.522 285.146 105.66C285.836 103.419 286.353 101.179 287.043 98.9379C287.215 99.2826 287.215 99.1102 287.215 99.1102Z" fill="#FFE5CC"/>
<path d="M239.461 111.693C239.634 111.865 239.806 111.865 239.806 112.037C241.185 113.072 245.495 116.864 246.357 117.725C248.426 119.621 250.667 121.517 252.391 123.586C253.425 124.792 254.46 125.827 255.494 126.861C256.011 127.378 256.529 127.895 257.218 128.412C257.563 128.757 258.252 129.101 258.425 129.619C258.597 130.136 258.425 131.342 258.253 131.859C258.253 132.549 258.08 133.41 257.908 134.1C257.563 135.479 257.046 136.858 256.529 138.237C256.184 139.098 255.667 140.133 254.977 140.822C253.943 141.684 253.081 140.822 252.046 140.305C247.047 137.375 243.082 133.238 238.772 129.274C237.91 128.412 237.048 127.723 236.358 126.861C234.979 125.137 234.117 122.896 234.117 120.656C234.117 118.932 234.117 117.208 234.117 115.485C234.117 114.278 233.944 112.037 235.151 111.176C235.496 111.003 235.841 111.003 236.013 110.831C236.703 110.831 237.392 110.831 238.082 111.176C238.944 111.348 239.289 111.52 239.461 111.693Z" fill="#6B6CB3"/>
<path d="M198.086 110.659C197.741 111.003 197.396 111.348 197.051 111.865C196.534 112.899 196.362 113.761 196.362 114.968C196.362 116.691 196.534 118.243 196.707 119.966C197.741 129.101 200.844 137.72 202.741 146.51C202.913 146.855 202.913 147.372 202.913 147.717C202.913 148.061 202.741 148.406 202.568 148.751C201.189 151.336 200.672 154.094 199.81 156.852C199.81 157.024 199.637 157.369 199.81 157.541C199.982 157.714 200.155 157.714 200.327 157.714C201.189 157.714 202.051 157.369 203.085 157.541C204.292 157.714 205.154 159.093 206.361 159.61C207.568 160.127 208.947 159.61 210.154 159.437C211.705 159.093 213.429 159.093 214.981 159.61C216.532 159.954 217.912 160.644 219.463 160.471C220.67 160.299 221.877 159.61 223.083 159.093C224.463 158.576 225.842 158.403 227.393 158.576C228.945 158.748 230.324 159.437 231.876 159.093C232.738 158.92 233.944 158.403 234.462 157.714C235.151 157.024 235.151 156.335 236.358 156.162C237.048 156.162 237.565 156.335 238.254 156.335C238.944 156.335 239.634 155.818 239.461 155.301C239.461 154.956 239.289 154.784 239.116 154.439C237.565 152.37 235.841 150.13 235.324 147.544C234.979 146.165 235.151 144.614 235.324 143.063C235.668 140.133 236.186 137.375 236.875 134.617C237.392 131.859 238.082 129.101 238.944 126.344C240.151 122.379 242.564 117.208 241.013 113.072C240.496 112.037 239.461 111.176 238.427 110.659C235.496 108.935 232.393 107.384 229.117 106.005C227.393 105.315 225.842 104.626 223.945 104.281H223.773C222.739 104.109 221.704 104.109 220.497 104.109C219.463 104.109 218.601 104.109 217.739 104.109C215.67 104.281 213.602 104.626 211.705 105.143C211.188 105.315 210.671 105.488 209.981 105.66C207.912 106.177 206.016 107.039 203.947 107.728C202.051 108.418 200.327 109.28 198.603 110.314C198.258 110.486 198.086 110.659 198.086 110.659Z" fill="#4D4D80"/>
<path d="M225.669 104.971C224.98 103.592 224.463 102.04 223.945 100.661C223.773 99.7996 223.601 97.5589 222.049 98.5931C221.532 98.9378 220.842 99.2825 220.153 99.4549C218.774 99.7996 217.394 99.7996 216.015 99.6273C215.153 99.4549 214.291 99.4549 213.429 99.4549C212.567 99.6273 211.705 99.972 211.36 100.834C210.843 101.868 211.36 102.73 211.188 103.764C211.188 104.453 211.016 104.971 210.843 105.488C210.671 106.177 210.671 107.039 210.498 107.728C210.326 108.935 212.05 109.624 212.912 109.969C213.946 110.314 214.808 110.486 215.843 110.486C218.256 110.659 220.842 110.314 223.083 109.452C223.945 109.107 225.152 108.59 225.669 107.901C226.704 107.039 226.359 106.177 225.669 104.971Z" fill="#FFB78C"/>
<path d="M205.671 85.6659C205.327 86.7001 205.154 87.5619 204.982 88.5961C204.809 89.975 204.809 91.3539 204.982 92.7328C204.982 93.5946 205.154 94.6288 205.154 95.4906C205.154 96.0077 205.327 96.3524 205.327 96.8695C205.327 97.0418 205.327 97.5589 205.499 97.7313C205.671 97.9037 206.533 97.5589 206.706 97.3866C207.74 97.0418 208.602 96.5248 209.464 95.8353C210.498 95.1459 211.533 94.4564 212.567 93.7669C212.74 93.5946 213.084 93.2499 213.257 93.0775C213.429 92.7328 213.429 92.5604 213.429 92.2157C213.429 91.8709 213.602 91.5262 213.602 91.1815C213.602 90.492 213.602 89.8026 213.602 89.1131C213.602 87.0448 213.429 85.1488 212.912 83.0804C212.74 82.2186 212.567 81.3568 212.05 80.6674C211.533 80.1503 210.843 79.6332 209.981 79.8055C209.119 79.8055 208.257 80.3226 207.74 81.0121C207.223 81.7015 206.706 82.391 206.361 83.2528C206.189 84.287 206.016 84.9764 205.671 85.6659Z" fill="#754600"/>
<path d="M227.393 95.4906C229.29 92.5604 229.117 88.079 228.255 84.8041C227.738 82.391 226.359 79.9779 224.29 78.4267C221.359 76.3583 217.394 75.8412 214.119 77.0478C210.843 78.2543 208.085 81.1845 207.223 84.6317C206.706 86.3554 206.706 88.2514 206.533 89.975C206.361 91.871 206.361 93.9393 206.706 95.8353C206.878 97.2142 207.395 98.5932 208.085 99.7997C208.947 101.696 209.981 103.419 211.188 104.971C211.533 105.488 211.878 105.832 212.395 106.177C212.912 106.522 213.774 106.522 214.464 106.349C216.877 106.005 218.946 104.971 220.842 103.592C222.049 102.902 223.083 102.04 223.945 100.834C224.807 99.7997 225.325 98.2484 225.152 97.0419C225.842 97.2142 226.876 96.5248 227.393 95.4906Z" fill="#FFE5CC"/>
<path d="M208.602 85.1488C208.947 84.9764 209.464 84.9764 209.809 84.8041C210.843 84.8041 211.705 85.1488 212.74 85.1488C213.429 85.3212 214.291 85.3212 214.981 85.1488C214.808 85.1488 214.981 85.8382 214.981 86.0106C215.153 86.3553 215.498 86.5277 215.843 86.7001C216.877 87.2172 218.084 87.5619 219.118 87.9066C220.153 88.2513 221.359 88.9408 221.877 89.975C222.221 90.6644 222.394 91.3539 222.739 92.0433C223.083 92.7328 223.601 93.4222 224.463 93.4222C224.118 93.4222 225.152 91.3539 225.152 91.1815C225.497 90.8368 225.842 90.3197 226.359 90.3197C228.6 90.3197 226.876 93.9393 226.187 94.8011C225.669 95.4906 224.98 96.0077 224.463 96.6971C223.601 98.076 223.601 99.7997 224.118 101.351C224.118 101.351 224.118 101.351 224.118 101.523H224.29C224.463 101.351 224.635 101.179 224.807 101.179C226.876 99.7997 228.945 98.2484 231.014 96.8695C231.186 96.6971 231.531 96.5248 231.703 96.3524C232.048 96.0077 232.048 95.3182 232.048 94.8011C232.048 94.1117 232.048 93.5946 232.048 92.9051C232.048 90.1473 231.703 87.5619 230.841 84.9764C229.462 81.1844 226.876 77.9095 223.256 76.1859C219.118 74.1176 213.946 74.807 210.326 77.5648C208.257 79.1161 206.706 81.3568 206.016 83.9423C205.844 84.4593 205.154 86.3553 206.189 86.183C206.533 86.183 206.706 85.8382 206.878 85.6659C207.74 85.6659 208.085 85.3212 208.602 85.1488Z" fill="#754600"/>
<path d="M212.222 160.644C211.878 160.299 211.533 160.127 211.016 160.127C210.671 160.127 210.154 160.127 209.809 160.299C209.292 160.299 208.774 160.299 208.257 160.127C207.568 159.954 207.051 159.437 206.533 158.92C205.671 158.231 204.809 157.369 203.775 156.679C203.258 156.162 202.568 155.818 202.051 155.473C199.637 151.336 197.913 147.027 196.362 142.546C196.017 141.684 195.672 140.65 194.983 140.133C194.293 139.615 193.259 139.615 192.397 139.615C190.673 139.615 189.121 139.96 187.742 140.994C187.57 141.167 187.397 141.339 187.225 141.511C187.052 141.684 187.052 141.856 186.88 142.029C186.88 142.201 186.708 142.373 186.708 142.546C186.708 143.063 186.708 143.407 186.708 143.925C186.708 144.614 186.88 145.131 187.052 145.648C187.397 147.027 188.259 148.406 189.121 149.613C191.19 152.715 193.604 155.645 196.189 158.231C196.362 158.403 196.534 158.575 196.879 158.748C197.224 158.92 197.396 159.265 197.569 159.61C197.913 160.127 198.086 160.644 198.431 161.161C198.775 161.678 198.948 162.023 199.465 162.367C199.637 162.54 199.81 162.712 200.155 162.712C201.534 163.402 203.085 164.091 204.637 164.608C205.844 164.953 207.051 165.642 208.257 165.642C208.43 165.642 208.602 165.642 208.602 165.642C208.774 165.47 208.947 165.298 208.947 164.953C208.947 164.436 208.774 163.919 208.257 163.919C208.774 163.919 209.119 164.091 209.636 164.091C209.981 164.091 210.326 164.263 210.843 164.091C211.188 164.091 211.533 163.746 211.705 163.402C211.878 163.057 211.705 162.54 211.36 162.367C211.878 162.367 212.395 161.678 212.222 161.161C212.567 161.506 212.395 160.989 212.222 160.644Z" fill="#FFB78C"/>
<path d="M196.879 158.575C196.879 159.093 197.051 159.61 197.396 159.954C197.741 160.299 198.258 160.299 198.603 160.299C198.948 160.299 199.465 160.127 199.982 160.299C200.499 160.299 201.017 160.644 201.361 160.644C201.706 160.644 202.051 160.644 202.223 160.299C202.396 159.954 202.223 159.61 202.051 159.265C201.879 159.093 201.706 158.92 201.361 158.748C200.672 158.403 199.81 158.403 199.293 157.886C199.12 157.714 198.948 157.541 198.775 157.369C198.431 157.024 197.741 157.024 197.396 157.197C197.224 157.369 197.051 158.058 196.879 158.575Z" fill="#FFE5CC"/>
<path d="M54.1342 407.295L16.8964 385.75C13.9656 384.026 14.3104 381.096 17.7584 379.2L52.9274 358.861C56.3753 356.965 61.3749 356.621 64.3056 358.344L101.371 379.717C104.302 381.441 103.957 384.371 100.509 386.267L65.34 406.606C62.2368 408.674 57.0649 409.019 54.1342 407.295Z" fill="#F2F2F2"/>
<path d="M111.198 387.474L60.3405 358.172C56.3753 355.931 56.8925 351.794 61.5473 349.037L109.818 321.286C114.473 318.528 121.541 318.356 125.507 320.597L176.364 349.898C180.329 352.139 179.812 356.276 175.157 359.034L126.886 386.784C122.231 389.542 115.163 389.887 111.198 387.474Z" fill="#F2F2F2"/>
<path d="M118.611 294.57C118.611 294.915 118.611 295.087 118.438 295.432L118.094 295.604L76.3734 319.39L74.3046 315.943L116.025 292.157L116.37 291.984C116.542 291.984 116.887 291.985 117.232 292.157C117.921 292.502 118.611 293.536 118.611 294.57Z" fill="#735F4F"/>
<path d="M84.8209 279.23L70.1671 350.933V351.105C70.1671 351.45 69.8223 351.622 69.4775 351.794C68.6155 352.312 67.064 352.312 66.0296 351.794C65.6848 351.622 65.5124 351.45 65.34 351.105V350.933V350.76L76.5458 276.989L84.8209 279.23Z" fill="#735F4F"/>
<path d="M168.261 351.277V351.45C168.261 351.794 167.916 351.967 167.572 352.139C166.71 352.656 165.158 352.656 164.124 352.139C163.779 351.967 163.606 351.794 163.434 351.45V351.105L151.194 282.505L158.779 280.953L168.434 350.933L168.261 351.277Z" fill="#735F4F"/>
<path d="M160.676 318.356C160.676 318.701 160.676 318.873 160.503 319.218L160.158 319.39L118.438 343.176L116.37 339.729L158.09 315.943L158.434 315.771C158.607 315.771 158.952 315.77 159.296 315.943C159.986 316.288 160.676 317.494 160.676 318.356Z" fill="#735F4F"/>
<path d="M119.99 304.222V379.545C119.99 379.89 119.645 380.062 119.3 380.234C118.438 380.751 116.887 380.751 116.025 380.234C115.68 380.062 115.335 379.717 115.335 379.373V379.028L112.577 304.222H119.99Z" fill="#735F4F"/>
<path d="M163.779 287.848L122.231 311.979V321.976L163.779 297.845C164.813 297.328 165.158 296.466 165.158 295.776V285.779C165.158 286.469 164.641 287.158 163.779 287.848Z" fill="#B4BCCF"/>
<path d="M68.4431 285.09C67.4088 284.573 66.8916 283.711 66.8916 283.022V293.019C66.8916 293.708 67.4088 294.57 68.4431 295.087L114.99 321.803V311.806L68.4431 285.09Z" fill="#C5CEE3"/>
<path d="M122.231 311.979V321.976C120.335 323.182 117.059 323.182 115.163 321.976V311.979C117.059 313.013 120.162 313.013 122.231 311.979Z" fill="#C5CEE3"/>
<path d="M163.779 283.711C165.675 284.918 165.675 286.641 163.779 287.848L122.231 311.979C120.335 313.185 117.059 313.185 115.163 311.979L68.6155 285.262C66.7192 284.056 66.7192 282.332 68.6155 281.126L110.163 256.995C112.06 255.788 115.335 255.788 117.232 256.995L163.779 283.711Z" fill="#F2F2F2"/>
<path d="M163.779 285.607L122.231 309.738C120.335 310.944 117.059 310.944 115.163 309.738L68.6155 283.022C68.0984 282.677 67.7536 282.332 67.4088 281.987C66.7192 283.022 67.064 284.228 68.6155 285.09L115.163 311.806C117.059 313.013 120.335 313.013 122.231 311.806L163.779 287.675C165.158 286.814 165.675 285.607 164.813 284.573C164.641 285.09 164.296 285.435 163.779 285.607Z" fill="white"/>
<path d="M107.405 277.678L94.1303 269.922V269.06L114.818 258.029L128.265 264.751V265.613L107.405 277.678Z" fill="#FEDD6C"/>
<path d="M114.818 257.167L98.4403 266.647L96.1991 265.268L93.7855 264.406L93.2683 266.819L93.4407 268.715L94.1303 269.06L107.405 276.816L128.265 264.751L114.818 257.167Z" fill="#FADD37"/>
<path d="M127.748 260.614V264.579L107.75 276.127L94.9923 268.715C94.8199 268.543 94.6475 268.371 94.6475 268.198C94.4751 267.509 94.3027 265.958 95.1647 264.923C96.3715 263.372 113.611 259.58 113.611 259.58L127.748 260.614Z" fill="white"/>
<path d="M107.75 273.197L94.3027 266.302L107.75 273.542V273.197Z" fill="#E6E6E6"/>
<path d="M107.75 275.955V271.301L127.748 260.614V264.579L107.75 275.955Z" fill="#E6E6E6"/>
<path d="M127.748 261.476L120.679 265.441L127.748 261.821V261.476Z" fill="white"/>
<path d="M107.75 274.403L114.646 271.129L107.75 274.921V274.403Z" fill="white"/>
<path d="M107.405 276.817V277.678L128.265 265.613V264.751L107.405 276.817Z" fill="#FA8406"/>
<path d="M107.405 272.335L94.1303 264.579V263.717L114.818 252.686L128.265 259.408V260.27L107.405 272.335Z" fill="#FEDD6C"/>
<path d="M107.405 271.473L93.6131 264.062L114.818 251.824L128.265 259.408L107.405 271.473Z" fill="#FADD37"/>
<path d="M107.405 271.473V272.335L128.265 260.27V259.408L107.405 271.473Z" fill="#FA8406"/>
<path d="M94.4751 264.923L95.6819 265.613L107.405 272.335V271.473L95.6819 264.751L94.6475 264.062C94.4751 263.889 94.3027 263.889 94.1303 263.889C93.6131 263.889 93.0959 264.234 93.0959 264.923V268.371C93.0959 269.06 93.4407 269.577 93.9579 269.922L95.6819 270.956L107.405 277.678V276.817L95.6819 270.094L94.6475 269.405C94.6475 269.405 94.6475 269.405 94.4751 269.405H94.3027C93.9579 269.233 93.6131 268.715 93.6131 268.371V265.268C93.6131 264.923 94.1303 264.579 94.4751 264.923Z" fill="#FA8406"/>
<path d="M97.7507 268.198C97.7507 268.198 97.5783 268.371 97.7507 268.198C97.4059 268.543 97.2335 268.715 97.2335 268.888C97.2335 268.888 97.2335 269.06 97.0611 269.06C96.8887 269.577 96.7163 269.922 96.3715 270.439C96.0267 271.129 95.5095 271.473 94.8199 271.818L94.9923 270.784H93.2683C93.9579 270.439 94.4751 269.922 94.8199 269.405C94.9923 269.06 95.1647 268.543 95.5095 268.026C95.5095 268.026 95.5095 267.854 95.6819 267.854C95.8543 267.681 95.8543 267.509 96.0267 267.337L96.1991 267.164L97.7507 268.198Z" fill="#4D4D80"/>
<path d="M103.267 302.499C103.267 302.499 96.1991 293.363 90.3376 291.295C90.3376 291.295 92.9235 285.262 111.37 278.195C111.37 278.195 121.369 284.918 124.3 289.399L103.267 302.499Z" fill="#C5CEE3"/>
<path d="M103.267 302.499C103.267 302.499 109.474 303.877 113.611 306.635L135.161 292.157C135.161 292.157 129.299 287.675 124.3 289.399L103.267 302.499Z" fill="#C5CEE3"/>
<path d="M124.3 289.399C119.99 281.815 111.715 276.989 111.715 276.989C97.7507 282.16 91.1996 288.882 91.1996 288.882C98.6127 291.295 103.267 302.671 103.267 302.671L124.3 289.399Z" fill="white"/>
<path d="M122.059 289.571H122.231C122.403 289.571 122.403 289.744 122.403 289.744C122.403 289.916 122.231 289.916 122.231 290.088C122.059 290.261 122.059 290.261 121.886 290.433C121.714 290.606 121.541 290.778 121.197 290.95H121.024L120.852 290.778C120.68 290.778 120.679 290.606 120.679 290.433C120.679 290.261 120.852 290.261 120.852 290.088C121.369 289.916 121.714 289.744 122.059 289.571Z" fill="#FFA947"/>
<path d="M108.956 297.5C107.75 298.19 106.543 299.051 106.198 300.258C107.233 300.086 108.267 299.568 109.129 299.051C112.404 297.328 120.335 292.157 121.197 291.467C121.541 291.123 121.886 290.606 121.369 290.261C121.197 290.089 120.852 290.089 120.507 290.261C119.473 290.606 109.991 296.811 108.956 297.5Z" fill="#6B6CB3"/>
<path d="M104.991 362.481C104.991 361.274 103.612 360.93 102.578 360.757C100.681 360.413 98.7851 359.896 96.8887 359.551C95.3371 359.206 93.6131 358.861 92.0616 358.689C90.3376 358.517 88.4412 358.517 86.7172 359.034C84.6485 359.723 83.6141 361.619 82.9245 363.515C82.5797 364.377 82.4073 365.411 82.4073 366.273C82.4073 367.997 83.0969 369.548 84.9933 369.548C85.8553 369.548 86.8896 369.203 87.5792 368.686C88.4412 368.169 89.1308 367.652 89.9928 367.307C91.372 366.79 92.9235 366.618 94.4751 366.445C96.7163 366.273 98.7851 366.101 101.026 365.584C101.888 365.411 102.923 365.066 103.612 364.549C104.474 364.205 104.991 363.343 104.991 362.481Z" fill="#4D4D80"/>
<path d="M78.0974 332.834C78.2698 337.488 78.6146 341.97 79.649 346.451C80.8557 351.967 82.9245 357.31 83.6141 362.998C83.6141 363.17 83.6141 363.515 83.7865 363.687C83.9589 363.86 84.1313 363.86 84.3037 363.86C87.4068 364.205 90.51 363.515 93.0959 361.791C93.2683 361.619 93.4407 361.619 93.4407 361.447C93.6131 361.274 93.4407 361.102 93.4407 360.757C93.0959 358.344 92.5787 356.104 92.234 353.69C91.372 347.313 91.7168 340.936 91.372 334.558C91.1996 331.111 91.0272 327.836 90.51 324.389C90.3376 322.837 89.9928 321.114 89.1308 319.735C86.7172 315.943 81.2005 318.356 79.3042 321.631C78.0974 323.872 77.925 326.457 77.925 329.042C78.0974 330.249 78.0974 331.456 78.0974 332.834Z" fill="#F76D31"/>
<path d="M92.4064 372.306C92.4064 372.995 92.4064 373.685 92.5788 374.202C92.9235 375.063 93.9579 375.581 94.9923 375.753C96.0267 375.753 96.8887 375.581 97.9231 375.236C98.785 374.891 99.8194 374.546 100.854 374.374C102.061 374.202 103.267 374.546 104.474 374.374C105.681 374.202 107.06 374.029 108.267 373.512C109.646 372.995 110.853 372.306 111.887 371.271C112.922 370.237 113.784 369.031 113.956 367.652C113.956 367.135 113.956 366.79 113.611 366.445C113.266 366.101 112.922 365.928 112.577 365.928C111.542 365.583 110.68 365.411 109.646 365.239C107.577 364.894 105.509 364.894 103.612 364.894C101.371 364.894 99.3022 365.239 97.2335 366.101C94.4751 367.135 92.5788 369.548 92.4064 372.306Z" fill="#6B6CB3"/>
<path d="M95.5095 324.561C95.3371 324.906 94.9923 325.078 94.8199 325.423C93.4407 326.974 92.5788 328.87 91.8892 330.766C90.6824 333.869 89.8204 336.971 89.648 340.246C89.4756 343.521 89.9928 346.796 90.6824 349.899C91.7168 354.38 93.2683 358.861 93.6131 363.688C93.7855 365.411 93.7855 367.307 93.7855 369.031C93.7855 369.376 93.7855 369.72 93.9579 370.065C94.3027 370.41 94.6475 370.582 95.1647 370.582C98.0955 370.927 101.199 369.72 103.267 367.652C103.44 367.48 103.612 367.307 103.612 366.962C103.612 366.79 103.612 366.445 103.44 366.101C101.199 359.034 103.095 351.622 103.44 344.211C103.612 339.557 103.44 334.903 102.923 330.421C102.578 328.008 102.233 321.459 98.2679 322.838C97.0611 323.182 96.1991 323.872 95.5095 324.561Z" fill="#FFA947"/>
<path d="M89.3032 385.75L87.924 341.453C87.924 340.591 88.6136 339.901 89.4756 339.901C90.3376 339.901 91.0272 340.591 91.0272 341.453L92.4064 385.75C92.4064 386.612 91.7168 387.301 90.8548 387.301C89.9928 387.129 89.3032 386.612 89.3032 385.75Z" fill="#735F4F"/>
<path d="M60.1681 363.86L59.3061 363.343V359.551L60.1681 360.068V363.86Z" fill="#D9D9D9"/>
<path d="M60.1681 360.068L59.3061 359.551L88.4412 342.832L89.3032 343.349L60.1681 360.068Z" fill="#F2F2F2"/>
<path d="M60.1681 363.86V360.068L89.3032 343.349V347.141L60.1681 363.86Z" fill="#D1B7A3"/>
<path d="M58.2717 364.722L59.1337 364.205V360.413L58.2717 360.93V364.722Z" fill="#D9D9D9"/>
<path d="M58.2717 360.93L59.1337 360.413L29.9986 343.693L29.1366 344.21L58.2717 360.93Z" fill="#F2F2F2"/>
<path d="M58.2717 364.722V360.93L29.1366 344.21V348.002L58.2717 364.722Z" fill="#D9D9D9"/>
<path d="M92.0616 339.212L69.8223 352.139V357.31L92.0616 344.383C92.9235 343.866 93.2683 343.176 93.2683 342.659V337.488C93.2683 338.178 92.9235 338.867 92.0616 339.212Z" fill="#DE2910"/>
<path d="M32.0673 344.728C28.6194 342.659 26.8954 340.074 26.8954 337.488V342.659C26.8954 345.245 28.6194 347.83 32.0673 349.898L44.9971 357.31V352.139L32.0673 344.728Z" fill="#ED341A"/>
<path d="M69.8223 352.139V357.31C62.9264 361.274 51.893 361.274 44.9971 357.31V352.139C51.893 356.104 63.0988 356.104 69.8223 352.139Z" fill="#ED341A"/>
<path d="M92.0616 335.765C93.7855 336.799 93.7855 338.35 92.0616 339.384L69.8223 352.312C62.9264 356.276 51.893 356.276 44.9971 352.312L32.0673 344.9C25.1714 340.936 25.1714 334.558 32.0673 330.594L54.3066 317.667C56.0305 316.632 58.7889 316.632 60.5129 317.667L92.0616 335.765Z" fill="#FF5740"/>
<path d="M69.3051 283.194C69.3051 283.194 69.6499 284.4 69.6499 284.573C69.6499 285.09 69.6499 285.607 69.6499 285.952C69.6499 286.814 69.9947 287.503 70.5119 288.192C70.6843 288.537 71.0291 288.882 71.2015 289.227C71.2015 289.227 71.7187 290.261 71.5463 290.261C73.7875 290.088 76.0286 289.916 78.0974 289.571C80.5109 289.227 82.7521 288.882 85.1657 288.537C85.3381 288.537 85.6829 288.537 85.8553 288.71C87.062 289.054 87.924 289.916 89.1308 290.088C90.6824 290.261 92.0616 289.227 93.4407 288.882C95.3371 288.537 97.5783 289.744 99.4746 289.054C99.4746 289.054 99.647 289.054 99.647 288.882C99.647 288.882 99.647 288.71 99.647 288.537C99.4746 287.848 98.9575 287.331 98.2679 286.986C97.5783 286.814 96.8887 286.814 96.0267 286.814C95.3371 286.814 94.4751 286.814 93.7855 286.641C93.6131 286.641 93.6131 286.469 93.4407 286.469C93.4407 286.296 93.6131 286.124 93.7855 286.124C96.1991 285.435 98.6127 285.952 101.026 285.435C101.371 285.435 101.716 285.09 101.543 284.745C101.543 284.573 101.371 284.573 101.371 284.573C101.026 284.228 100.509 284.228 99.9918 284.056C97.9231 283.539 95.8543 283.194 93.6131 282.849C92.9235 282.677 92.4064 282.677 91.7168 282.677C91.5444 282.677 91.372 282.677 91.1996 282.677C90.1652 282.849 89.1308 283.194 87.924 283.194C86.7172 283.366 85.5105 283.366 84.3037 283.366C82.5797 283.366 70.5119 282.677 69.3051 283.194Z" fill="#FFB78C"/>
<path d="M39.8252 333.696C40.6872 335.075 41.894 336.282 43.4455 337.144C46.3763 338.523 49.6518 339.04 52.9274 338.695C56.3753 338.35 59.9957 337.316 63.2712 336.282C66.8916 335.248 70.5119 333.696 73.9599 332.145C77.7526 330.594 81.3729 328.525 84.9933 326.802C86.5449 325.94 88.4412 325.251 89.4756 323.699C90.6824 321.803 89.9928 319.563 88.4412 318.011C87.4068 316.977 85.8553 316.288 84.4761 315.771C81.5453 314.909 78.2698 314.564 75.1666 314.392C71.5463 314.219 68.0984 314.219 64.478 314.219C61.2025 314.219 57.9269 314.047 54.6514 314.564C51.3758 315.081 48.1003 315.943 44.9971 317.322C44.1351 317.667 43.1008 318.184 42.2388 318.701C41.7216 319.046 40.5148 320.08 40.17 318.873C40.17 319.218 39.1356 320.769 38.9632 321.114C37.4116 324.733 37.584 329.904 39.8252 333.696Z" fill="#F76D31"/>
<path d="M46.2039 338.178C48.2727 340.591 51.2034 341.97 54.3066 342.832C59.1337 344.211 64.1332 344.211 68.9603 343.521C73.7875 342.832 78.6146 341.453 83.2693 339.729C87.062 338.35 90.6824 336.971 94.3027 335.42C96.0267 334.558 97.9231 333.696 99.647 332.662C102.578 330.939 103.267 327.491 101.543 324.561C100.681 322.837 98.7851 321.976 96.8887 321.286C93.2683 320.08 89.4756 319.907 85.6829 319.907C80.3386 319.735 75.1666 320.08 69.8223 320.252C63.4436 320.597 57.0649 320.942 51.031 323.01C49.4794 323.527 47.9279 324.216 46.5487 325.251C45.8591 325.768 45.6867 326.285 44.6523 325.94C44.4799 325.768 43.1007 325.078 43.2731 324.561C42.2388 326.457 42.0664 328.525 42.4112 330.594C43.1007 333.524 44.3075 336.109 46.2039 338.178Z" fill="#FFA947"/>
<path d="M40.5148 268.716C39.4804 269.922 38.7908 271.646 38.446 273.025C38.1012 274.921 37.9288 276.644 38.1012 278.54C38.1012 282.849 38.446 287.158 38.9632 291.467C39.9976 299.741 39.308 308.359 38.9632 316.632C38.9632 319.218 38.2736 322.32 39.1356 324.906C39.8252 326.974 41.5492 328.353 43.4455 329.387C51.3758 333.696 61.0301 334.386 69.4775 331.456C71.7187 330.766 73.9599 329.387 74.6494 327.319C74.9942 326.112 74.8218 324.734 74.477 323.527C73.7875 321.114 72.7531 318.873 72.2359 316.46C71.5463 312.496 72.4083 308.359 73.4427 304.567C74.477 300.775 75.5114 296.811 76.3734 293.019C77.2354 289.916 76.7182 288.02 74.477 285.779C71.2015 282.677 67.7536 279.747 64.3056 276.817C62.4092 275.265 60.3405 273.542 58.2717 272.163C55.1686 270.094 51.5482 268.543 47.9279 267.854C46.0315 267.509 42.9284 266.82 41.2044 267.854C41.032 268.371 40.6872 268.543 40.5148 268.716Z" fill="#4D4D80"/>
<path d="M64.9952 247.687C65.1676 247.86 65.1676 248.204 65.34 248.377C65.6848 249.066 65.8572 249.583 65.6848 250.445C65.5124 251.307 65.1676 251.996 64.9952 252.686C64.9952 253.203 65.1676 253.892 65.34 254.409C66.0296 256.478 65.8572 258.718 65.1676 260.614C64.3056 262.51 62.9264 264.234 61.0301 265.268C60.6853 265.441 60.3405 265.613 60.1681 265.785C59.9957 265.958 59.8233 266.302 59.6509 266.647C58.6165 269.577 59.6509 273.197 62.0644 275.265C61.2025 275.265 60.5129 274.921 59.6509 274.748C57.9269 274.059 55.8581 273.542 53.9618 273.369C52.0654 273.197 50.3414 273.369 48.4451 272.852C46.7211 272.508 44.8247 271.473 44.1351 269.75C44.1351 269.577 43.9627 269.405 44.1351 269.233C44.1351 269.06 44.4799 268.888 44.6523 268.888C45.5143 268.371 45.8591 267.164 45.6867 266.13C45.5143 263.028 43.6179 260.27 42.5836 257.34C41.3768 253.892 41.3768 250.1 42.5836 246.825C42.9284 245.791 43.4455 244.757 44.1351 243.895C45.3419 242.516 46.8935 241.482 48.6175 240.965C49.4794 240.62 50.3414 240.448 51.2034 240.448C53.7894 240.103 56.5477 240.448 58.9613 241.655C61.892 243.033 63.7884 245.102 64.9952 247.687Z" fill="#FFE5CC"/>
<path d="M51.7206 239.241C48.9623 239.414 46.0315 240.448 43.9627 242.344C41.894 244.412 40.17 247.687 39.9976 250.617C39.8252 253.375 40.17 255.961 41.032 258.546C41.7216 260.959 43.1007 263.027 44.8247 264.751C45.6867 265.613 46.5487 266.475 47.9279 266.302C49.3071 266.13 50.6862 265.785 51.893 265.096C53.4446 264.062 54.6514 262.683 55.5133 261.304C56.3753 259.925 57.2373 258.718 58.6165 257.857C59.6509 257.167 60.8577 256.65 61.892 255.788C64.478 253.72 64.8228 249.928 64.478 246.825C64.3056 244.757 63.4436 243.378 61.892 242.172C60.5129 240.965 58.7889 240.276 57.0649 239.931C55.341 239.241 53.4446 239.069 51.7206 239.241Z" fill="#754600"/>
<path d="M43.1007 266.13C43.2731 266.475 43.2731 266.992 43.2731 267.337C43.2731 267.681 42.9284 268.026 42.756 268.198C41.2044 270.267 40.6872 272.852 41.2044 275.265C41.3768 275.782 41.3768 276.127 41.3768 276.644C41.3768 277.161 41.032 277.678 40.8596 278.023C40.17 279.402 40.17 281.126 40.5148 282.505C40.6872 282.849 40.6872 283.022 40.6872 283.366C40.6872 283.711 40.5148 284.056 40.3424 284.401C39.4804 286.641 39.1356 289.399 40.5148 291.467C40.6872 291.812 41.032 292.157 41.032 292.502C41.032 292.846 40.8596 293.191 40.6872 293.536C39.8252 295.087 39.8252 297.155 40.3424 298.707C40.6872 299.568 41.032 300.258 41.2044 301.12C41.2044 302.154 40.8596 303.016 40.3424 303.878C38.7908 306.98 38.1012 310.427 37.9288 313.875C37.9288 315.943 38.2736 318.184 39.8252 319.218C42.4112 314.047 44.1351 308.187 43.4455 302.499C43.4455 301.809 43.2731 301.292 43.4455 300.603C43.6179 300.258 43.7903 299.741 43.9627 299.396C44.6523 298.017 45.1695 296.294 45.1695 294.742C45.1695 293.536 44.9971 292.329 44.9971 291.123C45.1695 289.054 46.0315 286.986 45.5143 285.09C45.3419 284.401 45.1695 283.883 45.1695 283.194C45.1695 282.677 45.5143 282.16 45.6867 281.643C46.0315 280.609 46.0315 279.574 45.8591 278.54C45.6867 278.195 45.6867 277.851 45.6867 277.334C45.6867 276.817 46.0315 276.472 46.2039 276.127C47.4107 274.059 47.9279 271.646 47.4107 269.233C47.4107 269.06 47.2383 268.715 47.4107 268.543C47.4107 268.198 47.5831 268.026 47.9279 267.681C48.9623 266.302 49.6518 264.406 49.1347 262.683C48.6175 261.132 46.5487 259.58 44.8247 260.27C42.756 261.476 42.756 264.579 43.1007 266.13Z" fill="#754600"/>
<path d="M109.991 291.467C109.818 291.295 109.646 291.295 109.474 291.123C107.922 290.606 106.198 290.778 104.474 290.606C104.302 290.606 104.302 290.606 104.129 290.433C103.957 290.261 104.302 290.089 104.474 290.089C105.681 289.744 107.06 289.744 108.095 289.399C108.267 289.227 108.612 289.054 108.612 288.882C108.612 288.71 108.267 288.537 108.095 288.537C107.405 288.365 106.888 288.193 106.198 288.02C106.198 287.675 106.026 287.503 105.853 287.331C105.336 286.814 104.647 286.641 103.785 286.469C103.785 286.124 103.44 285.952 103.095 285.779C102.578 285.435 101.888 285.09 101.371 285.262C100.854 285.262 100.509 285.607 100.164 285.952C98.2679 287.331 89.8204 294.398 88.0964 295.604C87.4068 296.121 86.5448 296.811 85.8553 296.638C85.5105 296.638 85.3381 296.294 85.1657 296.121C84.6485 295.777 84.1313 295.432 83.6141 294.915C82.2349 293.881 81.0281 292.674 79.649 291.64C78.9594 291.123 78.4422 290.433 77.7526 289.916C77.2354 289.399 76.5458 288.882 75.8562 288.365C75.339 287.848 74.477 287.331 73.6151 287.331C73.2703 287.331 72.7531 287.503 72.2359 287.675C71.7187 287.675 71.3739 287.848 70.8567 287.848C69.1327 288.193 67.5812 288.882 66.5468 290.261C65.5124 291.64 65.34 293.708 65.6848 295.432C66.0296 296.983 67.2364 298.362 68.4431 299.569C70.8567 301.809 73.9599 303.188 77.063 304.395C78.9594 305.084 80.6833 305.946 82.5797 306.463C83.4417 306.808 84.4761 306.98 85.5105 307.153C86.0277 307.153 86.3725 307.325 86.8896 307.325C87.4068 307.325 87.7516 306.98 88.2688 306.635C89.1308 306.118 89.8204 305.601 90.51 305.084C91.8892 304.05 93.2683 302.671 94.4751 301.292C96.0267 299.569 97.2335 297.673 98.4403 295.604C98.6127 295.432 98.9575 295.432 99.1298 295.259C100.337 294.915 101.371 294.398 102.405 293.881C102.923 293.536 103.44 293.191 104.129 292.846C105.853 292.157 107.922 292.674 109.818 292.329C109.991 292.329 110.163 292.329 110.163 292.157C110.163 291.985 110.163 291.64 109.991 291.467Z" fill="#FFE5CC"/>
<path d="M58.9613 284.056C58.2717 285.952 58.7889 288.537 59.4785 290.261C59.6509 290.778 59.9957 291.295 60.1681 291.812C61.2025 293.536 62.5816 295.259 63.9608 296.638C64.6504 297.328 65.5124 298.017 66.202 298.707C66.8916 299.224 67.5812 300.258 68.4431 300.258C68.7879 300.258 69.1327 300.258 69.4775 300.086C71.7187 299.396 73.6151 297.845 74.9942 296.121C76.3734 294.398 77.4078 292.157 78.0974 289.916C78.0974 289.744 78.0974 289.571 78.0974 289.399C78.0974 289.227 77.925 289.227 77.925 289.054C74.9942 286.124 72.0635 283.022 68.2707 281.298C66.3744 280.436 64.1332 279.919 62.0644 280.609C60.6853 281.126 59.6509 281.987 58.9613 283.194C59.1337 283.539 59.1337 283.711 58.9613 284.056Z" fill="#6B6CB3"/>
<path d="M66.7192 314.736C59.4785 313.358 31.7225 307.152 26.5506 295.604C26.3782 295.432 26.2058 295.432 26.0334 295.432L24.999 295.776C24.999 295.776 25.5162 297.328 25.6886 297.328C25.6886 297.328 25.861 297.155 25.861 296.983V305.084C23.4475 319.39 57.0649 327.319 66.202 329.215L66.3744 329.732L67.5812 329.215C68.0983 329.043 68.4431 328.525 68.4431 327.836V316.805C68.4431 315.771 67.5812 314.909 66.7192 314.736Z" fill="#FF5740"/>
<path d="M24.6542 296.294V305.774C22.2407 320.424 56.8925 328.181 65.34 329.904C66.3744 330.077 67.2364 329.387 67.2364 328.353V317.322C67.2364 316.288 66.5468 315.426 65.5124 315.254C58.4441 313.702 30.5158 307.497 25.3438 296.121C25.1714 295.777 24.6542 295.777 24.6542 296.294Z" fill="#ED341A"/>
<path d="M61.2025 327.664L59.6509 400.056C59.6509 400.918 58.9613 401.607 58.0993 401.607C57.2373 401.607 56.5477 400.918 56.5477 400.056L58.0993 328.008L56.7201 316.632V316.46C56.7201 316.288 56.8925 316.115 57.2373 315.943C57.7545 315.598 58.7889 315.598 59.4785 315.943C59.8233 316.115 59.9957 316.288 59.9957 316.46L61.2025 327.664Z" fill="#735F4F"/>
<path d="M59.8233 316.115C59.8233 316.288 59.6509 316.632 59.3061 316.805C58.7889 317.15 57.7545 317.15 57.0649 316.805C56.8925 316.632 56.7201 316.46 56.7201 316.288V316.115C56.7201 315.943 56.8925 315.771 57.2373 315.598C57.7545 315.254 58.7889 315.254 59.4785 315.598C59.6509 315.771 59.8233 315.943 59.8233 316.115Z" fill="#D1B7A3"/>
<path d="M31.5501 315.426L29.9986 383.165C29.9986 384.026 29.309 384.716 28.447 384.716C27.585 384.716 26.8954 384.026 26.8954 383.165L28.447 315.771L27.0678 304.05V303.878C27.0678 303.705 27.2402 303.533 27.585 303.36C27.585 303.36 27.585 303.36 27.7574 303.36L29.1366 303.188C29.4814 303.188 29.6538 303.36 29.8262 303.36C30.171 303.533 30.3434 303.705 30.3434 303.878L31.5501 315.426Z" fill="#735F4F"/>
<path d="M30.171 303.878C30.171 304.05 29.9986 304.395 29.6538 304.567C29.1366 304.912 28.1022 304.912 27.4126 304.567C27.2402 304.395 27.0678 304.222 27.0678 304.05V303.878C27.0678 303.705 27.2402 303.533 27.585 303.36C27.585 303.36 27.585 303.36 27.7574 303.36C28.1022 303.188 28.6194 303.188 29.1366 303.188C29.4814 303.188 29.6538 303.36 29.8262 303.36C29.9986 303.36 30.171 303.533 30.171 303.878C30.171 303.705 30.171 303.705 30.171 303.878Z" fill="#D1B7A3"/>
<path d="M161.365 472.966L124.127 451.421C121.197 449.697 121.541 446.767 124.989 444.871L160.158 424.532C163.606 422.636 168.606 422.291 171.537 424.015L208.602 445.388C211.533 447.111 211.188 450.042 207.74 451.938L172.571 472.276C169.468 474.345 164.296 474.517 161.365 472.966Z" fill="#F2F2F2"/>
<path d="M218.429 453.144L167.572 423.842C163.606 421.602 164.124 417.465 168.778 414.707L217.05 386.957C221.704 384.199 228.773 384.027 232.738 386.267L283.595 415.569C287.56 417.81 287.043 421.946 282.388 424.704L234.117 452.455C229.462 455.213 222.394 455.557 218.429 453.144Z" fill="#F2F2F2"/>
<path d="M225.842 360.068C225.842 360.413 225.842 360.585 225.669 360.93L225.325 361.102L183.604 384.888L181.536 381.441L223.256 357.655L223.601 357.483C223.773 357.483 224.118 357.483 224.463 357.655C225.152 358 225.842 359.206 225.842 360.068Z" fill="#735F4F"/>
<path d="M192.052 344.9L177.398 416.603V416.776C177.398 417.12 177.053 417.293 176.709 417.465C175.847 417.982 174.295 417.982 173.261 417.465C172.916 417.293 172.743 417.12 172.571 416.776V416.603V416.431L183.949 342.832L192.052 344.9Z" fill="#735F4F"/>
<path d="M275.492 416.776V416.948C275.492 417.293 275.147 417.465 274.803 417.637C273.941 418.154 272.389 418.154 271.355 417.637C271.01 417.465 270.837 417.293 270.665 416.948V416.603L258.253 348.003L265.838 346.451L275.492 416.431V416.776Z" fill="#735F4F"/>
<path d="M267.907 384.026C267.907 384.371 267.907 384.544 267.734 384.888L267.39 385.061L225.669 408.847L223.601 405.4L265.321 381.613L265.666 381.441C265.838 381.441 266.183 381.441 266.528 381.613C267.217 381.958 267.907 383.165 267.907 384.026Z" fill="#735F4F"/>
<path d="M227.221 369.72V445.043C227.221 445.388 226.876 445.56 226.531 445.733C225.669 446.25 224.118 446.25 223.256 445.733C222.911 445.56 222.566 445.215 222.566 444.871V444.526L219.808 369.72H227.221Z" fill="#735F4F"/>
<path d="M271.01 353.346L229.462 377.477V387.474L271.01 363.343C272.044 362.826 272.389 361.964 272.389 361.275V351.278C272.389 352.139 271.872 352.829 271.01 353.346Z" fill="#B4BCCF"/>
<path d="M175.674 350.761C174.64 350.243 174.123 349.382 174.123 348.692V358.689C174.123 359.379 174.64 360.24 175.674 360.758L222.221 387.474V377.477L175.674 350.761Z" fill="#C5CEE3"/>
<path d="M229.462 377.649V387.646C227.566 388.853 224.29 388.853 222.394 387.646V377.649C224.29 378.683 227.393 378.683 229.462 377.649Z" fill="#C5CEE3"/>
<path d="M271.01 349.209C272.906 350.416 272.906 352.139 271.01 353.346L229.462 377.477C227.566 378.683 224.29 378.683 222.394 377.477L175.847 350.76C173.95 349.554 173.95 347.83 175.847 346.624L217.394 322.493C219.291 321.286 222.566 321.286 224.463 322.493L271.01 349.209Z" fill="#F2F2F2"/>
<path d="M271.01 351.278L229.462 375.408C227.566 376.615 224.29 376.615 222.394 375.408L175.847 348.692C175.329 348.347 174.985 348.003 174.64 347.658C173.95 348.692 174.295 349.899 175.847 350.76L222.394 377.477C224.29 378.683 227.566 378.683 229.462 377.477L271.01 353.346C272.389 352.484 272.906 351.278 272.044 350.243C271.872 350.588 271.527 350.933 271.01 351.278Z" fill="white"/>
<path d="M207.223 367.48L193.948 359.723V358.862L214.808 347.83L228.083 354.552V355.414L207.223 367.48Z" fill="#FEDD6C"/>
<path d="M214.808 346.796L198.431 356.276L196.189 355.07L193.776 354.035L193.259 356.621L193.431 358.517L193.948 358.862L207.223 366.618L228.083 354.552L214.808 346.796Z" fill="#FADD37"/>
<path d="M227.566 350.416V354.38L207.568 365.928L194.81 358.517C194.638 358.344 194.466 358.172 194.466 358C194.293 357.31 194.121 355.759 194.983 354.725C196.189 353.174 213.429 349.382 213.429 349.382L227.566 350.416Z" fill="white"/>
<path d="M207.568 362.998L194.293 356.104L207.568 363.343V362.998Z" fill="#E6E6E6"/>
<path d="M207.568 365.756V360.93L227.566 350.416V354.208L207.568 365.756Z" fill="#E6E6E6"/>
<path d="M227.566 351.278L220.497 355.07L227.566 351.622V351.278Z" fill="white"/>
<path d="M207.568 364.205L214.636 360.758L207.568 364.722V364.205Z" fill="white"/>
<path d="M207.223 366.618V367.48L228.083 355.414V354.552L207.223 366.618Z" fill="#FA8406"/>
<path d="M207.223 362.136L193.948 354.38V353.518L214.808 342.315L228.083 349.209V350.071L207.223 362.136Z" fill="#FEDD6C"/>
<path d="M207.223 361.102L193.431 353.863L214.808 341.453L228.083 349.209L207.223 361.102Z" fill="#FADD37"/>
<path d="M207.223 361.102V362.136L228.083 350.071V349.209L207.223 361.102Z" fill="#FA8406"/>
<path d="M194.293 354.552L195.5 355.242L207.223 361.964V361.102L195.5 354.38L194.466 353.691C194.293 353.518 194.121 353.518 193.948 353.518C193.431 353.518 192.914 353.863 192.914 354.552V358C192.914 358.689 193.259 359.206 193.776 359.551L195.5 360.585L207.223 367.307V366.446L195.5 359.723L194.466 359.034C194.466 359.034 194.466 359.034 194.293 359.034H194.121C193.776 358.862 193.431 358.344 193.431 358V355.07C193.604 354.725 193.948 354.38 194.293 354.552Z" fill="#FA8406"/>
<path d="M197.741 358C197.569 358 197.569 358 197.741 358C197.396 358.344 197.224 358.517 197.224 358.689C197.224 358.689 197.224 358.862 197.051 358.862C196.879 359.379 196.707 359.723 196.362 360.24C196.017 360.93 195.5 361.275 194.81 361.619L194.983 360.585H193.259C193.948 360.24 194.466 359.723 194.81 359.206C194.983 358.862 195.155 358.344 195.5 357.827C195.5 357.827 195.5 357.655 195.672 357.655C195.845 357.483 195.845 357.31 196.017 357.138L196.189 356.966L197.741 358Z" fill="#102D91"/>
<path d="M240.323 359.206C240.323 359.206 233.427 350.243 227.738 348.347C227.738 348.347 230.324 342.487 248.081 335.765C248.081 335.765 257.735 342.315 260.494 346.624L240.323 359.206Z" fill="#C5CEE3"/>
<path d="M240.323 359.206C240.323 359.206 246.357 360.585 250.322 363.171L271.182 349.209C271.182 349.209 265.493 344.728 260.666 346.451L240.323 359.206Z" fill="#C5CEE3"/>
<path d="M260.666 346.451C256.356 339.04 248.426 334.386 248.426 334.386C234.979 339.385 228.6 345.934 228.6 345.934C235.841 348.347 240.323 359.206 240.323 359.206L260.666 346.451Z" fill="white"/>
<path d="M258.597 346.624H258.77C258.942 346.624 258.942 346.796 258.942 346.796C258.942 346.968 258.942 346.968 258.77 347.141C258.597 347.313 258.597 347.313 258.425 347.485C258.252 347.658 258.08 347.83 257.735 348.003H257.563L257.391 347.83C257.218 347.83 257.218 347.658 257.218 347.485C257.218 347.313 257.391 347.313 257.391 347.313C257.908 346.968 258.252 346.796 258.597 346.624Z" fill="#FFA947"/>
<path d="M245.84 354.208C244.805 354.897 243.599 355.759 243.082 356.965C244.116 356.793 244.978 356.276 246.012 355.759C249.288 354.035 256.873 349.037 257.735 348.347C258.08 348.003 258.425 347.485 257.908 347.141C257.735 346.968 257.39 346.968 257.218 347.141C256.011 347.658 246.874 353.518 245.84 354.208Z" fill="#85A000"/>
<path d="M212.222 428.151C212.222 426.945 210.843 426.6 209.809 426.428C207.913 426.083 206.016 425.566 204.12 425.221C202.568 424.877 200.844 424.532 199.293 424.359C197.569 424.187 195.672 424.187 193.948 424.704C191.88 425.394 190.845 427.29 190.156 429.186C189.811 430.047 189.638 431.082 189.638 431.943C189.638 433.667 190.328 435.218 192.224 435.218C193.086 435.218 194.121 434.874 194.81 434.357C195.672 433.839 196.362 433.322 197.224 432.978C198.603 432.461 200.155 432.288 201.706 432.116C203.947 431.943 206.016 431.771 208.257 431.254C209.119 431.082 210.154 430.737 210.843 430.22C211.705 429.875 212.222 429.013 212.222 428.151Z" fill="#4D4D80"/>
<path d="M185.328 398.505C185.501 403.159 185.846 407.64 186.88 412.122C188.087 417.637 190.156 422.981 190.845 428.669C190.845 428.841 190.845 429.186 191.018 429.358C191.19 429.53 191.362 429.53 191.535 429.53C194.638 429.875 197.741 429.186 200.327 427.462C200.499 427.29 200.672 427.29 200.672 427.117C200.844 426.945 200.672 426.773 200.672 426.428C200.327 424.015 199.81 421.774 199.465 419.361C198.603 412.984 198.948 406.606 198.603 400.229C198.431 396.781 198.258 393.506 197.741 390.059C197.569 388.508 197.224 386.784 196.362 385.405C193.948 381.613 188.432 384.027 186.535 387.301C185.328 389.542 185.156 392.128 185.156 394.713C185.328 395.92 185.328 397.126 185.328 398.505Z" fill="#F76D31"/>
<path d="M199.637 437.976C199.637 438.666 199.637 439.355 199.81 439.872C200.155 440.734 201.189 441.251 202.223 441.423C203.258 441.423 204.12 441.251 205.154 440.906C206.016 440.562 207.051 440.217 208.085 440.045C209.292 439.872 210.498 440.217 211.705 440.045C212.912 439.872 214.291 439.7 215.498 439.183C216.877 438.666 218.084 437.976 219.118 436.942C220.153 435.908 221.015 434.701 221.187 433.322C221.187 432.805 221.187 432.461 220.842 432.116C220.497 431.771 220.153 431.599 219.808 431.599C218.774 431.254 217.912 431.082 216.877 430.909C214.808 430.565 212.74 430.565 210.843 430.565C208.602 430.565 206.533 430.909 204.465 431.771C201.706 432.633 199.81 435.046 199.637 437.976Z" fill="#6B6CB3"/>
<path d="M202.741 390.232C202.568 390.576 202.223 390.749 202.051 391.093C200.672 392.645 199.81 394.541 199.12 396.437C197.913 399.539 197.051 402.642 196.879 405.917C196.707 409.191 197.224 412.466 197.913 415.569C198.948 420.05 200.499 424.532 200.844 429.358C201.017 431.082 201.017 432.978 201.017 434.701C201.017 435.046 201.017 435.391 201.189 435.735C201.534 436.08 201.879 436.252 202.396 436.252C205.327 436.597 208.43 435.391 210.498 433.322C210.671 433.15 210.843 432.978 210.843 432.633C210.843 432.461 210.843 432.116 210.671 431.771C208.43 424.704 210.326 417.293 210.671 409.881C210.843 405.227 210.671 400.573 210.154 396.092C209.809 393.679 209.464 387.129 205.499 388.508C204.292 388.68 203.43 389.37 202.741 390.232Z" fill="#FFA947"/>
<path d="M196.534 451.248L195.155 406.951C195.155 406.089 195.845 405.4 196.707 405.4C197.569 405.4 198.258 406.089 198.258 406.951L199.637 451.248C199.637 452.11 198.948 452.799 198.086 452.799C197.224 452.799 196.534 452.11 196.534 451.248Z" fill="#735F4F"/>
<path d="M167.399 429.53L166.537 429.013V425.221L167.399 425.738V429.53Z" fill="#D9D9D9"/>
<path d="M167.399 425.738L166.537 425.221L195.5 408.33L196.534 408.847L167.399 425.738Z" fill="#F2F2F2"/>
<path d="M167.399 429.53V425.738L196.534 408.847V412.811L167.399 429.53Z" fill="#D1B7A3"/>
<path d="M165.503 430.392L166.365 429.875V426.083L165.503 426.6V430.392Z" fill="#D9D9D9"/>
<path d="M165.503 426.6L166.365 426.083L137.23 409.364L136.368 409.881L165.503 426.6Z" fill="#F2F2F2"/>
<path d="M165.503 430.392V426.6L136.368 409.881V413.673L165.503 430.392Z" fill="#D9D9D9"/>
<path d="M199.293 404.882L177.053 417.81V422.981L199.293 410.053C200.155 409.536 200.499 408.847 200.499 408.33V403.159C200.499 403.848 200.155 404.365 199.293 404.882Z" fill="#DE2910"/>
<path d="M139.298 410.226C135.85 408.157 134.126 405.572 134.126 402.986V408.157C134.126 410.743 135.85 413.328 139.298 415.397L152.228 422.808V417.637L139.298 410.226Z" fill="#ED341A"/>
<path d="M177.053 417.81V422.981C170.158 426.945 159.124 426.945 152.228 422.981V417.81C159.124 421.774 170.33 421.774 177.053 417.81Z" fill="#ED341A"/>
<path d="M199.293 401.263C201.017 402.297 201.017 403.848 199.293 404.882L177.053 417.81C170.158 421.774 159.124 421.774 152.228 417.81L139.298 410.398C132.403 406.434 132.403 400.056 139.298 396.092L161.538 383.165C163.262 382.13 166.02 382.13 167.744 383.165L199.293 401.263Z" fill="#FF5740"/>
<path d="M176.536 348.692C176.536 348.692 176.881 349.899 176.881 350.071C176.881 350.588 176.881 351.105 176.881 351.45C176.881 352.312 177.226 353.001 177.743 353.691C177.915 354.035 178.26 354.38 178.433 354.725C178.433 354.725 178.95 355.759 178.777 355.759C181.019 355.587 183.26 355.414 185.328 355.07C187.742 354.725 189.983 354.38 192.397 354.035C192.569 354.035 192.914 354.035 193.086 354.208C194.293 354.552 195.155 355.414 196.362 355.587C197.913 355.759 199.293 354.725 200.672 354.38C202.568 354.035 204.809 355.242 206.706 354.552C206.706 354.552 206.878 354.552 206.878 354.38C206.878 354.38 206.878 354.208 206.878 354.035C206.706 353.346 206.189 352.829 205.499 352.484C204.809 352.312 204.12 352.312 203.258 352.312C202.568 352.312 201.706 352.312 201.017 352.139C200.844 352.139 200.844 351.967 200.672 351.967C200.672 351.795 200.844 351.622 201.017 351.622C203.43 350.933 205.844 351.45 208.257 350.933C208.602 350.933 208.947 350.588 208.947 350.243C208.947 350.071 208.774 350.071 208.774 350.071C208.43 349.726 207.912 349.726 207.395 349.554C205.327 349.037 203.258 348.692 201.017 348.347C200.327 348.175 199.81 348.175 199.12 348.175C198.948 348.175 198.775 348.175 198.603 348.175C197.569 348.347 196.534 348.692 195.327 348.692C194.121 348.864 192.914 348.864 191.707 348.864C189.811 349.037 177.743 348.347 176.536 348.692Z" fill="#FFB78C"/>
<path d="M147.056 399.195C147.918 400.573 149.125 401.78 150.677 402.642C153.607 404.021 156.883 404.538 160.158 404.193C163.606 403.848 167.227 402.814 170.502 401.78C174.123 400.746 177.743 399.195 181.191 397.643C184.984 396.092 188.604 394.024 192.224 392.3C193.776 391.438 195.672 390.749 196.707 389.197C197.913 387.301 197.224 385.061 195.672 383.51C194.638 382.475 193.086 381.786 191.707 381.269C188.776 380.407 185.501 380.062 182.398 379.89C178.777 379.718 175.329 379.718 171.709 379.718C168.434 379.718 165.158 379.545 161.882 380.062C158.607 380.579 155.331 381.441 152.228 382.82C151.366 383.165 150.332 383.682 149.47 384.199C148.953 384.544 147.746 385.578 147.401 384.371C147.401 384.716 146.367 386.267 146.194 386.612C144.643 390.404 144.815 395.575 147.056 399.195Z" fill="#F76D31"/>
<path d="M153.435 403.848C155.504 406.261 158.435 407.64 161.538 408.502C166.365 409.881 171.364 409.881 176.191 409.192C181.019 408.502 185.846 407.123 190.5 405.4C194.293 404.021 197.913 402.642 201.534 401.091C203.258 400.229 205.154 399.367 206.878 398.333C209.809 396.609 210.498 393.162 208.775 390.232C207.913 388.508 206.016 387.646 204.12 386.957C200.499 385.75 196.707 385.578 192.914 385.578C187.57 385.405 182.398 385.75 177.053 385.923C170.675 386.267 164.296 386.612 158.262 388.68C156.711 389.197 155.159 389.887 153.78 390.921C153.09 391.438 152.918 391.955 151.883 391.611C151.711 391.438 150.332 390.749 150.504 390.232C149.47 392.128 149.297 394.196 149.642 396.264C150.159 399.195 151.539 401.78 153.435 403.848Z" fill="#FFA947"/>
<path d="M147.746 334.386C146.711 335.592 146.022 337.316 145.677 338.695C145.332 340.591 145.16 342.315 145.332 344.211C145.332 348.52 145.677 352.829 146.194 357.138C147.229 365.411 146.539 374.029 146.194 382.303C146.194 384.888 145.505 387.991 146.367 390.576C147.056 392.645 148.78 394.024 150.677 395.058C158.607 399.367 168.261 400.056 176.709 397.126C178.95 396.437 181.191 395.058 181.881 392.989C182.225 391.783 182.053 390.404 181.708 389.197C181.019 386.784 179.984 384.544 179.467 382.131C178.777 378.166 179.639 374.029 180.674 370.237C181.708 366.445 182.743 362.481 183.604 358.689C184.466 355.587 183.949 353.691 181.708 351.45C178.433 348.347 174.985 345.417 171.537 342.487C169.64 340.936 167.572 339.212 165.503 337.833C162.4 335.765 158.779 334.214 155.159 333.524C153.263 333.179 150.159 332.49 148.435 333.524C148.263 333.869 147.918 334.214 147.746 334.386Z" fill="#4D4D80"/>
<path d="M172.226 313.358C172.399 313.53 172.399 313.875 172.571 314.047C172.916 314.737 173.088 315.254 172.916 316.115C172.743 316.977 172.399 317.667 172.226 318.356C172.226 318.873 172.399 319.563 172.571 320.08C173.261 322.148 173.088 324.389 172.399 326.285C171.537 328.181 170.157 329.905 168.261 330.939C167.916 331.111 167.572 331.283 167.399 331.456C167.227 331.628 167.054 331.973 166.882 332.318C165.848 335.248 166.882 338.867 169.296 340.936C168.434 340.936 167.744 340.591 166.882 340.419C165.158 339.729 163.089 339.212 161.193 339.04C159.296 338.867 157.572 339.04 155.676 338.523C153.952 338.178 152.056 337.144 151.366 335.42C151.366 335.248 151.194 335.075 151.366 334.903C151.366 334.731 151.711 334.558 151.883 334.558C152.745 334.041 153.09 332.835 152.918 331.801C152.745 328.698 150.849 325.94 149.815 323.01C148.608 319.563 148.608 315.771 149.815 312.496C150.159 311.462 150.677 310.427 151.366 309.566C152.573 308.187 154.125 307.153 155.849 306.635C156.711 306.291 157.572 306.118 158.434 306.118C161.02 305.774 163.779 306.118 166.192 307.325C169.123 308.704 171.019 310.772 172.226 313.358Z" fill="#FFE5CC"/>
<path d="M158.952 304.74C156.193 304.912 153.263 305.946 151.194 307.842C147.056 311.979 146.022 318.873 146.539 324.389C147.056 329.732 152.056 333.869 157.055 335.42C161.02 336.627 165.503 336.454 169.468 335.248C171.019 334.731 172.571 334.041 173.088 332.49C173.433 331.111 172.399 330.422 171.881 329.387C171.364 328.526 171.019 327.491 170.847 326.63C170.33 325.078 170.157 323.355 170.33 321.803C170.502 320.08 171.019 318.873 171.364 317.322C171.709 315.598 171.881 313.875 171.709 312.323C171.537 310.255 170.675 308.876 169.123 307.67C167.744 306.463 166.02 305.774 164.296 305.429C162.572 304.912 160.676 304.74 158.952 304.74Z" fill="#754600"/>
<path d="M217.222 357.138C217.05 356.966 216.877 356.966 216.705 356.793C215.153 356.276 213.429 356.448 211.705 356.276C211.533 356.276 211.533 356.276 211.36 356.104C211.188 355.931 211.533 355.759 211.705 355.759C212.912 355.414 214.291 355.414 215.326 355.07C215.498 354.897 215.843 354.725 215.843 354.552C215.843 354.38 215.498 354.208 215.326 354.208C214.636 354.035 214.119 353.863 213.429 353.691C213.429 353.346 213.257 353.174 213.084 353.001C212.567 352.484 211.878 352.312 211.016 352.139C211.016 351.795 210.671 351.622 210.326 351.45C209.809 351.105 209.119 350.76 208.602 350.933C208.085 350.933 207.74 351.278 207.395 351.622C205.499 353.001 197.051 360.068 195.328 361.275C194.638 361.792 193.776 362.481 193.086 362.309C192.742 362.309 192.569 361.964 192.397 361.792C191.88 361.447 191.362 361.102 190.845 360.585C189.466 359.551 188.259 358.344 186.88 357.31C186.19 356.793 185.673 356.104 184.984 355.587C184.466 355.07 183.777 354.552 183.087 354.035C182.57 353.518 181.708 353.001 180.846 353.001C180.501 353.001 179.984 353.174 179.467 353.346C178.95 353.346 178.605 353.518 178.088 353.518C176.364 353.863 174.812 354.552 173.778 355.931C172.743 357.31 172.571 359.379 172.916 361.102C173.261 362.654 174.467 364.032 175.674 365.239C178.088 367.48 181.191 368.859 184.294 370.065C186.19 370.755 187.914 371.616 189.811 372.133C190.673 372.478 191.707 372.651 192.742 372.823C193.259 372.823 193.604 372.995 194.121 372.995C194.638 372.995 194.983 372.651 195.5 372.306C196.362 371.789 197.051 371.272 197.741 370.755C199.12 369.72 200.499 368.341 201.706 366.963C203.258 365.239 204.465 363.343 205.671 361.275C205.844 361.102 206.189 361.102 206.361 360.93C207.568 360.585 208.602 360.068 209.636 359.551C210.154 359.206 210.671 358.862 211.36 358.517C213.084 357.827 215.153 358.344 217.05 358C217.222 358 217.394 358 217.394 357.827C217.394 357.483 217.394 357.31 217.222 357.138Z" fill="#FFE5CC"/>
<path d="M166.192 349.726C165.503 351.622 166.02 354.208 166.71 355.931C166.882 356.448 167.227 356.965 167.399 357.483C168.434 359.206 169.813 360.93 171.192 362.309C171.881 362.998 172.743 363.688 173.433 364.377C174.123 364.894 174.812 365.928 175.674 365.928C176.019 365.928 176.364 365.928 176.709 365.756C178.95 365.067 180.846 363.515 182.225 361.792C183.604 360.068 184.639 357.827 185.328 355.587C185.328 355.414 185.328 355.242 185.328 355.069C185.328 354.897 185.156 354.897 185.156 354.725C182.225 351.795 179.295 348.692 175.502 346.968C173.605 346.107 171.364 345.59 169.296 346.279C167.916 346.796 166.882 347.658 166.192 348.864C166.365 349.037 166.365 349.382 166.192 349.726Z" fill="#6B6CB3"/>
<path d="M173.95 380.235C166.71 378.856 138.954 372.651 133.782 361.102C133.609 360.93 133.437 360.93 133.264 360.93L132.23 361.275C132.23 361.275 132.747 362.826 132.92 362.826C132.92 362.826 133.092 362.654 133.092 362.481V370.582C130.679 384.888 164.296 392.817 173.433 394.713L173.605 395.23L174.812 394.713C175.329 394.541 175.674 394.024 175.674 393.334V382.303C175.502 381.441 174.812 380.579 173.95 380.235Z" fill="#FF5740"/>
<path d="M131.885 361.792V371.272C129.472 385.923 164.124 393.679 172.571 395.403C173.605 395.575 174.467 394.886 174.467 393.851V382.82C174.467 381.786 173.778 380.924 172.743 380.752C165.503 379.373 137.747 373.168 132.575 361.619C132.403 361.275 131.885 361.447 131.885 361.792Z" fill="#ED341A"/>
<path d="M168.434 393.162L166.882 465.554C166.882 466.416 166.192 467.106 165.33 467.106C164.468 467.106 163.779 466.416 163.779 465.554L165.33 393.506L163.951 382.131V381.958C163.951 381.786 164.124 381.613 164.468 381.441C164.986 381.096 166.02 381.096 166.71 381.441C167.054 381.613 167.227 381.786 167.227 381.958L168.434 393.162Z" fill="#735F4F"/>
<path d="M167.054 381.786C167.054 381.958 166.882 382.303 166.537 382.475C166.02 382.82 164.986 382.82 164.296 382.475C164.124 382.303 163.951 382.131 163.951 381.958V381.786C163.951 381.614 164.124 381.441 164.468 381.269C164.986 380.924 166.02 380.924 166.71 381.269C166.882 381.269 167.054 381.614 167.054 381.786Z" fill="#D1B7A3"/>
<path d="M138.781 380.924L137.23 448.663C137.23 449.525 136.54 450.214 135.678 450.214C134.816 450.214 134.126 449.525 134.126 448.663L135.678 381.269L134.299 369.72V369.548C134.299 369.376 134.471 369.203 134.816 369.031C134.816 369.031 134.816 369.031 134.988 369.031L136.368 368.859C136.712 368.859 136.885 369.031 137.057 369.031C137.402 369.203 137.574 369.376 137.574 369.548L138.781 380.924Z" fill="#735F4F"/>
<path d="M137.402 369.376C137.402 369.548 137.23 369.893 136.885 370.065C136.368 370.41 135.333 370.41 134.644 370.065C134.471 369.893 134.299 369.72 134.299 369.548V369.376C134.299 369.203 134.471 369.031 134.816 368.859C134.816 368.859 134.816 368.859 134.988 368.859C135.333 368.686 135.85 368.686 136.368 368.686C136.712 368.686 136.885 368.859 137.057 368.859C137.23 369.031 137.23 369.203 137.402 369.376Z" fill="#D1B7A3"/>
<path d="M235.496 57.0536L237.737 55.6747C238.254 55.5024 238.772 55.5024 239.461 55.8471L237.22 57.226C236.53 56.8813 235.841 56.8813 235.496 57.0536Z" fill="#CED3DE"/>
<path d="M271.699 99.2826L269.458 100.661C269.976 100.489 270.148 99.7997 270.148 99.1102L272.389 97.7313C272.389 98.5931 272.217 99.1102 271.699 99.2826Z" fill="#CED3DE"/>
<path d="M270.148 79.1161L272.389 77.9095V97.7313L270.148 99.1102V79.1161Z" fill="#CED3DE"/>
<path d="M237.22 57.226L239.461 56.0195L269.975 73.6005L267.734 74.9794L237.22 57.226Z" fill="#CED3DE"/>
<path d="M267.734 74.9794L269.975 73.6005C271.355 74.4623 272.389 76.1859 272.389 77.7372L270.148 79.1161C270.148 77.5648 269.114 75.6688 267.734 74.9794Z" fill="#CED3DE"/>
<path d="M267.734 74.9794C269.114 75.8412 270.148 77.5649 270.148 79.1161V99.1103C270.148 100.662 269.114 101.351 267.734 100.489L248.771 89.4579L237.91 95.663V83.2529L237.22 82.7358C235.841 81.8739 234.806 79.978 234.806 78.599V58.6049C234.806 57.0537 235.841 56.3642 237.22 57.226L267.734 74.9794Z" fill="#EFF0F2"/>
<path d="M247.219 81.1845C247.219 82.0463 246.529 82.5634 245.667 82.0463C244.806 81.5292 244.116 80.495 244.116 79.4608C244.116 78.599 244.806 78.0819 245.667 78.599C246.702 79.1161 247.219 80.1503 247.219 81.1845Z" fill="#FF5740"/>
<path d="M251.357 83.5975C251.357 84.4594 250.667 84.9764 249.805 84.4594C248.943 83.9423 248.253 82.9081 248.253 81.8739C248.253 81.0121 248.943 80.495 249.805 81.0121C250.839 81.5292 251.357 82.5634 251.357 83.5975Z" fill="#FF5740"/>
<path d="M255.494 85.8383C255.494 86.7001 254.805 87.2172 253.943 86.7001C253.081 86.183 252.391 85.1488 252.391 84.1146C252.391 83.2528 253.081 82.7357 253.943 83.2528C254.977 83.7699 255.494 84.9764 255.494 85.8383Z" fill="#FF5740"/>
<path d="M259.632 88.2513C259.632 89.1132 258.942 89.6303 258.08 89.1132C257.218 88.5961 256.529 87.5619 256.529 86.5277C256.529 85.6659 257.218 85.1488 258.08 85.6659C259.114 86.183 259.632 87.3895 259.632 88.2513Z" fill="#FF5740"/>
</g>
</g>
<defs>
<filter id="filter0_dd_237_4520" x="0" y="0" width="404.102" height="499" filterUnits="userSpaceOnUse" color-interpolation-filters="sRGB">
<feFlood flood-opacity="0" result="BackgroundImageFix"/>
<feColorMatrix in="SourceAlpha" type="matrix" values="0 0 0 0 0 0 0 0 0 0 0 0 0 0 0 0 0 0 127 0" result="hardAlpha"/>
<feOffset dy="4"/>
<feGaussianBlur stdDeviation="3"/>
<feColorMatrix type="matrix" values="0 0 0 0 0 0 0 0 0 0 0 0 0 0 0 0 0 0 0.05 0"/>
<feBlend mode="normal" in2="BackgroundImageFix" result="effect1_dropShadow_237_4520"/>
<feColorMatrix in="SourceAlpha" type="matrix" values="0 0 0 0 0 0 0 0 0 0 0 0 0 0 0 0 0 0 127 0" result="hardAlpha"/>
<feOffset dy="10"/>
<feGaussianBlur stdDeviation="7.5"/>
<feColorMatrix type="matrix" values="0 0 0 0 0 0 0 0 0 0 0 0 0 0 0 0 0 0 0.1 0"/>
<feBlend mode="normal" in2="effect1_dropShadow_237_4520" result="effect2_dropShadow_237_4520"/>
<feBlend mode="normal" in="SourceGraphic" in2="effect2_dropShadow_237_4520" result="shape"/>
</filter>
<clipPath id="clip0_237_4520">
<rect width="374.102" height="469" fill="white" transform="translate(15 5)"/>
</clipPath>
</defs>
</svg>
