<svg width="18" height="18" viewBox="0 0 18 18" fill="none" xmlns="http://www.w3.org/2000/svg">
<path fill-rule="evenodd" clip-rule="evenodd" d="M4.76375 6.56382C4.93253 6.3951 5.1614 6.30031 5.40005 6.30031C5.6387 6.30031 5.86758 6.3951 6.03635 6.56382L9.00005 9.52752L11.9638 6.56382C12.0468 6.47786 12.1461 6.4093 12.2559 6.36213C12.3657 6.31496 12.4838 6.29013 12.6033 6.2891C12.7228 6.28806 12.8413 6.31083 12.9519 6.35608C13.0625 6.40133 13.163 6.46816 13.2475 6.55267C13.332 6.63717 13.3988 6.73766 13.4441 6.84826C13.4893 6.95887 13.5121 7.07738 13.5111 7.19688C13.51 7.31638 13.4852 7.43448 13.438 7.54429C13.3909 7.65409 13.3223 7.7534 13.2364 7.83642L9.63635 11.4364C9.46758 11.6051 9.2387 11.6999 9.00005 11.6999C8.7614 11.6999 8.53253 11.6051 8.36375 11.4364L4.76375 7.83642C4.59503 7.66765 4.50024 7.43877 4.50024 7.20012C4.50024 6.96147 4.59503 6.7326 4.76375 6.56382Z" fill="#3F3F46"/>
</svg>
